<svg xmlns="http://www.w3.org/2000/svg" viewBox="0 0 80 56.33"><defs><style>.cls-1{fill:#4e0000;}</style></defs><title>Grao-1</title><g id="Layer_2" data-name="Layer 2"><g id="Capa_1" data-name="Capa 1"><path class="cls-1" d="M38.46,17c-5-6.7-12.76-10.23-21.8-10.13a15,15,0,0,0-9.52,3.75,2.12,2.12,0,0,0-.76.67,17.5,17.5,0,0,0-5.19,9L.78,22a33.65,33.65,0,0,0,0,14.46,1.29,1.29,0,0,0,1.91.77,2,2,0,0,0,1.13-2.22,30.46,30.46,0,0,1,0-13.12l.45-1.56A13,13,0,0,1,8,13.71c9.29.12,15.18,7.46,13.56,17.26-1.76,5.72-1.26,11.54,1.36,15.67a13.24,13.24,0,0,0,7.9,5.81,10,10,0,0,1-3.47.66c-7.51,0-14-2.57-18.43-7.7a1.5,1.5,0,0,0-2.17.19,1.75,1.75,0,0,0-.25,2.31A26,26,0,0,0,27,56.32a15.44,15.44,0,0,0,5.79-1.41,17.21,17.21,0,0,0,3.33-2.1,1.94,1.94,0,0,0,.52-.43,18,18,0,0,0,5.84-9.49l.41-1.71C44.77,32,43.23,23.51,38.46,17Zm1,24.24L39.08,43a13.15,13.15,0,0,1-3.74,6.57,11.71,11.71,0,0,1-9.79-5.33c-2.27-3.46-2.49-8.23-1-13.13a.2.2,0,0,0,.11-.22c1.61-10.16-3.53-18.1-12.24-20a10,10,0,0,1,3.41-.7c8.2,0,15.2,3.18,19.7,9.28C39.77,25.32,41.27,33,39.49,41.27Z"/><path class="cls-1" d="M5.4,41a1.23,1.23,0,0,0-1.91-.77,1.91,1.91,0,0,0-1.13,2.22,1.23,1.23,0,0,0,1.91.77A1.91,1.91,0,0,0,5.4,41Z"/><path class="cls-1" d="M77.42,4.47a1.72,1.72,0,0,0-.49-.57A10.83,10.83,0,0,0,70.65.42L69.56.26C56.8-1.66,46.78,7.44,47.21,20.56a11.18,11.18,0,0,0,2.57,6.59,1.68,1.68,0,0,0,.49.56,10.84,10.84,0,0,0,6.29,3.48l1.09.16C70.4,33.28,80.42,24.17,80,11.06A11.17,11.17,0,0,0,77.42,4.47ZM57.54,28.41l-1.09-.16a7.33,7.33,0,0,1-4-2.1c.12-6.22,5-10.35,11.2-9.42,6.56,1,11.69-1.72,13.4-7a6.7,6.7,0,0,1,.08.87C77.5,22.12,68.72,30.09,57.54,28.41ZM69.66,3.2l1.09.16a7.35,7.35,0,0,1,4,2.1c-.13,5.88-4.72,9.29-11.24,8.31-6.3-.95-11.63,2.3-13.38,8a6.59,6.59,0,0,1-.07-.79C49.7,9.5,58.48,1.52,69.66,3.2Z"/></g></g></svg>