<svg xmlns="http://www.w3.org/2000/svg" viewBox="0 0 36.49 28.51"><defs><style>.cls-1{fill:#bd8f3b;}</style></defs><title>Cafeteria</title><g id="Layer_2" data-name="Layer 2"><g id="Capa_1" data-name="Capa 1"><path class="cls-1" d="M35.92,27.37H34.21v-16A2.36,2.36,0,0,0,35.92,9V7.41h0V4h0V1.14A1.14,1.14,0,0,0,34.78,0H1.71A1.14,1.14,0,0,0,.57,1.14V9a2.36,2.36,0,0,0,1.71,2.3v16H.57a.57.57,0,0,0,0,1.14H35.92a.57.57,0,1,0,0-1.14Zm-32.5-16a2.27,2.27,0,0,0,1-.56l.14-.15a2.28,2.28,0,0,0,3.42,0,2.28,2.28,0,0,0,3.42,0,2.28,2.28,0,0,0,3.42,0,2.28,2.28,0,0,0,3.42,0,2.28,2.28,0,0,0,3.42,0l0,0a.56.56,0,0,0,0,.17v12H3.42Zm27.37,2.92V11.33a2.29,2.29,0,0,0,1.14-.7l.14.15a2.26,2.26,0,0,0,1,.55V22.81H30.79Zm2.91-4a1.14,1.14,0,0,1-1.2-1.14V8.79l1.43,1.43ZM32.5,7.18V5.37l2.28,2.28V9a1.3,1.3,0,0,1-.06.37ZM34.78,6,32.5,3.76V1.95l2.28,2.28ZM31.36,4h0V7.41h0V9.12a1.14,1.14,0,1,1-2.28,0V7.41h0V4h0V1.14h2.28Zm-5.7,3.19V5.37l2.28,2.28V9.12a1.13,1.13,0,0,1,0,.29ZM27.94,6,25.66,3.76V1.95l2.28,2.28ZM25.66,8.79l1.43,1.43a1.14,1.14,0,0,1-1.43-1.1Zm2.28-6.17L26.47,1.14h1.47ZM24.52,4h0V7.41h0V9.12a1.14,1.14,0,1,1-2.28,0V7.41h0V4h0V1.14h2.28Zm-5.7,3.19V5.37L21.1,7.65V9.12a1.13,1.13,0,0,1,0,.29ZM21.1,6,18.82,3.76V1.95L21.1,4.23ZM18.82,8.79l1.43,1.43a1.14,1.14,0,0,1-1.43-1.1ZM21.1,2.61,19.62,1.14H21.1ZM17.68,4h0V7.41h0V9.12a1.14,1.14,0,1,1-2.28,0V7.41h0V4h0V1.14h2.28ZM12,7.18V5.37l2.28,2.28V9.12a1.13,1.13,0,0,1,0,.29ZM14.26,6,12,3.76V1.95l2.28,2.28ZM12,8.79l1.43,1.43A1.14,1.14,0,0,1,12,9.12Zm2.28-6.17L12.78,1.14h1.47ZM10.83,4h0V7.41h0V9.12a1.14,1.14,0,1,1-2.28,0V7.41h0V4h0V1.14h2.28ZM7.41,6,5.13,3.76V1.95L7.41,4.23Zm0,1.61V9.12a1.13,1.13,0,0,1,0,.29L5.13,7.18V5.37ZM5.13,8.79l1.43,1.43a1.14,1.14,0,0,1-1.43-1.1ZM7.41,2.61,5.94,1.14H7.41Zm15.4,8.72a2.28,2.28,0,0,0,2.28-.7,2.28,2.28,0,0,0,3.42,0,2.29,2.29,0,0,0,1.14.7v2.35H22.81Zm8,12.62h2.28v1.14H32.5a.57.57,0,0,0,0,1.14h.57v1.14H30.79Zm4-21.33L33.31,1.14h1.47ZM1.71,9V1.14H4V4H4V7.41H4V9.12a1.14,1.14,0,0,1-1.2,1.14A1.21,1.21,0,0,1,1.71,9Zm1.71,17.2H20a.57.57,0,1,0,0-1.14H3.42V23.95H21.67v3.42H3.42Zm19.39,1.14V14.83h6.84V27.37Z"/><path class="cls-1" d="M23.95,20a.57.57,0,0,0-.57.57v1.14a.57.57,0,1,0,1.14,0V20.53A.57.57,0,0,0,23.95,20Z"/><path class="cls-1" d="M7.82,12.71a.57.57,0,0,0-.81.81l8,8a.57.57,0,0,0,.81-.81Z"/><path class="cls-1" d="M12.95,14.42a.57.57,0,0,0-.81.81l4.56,4.56a.57.57,0,0,0,.81-.81Z"/></g></g></svg>