<svg xmlns="http://www.w3.org/2000/svg" viewBox="0 0 21.12 30"><defs><style>.cls-1{fill:#4e0000;}</style></defs><title>pin</title><g id="Layer_2" data-name="Layer 2"><g id="Capa_1" data-name="Capa 1"><path class="cls-1" d="M10.66,6.49a4,4,0,1,0,4,4A4,4,0,0,0,10.66,6.49Zm0,6.49a2.52,2.52,0,1,1,2.52-2.52A2.52,2.52,0,0,1,10.66,13Z"/><path class="cls-1" d="M18,3.09a10.56,10.56,0,0,0-14.94,0c-3.69,3.69-4.15,10.62-1,14.82l8.31,12a.19.19,0,0,0,.31,0l8.3-12C22.18,13.72,21.72,6.78,18,3.09ZM10.56,27.58,3.28,17.06A10.48,10.48,0,0,1,4.12,4.12,9.11,9.11,0,0,1,17,4.12a10.5,10.5,0,0,1,.83,13Z"/></g></g></svg>