<svg xmlns="http://www.w3.org/2000/svg" xmlns:xlink="http://www.w3.org/1999/xlink" viewBox="0 0 18.72 18.72"><defs><style>.cls-1{isolation:isolate;}.cls-2{fill:#c78542;}.cls-3{opacity:0.4;fill:url(#linear-gradient);}.cls-10,.cls-11,.cls-12,.cls-3,.cls-4,.cls-6,.cls-7,.cls-8,.cls-9{mix-blend-mode:multiply;}.cls-10,.cls-11,.cls-12,.cls-4,.cls-6,.cls-7,.cls-8,.cls-9{opacity:0.5;}.cls-4{fill:url(#linear-gradient-2);}.cls-5{fill:#fff;}.cls-6{fill:url(#linear-gradient-3);}.cls-7{fill:url(#linear-gradient-4);}.cls-8{fill:url(#linear-gradient-5);}.cls-9{fill:url(#linear-gradient-6);}.cls-10{fill:url(#linear-gradient-7);}.cls-11{fill:url(#linear-gradient-8);}.cls-12{fill:url(#linear-gradient-9);}</style><linearGradient id="linear-gradient" x1="4.72" y1="5.36" x2="14.79" y2="14.26" gradientUnits="userSpaceOnUse"><stop offset="0"/><stop offset="0.02" stop-color="#060606"/><stop offset="0.3" stop-color="#5d5d5d"/><stop offset="0.55" stop-color="#a2a2a2"/><stop offset="0.76" stop-color="#d5d5d5"/><stop offset="0.91" stop-color="#f3f3f3"/><stop offset="1" stop-color="#fff"/></linearGradient><linearGradient id="linear-gradient-2" x1="14.33" y1="4.88" x2="15.89" y2="6.08" gradientUnits="userSpaceOnUse"><stop offset="0"/><stop offset="0.14" stop-color="#2e2e2e"/><stop offset="0.38" stop-color="#777"/><stop offset="0.59" stop-color="#b1b1b1"/><stop offset="0.77" stop-color="#dcdcdc"/><stop offset="0.92" stop-color="#f5f5f5"/><stop offset="1" stop-color="#fff"/></linearGradient><linearGradient id="linear-gradient-3" x1="5.38" y1="4.12" x2="6.41" y2="4.7" gradientUnits="userSpaceOnUse"><stop offset="0"/><stop offset="0.05" stop-color="#171717"/><stop offset="0.2" stop-color="#545454"/><stop offset="0.35" stop-color="#888"/><stop offset="0.5" stop-color="#b3b3b3"/><stop offset="0.64" stop-color="#d4d4d4"/><stop offset="0.77" stop-color="#ececec"/><stop offset="0.9" stop-color="#fafafa"/><stop offset="1" stop-color="#fff"/></linearGradient><linearGradient id="linear-gradient-4" x1="3.36" y1="13.96" x2="4.66" y2="14.53" xlink:href="#linear-gradient"/><linearGradient id="linear-gradient-5" x1="14.52" y1="12.27" x2="15.54" y2="12.72" xlink:href="#linear-gradient"/><linearGradient id="linear-gradient-6" x1="2.21" y1="7.82" x2="2.57" y2="7.97" xlink:href="#linear-gradient"/><linearGradient id="linear-gradient-7" x1="4.6" y1="10.53" x2="4.95" y2="10.69" xlink:href="#linear-gradient"/><linearGradient id="linear-gradient-8" x1="11.68" y1="15.06" x2="12.03" y2="15.21" xlink:href="#linear-gradient"/><linearGradient id="linear-gradient-9" x1="13.48" y1="8.75" x2="13.84" y2="8.91" xlink:href="#linear-gradient"/></defs><title>caramelo</title><g class="cls-1"><g id="Layer_2" data-name="Layer 2"><g id="Capa_1" data-name="Capa 1"><circle class="cls-2" cx="9.36" cy="9.36" r="9.36"/><path class="cls-3" d="M6.84,14.34l5.36,3.94a10.14,10.14,0,0,0,4.59-3.22c2-2.48,1.85-4.41,1.85-4.41L14.33,6.8l-.75-.45L12.74,6l-.33-.75-.52-.61-.82,2.23a3,3,0,0,0-3.93.64,3,3,0,0,0-.29,3.48l-2.21.85a3.37,3.37,0,0,0,.5.9c.23.2.58,0,.58,0a4.61,4.61,0,0,0,.58,1C6.55,14,6.84,14.34,6.84,14.34Z"/><polygon class="cls-4" points="14.81 5.78 15.94 6.57 16.35 5.91 14.97 4.92 14.81 5.06 14.63 5.35 14.81 5.78"/><path class="cls-5" d="M15,5.78l.35-.35V5.27L15,4.92h-.16l-.35.35v.16l.35.35Zm-.08-.61.18.18-.18.18-.18-.18Z"/><polygon class="cls-6" points="5.71 4.93 6.58 5.42 7.13 4.48 5.71 3.77 5.71 4.12 5.37 4.35 5.71 4.6 5.71 4.93"/><path class="cls-5" d="M5.25,4.47a.34.34,0,0,1,.35.35.12.12,0,0,0,.23,0,.34.34,0,0,1,.35-.35.12.12,0,1,0,0-.23.34.34,0,0,1-.35-.35.12.12,0,1,0-.23,0,.34.34,0,0,1-.35.35.12.12,0,1,0,0,.23Zm.46-.23a.55.55,0,0,0,.12.12.55.55,0,0,0-.12.12.54.54,0,0,0-.12-.12A.55.55,0,0,0,5.71,4.24Z"/><polygon class="cls-7" points="3.82 14.55 4.89 15.17 5.25 14.51 3.98 13.69 3.58 14.12 3.82 14.55"/><path class="cls-5" d="M4,14.55l.35-.35V14L4,13.69H3.82L3.47,14v.16l.35.35Zm-.08-.61.18.18-.18.18-.18-.18Z"/><polygon class="cls-8" points="14.79 12.67 15.74 13.23 16.02 12.64 14.87 12 14.79 12.67"/><path class="cls-5" d="M14.64,12.46h.12v.12a.12.12,0,1,0,.23,0v-.12h.12a.12.12,0,0,0,0-.23H15v-.12a.12.12,0,0,0-.23,0v.12h-.12a.12.12,0,1,0,0,.23Z"/><polygon class="cls-9" points="2.25 7.92 2.62 8.15 2.74 7.94 2.36 7.72 2.25 7.92"/><path class="cls-5" d="M2.31,7.94a.12.12,0,1,0-.12-.12A.11.11,0,0,0,2.31,7.94Z"/><polygon class="cls-10" points="4.63 10.64 5.01 10.87 5.12 10.65 4.75 10.44 4.63 10.64"/><path class="cls-5" d="M4.68,10.65a.12.12,0,1,0-.12-.12A.11.11,0,0,0,4.68,10.65Z"/><polygon class="cls-11" points="11.71 15.16 12.09 15.39 12.2 15.18 11.82 14.96 11.71 15.16"/><path class="cls-5" d="M11.77,15.18a.12.12,0,1,0-.12-.12A.11.11,0,0,0,11.77,15.18Z"/><polygon class="cls-12" points="13.52 8.86 13.89 9.09 14.01 8.88 13.63 8.66 13.52 8.86"/><path class="cls-5" d="M13.58,8.88a.12.12,0,1,0-.12-.12A.11.11,0,0,0,13.58,8.88Z"/><path class="cls-5" d="M14.33,6.8s0,0,0,0h0a2.82,2.82,0,0,0-.5-.71A1.67,1.67,0,0,0,13,5.73a2.15,2.15,0,0,0-.37-.84,1.49,1.49,0,0,0-.73-.5.18.18,0,0,0-.21.12L11,6.72a3.08,3.08,0,0,0-2.39-.37,3,3,0,0,0-.85.38,3.09,3.09,0,0,0-1,4.23l-2.22.71a.18.18,0,0,0-.11.25,2.82,2.82,0,0,0,.51.71,1.67,1.67,0,0,0,.84.37,2.15,2.15,0,0,0,.37.84,1.49,1.49,0,0,0,.73.5.18.18,0,0,0,.21-.12L7.76,12A3.09,3.09,0,0,0,12,7.76l2.22-.7A.18.18,0,0,0,14.33,6.8ZM6.77,13.93a1.3,1.3,0,0,1-.39-.32,2,2,0,0,1-.32-.8.18.18,0,0,0-.16-.15,1.46,1.46,0,0,1-.75-.29,2.29,2.29,0,0,1-.33-.43l2.1-.67.53.53Zm5.32-4.57A2.73,2.73,0,1,1,7.43,7.43a2.76,2.76,0,0,1,1.9-.81,2.88,2.88,0,0,1,2,.88A2.71,2.71,0,0,1,12.09,9.36Zm-.28-1.92-.26-.27-.26-.26L12,4.79a1.3,1.3,0,0,1,.39.32,2,2,0,0,1,.32.8.18.18,0,0,0,.16.15,1.46,1.46,0,0,1,.75.29,2.28,2.28,0,0,1,.33.43Z"/><path class="cls-5" d="M7.66,11.55a.91.91,0,0,0,.28-.68c0-.14,0-.28.09-.33s.14,0,.29,0A.8.8,0,0,0,9,10.45a.86.86,0,0,0,.27-.66c0-.18,0-.3.11-.36s.18-.05.36,0a.88.88,0,0,0,.72-.14.9.9,0,0,0,.26-.71c0-.18,0-.29.08-.34s.17,0,.34,0a.85.85,0,0,0,.72-.12.25.25,0,0,0-.32-.38c-.05,0-.16,0-.33,0a.86.86,0,0,0-.73.12.87.87,0,0,0-.26.69c0,.18,0,.3-.09.36s-.17,0-.34,0a.91.91,0,0,0-.73.14.93.93,0,0,0-.28.69c0,.17,0,.27-.09.32s-.14,0-.29,0a.8.8,0,0,0-.69.09.88.88,0,0,0-.28.67c0,.18,0,.29-.1.34a.25.25,0,1,0,.31.39Z"/></g></g></g></svg>