<svg xmlns="http://www.w3.org/2000/svg" xmlns:xlink="http://www.w3.org/1999/xlink" viewBox="0 0 39.78 39.78"><defs><style>.cls-1{isolation:isolate;}.cls-2{fill:#c78542;}.cls-10,.cls-11,.cls-3,.cls-5,.cls-6,.cls-7,.cls-8,.cls-9{opacity:0.5;mix-blend-mode:multiply;}.cls-3{fill:url(#linear-gradient);}.cls-4{fill:#fff;}.cls-5{fill:url(#linear-gradient-2);}.cls-6{fill:url(#linear-gradient-3);}.cls-7{fill:url(#linear-gradient-4);}.cls-8{fill:url(#linear-gradient-5);}.cls-9{fill:url(#linear-gradient-6);}.cls-10{fill:url(#linear-gradient-7);}.cls-11{fill:url(#linear-gradient-8);}</style><linearGradient id="linear-gradient" x1="30.46" y1="10.37" x2="33.76" y2="12.92" gradientUnits="userSpaceOnUse"><stop offset="0"/><stop offset="0.14" stop-color="#2e2e2e"/><stop offset="0.38" stop-color="#777"/><stop offset="0.59" stop-color="#b1b1b1"/><stop offset="0.77" stop-color="#dcdcdc"/><stop offset="0.92" stop-color="#f5f5f5"/><stop offset="1" stop-color="#fff"/></linearGradient><linearGradient id="linear-gradient-2" x1="11.43" y1="8.76" x2="13.61" y2="9.98" gradientUnits="userSpaceOnUse"><stop offset="0"/><stop offset="0.05" stop-color="#171717"/><stop offset="0.2" stop-color="#545454"/><stop offset="0.35" stop-color="#888"/><stop offset="0.5" stop-color="#b3b3b3"/><stop offset="0.64" stop-color="#d4d4d4"/><stop offset="0.77" stop-color="#ececec"/><stop offset="0.9" stop-color="#fafafa"/><stop offset="1" stop-color="#fff"/></linearGradient><linearGradient id="linear-gradient-3" x1="7.14" y1="29.67" x2="9.91" y2="30.88" gradientUnits="userSpaceOnUse"><stop offset="0"/><stop offset="0.02" stop-color="#060606"/><stop offset="0.3" stop-color="#5d5d5d"/><stop offset="0.55" stop-color="#a2a2a2"/><stop offset="0.76" stop-color="#d5d5d5"/><stop offset="0.91" stop-color="#f3f3f3"/><stop offset="1" stop-color="#fff"/></linearGradient><linearGradient id="linear-gradient-4" x1="30.86" y1="26.08" x2="33.01" y2="27.02" xlink:href="#linear-gradient-3"/><linearGradient id="linear-gradient-5" x1="4.7" y1="16.61" x2="5.46" y2="16.94" xlink:href="#linear-gradient-3"/><linearGradient id="linear-gradient-6" x1="9.76" y1="22.38" x2="10.52" y2="22.7" xlink:href="#linear-gradient-3"/><linearGradient id="linear-gradient-7" x1="24.81" y1="31.99" x2="25.56" y2="32.32" xlink:href="#linear-gradient-3"/><linearGradient id="linear-gradient-8" x1="28.65" y1="18.6" x2="29.4" y2="18.93" xlink:href="#linear-gradient-3"/></defs><title>caramelo</title><g class="cls-1"><g id="Layer_2" data-name="Layer 2"><g id="Capa_1" data-name="Capa 1"><circle class="cls-2" cx="19.89" cy="19.89" r="19.89"/><polygon class="cls-3" points="31.47 12.27 33.86 13.96 34.74 12.56 31.81 10.46 31.47 10.76 31.07 11.36 31.47 12.27"/><path class="cls-4" d="M31.81,12.27l.74-.74v-.34l-.74-.74h-.34l-.74.74v.34l.74.74ZM31.64,11l.39.39-.39.39-.39-.39Z"/><polygon class="cls-5" points="12.13 10.48 13.97 11.52 15.16 9.52 12.13 8.02 12.13 8.76 11.4 9.25 12.13 9.77 12.13 10.48"/><path class="cls-4" d="M11.15,9.49a.72.72,0,0,1,.74.74.25.25,0,0,0,.49,0,.72.72,0,0,1,.74-.74.25.25,0,0,0,0-.49.72.72,0,0,1-.74-.74.25.25,0,1,0-.49,0,.72.72,0,0,1-.74.74.25.25,0,1,0,0,.49Zm1-.49a1.16,1.16,0,0,0,.25.25,1.16,1.16,0,0,0-.25.25,1.17,1.17,0,0,0-.25-.25A1.17,1.17,0,0,0,12.13,9Z"/><polygon class="cls-6" points="8.12 30.91 10.38 32.24 11.16 30.82 8.46 29.09 7.61 30 8.12 30.91"/><path class="cls-4" d="M8.46,30.91l.74-.74v-.34l-.74-.74H8.12l-.74.74v.34l.74.74Zm-.17-1.3.39.39-.39.39L7.9,30Z"/><polygon class="cls-7" points="31.43 26.92 33.44 28.11 34.03 26.86 31.59 25.49 31.43 26.92"/><path class="cls-4" d="M31.1,26.48h.25v.25a.25.25,0,1,0,.49,0v-.25h.25a.25.25,0,1,0,0-.49h-.25v-.25a.25.25,0,0,0-.49,0V26H31.1a.25.25,0,1,0,0,.49Z"/><polygon class="cls-8" points="4.77 16.84 5.58 17.33 5.82 16.87 5.02 16.41 4.77 16.84"/><path class="cls-4" d="M4.9,16.87a.25.25,0,1,0-.25-.25A.23.23,0,0,0,4.9,16.87Z"/><polygon class="cls-9" points="9.83 22.6 10.64 23.09 10.88 22.64 10.08 22.18 9.83 22.6"/><path class="cls-4" d="M9.95,22.64a.25.25,0,1,0-.25-.25A.23.23,0,0,0,9.95,22.64Z"/><polygon class="cls-10" points="24.87 32.22 25.68 32.71 25.92 32.26 25.12 31.8 24.87 32.22"/><path class="cls-4" d="M25,32.25a.25.25,0,1,0-.25-.25A.23.23,0,0,0,25,32.25Z"/><polygon class="cls-11" points="28.72 18.83 29.52 19.32 29.77 18.86 28.97 18.4 28.72 18.83"/><path class="cls-4" d="M28.85,18.86a.25.25,0,1,0-.25-.25A.23.23,0,0,0,28.85,18.86Z"/><path class="cls-4" d="M30.44,14.46s0,.07,0,0h0A6,6,0,0,0,29.37,13a3.56,3.56,0,0,0-1.78-.78,4.56,4.56,0,0,0-.78-1.79,3.17,3.17,0,0,0-1.56-1.07.38.38,0,0,0-.45.25l-1.5,4.72a6.55,6.55,0,0,0-5.08-.78,6.26,6.26,0,0,0-1.8.8,6.57,6.57,0,0,0-2.14,9L9.57,24.8a.38.38,0,0,0-.23.53,6,6,0,0,0,1.07,1.5,3.56,3.56,0,0,0,1.78.78A4.57,4.57,0,0,0,13,29.4a3.17,3.17,0,0,0,1.56,1.07.38.38,0,0,0,.45-.25l1.5-4.72a6.56,6.56,0,0,0,9-9L30.22,15A.38.38,0,0,0,30.44,14.46ZM14.38,29.6a2.77,2.77,0,0,1-.83-.68,4.3,4.3,0,0,1-.67-1.7.38.38,0,0,0-.34-.32,3.11,3.11,0,0,1-1.6-.61,4.86,4.86,0,0,1-.7-.9L14.69,24l1.12,1.12Zm11.31-9.71a5.8,5.8,0,1,1-9.91-4.1,5.86,5.86,0,0,1,4-1.73,6.11,6.11,0,0,1,4.31,1.87A5.76,5.76,0,0,1,25.69,19.89Zm-.6-4.07-.56-.57L24,14.69l1.43-4.5a2.77,2.77,0,0,1,.83.68,4.3,4.3,0,0,1,.67,1.7.38.38,0,0,0,.34.32,3.11,3.11,0,0,1,1.6.61,4.86,4.86,0,0,1,.7.9Z"/><path class="cls-4" d="M16.28,24.54a1.93,1.93,0,0,0,.6-1.44c0-.31.06-.59.19-.7s.3-.05.62,0a1.7,1.7,0,0,0,1.46-.2,1.84,1.84,0,0,0,.58-1.4c0-.39.07-.63.22-.76s.39-.11.77-.07a1.87,1.87,0,0,0,1.52-.3,1.92,1.92,0,0,0,.55-1.51c0-.38,0-.61.16-.72s.37-.07.72,0a1.8,1.8,0,0,0,1.53-.25.52.52,0,0,0-.67-.8c-.11.09-.35.07-.7,0a1.83,1.83,0,0,0-1.55.25,1.86,1.86,0,0,0-.54,1.48c0,.39,0,.64-.18.76s-.37.1-.73.06a1.93,1.93,0,0,0-1.55.3,2,2,0,0,0-.6,1.46c0,.36-.06.58-.18.67s-.3.05-.62,0a1.7,1.7,0,0,0-1.46.2A1.88,1.88,0,0,0,15.83,23c0,.38-.07.62-.21.73a.53.53,0,1,0,.66.82Z"/></g></g></g></svg>