<svg xmlns="http://www.w3.org/2000/svg" viewBox="0 0 64 40"><defs><style>.cls-1{fill:#0078a9;}.cls-2{fill:#fff;}</style></defs><title>Amex</title><g id="Layer_2" data-name="Layer 2"><g id="Layer_1-2" data-name="Layer 1"><rect class="cls-1" width="64" height="40" rx="2.13" ry="2.13"/><path class="cls-2" d="M19.86,19.07v-.64l-.31.64H16.9l-.33-.69v.69h-5L11,17.68H10l-.62,1.39H6.85V14.89l1.88-4.26h3.6l.51,1.21v-1.2h4.41l1,2,.95-2H33.09A2.37,2.37,0,0,1,34.3,11v-.33H37.8v.46a2.86,2.86,0,0,1,1.56-.46h6.19l.54,1.22V10.63h4l.72,1.22V10.63h3.79v8.45H50.67l-.91-1.47v1.46H44.92l-.68-1.51h-.95l-.64,1.51H39.72a3.79,3.79,0,0,1-1.91-.6v.6H32v-2c0-.29-.22-.27-.22-.27h-.21v2.24Z"/><path class="cls-2" d="M16.95,20.9h7.66l1.11,1.25,1.13-1.25h5.89a2.71,2.71,0,0,1,1.08.29V20.9h5.25a2.68,2.68,0,0,1,1.22.33V20.9H47v.31a2.29,2.29,0,0,1,1.13-.31h4.39v.31a2.68,2.68,0,0,1,1.14-.31h3.45v8a1.9,1.9,0,0,1-1.39.51H51.2v-.25a2.33,2.33,0,0,1-1.09.25H38V27.32c0-.2-.09-.24-.27-.24h-.17v2.3H33.82V27.09a2.54,2.54,0,0,1-1.12.23H31.34v2.06H26.69l-1.06-1.29L24.5,29.37H16.95Z"/><polygon class="cls-1" points="41.09 22.17 45.9 22.17 45.9 23.46 42.57 23.46 42.57 24.58 45.81 24.58 45.81 25.72 42.57 25.72 42.57 26.9 45.9 26.9 45.9 28.16 41.09 28.16 41.09 22.17"/><path class="cls-1" d="M55.19,24.5c1.81.09,2,1,2,2a1.75,1.75,0,0,1-1.89,1.73H52.18V26.9h2.41c.41,0,1,0,1-.58,0-.27-.11-.45-.54-.49-.19,0-.91-.07-1-.07-1.63,0-2-.86-2-1.84a1.65,1.65,0,0,1,1.75-1.74h3.09v1.28H54.61c-.51,0-1.07-.06-1.07.52,0,.37.27.44.62.48Z"/><path class="cls-1" d="M49.65,24.5c1.81.09,2,1,2,2a1.75,1.75,0,0,1-1.89,1.73H46.64V26.9H49c.41,0,1,0,1-.58,0-.27-.11-.45-.54-.49-.19,0-.91-.07-1-.07-1.63,0-2-.86-2-1.84a1.65,1.65,0,0,1,1.75-1.74h3.09v1.28H49.07c-.52,0-1.07-.06-1.07.52,0,.37.28.44.62.48Z"/><path class="cls-1" d="M32.22,22.18H27.06L25.37,24l-1.63-1.87h-5.8v6h5.61l1.77-2,1.72,2h2.82v-2h2c.76,0,2.15,0,2.15-2.13A1.66,1.66,0,0,0,32.22,22.18ZM22.78,26.9H19.39V25.72h3.24V24.58H19.39V23.46H23L24.4,25.1Zm5.62.7-2.11-2.5,2.11-2.34Zm3.32-2.69H29.89V23.47h1.84a.72.72,0,1,1,0,1.44Z"/><path class="cls-1" d="M39.32,25.44a1.63,1.63,0,0,0,1-1.66,1.58,1.58,0,0,0-1.76-1.6H34.75v6h1.47V26.06h1.93c.51,0,.71.51.72,1l0,1.1h1.43l-.05-1.23C40.28,26,40,25.52,39.32,25.44Zm-1.27-.62H36.22V23.47h1.84a.71.71,0,0,1,.81.69C38.87,24.56,38.65,24.82,38.05,24.82Z"/><rect class="cls-1" x="35.34" y="11.83" width="1.47" height="6"/><polygon class="cls-1" points="23.3 11.83 28.11 11.83 28.11 13.12 24.77 13.12 24.77 14.25 28.01 14.25 28.01 15.38 24.77 15.38 24.77 16.57 28.11 16.57 28.11 17.82 23.3 17.82 23.3 11.83"/><path class="cls-1" d="M33.55,15.1a1.63,1.63,0,0,0,1-1.66,1.58,1.58,0,0,0-1.76-1.6H29v6h1.47V15.71h1.93c.51,0,.71.51.72,1l0,1.1h1.43l-.05-1.23C34.51,15.63,34.25,15.18,33.55,15.1Zm-1.27-.62H30.45V13.12h1.84a.71.71,0,0,1,.81.69C33.1,14.21,32.88,14.48,32.28,14.48Z"/><path class="cls-1" d="M19.91,11.83l-1.8,4-1.8-4H14V17.6l-2.57-5.77H9.48l-2.62,6H8.41L9,16.49h2.94l.58,1.34h3V13.38l2,4.45h1.34l2-4.37v4.37h1.47v-6ZM9.54,15.19l.88-2.09.91,2.09Z"/><path class="cls-1" d="M52,11.83V16l-2.48-4.15H47.33v5.63l-2.51-5.62H42.88l-2,4.64s-.86,0-.94,0c-.35-.07-.91-.32-.91-1.38v-.43c0-1.4.76-1.51,1.74-1.51h.91v-1.3H39.72c-.67,0-2.12.51-2.17,3,0,1.66.69,3,2.32,3h1.94l.57-1.34h2.93l.58,1.34h2.9V13.44l2.65,4.39h2v-6ZM43,15.2l.88-2.09.92,2.09Z"/></g></g></svg>