<svg xmlns="http://www.w3.org/2000/svg" xmlns:xlink="http://www.w3.org/1999/xlink" viewBox="0 0 18.72 18.72"><defs><style>.cls-1{isolation:isolate;}.cls-2{fill:#75823a;}.cls-10,.cls-11,.cls-3,.cls-5,.cls-6,.cls-7,.cls-8,.cls-9{opacity:0.5;}.cls-10,.cls-11,.cls-12,.cls-3,.cls-5,.cls-6,.cls-7,.cls-8,.cls-9{mix-blend-mode:multiply;}.cls-3{fill:url(#linear-gradient);}.cls-4{fill:#fff;}.cls-5{fill:url(#linear-gradient-2);}.cls-6{fill:url(#linear-gradient-3);}.cls-7{fill:url(#linear-gradient-4);}.cls-8{fill:url(#linear-gradient-5);}.cls-9{fill:url(#linear-gradient-6);}.cls-10{fill:url(#linear-gradient-7);}.cls-11{fill:url(#linear-gradient-8);}.cls-12{opacity:0.4;fill:url(#linear-gradient-9);}</style><linearGradient id="linear-gradient" x1="16.02" y1="9.4" x2="17.57" y2="10.6" gradientUnits="userSpaceOnUse"><stop offset="0"/><stop offset="0.14" stop-color="#2e2e2e"/><stop offset="0.38" stop-color="#777"/><stop offset="0.59" stop-color="#b1b1b1"/><stop offset="0.77" stop-color="#dcdcdc"/><stop offset="0.92" stop-color="#f5f5f5"/><stop offset="1" stop-color="#fff"/></linearGradient><linearGradient id="linear-gradient-2" x1="10.97" y1="15.99" x2="12" y2="16.57" gradientUnits="userSpaceOnUse"><stop offset="0"/><stop offset="0.05" stop-color="#171717"/><stop offset="0.2" stop-color="#545454"/><stop offset="0.35" stop-color="#888"/><stop offset="0.5" stop-color="#b3b3b3"/><stop offset="0.64" stop-color="#d4d4d4"/><stop offset="0.77" stop-color="#ececec"/><stop offset="0.9" stop-color="#fafafa"/><stop offset="1" stop-color="#fff"/></linearGradient><linearGradient id="linear-gradient-3" x1="2.05" y1="11.14" x2="3.35" y2="11.7" gradientUnits="userSpaceOnUse"><stop offset="0"/><stop offset="0.02" stop-color="#060606"/><stop offset="0.3" stop-color="#5d5d5d"/><stop offset="0.55" stop-color="#a2a2a2"/><stop offset="0.76" stop-color="#d5d5d5"/><stop offset="0.91" stop-color="#f3f3f3"/><stop offset="1" stop-color="#fff"/></linearGradient><linearGradient id="linear-gradient-4" x1="4.25" y1="4.32" x2="5.26" y2="4.76" xlink:href="#linear-gradient-3"/><linearGradient id="linear-gradient-5" x1="2.53" y1="7.55" x2="2.88" y2="7.7" xlink:href="#linear-gradient-3"/><linearGradient id="linear-gradient-6" x1="16.33" y1="5.57" x2="16.68" y2="5.73" xlink:href="#linear-gradient-3"/><linearGradient id="linear-gradient-7" x1="14.44" y1="12.84" x2="14.8" y2="13" xlink:href="#linear-gradient-3"/><linearGradient id="linear-gradient-8" x1="10.62" y1="1.95" x2="10.98" y2="2.11" xlink:href="#linear-gradient-3"/><linearGradient id="linear-gradient-9" x1="4.4" y1="5.07" x2="14.31" y2="13.29" xlink:href="#linear-gradient-3"/></defs><title>especiarias</title><g class="cls-1"><g id="Layer_2" data-name="Layer 2"><g id="Capa_1" data-name="Capa 1"><circle class="cls-2" cx="9.36" cy="9.36" r="9.36"/><polygon class="cls-3" points="16.5 10.3 17.62 11.09 18.03 10.43 16.66 9.44 16.5 9.58 16.31 9.87 16.5 10.3"/><path class="cls-4" d="M16.66,10.3,17,10V9.79l-.35-.35h-.16l-.35.35V10l.35.35Zm-.08-.61.18.18-.18.18-.18-.18Z"/><polygon class="cls-5" points="11.3 16.8 12.17 17.29 12.72 16.36 11.3 15.65 11.3 15.99 10.96 16.23 11.3 16.47 11.3 16.8"/><path class="cls-4" d="M10.84,16.34a.34.34,0,0,1,.35.35.12.12,0,0,0,.23,0,.34.34,0,0,1,.35-.35.12.12,0,0,0,0-.23.34.34,0,0,1-.35-.35.12.12,0,1,0-.23,0,.34.34,0,0,1-.35.35.12.12,0,0,0,0,.23Zm.46-.23a.55.55,0,0,0,.12.12.55.55,0,0,0-.12.12.55.55,0,0,0-.12-.12A.55.55,0,0,0,11.3,16.11Z"/><polygon class="cls-6" points="2.51 11.72 3.58 12.34 3.94 11.68 2.67 10.87 2.27 11.29 2.51 11.72"/><path class="cls-4" d="M2.67,11.72,3,11.37v-.16l-.35-.35H2.51l-.35.35v.16l.35.35Zm-.08-.61.18.19-.18.18-.18-.18Z"/><polygon class="cls-7" points="4.52 4.72 5.47 5.28 5.74 4.69 4.59 4.05 4.52 4.72"/><path class="cls-4" d="M4.36,4.51h.12v.12a.12.12,0,1,0,.23,0V4.51h.12a.12.12,0,1,0,0-.23H4.71V4.16a.12.12,0,0,0-.23,0v.12H4.36a.12.12,0,0,0,0,.23Z"/><polygon class="cls-8" points="2.56 7.65 2.94 7.88 3.05 7.67 2.68 7.45 2.56 7.65"/><path class="cls-4" d="M2.62,7.67a.12.12,0,1,0-.12-.12A.11.11,0,0,0,2.62,7.67Z"/><polygon class="cls-9" points="16.36 5.68 16.74 5.91 16.85 5.69 16.48 5.48 16.36 5.68"/><path class="cls-4" d="M16.41,5.69a.12.12,0,1,0-.12-.12A.11.11,0,0,0,16.41,5.69Z"/><polygon class="cls-10" points="14.47 12.95 14.85 13.18 14.97 12.97 14.59 12.75 14.47 12.95"/><path class="cls-4" d="M14.53,13a.12.12,0,1,0-.12-.12A.11.11,0,0,0,14.53,13Z"/><polygon class="cls-11" points="10.65 2.06 11.03 2.29 11.15 2.07 10.77 1.86 10.65 2.06"/><path class="cls-4" d="M10.72,2.07A.12.12,0,1,0,10.6,2,.11.11,0,0,0,10.72,2.07Z"/><path class="cls-12" d="M5.62,12.73l6.62,5.54a12.11,12.11,0,0,0,4.36-3,14.49,14.49,0,0,0,2.07-5l-6-5-1,.33-1,.76-.6.52.14-1.28L9.36,4.39l-.29.52-.15.54-.17.79L8.65,7.44A8.87,8.87,0,0,0,7.73,6a4.59,4.59,0,0,0-1.45-.68l0,.35a5.07,5.07,0,0,0,.43,1.63A10,10,0,0,0,8,8.34a5.55,5.55,0,0,0-2.35,0,3.47,3.47,0,0,0-1.1.5,1.83,1.83,0,0,0,1.22.8c.87.17,1.66.25,1.66.25S6.24,10.32,6,11.14s-.4,1.43-.4,1.43Z"/><path class="cls-4" d="M14.43,8.68a6.15,6.15,0,0,0-2.19-.62l-.28,0-.5.09c.24-.23.52-.5.71-.7a4.13,4.13,0,0,0,.62-2,.17.17,0,0,0-.05-.13.17.17,0,0,0-.14,0,3.23,3.23,0,0,0-2,1.14l-.17.24a5.05,5.05,0,0,0,0-.51,3.61,3.61,0,0,0-.9-1.92.17.17,0,0,0-.28,0,5.55,5.55,0,0,0-.65,2.13c0,.23,0,.43,0,.6a8.94,8.94,0,0,0-.53-.81,4.61,4.61,0,0,0-1.77-1,.17.17,0,0,0-.23.16,4,4,0,0,0,.6,2.23,4.15,4.15,0,0,0,.62.61A4.9,4.9,0,0,0,6.53,8a6.42,6.42,0,0,0-2.23.6.17.17,0,0,0,0,.28,4.48,4.48,0,0,0,1.88,1,7,7,0,0,0,.71,0,2.1,2.1,0,0,0-.7.62,5.27,5.27,0,0,0-.74,2,.17.17,0,0,0,.21.19,9.46,9.46,0,0,0,2.07-.79,3.9,3.9,0,0,0,.72-.64,3.15,3.15,0,0,0,0,1.09,3.55,3.55,0,0,0,.48,1.12,1.71,1.71,0,0,1,.3-.16,3.24,3.24,0,0,1-.44-1,3.68,3.68,0,0,1,.18-1.67.17.17,0,0,0-.08-.21l-.08,0a.17.17,0,0,0-.14.07,5.09,5.09,0,0,1-1.11,1.16,7.85,7.85,0,0,1-1.7.67,4.67,4.67,0,0,1,.63-1.54A2.53,2.53,0,0,1,8,9.93a.17.17,0,0,0,0-.34s-.46,0-1,0a7,7,0,0,1-.81,0A3.61,3.61,0,0,1,4.7,8.83a5.52,5.52,0,0,1,1.83-.45,4.79,4.79,0,0,1,1.61.29.17.17,0,0,0,.14-.31A5,5,0,0,1,6.93,7.27,3.33,3.33,0,0,1,6.41,5.5a3.7,3.7,0,0,1,1.37.84A12.68,12.68,0,0,1,8.61,7.7a.17.17,0,0,0,.32-.08s0-.48,0-1.28A4.6,4.6,0,0,1,9.4,4.62a2.94,2.94,0,0,1,.65,1.5A5.93,5.93,0,0,1,9.88,7.6a1.55,1.55,0,0,0-.05.21.17.17,0,0,0,.33.08l0-.18a3.84,3.84,0,0,1,.62-1.12,2.84,2.84,0,0,1,1.6-1,3.34,3.34,0,0,1-.52,1.62c-.38.42-1.19,1.14-1.2,1.15a.17.17,0,0,0,.19.28A4.94,4.94,0,0,1,12,8.42l.23,0A5.22,5.22,0,0,1,14,8.87a4.67,4.67,0,0,1-1.53.75,3.38,3.38,0,0,1-.69.07,4,4,0,0,1-.95-.11.17.17,0,0,0-.15.3s.44.34,1,.88a.75.75,0,0,1,.4-.09l0,0c-.26-.25-.49-.46-.69-.63l.4,0a3.69,3.69,0,0,0,.76-.08,5.47,5.47,0,0,0,1.9-1,.17.17,0,0,0,0-.29Z"/><path class="cls-4" d="M9.63,13.09l.51-.38a2.21,2.21,0,0,0,.08-.33,4.3,4.3,0,0,0,0-.87,1.93,1.93,0,0,0,.45.49l.24.13c0-.1.09-.2.13-.32l-.17-.1a3.2,3.2,0,0,1-.77-1.18.17.17,0,0,0-.33.09,9.59,9.59,0,0,1,.14,1.69A3.64,3.64,0,0,1,9.63,13.09Z"/><path class="cls-4" d="M8.72,14.59a.51.51,0,0,1-.48-.25c-.31-.53.63-1.09,1.19-1.42l.19-.12c.3-.2,1-.74,1.26-.92a.91.91,0,0,0,.22-.56c.06-.35.14-.84.75-.76a.28.28,0,0,1,.2.12c.11.16,0,.39,0,.64a1.79,1.79,0,0,0-.06.33l.11,0a.9.9,0,0,1,.25,0,.51.51,0,0,1,.37.16.63.63,0,0,1,.08.72.54.54,0,0,0-.05.23.55.55,0,0,0,.2,0c.15,0,.34,0,.41.19a.34.34,0,0,1,0,.31,1,1,0,0,1-.74.41,1,1,0,0,1-.67-.2.75.75,0,0,0-.36-.15h0a2.35,2.35,0,0,0-1.22.59A3.37,3.37,0,0,1,8.72,14.59Zm3-3.7c-.18,0-.23.1-.3.49a1.15,1.15,0,0,1-.35.77c-.65.49-1.06.79-1.27.93l-.2.12c-1,.59-1.13.85-1.07,1s0,.08.18.08a3.12,3.12,0,0,0,1.38-.66,2.58,2.58,0,0,1,1.42-.66h0a1,1,0,0,1,.53.2.67.67,0,0,0,.45.15.73.73,0,0,0,.47-.22h-.09c-.16,0-.44,0-.51-.28a.73.73,0,0,1,.06-.43c.07-.19.09-.28,0-.36a.17.17,0,0,0-.13-.06l-.16,0a.48.48,0,0,1-.44,0c-.16-.14-.1-.4,0-.67a1.77,1.77,0,0,0,.06-.35Z"/><path class="cls-4" d="M13.19,13.15a.17.17,0,0,1-.1-.31s1.28-1,.79-1.66S12,10.94,12,10.95a.17.17,0,0,1-.11-.32c.07,0,1.61-.53,2.28.36s-.79,2.08-.85,2.13A.17.17,0,0,1,13.19,13.15Z"/><path class="cls-4" d="M12.67,11.44a.17.17,0,0,1-.06-.33,3.61,3.61,0,0,1,1.34-.29.17.17,0,0,1,.16.18.17.17,0,0,1-.18.16,3.36,3.36,0,0,0-1.2.26Z"/><path class="cls-4" d="M13.2,12.26a.17.17,0,0,1-.08-.32,4,4,0,0,0,.79-.63.17.17,0,0,1,.25.24,4.22,4.22,0,0,1-.88.7Z"/><path class="cls-4" d="M11.91,12.84h0a.53.53,0,0,1-.42-.2.76.76,0,0,1-.09-.58.17.17,0,0,1,.33.08.43.43,0,0,0,0,.3s0,.06.16.07a.17.17,0,0,1,0,.34Z"/></g></g></g></svg>