<svg xmlns="http://www.w3.org/2000/svg" xmlns:xlink="http://www.w3.org/1999/xlink" viewBox="0 0 39.78 39.78"><defs><style>.cls-1{isolation:isolate;}.cls-2{fill:#75823a;}.cls-10,.cls-11,.cls-3,.cls-5,.cls-6,.cls-7,.cls-8,.cls-9{opacity:0.5;mix-blend-mode:multiply;}.cls-3{fill:url(#linear-gradient);}.cls-4{fill:#fff;}.cls-5{fill:url(#linear-gradient-2);}.cls-6{fill:url(#linear-gradient-3);}.cls-7{fill:url(#linear-gradient-4);}.cls-8{fill:url(#linear-gradient-5);}.cls-9{fill:url(#linear-gradient-6);}.cls-10{fill:url(#linear-gradient-7);}.cls-11{fill:url(#linear-gradient-8);}</style><linearGradient id="linear-gradient" x1="34.04" y1="19.98" x2="37.34" y2="22.53" gradientUnits="userSpaceOnUse"><stop offset="0"/><stop offset="0.14" stop-color="#2e2e2e"/><stop offset="0.38" stop-color="#777"/><stop offset="0.59" stop-color="#b1b1b1"/><stop offset="0.77" stop-color="#dcdcdc"/><stop offset="0.92" stop-color="#f5f5f5"/><stop offset="1" stop-color="#fff"/></linearGradient><linearGradient id="linear-gradient-2" x1="23.3" y1="33.98" x2="25.49" y2="35.21" gradientUnits="userSpaceOnUse"><stop offset="0"/><stop offset="0.05" stop-color="#171717"/><stop offset="0.2" stop-color="#545454"/><stop offset="0.35" stop-color="#888"/><stop offset="0.5" stop-color="#b3b3b3"/><stop offset="0.64" stop-color="#d4d4d4"/><stop offset="0.77" stop-color="#ececec"/><stop offset="0.9" stop-color="#fafafa"/><stop offset="1" stop-color="#fff"/></linearGradient><linearGradient id="linear-gradient-3" x1="4.36" y1="23.66" x2="7.13" y2="24.87" gradientUnits="userSpaceOnUse"><stop offset="0"/><stop offset="0.02" stop-color="#060606"/><stop offset="0.3" stop-color="#5d5d5d"/><stop offset="0.55" stop-color="#a2a2a2"/><stop offset="0.76" stop-color="#d5d5d5"/><stop offset="0.91" stop-color="#f3f3f3"/><stop offset="1" stop-color="#fff"/></linearGradient><linearGradient id="linear-gradient-4" x1="9.03" y1="9.18" x2="11.18" y2="10.12" xlink:href="#linear-gradient-3"/><linearGradient id="linear-gradient-5" x1="5.37" y1="16.04" x2="6.12" y2="16.36" xlink:href="#linear-gradient-3"/><linearGradient id="linear-gradient-6" x1="34.69" y1="11.84" x2="35.44" y2="12.16" xlink:href="#linear-gradient-3"/><linearGradient id="linear-gradient-7" x1="30.68" y1="27.29" x2="31.43" y2="27.62" xlink:href="#linear-gradient-3"/><linearGradient id="linear-gradient-8" x1="22.57" y1="4.15" x2="23.32" y2="4.47" xlink:href="#linear-gradient-3"/></defs><title>especiarias</title><g class="cls-1"><g id="Layer_2" data-name="Layer 2"><g id="Capa_1" data-name="Capa 1"><circle class="cls-2" cx="19.89" cy="19.89" r="19.89"/><polygon class="cls-3" points="35.05 21.88 37.44 23.57 38.31 22.17 35.39 20.06 35.05 20.36 34.65 20.97 35.05 21.88"/><path class="cls-4" d="M35.39,21.88l.74-.74V20.8l-.74-.74H35l-.74.74v.34l.74.74Zm-.17-1.3.39.39-.39.39L34.82,21Z"/><polygon class="cls-5" points="24.01 35.7 25.85 36.74 27.04 34.75 24.01 33.25 24.01 33.98 23.28 34.47 24.01 34.99 24.01 35.7"/><path class="cls-4" d="M23,34.72a.72.72,0,0,1,.74.74.25.25,0,0,0,.49,0,.72.72,0,0,1,.74-.74.25.25,0,0,0,0-.49.72.72,0,0,1-.74-.74.25.25,0,1,0-.49,0,.72.72,0,0,1-.74.74.25.25,0,0,0,0,.49Zm1-.49a1.16,1.16,0,0,0,.25.25,1.16,1.16,0,0,0-.25.25,1.17,1.17,0,0,0-.25-.25A1.17,1.17,0,0,0,24,34.23Z"/><polygon class="cls-6" points="5.33 24.9 7.6 26.23 8.38 24.81 5.68 23.08 4.83 23.99 5.33 24.9"/><path class="cls-4" d="M5.68,24.9l.74-.74v-.34l-.74-.74H5.33l-.74.74v.34l.74.74Zm-.17-1.3L5.9,24l-.39.39L5.11,24Z"/><polygon class="cls-7" points="9.61 10.02 11.61 11.21 12.21 9.96 9.76 8.6 9.61 10.02"/><path class="cls-4" d="M9.27,9.58h.25v.25a.25.25,0,1,0,.49,0V9.58h.25a.25.25,0,1,0,0-.49H10V8.84a.25.25,0,0,0-.49,0v.25H9.27a.25.25,0,0,0,0,.49Z"/><polygon class="cls-8" points="5.44 16.26 6.24 16.75 6.49 16.3 5.69 15.84 5.44 16.26"/><path class="cls-4" d="M5.57,16.3a.25.25,0,1,0-.25-.25A.23.23,0,0,0,5.57,16.3Z"/><polygon class="cls-9" points="34.76 12.06 35.56 12.55 35.81 12.1 35.01 11.64 34.76 12.06"/><path class="cls-4" d="M34.87,12.1a.25.25,0,1,0-.25-.25A.23.23,0,0,0,34.87,12.1Z"/><polygon class="cls-10" points="30.75 27.52 31.55 28.01 31.8 27.55 31 27.09 30.75 27.52"/><path class="cls-4" d="M30.88,27.55a.25.25,0,1,0-.25-.25A.23.23,0,0,0,30.88,27.55Z"/><polygon class="cls-11" points="22.64 4.37 23.44 4.86 23.69 4.41 22.89 3.95 22.64 4.37"/><path class="cls-4" d="M22.77,4.41a.25.25,0,1,0-.25-.25A.23.23,0,0,0,22.77,4.41Z"/><path class="cls-4" d="M30.65,18.43A13.07,13.07,0,0,0,26,17.13a3.9,3.9,0,0,0-.59,0l-1.07.19c.52-.49,1.11-1.05,1.5-1.49,1.15-1.27,1.32-4.22,1.32-4.35a.36.36,0,0,0-.11-.28.36.36,0,0,0-.29-.1,6.87,6.87,0,0,0-4.34,2.42l-.36.5a10.68,10.68,0,0,0,0-1.08A7.68,7.68,0,0,0,20.16,8.9a.37.37,0,0,0-.31-.12.36.36,0,0,0-.28.19,11.8,11.8,0,0,0-1.37,4.52c0,.49,0,.91,0,1.28A19,19,0,0,0,17.11,13c-.94-1.25-3.64-2.18-3.75-2.22a.36.36,0,0,0-.48.33c0,.12-.05,3.08,1.28,4.74a8.84,8.84,0,0,0,1.32,1.3,10.42,10.42,0,0,0-1.6-.13,13.64,13.64,0,0,0-4.74,1.27.36.36,0,0,0-.09.6c.09.08,2.23,2,4,2.16a14.78,14.78,0,0,0,1.5.09,4.47,4.47,0,0,0-1.49,1.32,11.19,11.19,0,0,0-1.56,4.15.36.36,0,0,0,.45.4,20.1,20.1,0,0,0,4.4-1.67A8.28,8.28,0,0,0,17.86,24a6.7,6.7,0,0,0,0,2.31,7.55,7.55,0,0,0,1,2.38,3.63,3.63,0,0,1,.64-.34,6.89,6.89,0,0,1-.94-2.18,7.82,7.82,0,0,1,.38-3.55.36.36,0,0,0-.64-.33,10.82,10.82,0,0,1-2.36,2.47,16.7,16.7,0,0,1-3.62,1.42,9.93,9.93,0,0,1,1.33-3.28A5.38,5.38,0,0,1,17,21.09a.36.36,0,0,0-.08-.72s-1,.09-2.11.09a15,15,0,0,1-1.71-.09A7.67,7.67,0,0,1,10,18.76a11.73,11.73,0,0,1,3.89-1,10.19,10.19,0,0,1,3.41.61.36.36,0,0,0,.3-.66,10.52,10.52,0,0,1-2.87-2.31,7.08,7.08,0,0,1-1.11-3.75,7.87,7.87,0,0,1,2.92,1.78,26.88,26.88,0,0,1,1.76,2.89A.36.36,0,0,0,19,16.2s0-1,0-2.72a9.78,9.78,0,0,1,1-3.66A6.25,6.25,0,0,1,21.35,13,12.59,12.59,0,0,1,21,16.15a3.32,3.32,0,0,0-.12.44.36.36,0,0,0,.7.16s0-.15.1-.38A8.16,8.16,0,0,1,23,14a6,6,0,0,1,3.4-2.06,7.11,7.11,0,0,1-1.1,3.44c-.8.89-2.54,2.43-2.55,2.44a.36.36,0,0,0,.4.6,10.49,10.49,0,0,1,2.38-.54,3.19,3.19,0,0,1,.48,0,11.09,11.09,0,0,1,3.78,1,9.92,9.92,0,0,1-3.26,1.59,7.16,7.16,0,0,1-1.47.14,8.46,8.46,0,0,1-2-.24.36.36,0,0,0-.32.64s.93.73,2.14,1.86a1.59,1.59,0,0,1,.85-.18l-.06-.06c-.55-.53-1-1-1.46-1.33.26,0,.54,0,.84,0a7.85,7.85,0,0,0,1.62-.16,11.63,11.63,0,0,0,4-2.09.36.36,0,0,0-.07-.61Z"/><path class="cls-4" d="M20.47,27.81c.37-.26.72-.53,1.08-.8a4.68,4.68,0,0,0,.18-.7,9.14,9.14,0,0,0,0-1.84,4.09,4.09,0,0,0,1,1.05,3.71,3.71,0,0,0,.51.28c.1-.2.19-.43.28-.67a2.87,2.87,0,0,1-.37-.21,6.79,6.79,0,0,1-1.65-2.5.36.36,0,0,0-.69.19A20.37,20.37,0,0,1,21,26.2,7.73,7.73,0,0,1,20.47,27.81Z"/><path class="cls-4" d="M18.53,31a1.09,1.09,0,0,1-1-.52c-.67-1.13,1.33-2.32,2.53-3l.4-.24c.65-.43,2.17-1.58,2.67-2a1.93,1.93,0,0,0,.47-1.19c.13-.74.3-1.78,1.59-1.62a.6.6,0,0,1,.43.26c.23.33.1.83,0,1.36a3.83,3.83,0,0,0-.13.7,1.11,1.11,0,0,0,.24,0,1.91,1.91,0,0,1,.52-.09,1.08,1.08,0,0,1,.78.34,1.33,1.33,0,0,1,.16,1.52,1.15,1.15,0,0,0-.11.49,1.16,1.16,0,0,0,.42.07c.32,0,.72,0,.87.4a.72.72,0,0,1-.06.65,2.13,2.13,0,0,1-1.57.86,2.08,2.08,0,0,1-1.43-.43,1.59,1.59,0,0,0-.77-.32h0a5,5,0,0,0-2.58,1.24A7.16,7.16,0,0,1,18.53,31Zm6.41-7.85c-.39,0-.49.22-.63,1a2.44,2.44,0,0,1-.75,1.65c-1.37,1-2.26,1.68-2.71,2l-.44.26c-2.13,1.26-2.41,1.8-2.27,2,0,0,.1.17.39.17a6.64,6.64,0,0,0,2.93-1.41,5.48,5.48,0,0,1,3-1.39h.06a2.23,2.23,0,0,1,1.13.43,1.42,1.42,0,0,0,1,.33,1.56,1.56,0,0,0,1-.46h-.19c-.35,0-.93-.06-1.08-.6a1.55,1.55,0,0,1,.12-.92c.14-.41.19-.6,0-.77a.36.36,0,0,0-.27-.13,1.33,1.33,0,0,0-.33.06,1,1,0,0,1-.94-.1c-.35-.3-.21-.84-.07-1.42a3.75,3.75,0,0,0,.13-.73Z"/><path class="cls-4" d="M28,27.94a.36.36,0,0,1-.22-.65s2.73-2.13,1.68-3.52-4-.53-4-.51a.36.36,0,0,1-.23-.69c.14,0,3.42-1.12,4.85.76s-1.68,4.43-1.81,4.53A.36.36,0,0,1,28,27.94Z"/><path class="cls-4" d="M26.92,24.31a.36.36,0,0,1-.13-.7A7.66,7.66,0,0,1,29.62,23a.36.36,0,0,1,.35.38.36.36,0,0,1-.38.35,7.14,7.14,0,0,0-2.55.56Z"/><path class="cls-4" d="M28,26.06a.36.36,0,0,1-.17-.68A8.39,8.39,0,0,0,29.54,24a.36.36,0,1,1,.52.5A9,9,0,0,1,28.2,26,.36.36,0,0,1,28,26.06Z"/><path class="cls-4" d="M25.31,27.27h0a1.12,1.12,0,0,1-.88-.43,1.61,1.61,0,0,1-.2-1.23.36.36,0,0,1,.71.16.92.92,0,0,0,.07.63s.1.13.34.14a.36.36,0,0,1,0,.72Z"/></g></g></g></svg>