<svg xmlns="http://www.w3.org/2000/svg" viewBox="0 0 20.17 29.64"><defs><style>.cls-1{fill:#4e0000;}</style></defs><title>Prensa</title><g id="Layer_2" data-name="Layer 2"><g id="Capa_1" data-name="Capa 1"><path class="cls-1" d="M19.4,9.43a2.9,2.9,0,0,0-1.93-.53V8.65a3,3,0,0,0-3-3H10.64V1.11h4a.55.55,0,0,0,0-1.11h-9a.55.55,0,0,0,0,1.11H9.53V5.63h-9a.55.55,0,0,0-.49.82l2.4,4.41V26.22a3.46,3.46,0,0,0,3,3.42H13.7a3.81,3.81,0,0,0,3.08-1.18,3.46,3.46,0,0,0,.69-2.59V10a1.92,1.92,0,0,1,1.24.28,1.14,1.14,0,0,1,.36.94v10a.55.55,0,0,0,1.11,0v-10A2.19,2.19,0,0,0,19.4,9.43ZM15.92,27.76a2.79,2.79,0,0,1-2.22.78H5.58a2.36,2.36,0,0,1-2-2.32V10.72a.56.56,0,0,0-.07-.26l-2-3.72h8V21.36H5.26a.55.55,0,0,0,0,1.11h9.65a.55.55,0,1,0,0-1.11H10.64V6.73h3.8a1.89,1.89,0,0,1,1.93,1.92V26A2.44,2.44,0,0,1,15.92,27.76Z"/><path class="cls-1" d="M11.81,24.32c-1.11.25-1.85.85-3.59.78S5.66,24,4.64,24v2.85H15.29V24A9.79,9.79,0,0,0,11.81,24.32Z"/></g></g></svg>