<svg xmlns="http://www.w3.org/2000/svg" viewBox="0 0 64 40"><defs><style>.cls-1{fill:#045ea0;}.cls-2{fill:#faa929;}.cls-2,.cls-3{fill-rule:evenodd;}.cls-3{fill:#fff;}</style></defs><title>Visa-Electron</title><g id="Layer_2" data-name="Layer 2"><g id="Layer_1-2" data-name="Layer 1"><rect class="cls-1" width="64" height="40" rx="2.13" ry="2.13"/><path class="cls-2" d="M21.55,22.53a33.17,33.17,0,0,1,20.64-2.07l.09-2.28c-9.49-1-16.31,2-20.73,4.13v.22Z"/><polygon class="cls-3" points="12.81 24.2 17.38 24.2 17.38 25.58 14.54 25.58 14.52 26.85 17.35 26.85 17.35 28.17 14.51 28.17 14.52 29.44 17.32 29.44 17.32 30.81 12.81 30.81 12.81 24.2 12.81 24.2"/><polygon class="cls-3" points="18.52 23.65 20.18 23.65 20.19 30.81 18.53 30.81 18.52 23.65 18.52 23.65"/><path class="cls-3" d="M25.9,30.27a3.51,3.51,0,0,1-2.19.72,2.38,2.38,0,0,1-2.54-2.47,2.61,2.61,0,0,1,2.59-2.68c1.83,0,2.41,1.3,2.41,3H22.83a1,1,0,0,0,1.15,1,2.13,2.13,0,0,0,1.36-.48l.55,1ZM24.68,27.8c0-.5-.24-.95-.79-.95a1.14,1.14,0,0,0-1,.95Z"/><path class="cls-3" d="M31.21,30.49a3.78,3.78,0,0,1-1.77.5,2.38,2.38,0,0,1-2.63-2.46,2.56,2.56,0,0,1,2.73-2.69,3.4,3.4,0,0,1,1.63.42l-.54,1.09a2,2,0,0,0-.78-.19,1.26,1.26,0,0,0-1.38,1.29,1.22,1.22,0,0,0,1.24,1.23,2.08,2.08,0,0,0,.9-.28l.59,1.1Z"/><path class="cls-3" d="M31.82,26h.75V24.37h1.6l0,1.63h1.36l0,1.2H34.1c0,.67,0,1.37,0,1.78s.1.62.48.62a1.2,1.2,0,0,0,.61-.23l.36,1.13a3.25,3.25,0,0,1-1.64.48c-1.35,0-1.41-.85-1.41-2,0-.59,0-1.18,0-1.82h-.72l0-1.2Z"/><path class="cls-3" d="M36.35,26H38v.68h0a1.37,1.37,0,0,1,1.22-.81,2.54,2.54,0,0,1,.54.06l-.22,1.64a1.94,1.94,0,0,0-.59-.1A1.18,1.18,0,0,0,38,28l0,2.78H36.31l0-4.81Z"/><path class="cls-3" d="M42.8,25.83a2.58,2.58,0,1,1,0,5.16,2.58,2.58,0,1,1,0-5.16Zm0,3.9c.79,0,1-.69,1-1.32s-.24-1.32-1-1.32-1,.69-1,1.32.24,1.32,1,1.32Z"/><path class="cls-3" d="M46.4,26h1.66v.52a2.36,2.36,0,0,1,1.56-.7c1,0,1.57.56,1.57,1.88,0,1,0,2,0,3.1H49.51c0-.93,0-1.86,0-2.85,0-.39-.1-.7-.6-.7a1.55,1.55,0,0,0-.87.44v3.11H46.36l0-4.81Z"/><polygon class="cls-3" points="26.48 16.09 28.58 9.17 30.45 9.17 28.35 16.09 26.48 16.09 26.48 16.09"/><path class="cls-3" d="M25.64,9.17,24,12.1a7.14,7.14,0,0,0-.8,1.64h0c0-.62-.06-1.37-.06-1.8l-.19-2.78H19.73l0,.19a1.31,1.31,0,0,1,1.42,1.24l.61,5.49h1.94l3.92-6.92Z"/><path class="cls-3" d="M40.2,16.09l-.05-1H37.81l-.48,1h-2L39,9.18h2.5l.62,6.91ZM40,12a16.12,16.12,0,0,1,0-1.63h0c-.11.34-.6,1.38-.82,1.88l-.7,1.52h1.64L40,12Z"/><path class="cls-3" d="M32.41,16.29a5.23,5.23,0,0,1-2.83-.79l.89-1.36a3.45,3.45,0,0,0,2,.68.87.87,0,0,0,.82-.39c.26-.45-.06-.69-.79-1.11l-.36-.23c-1.08-.74-1.55-1.44-1-2.67A2.59,2.59,0,0,1,33.73,9a4.19,4.19,0,0,1,2.43.84l-1,1.2a2.28,2.28,0,0,0-1.45-.64.87.87,0,0,0-.8.36c-.2.39.06.65.63,1l.43.27c1.32.83,1.63,1.7,1.3,2.52a2.71,2.71,0,0,1-2.84,1.71Z"/></g></g></svg>