<svg xmlns="http://www.w3.org/2000/svg" xmlns:xlink="http://www.w3.org/1999/xlink" viewBox="0 0 48 48"><defs><style>.cls-1{isolation:isolate;}.cls-2{fill:#f5cd00;}.cls-3{opacity:0.3;fill:url(#linear-gradient);}.cls-10,.cls-11,.cls-12,.cls-3,.cls-4,.cls-6,.cls-7,.cls-8,.cls-9{mix-blend-mode:multiply;}.cls-10,.cls-11,.cls-12,.cls-4,.cls-6,.cls-7,.cls-8,.cls-9{opacity:0.5;}.cls-4{fill:url(#linear-gradient-2);}.cls-5{fill:#fff;}.cls-6{fill:url(#linear-gradient-3);}.cls-7{fill:url(#linear-gradient-4);}.cls-8{fill:url(#linear-gradient-5);}.cls-9{fill:url(#linear-gradient-6);}.cls-10{fill:url(#linear-gradient-7);}.cls-11{fill:url(#linear-gradient-8);}.cls-12{fill:url(#linear-gradient-9);}</style><linearGradient id="linear-gradient" x1="15.88" y1="12.31" x2="39.31" y2="31.75" gradientUnits="userSpaceOnUse"><stop offset="0"/><stop offset="0.02" stop-color="#060606"/><stop offset="0.3" stop-color="#5d5d5d"/><stop offset="0.55" stop-color="#a2a2a2"/><stop offset="0.76" stop-color="#d5d5d5"/><stop offset="0.91" stop-color="#f3f3f3"/><stop offset="1" stop-color="#fff"/></linearGradient><linearGradient id="linear-gradient-2" x1="41.07" y1="24.11" x2="45.05" y2="27.18" gradientUnits="userSpaceOnUse"><stop offset="0"/><stop offset="0.14" stop-color="#2e2e2e"/><stop offset="0.38" stop-color="#777"/><stop offset="0.59" stop-color="#b1b1b1"/><stop offset="0.77" stop-color="#dcdcdc"/><stop offset="0.92" stop-color="#f5f5f5"/><stop offset="1" stop-color="#fff"/></linearGradient><linearGradient id="linear-gradient-3" x1="28.12" y1="41" x2="30.75" y2="42.48" gradientUnits="userSpaceOnUse"><stop offset="0"/><stop offset="0.05" stop-color="#171717"/><stop offset="0.2" stop-color="#545454"/><stop offset="0.35" stop-color="#888"/><stop offset="0.5" stop-color="#b3b3b3"/><stop offset="0.64" stop-color="#d4d4d4"/><stop offset="0.77" stop-color="#ececec"/><stop offset="0.9" stop-color="#fafafa"/><stop offset="1" stop-color="#fff"/></linearGradient><linearGradient id="linear-gradient-4" x1="5.25" y1="28.55" x2="8.6" y2="30.01" xlink:href="#linear-gradient"/><linearGradient id="linear-gradient-5" x1="10.9" y1="11.08" x2="13.49" y2="12.21" xlink:href="#linear-gradient"/><linearGradient id="linear-gradient-6" x1="6.48" y1="19.35" x2="7.39" y2="19.74" xlink:href="#linear-gradient"/><linearGradient id="linear-gradient-7" x1="41.86" y1="14.28" x2="42.77" y2="14.68" xlink:href="#linear-gradient"/><linearGradient id="linear-gradient-8" x1="37.02" y1="32.93" x2="37.93" y2="33.32" xlink:href="#linear-gradient"/><linearGradient id="linear-gradient-9" x1="27.23" y1="5" x2="28.14" y2="5.4" xlink:href="#linear-gradient"/></defs><title>acido</title><g class="cls-1"><g id="Layer_2" data-name="Layer 2"><g id="Capa_1" data-name="Capa 1"><circle class="cls-2" cx="24" cy="24" r="24"/><path class="cls-3" d="M25.7,32.51l14.63,9.09s4.59-4.47,5.84-8.35a52.85,52.85,0,0,0,1.68-6.46L28.58,15.38l-3.28-.24v2.91A8.21,8.21,0,0,0,20.14,17a11.07,11.07,0,0,0-5.29,2.41L25.4,30Z"/><polygon class="cls-4" points="42.28 26.4 45.18 28.44 46.23 26.75 42.7 24.21 42.28 24.57 41.81 25.3 42.28 26.4"/><path class="cls-5" d="M42.7,26.4l.89-.89V25.1l-.89-.89h-.41l-.89.89v.41l.89.89Zm-.21-1.57.47.47-.47.47L42,25.3Z"/><polygon class="cls-6" points="28.96 43.08 31.19 44.33 32.62 41.93 28.96 40.11 28.96 41 28.09 41.59 28.96 42.22 28.96 43.08"/><path class="cls-5" d="M27.78,41.89a.87.87,0,0,1,.89.89.3.3,0,0,0,.59,0,.87.87,0,0,1,.89-.89.3.3,0,0,0,0-.59.87.87,0,0,1-.89-.89.3.3,0,1,0-.59,0,.87.87,0,0,1-.89.89.3.3,0,0,0,0,.59ZM29,41.3a1.4,1.4,0,0,0,.3.3,1.4,1.4,0,0,0-.3.3,1.41,1.41,0,0,0-.3-.3A1.41,1.41,0,0,0,29,41.3Z"/><polygon class="cls-7" points="6.44 30.04 9.17 31.64 10.11 29.93 6.85 27.85 5.82 28.95 6.44 30.04"/><path class="cls-5" d="M6.85,30l.89-.89v-.41l-.89-.89H6.44l-.89.89v.41l.89.89Zm-.21-1.57.47.47-.47.47-.47-.47Z"/><polygon class="cls-8" points="11.6 12.09 14.01 13.53 14.73 12.02 11.78 10.37 11.6 12.09"/><path class="cls-5" d="M11.19,11.56h.3v.3a.3.3,0,1,0,.59,0v-.3h.3a.3.3,0,1,0,0-.59h-.3v-.3a.3.3,0,0,0-.59,0V11h-.3a.3.3,0,0,0,0,.59Z"/><polygon class="cls-9" points="6.56 19.62 7.53 20.21 7.83 19.66 6.86 19.11 6.56 19.62"/><path class="cls-5" d="M6.72,19.66a.3.3,0,1,0-.3-.3A.28.28,0,0,0,6.72,19.66Z"/><polygon class="cls-10" points="41.94 14.55 42.91 15.14 43.2 14.6 42.24 14.04 41.94 14.55"/><path class="cls-5" d="M42.08,14.59a.3.3,0,1,0-.3-.3A.28.28,0,0,0,42.08,14.59Z"/><polygon class="cls-11" points="37.1 33.2 38.07 33.79 38.37 33.24 37.4 32.69 37.1 33.2"/><path class="cls-5" d="M37.26,33.24a.3.3,0,1,0-.3-.3A.28.28,0,0,0,37.26,33.24Z"/><polygon class="cls-12" points="27.31 5.28 28.28 5.87 28.58 5.32 27.61 4.76 27.31 5.28"/><path class="cls-5" d="M27.47,5.32a.3.3,0,1,0-.3-.3A.28.28,0,0,0,27.47,5.32Z"/><path class="cls-5" d="M25.7,14.9h-.4v2.78a8.78,8.78,0,0,0-10.63,1.39l-.28.28,1.13,1.13h0l9.78,9.78v2.24h.4a8.8,8.8,0,0,0,0-17.61Zm-4.4,9.43V18.92a6.37,6.37,0,0,1,3.83,1.58Zm4-2.87V24.9H21.86Zm-4.8,2.87L16.66,20.5a6.37,6.37,0,0,1,3.84-1.58Zm1.37,1.37h3.44v3.44Zm4.24-1,3.83,3.83a6.38,6.38,0,0,1-3.83,1.59V24.67Zm4.39,3.26L26.66,24.1h5.42A6.37,6.37,0,0,1,30.49,27.93ZM26.66,23.3l3.83-3.83a6.37,6.37,0,0,1,1.59,3.83Zm-.57-.57V17.31a6.38,6.38,0,0,1,3.83,1.59Zm-.8-4.11v1a7.21,7.21,0,0,0-9.2.33l-.57-.57A8,8,0,0,1,25.29,18.62Zm.8,13.07v-.81a7.19,7.19,0,0,0,0-14.37v-.81a8,8,0,0,1,0,16Z"/><path class="cls-5" d="M15.75,23.3a.75.75,0,0,0-.66.4,9.92,9.92,0,0,0-1.34,3.35,2,2,0,0,0,4,0,9.92,9.92,0,0,0-1.34-3.35A.75.75,0,0,0,15.75,23.3Zm0,5a1.2,1.2,0,0,1-1.2-1.2,9.78,9.78,0,0,1,1.2-2.89A9.77,9.77,0,0,1,17,27.06,1.2,1.2,0,0,1,15.75,28.26Z"/><path class="cls-5" d="M21.35,30a.75.75,0,0,0-.66.4,9.93,9.93,0,0,0-1.34,3.35,2,2,0,0,0,4,0A9.93,9.93,0,0,0,22,30.35.75.75,0,0,0,21.35,30Zm0,5a1.2,1.2,0,0,1-1.2-1.2,9.78,9.78,0,0,1,1.2-2.89,9.79,9.79,0,0,1,1.2,2.89A1.2,1.2,0,0,1,21.35,34.91Z"/></g></g></g></svg>