<svg xmlns="http://www.w3.org/2000/svg" xmlns:xlink="http://www.w3.org/1999/xlink" viewBox="0 0 48 48"><defs><style>.cls-1{isolation:isolate;}.cls-2{fill:#3e3e3f;}.cls-3{opacity:0.3;fill:url(#linear-gradient);}.cls-10,.cls-11,.cls-3,.cls-4,.cls-6,.cls-7,.cls-8,.cls-9{mix-blend-mode:multiply;}.cls-10,.cls-11,.cls-4,.cls-6,.cls-7,.cls-8,.cls-9{opacity:0.5;}.cls-4{fill:url(#linear-gradient-2);}.cls-5{fill:#fff;}.cls-6{fill:url(#linear-gradient-3);}.cls-7{fill:url(#linear-gradient-4);}.cls-8{fill:url(#linear-gradient-5);}.cls-9{fill:url(#linear-gradient-6);}.cls-10{fill:url(#linear-gradient-7);}.cls-11{fill:url(#linear-gradient-8);}</style><linearGradient id="linear-gradient" x1="16.5" y1="20.11" x2="42.53" y2="33.76" gradientUnits="userSpaceOnUse"><stop offset="0"/><stop offset="0.02" stop-color="#060606"/><stop offset="0.3" stop-color="#5d5d5d"/><stop offset="0.55" stop-color="#a2a2a2"/><stop offset="0.76" stop-color="#d5d5d5"/><stop offset="0.91" stop-color="#f3f3f3"/><stop offset="1" stop-color="#fff"/></linearGradient><linearGradient id="linear-gradient-2" x1="41.07" y1="24.11" x2="45.05" y2="27.18" gradientUnits="userSpaceOnUse"><stop offset="0"/><stop offset="0.14" stop-color="#2e2e2e"/><stop offset="0.38" stop-color="#777"/><stop offset="0.59" stop-color="#b1b1b1"/><stop offset="0.77" stop-color="#dcdcdc"/><stop offset="0.92" stop-color="#f5f5f5"/><stop offset="1" stop-color="#fff"/></linearGradient><linearGradient id="linear-gradient-3" x1="18.13" y1="41.27" x2="20.18" y2="42.42" gradientUnits="userSpaceOnUse"><stop offset="0"/><stop offset="0.05" stop-color="#171717"/><stop offset="0.2" stop-color="#545454"/><stop offset="0.35" stop-color="#888"/><stop offset="0.5" stop-color="#b3b3b3"/><stop offset="0.64" stop-color="#d4d4d4"/><stop offset="0.77" stop-color="#ececec"/><stop offset="0.9" stop-color="#fafafa"/><stop offset="1" stop-color="#fff"/></linearGradient><linearGradient id="linear-gradient-4" x1="10.9" y1="11.08" x2="13.49" y2="12.21" xlink:href="#linear-gradient"/><linearGradient id="linear-gradient-5" x1="6.48" y1="19.35" x2="7.39" y2="19.74" xlink:href="#linear-gradient"/><linearGradient id="linear-gradient-6" x1="41.86" y1="14.28" x2="42.77" y2="14.68" xlink:href="#linear-gradient"/><linearGradient id="linear-gradient-7" x1="37.02" y1="32.93" x2="37.93" y2="33.32" xlink:href="#linear-gradient"/><linearGradient id="linear-gradient-8" x1="27.23" y1="5" x2="28.14" y2="5.4" xlink:href="#linear-gradient"/></defs><title>amargo</title><g class="cls-1"><g id="Layer_2" data-name="Layer 2"><g id="Capa_1" data-name="Capa 1"><circle class="cls-2" cx="24" cy="24" r="24"/><path class="cls-3" d="M24.91,39l10.94,5.92a23.17,23.17,0,0,0,9.42-9.75A26,26,0,0,0,47.91,22L25.32,11.24,24,13.52l-.52-.83-.81.59-1-1.14L20.52,14.3l-.65-.77-1.76,2.73-.47-.47-1.69,4.43-1-1.14s-1.35,5.8-.81,6.23,2.59,1.83,2.59,1.83a2.15,2.15,0,0,0,.64,2,10.86,10.86,0,0,0,2.58,1.08l2.19,1.35.27,5Z"/><polygon class="cls-4" points="42.28 26.4 45.18 28.44 46.23 26.75 42.7 24.21 42.28 24.57 41.81 25.3 42.28 26.4"/><path class="cls-5" d="M42.7,26.4l.89-.89V25.1l-.89-.89h-.41l-.89.89v.41l.89.89Zm-.21-1.57.47.47-.47.47L42,25.3Z"/><polygon class="cls-6" points="18.79 42.89 20.52 43.86 21.64 41.99 18.79 40.58 18.79 41.27 18.11 41.73 18.79 42.22 18.79 42.89"/><path class="cls-5" d="M17.87,42a.68.68,0,0,1,.69.69.23.23,0,0,0,.46,0,.68.68,0,0,1,.69-.69.23.23,0,0,0,0-.46.68.68,0,0,1-.69-.69.23.23,0,0,0-.46,0,.68.68,0,0,1-.69.69.23.23,0,1,0,0,.46Zm.92-.46a1.1,1.1,0,0,0,.23.23,1.07,1.07,0,0,0-.23.23,1.09,1.09,0,0,0-.23-.23A1.11,1.11,0,0,0,18.79,41.5Z"/><polygon class="cls-7" points="11.6 12.09 14.01 13.53 14.73 12.02 11.78 10.37 11.6 12.09"/><path class="cls-5" d="M11.19,11.56h.3v.3a.3.3,0,1,0,.59,0v-.3h.3a.3.3,0,1,0,0-.59h-.3v-.3a.3.3,0,0,0-.59,0V11h-.3a.3.3,0,1,0,0,.59Z"/><polygon class="cls-8" points="6.56 19.62 7.53 20.21 7.83 19.66 6.86 19.11 6.56 19.62"/><path class="cls-5" d="M6.72,19.66a.3.3,0,1,0-.3-.3A.28.28,0,0,0,6.72,19.66Z"/><polygon class="cls-9" points="41.94 14.55 42.91 15.14 43.2 14.6 42.24 14.04 41.94 14.55"/><path class="cls-5" d="M42.08,14.59a.3.3,0,1,0-.3-.3A.28.28,0,0,0,42.08,14.59Z"/><polygon class="cls-10" points="37.1 33.2 38.07 33.79 38.37 33.24 37.4 32.69 37.1 33.2"/><path class="cls-5" d="M37.26,33.24a.3.3,0,1,0-.3-.3A.28.28,0,0,0,37.26,33.24Z"/><polygon class="cls-11" points="27.31 5.28 28.28 5.87 28.58 5.32 27.61 4.76 27.31 5.28"/><path class="cls-5" d="M27.47,5.32a.3.3,0,1,0-.3-.3A.28.28,0,0,0,27.47,5.32Z"/><path class="cls-5" d="M33.38,24.06l-.83-5.84A.6.6,0,0,0,31.43,18l-.33.65L30,15.34a.6.6,0,0,0-1.06-.16L27.9,13a.6.6,0,0,0-1-.14l-.28.32-.78-1.61a.6.6,0,0,0-1.07,0l-.53,1L24,12.05a.6.6,0,0,0-.55-.35h0a.6.6,0,0,0-.55.36l-.21.48-.52-1a.6.6,0,0,0-1.07,0l-.78,1.61-.28-.32a.6.6,0,0,0-1,.14l-1,2.19a.6.6,0,0,0-1.06.16l-1.1,3.33L15.54,18a.6.6,0,0,0-1.13.19l-.83,5.84A3.1,3.1,0,0,0,14,26.2a2.51,2.51,0,0,0,1.76,1.15l.29,0c-.15,1.46,1.19,2.89,3.18,3.34l.46.08A2.55,2.55,0,0,0,21.46,32v4.44a.6.6,0,0,0,.27.5l2.84,1.87a.6.6,0,0,0,.93-.5V32a2.53,2.53,0,0,0,1.72-1.25l.48-.08c2-.45,3.33-1.88,3.18-3.34l.29,0a2.51,2.51,0,0,0,1.76-1.15A3.1,3.1,0,0,0,33.38,24.06Zm-3.06-3.89-.72,1.41a.6.6,0,0,0-1-.17c-.07.09-1,1.29-2.08,2.65-.2-.43-.43-.9-.66-1.37,0,0,1.82-3.16,3.43-5.76Zm-6.42,6.19a.61.61,0,0,0-.44-.19.6.6,0,0,0-.44.19l-.43.47c-.37-.5-.82-1.09-1.28-1.69l2.16-4.43c.61,1.18,1.59,3.1,2.17,4.42-.47.61-.92,1.2-1.29,1.7Zm4.27-10-1.29,2.1c-.23-.53-.57-1.32-1.1-2.51l1.42-1.64Zm-2.89-3.23.49,1-.52.61L24.88,14Zm-1.8.61c.06.13,2.43,5.45,2.63,6-.43.71-.73,1.22-.95,1.59-.61-1.2-1.13-2.18-1.17-2.26a.6.6,0,0,0-1.07,0l-1.1,2.26c-.21-.38-.52-.89-1-1.62Zm-1.8-.61.41.79-.36.83-.53-.62Zm-1.92,1.18L21.2,16l-1.1,2.51L18.79,16.4Zm-2,2.59c1.61,2.6,3.42,5.75,3.45,5.8l-.66,1.35c-1.07-1.38-2-2.59-2.1-2.68a.6.6,0,0,0-1,.17l-.72-1.41ZM15,25.54a1.9,1.9,0,0,1-.27-1.31l.56-4L17,23.41l-.62,2.76-.37,0A1.33,1.33,0,0,1,15,25.54Zm2.25,1.83.87-3.9h0l.07-.31c.5.63,3.1,4,3.53,4.59l-1.72,1.87a4.16,4.16,0,0,1-.53-.08C18.13,29.22,17.11,28.23,17.3,27.37Zm7,9.86-1.64-1.08V32.27a7.87,7.87,0,0,0,1.64,0v5Zm1.22-6.48a6,6,0,0,1-4.11,0,1.64,1.64,0,0,1-.5-.31l2.56-2.79c.15.16,2.23,2.38,2.57,2.77A1.55,1.55,0,0,1,25.53,30.75Zm1.91-1.22a4.12,4.12,0,0,1-.51.08c-.26-.3-1.62-1.76-1.73-1.88,1-1.3,2.57-3.36,3.52-4.58l.95,4.22C29.86,28.23,28.84,29.22,27.44,29.53Zm4.48-4a1.33,1.33,0,0,1-.92.62l-.37,0L30,23.41l1.62-3.16.56,4A1.9,1.9,0,0,1,31.92,25.54Z"/></g></g></g></svg>