<svg xmlns="http://www.w3.org/2000/svg" xmlns:xlink="http://www.w3.org/1999/xlink" viewBox="0 0 48 48"><defs><style>.cls-1{isolation:isolate;}.cls-2{fill:#c78542;}.cls-3{opacity:0.4;fill:url(#linear-gradient);}.cls-10,.cls-11,.cls-12,.cls-3,.cls-4,.cls-6,.cls-7,.cls-8,.cls-9{mix-blend-mode:multiply;}.cls-10,.cls-11,.cls-12,.cls-4,.cls-6,.cls-7,.cls-8,.cls-9{opacity:0.5;}.cls-4{fill:url(#linear-gradient-2);}.cls-5{fill:#fff;}.cls-6{fill:url(#linear-gradient-3);}.cls-7{fill:url(#linear-gradient-4);}.cls-8{fill:url(#linear-gradient-5);}.cls-9{fill:url(#linear-gradient-6);}.cls-10{fill:url(#linear-gradient-7);}.cls-11{fill:url(#linear-gradient-8);}.cls-12{fill:url(#linear-gradient-9);}</style><linearGradient id="linear-gradient" x1="12.09" y1="13.75" x2="37.9" y2="36.56" gradientUnits="userSpaceOnUse"><stop offset="0"/><stop offset="0.02" stop-color="#060606"/><stop offset="0.3" stop-color="#5d5d5d"/><stop offset="0.55" stop-color="#a2a2a2"/><stop offset="0.76" stop-color="#d5d5d5"/><stop offset="0.91" stop-color="#f3f3f3"/><stop offset="1" stop-color="#fff"/></linearGradient><linearGradient id="linear-gradient-2" x1="36.75" y1="12.51" x2="40.73" y2="15.59" gradientUnits="userSpaceOnUse"><stop offset="0"/><stop offset="0.14" stop-color="#2e2e2e"/><stop offset="0.38" stop-color="#777"/><stop offset="0.59" stop-color="#b1b1b1"/><stop offset="0.77" stop-color="#dcdcdc"/><stop offset="0.92" stop-color="#f5f5f5"/><stop offset="1" stop-color="#fff"/></linearGradient><linearGradient id="linear-gradient-3" x1="13.79" y1="10.57" x2="16.42" y2="12.05" gradientUnits="userSpaceOnUse"><stop offset="0"/><stop offset="0.05" stop-color="#171717"/><stop offset="0.2" stop-color="#545454"/><stop offset="0.35" stop-color="#888"/><stop offset="0.5" stop-color="#b3b3b3"/><stop offset="0.64" stop-color="#d4d4d4"/><stop offset="0.77" stop-color="#ececec"/><stop offset="0.9" stop-color="#fafafa"/><stop offset="1" stop-color="#fff"/></linearGradient><linearGradient id="linear-gradient-4" x1="8.61" y1="35.8" x2="11.96" y2="37.26" xlink:href="#linear-gradient"/><linearGradient id="linear-gradient-5" x1="37.23" y1="31.46" x2="39.83" y2="32.6" xlink:href="#linear-gradient"/><linearGradient id="linear-gradient-6" x1="5.67" y1="20.04" x2="6.58" y2="20.44" xlink:href="#linear-gradient"/><linearGradient id="linear-gradient-7" x1="11.78" y1="27" x2="12.69" y2="27.39" xlink:href="#linear-gradient"/><linearGradient id="linear-gradient-8" x1="29.93" y1="38.6" x2="30.84" y2="39" xlink:href="#linear-gradient"/><linearGradient id="linear-gradient-9" x1="34.57" y1="22.44" x2="35.48" y2="22.84" xlink:href="#linear-gradient"/></defs><title>caramelo</title><g class="cls-1"><g id="Layer_2" data-name="Layer 2"><g id="Capa_1" data-name="Capa 1"><circle class="cls-2" cx="24" cy="24" r="24"/><path class="cls-3" d="M17.54,36.76,31.28,46.88A26,26,0,0,0,43,38.62c5.13-6.36,4.74-11.31,4.74-11.31l-11-9.87L34.8,16.28l-2.14-1-.85-1.92-1.34-1.56-2.1,5.71a7.61,7.61,0,0,0-10.08,1.65c-3.65,4.25-.75,8.91-.75,8.91l-5.67,2.17a8.64,8.64,0,0,0,1.29,2.31c.59.52,1.48,0,1.48,0a11.83,11.83,0,0,0,1.48,2.57C16.79,35.8,17.54,36.76,17.54,36.76Z"/><polygon class="cls-4" points="37.97 14.81 40.86 16.84 41.91 15.15 38.38 12.62 37.97 12.98 37.49 13.71 37.97 14.81"/><path class="cls-5" d="M38.38,14.81l.89-.89V13.5l-.89-.89H38l-.89.89v.41l.89.89Zm-.21-1.57.47.47-.47.47-.47-.47Z"/><polygon class="cls-6" points="14.63 12.64 16.86 13.89 18.29 11.49 14.63 9.68 14.63 10.57 13.76 11.16 14.63 11.79 14.63 12.64"/><path class="cls-5" d="M13.45,11.46a.87.87,0,0,1,.89.89.3.3,0,0,0,.59,0,.87.87,0,0,1,.89-.89.3.3,0,0,0,0-.59.87.87,0,0,1-.89-.89.3.3,0,1,0-.59,0,.87.87,0,0,1-.89.89.3.3,0,1,0,0,.59Zm1.19-.59a1.4,1.4,0,0,0,.3.3,1.4,1.4,0,0,0-.3.3,1.41,1.41,0,0,0-.3-.3A1.41,1.41,0,0,0,14.63,10.86Z"/><polygon class="cls-7" points="9.79 37.3 12.53 38.9 13.47 37.19 10.21 35.1 9.18 36.2 9.79 37.3"/><path class="cls-5" d="M10.21,37.29l.89-.89V36l-.89-.89H9.8L8.91,36v.41l.89.89ZM10,35.72l.47.47-.47.47-.47-.47Z"/><polygon class="cls-8" points="37.93 32.48 40.34 33.91 41.06 32.41 38.11 30.76 37.93 32.48"/><path class="cls-5" d="M37.52,31.94h.3v.3a.3.3,0,1,0,.59,0v-.3h.3a.3.3,0,1,0,0-.59h-.3v-.3a.3.3,0,0,0-.59,0v.3h-.3a.3.3,0,1,0,0,.59Z"/><polygon class="cls-9" points="5.76 20.31 6.73 20.9 7.02 20.36 6.06 19.8 5.76 20.31"/><path class="cls-5" d="M5.91,20.36a.3.3,0,1,0-.3-.3A.28.28,0,0,0,5.91,20.36Z"/><polygon class="cls-10" points="11.86 27.27 12.83 27.86 13.13 27.31 12.16 26.76 11.86 27.27"/><path class="cls-5" d="M12,27.31a.3.3,0,1,0-.3-.3A.28.28,0,0,0,12,27.31Z"/><polygon class="cls-11" points="30.01 38.88 30.98 39.47 31.28 38.92 30.31 38.36 30.01 38.88"/><path class="cls-5" d="M30.17,38.92a.3.3,0,1,0-.3-.3A.28.28,0,0,0,30.17,38.92Z"/><polygon class="cls-12" points="34.65 22.72 35.62 23.31 35.92 22.76 34.95 22.2 34.65 22.72"/><path class="cls-5" d="M34.81,22.76a.3.3,0,1,0-.3-.3A.28.28,0,0,0,34.81,22.76Z"/><path class="cls-5" d="M36.73,17.44s0,.09,0,0h0a7.22,7.22,0,0,0-1.29-1.81,4.29,4.29,0,0,0-2.15-.94,5.51,5.51,0,0,0-.94-2.16,3.83,3.83,0,0,0-1.88-1.29.46.46,0,0,0-.54.31l-1.81,5.69A7.9,7.9,0,0,0,22,16.3a7.55,7.55,0,0,0-2.17,1,7.92,7.92,0,0,0-2.58,10.85l-5.7,1.81a.46.46,0,0,0-.27.63,7.24,7.24,0,0,0,1.3,1.81,4.29,4.29,0,0,0,2.15.94,5.51,5.51,0,0,0,.94,2.16,3.83,3.83,0,0,0,1.88,1.29.46.46,0,0,0,.54-.31l1.81-5.7A7.92,7.92,0,0,0,30.77,19.88l5.69-1.81A.46.46,0,0,0,36.73,17.44ZM17.35,35.71a3.34,3.34,0,0,1-1-.82,5.19,5.19,0,0,1-.81-2.06.46.46,0,0,0-.41-.38,3.75,3.75,0,0,1-1.93-.73,5.86,5.86,0,0,1-.85-1.09l5.37-1.71,1.35,1.35ZM31,24a7,7,0,1,1-12-5A7.08,7.08,0,0,1,23.91,17a7.37,7.37,0,0,1,5.2,2.25A7,7,0,0,1,31,24Zm-.73-4.91-.68-.68-.68-.67,1.73-5.44a3.34,3.34,0,0,1,1,.82,5.19,5.19,0,0,1,.81,2.06.46.46,0,0,0,.41.38,3.75,3.75,0,0,1,1.93.73,5.86,5.86,0,0,1,.85,1.09Z"/><path class="cls-5" d="M19.64,29.61a2.33,2.33,0,0,0,.72-1.74c0-.37.07-.72.23-.84s.37-.06.74,0a2.06,2.06,0,0,0,1.76-.24,2.22,2.22,0,0,0,.7-1.69c0-.47.09-.76.27-.91s.47-.13.93-.08a2.26,2.26,0,0,0,1.83-.36,2.31,2.31,0,0,0,.67-1.82c0-.45,0-.74.2-.86s.44-.09.87,0a2.17,2.17,0,0,0,1.85-.3.63.63,0,0,0-.81-1c-.14.11-.42.08-.84,0a2.21,2.21,0,0,0-1.87.3,2.24,2.24,0,0,0-.66,1.78c0,.47,0,.77-.22.91s-.44.12-.88.07a2.32,2.32,0,0,0-1.87.37A2.39,2.39,0,0,0,22.54,25c0,.43-.08.7-.22.81s-.37.06-.74,0a2.05,2.05,0,0,0-1.76.24,2.26,2.26,0,0,0-.71,1.71c0,.46-.09.75-.25.88a.63.63,0,1,0,.79,1Z"/></g></g></g></svg>