<svg xmlns="http://www.w3.org/2000/svg" xmlns:xlink="http://www.w3.org/1999/xlink" viewBox="0 0 48 48"><defs><style>.cls-1{isolation:isolate;}.cls-2{fill:#adb048;}.cls-10,.cls-11,.cls-12,.cls-3,.cls-4,.cls-6,.cls-7,.cls-8,.cls-9{opacity:0.5;mix-blend-mode:multiply;}.cls-3{fill:url(#linear-gradient);}.cls-4{fill:url(#linear-gradient-2);}.cls-5{fill:#fff;}.cls-6{fill:url(#linear-gradient-3);}.cls-7{fill:url(#linear-gradient-4);}.cls-8{fill:url(#linear-gradient-5);}.cls-9{fill:url(#linear-gradient-6);}.cls-10{fill:url(#linear-gradient-7);}.cls-11{fill:url(#linear-gradient-8);}.cls-12{fill:url(#linear-gradient-9);}</style><linearGradient id="linear-gradient" x1="11.09" y1="20.22" x2="36.09" y2="31.13" gradientUnits="userSpaceOnUse"><stop offset="0"/><stop offset="0.02" stop-color="#060606"/><stop offset="0.3" stop-color="#5d5d5d"/><stop offset="0.55" stop-color="#a2a2a2"/><stop offset="0.76" stop-color="#d5d5d5"/><stop offset="0.91" stop-color="#f3f3f3"/><stop offset="1" stop-color="#fff"/></linearGradient><linearGradient id="linear-gradient-2" x1="37.55" y1="11.82" x2="41.53" y2="14.9" gradientUnits="userSpaceOnUse"><stop offset="0"/><stop offset="0.14" stop-color="#2e2e2e"/><stop offset="0.38" stop-color="#777"/><stop offset="0.59" stop-color="#b1b1b1"/><stop offset="0.77" stop-color="#dcdcdc"/><stop offset="0.92" stop-color="#f5f5f5"/><stop offset="1" stop-color="#fff"/></linearGradient><linearGradient id="linear-gradient-3" x1="14.59" y1="9.88" x2="17.23" y2="11.35" gradientUnits="userSpaceOnUse"><stop offset="0"/><stop offset="0.05" stop-color="#171717"/><stop offset="0.2" stop-color="#545454"/><stop offset="0.35" stop-color="#888"/><stop offset="0.5" stop-color="#b3b3b3"/><stop offset="0.64" stop-color="#d4d4d4"/><stop offset="0.77" stop-color="#ececec"/><stop offset="0.9" stop-color="#fafafa"/><stop offset="1" stop-color="#fff"/></linearGradient><linearGradient id="linear-gradient-4" x1="9.42" y1="35.11" x2="12.76" y2="36.56" xlink:href="#linear-gradient"/><linearGradient id="linear-gradient-5" x1="38.04" y1="30.77" x2="40.63" y2="31.91" xlink:href="#linear-gradient"/><linearGradient id="linear-gradient-6" x1="6.48" y1="19.35" x2="7.39" y2="19.74" xlink:href="#linear-gradient"/><linearGradient id="linear-gradient-7" x1="12.59" y1="26.31" x2="13.5" y2="26.7" xlink:href="#linear-gradient"/><linearGradient id="linear-gradient-8" x1="30.74" y1="37.91" x2="31.65" y2="38.31" xlink:href="#linear-gradient"/><linearGradient id="linear-gradient-9" x1="35.37" y1="21.75" x2="36.28" y2="22.15" xlink:href="#linear-gradient"/></defs><title>cereais</title><g class="cls-1"><g id="Layer_2" data-name="Layer 2"><g id="Capa_1" data-name="Capa 1"><circle class="cls-2" cx="24" cy="24" r="24"/><path class="cls-3" d="M32.41,46.48,24,41.61V33.89s-3.84-.52-4.56-2.12a13.56,13.56,0,0,1-.78-4.23,7.21,7.21,0,0,1,3,.83c.78.66,2.34,2.3,2.34,2.3V27.54s-3.6-.3-4.32-1.86a17.28,17.28,0,0,1-1-4.21s2.57.38,3.59,1.58A3.4,3.4,0,0,0,24,24.36V21.19s-3.36,0-4.38-1.58a8.45,8.45,0,0,1-1-4.05s2.42,0,3.19.87.83-1.3.83-1.3a5.19,5.19,0,0,1-.06-3.19,10.27,10.27,0,0,1,1.62-3l23.7,16.82a22.75,22.75,0,0,1-4.25,11.92C38.54,44.6,32.41,46.48,32.41,46.48Z"/><polygon class="cls-4" points="38.77 14.12 41.66 16.15 42.72 14.46 39.19 11.92 38.77 12.29 38.3 13.02 38.77 14.12"/><path class="cls-5" d="M39.19,14.11l.89-.89v-.41l-.89-.89h-.41l-.89.89v.41l.89.89ZM39,12.54l.47.47-.47.47L38.5,13Z"/><polygon class="cls-6" points="15.44 11.95 17.66 13.2 19.09 10.8 15.44 8.99 15.44 9.88 14.56 10.47 15.44 11.09 15.44 11.95"/><path class="cls-5" d="M14.25,10.76a.87.87,0,0,1,.89.89.3.3,0,0,0,.59,0,.87.87,0,0,1,.89-.89.3.3,0,0,0,0-.59.87.87,0,0,1-.89-.89.3.3,0,1,0-.59,0,.87.87,0,0,1-.89.89.3.3,0,1,0,0,.59Zm1.19-.59a1.4,1.4,0,0,0,.3.3,1.4,1.4,0,0,0-.3.3,1.41,1.41,0,0,0-.3-.3A1.41,1.41,0,0,0,15.44,10.17Z"/><polygon class="cls-7" points="10.6 36.6 13.33 38.2 14.27 36.49 11.02 34.41 9.99 35.51 10.6 36.6"/><path class="cls-5" d="M11,36.6l.89-.89V35.3L11,34.41H10.6l-.89.89v.41l.89.89ZM10.81,35l.47.47-.47.47-.47-.47Z"/><polygon class="cls-8" points="38.73 31.79 41.15 33.22 41.87 31.71 38.92 30.07 38.73 31.79"/><path class="cls-5" d="M38.33,31.25h.3v.3a.3.3,0,1,0,.59,0v-.3h.3a.3.3,0,1,0,0-.59h-.3v-.3a.3.3,0,0,0-.59,0v.3h-.3a.3.3,0,1,0,0,.59Z"/><polygon class="cls-9" points="6.56 19.62 7.53 20.21 7.83 19.66 6.86 19.11 6.56 19.62"/><path class="cls-5" d="M6.72,19.66a.3.3,0,1,0-.3-.3A.28.28,0,0,0,6.72,19.66Z"/><polygon class="cls-10" points="12.67 26.58 13.64 27.17 13.93 26.62 12.97 26.07 12.67 26.58"/><path class="cls-5" d="M12.81,26.62a.3.3,0,1,0-.3-.3A.28.28,0,0,0,12.81,26.62Z"/><polygon class="cls-11" points="30.82 38.18 31.79 38.77 32.08 38.23 31.12 37.67 30.82 38.18"/><path class="cls-5" d="M31,38.22a.3.3,0,1,0-.3-.3A.28.28,0,0,0,31,38.22Z"/><polygon class="cls-12" points="35.46 22.03 36.43 22.62 36.72 22.07 35.76 21.51 35.46 22.03"/><path class="cls-5" d="M35.62,22.07a.3.3,0,1,0-.3-.3A.28.28,0,0,0,35.62,22.07Z"/><path class="cls-5" d="M23,15.79a.52.52,0,0,0,.25-.68,4.27,4.27,0,0,1-.39-1.82A5.8,5.8,0,0,1,24,9.9a5.8,5.8,0,0,1,1.12,3.39,4.29,4.29,0,0,1-.39,1.82.52.52,0,0,0,.94.43,5.3,5.3,0,0,0,.49-2.25,6.69,6.69,0,0,0-1.79-4.56.53.53,0,0,0-.72,0,6.68,6.68,0,0,0-1.79,4.56,5.29,5.29,0,0,0,.49,2.25A.52.52,0,0,0,23,15.79Z"/><path class="cls-5" d="M25.31,26.7a.51.51,0,0,0-.41.42.4.4,0,0,0-.1.25.4.4,0,0,0,.4.41h0a8.83,8.83,0,0,0,6.55-3.53.41.41,0,0,0-.64-.5,8.71,8.71,0,0,1-2.39,2.11,5.76,5.76,0,0,0,1.13-4.6.52.52,0,0,0-.5-.41,6.68,6.68,0,0,0-4.46,2,5.93,5.93,0,0,0-.44.51V20h0a4,4,0,0,1,1.18-2.42,5.8,5.8,0,0,1,3.27-1.67,4.32,4.32,0,0,1-3.61,4.77.51.51,0,0,0-.34.24.4.4,0,0,0,.21.72.5.5,0,0,0,.23.06h.1l.48-.11a9.09,9.09,0,0,0,5.79-3.47.41.41,0,0,0-.64-.5,8.73,8.73,0,0,1-2.2,2,5.82,5.82,0,0,0,.94-4.36.51.51,0,0,0-.5-.41,6.36,6.36,0,0,0-2.33.56A7.77,7.77,0,0,0,28.71,8.9a.41.41,0,0,0-.79.17c.95,4.3-2.88,7.43-4,8.24-1.12-.81-5-3.94-4-8.24a.41.41,0,0,0-.79-.17,7.72,7.72,0,0,0,1.59,6.39,6.27,6.27,0,0,0-2.08-.45h0a.52.52,0,0,0-.5.41A5.86,5.86,0,0,0,19,19.51a8.79,8.79,0,0,1-2-1.89.41.41,0,0,0-.64.5,9.11,9.11,0,0,0,5.59,3.43,6.06,6.06,0,0,0,.59.15h.1a.51.51,0,0,0,.22-.06h.07a.4.4,0,0,0,.4-.41.4.4,0,0,0-.31-.38.51.51,0,0,0-.29-.17,4.31,4.31,0,0,1-3.61-4.77,5.8,5.8,0,0,1,3.27,1.67A4,4,0,0,1,23.53,20h0v3.38a6.29,6.29,0,0,0-.44-.51,6.69,6.69,0,0,0-4.46-2h0a.52.52,0,0,0-.5.41,5.8,5.8,0,0,0,1,4.47,8.74,8.74,0,0,1-2.19-2,.41.41,0,0,0-.64.5,8.83,8.83,0,0,0,6.55,3.53h0a.4.4,0,0,0,.18-.76.51.51,0,0,0-.37-.32,4.32,4.32,0,0,1-3.61-4.77,5.81,5.81,0,0,1,3.27,1.67A4,4,0,0,1,23.53,26h0v3.52a5.73,5.73,0,0,0-.44-.51,6.68,6.68,0,0,0-4.46-2h0a.52.52,0,0,0-.5.41,5.8,5.8,0,0,0,1,4.46,8.74,8.74,0,0,1-2.18-2,.41.41,0,0,0-.64.5,8.83,8.83,0,0,0,6.55,3.53h0a.4.4,0,0,0,.17-.76.51.51,0,0,0-.37-.31,4.32,4.32,0,0,1-3.61-4.77,5.81,5.81,0,0,1,3.27,1.67,4,4,0,0,1,1.18,2.42h0V41.4a.47.47,0,1,0,.94,0V32.19h0a4,4,0,0,1,1.18-2.42,5.81,5.81,0,0,1,3.27-1.67,4.32,4.32,0,0,1-3.61,4.77.51.51,0,0,0-.41.42.4.4,0,0,0-.1.25.4.4,0,0,0,.4.41h0a8.83,8.83,0,0,0,6.55-3.53.41.41,0,0,0-.64-.5A8.71,8.71,0,0,1,28.75,32a5.77,5.77,0,0,0,1.12-4.59.52.52,0,0,0-.5-.41,6.68,6.68,0,0,0-4.46,2,5.93,5.93,0,0,0-.44.51V26h0a4,4,0,0,1,1.18-2.42,5.81,5.81,0,0,1,3.27-1.67,4.32,4.32,0,0,1-3.61,4.77Z"/></g></g></g></svg>