<svg xmlns="http://www.w3.org/2000/svg" xmlns:xlink="http://www.w3.org/1999/xlink" viewBox="0 0 48 47.76"><defs><style>.cls-1{isolation:isolate;}.cls-2{fill:#69331c;}.cls-3{opacity:0.3;fill:url(#linear-gradient);}.cls-10,.cls-3,.cls-4,.cls-6,.cls-7,.cls-8,.cls-9{mix-blend-mode:multiply;}.cls-10,.cls-4,.cls-6,.cls-7,.cls-8,.cls-9{opacity:0.5;}.cls-4{fill:url(#linear-gradient-2);}.cls-5{fill:#fff;}.cls-6{fill:url(#linear-gradient-3);}.cls-7{fill:url(#linear-gradient-4);}.cls-8{fill:url(#linear-gradient-5);}.cls-9{fill:url(#linear-gradient-6);}.cls-10{fill:url(#linear-gradient-7);}</style><linearGradient id="linear-gradient" x1="10.9" y1="26.65" x2="48" y2="26.65" gradientUnits="userSpaceOnUse"><stop offset="0"/><stop offset="0.02" stop-color="#060606"/><stop offset="0.3" stop-color="#5d5d5d"/><stop offset="0.55" stop-color="#a2a2a2"/><stop offset="0.76" stop-color="#d5d5d5"/><stop offset="0.91" stop-color="#f3f3f3"/><stop offset="1" stop-color="#fff"/></linearGradient><linearGradient id="linear-gradient-2" x1="10.57" y1="9.96" x2="14.53" y2="13.02" gradientUnits="userSpaceOnUse"><stop offset="0"/><stop offset="0.14" stop-color="#2e2e2e"/><stop offset="0.38" stop-color="#777"/><stop offset="0.59" stop-color="#b1b1b1"/><stop offset="0.77" stop-color="#dcdcdc"/><stop offset="0.92" stop-color="#f5f5f5"/><stop offset="1" stop-color="#fff"/></linearGradient><linearGradient id="linear-gradient-3" x1="11.58" y1="39.21" x2="14.21" y2="40.68" gradientUnits="userSpaceOnUse"><stop offset="0"/><stop offset="0.05" stop-color="#171717"/><stop offset="0.2" stop-color="#545454"/><stop offset="0.35" stop-color="#888"/><stop offset="0.5" stop-color="#b3b3b3"/><stop offset="0.64" stop-color="#d4d4d4"/><stop offset="0.77" stop-color="#ececec"/><stop offset="0.9" stop-color="#fafafa"/><stop offset="1" stop-color="#fff"/></linearGradient><linearGradient id="linear-gradient-4" x1="37.48" y1="32.54" x2="40.8" y2="33.99" xlink:href="#linear-gradient"/><linearGradient id="linear-gradient-5" x1="36" y1="13.4" x2="38.59" y2="14.53" xlink:href="#linear-gradient"/><linearGradient id="linear-gradient-6" x1="6.51" y1="19.55" x2="7.42" y2="19.94" xlink:href="#linear-gradient"/><linearGradient id="linear-gradient-7" x1="30.65" y1="38.02" x2="31.55" y2="38.41" xlink:href="#linear-gradient"/></defs><title>chocolate</title><g class="cls-1"><g id="Layer_2" data-name="Layer 2"><g id="Capa_1" data-name="Capa 1"><circle class="cls-2" cx="23.88" cy="23.88" r="23.88"/><path class="cls-3" d="M24.56,38.88,36,44.45a25.77,25.77,0,0,0,10.17-12c3-7.9,1.41-10.94,1.41-10.94l-12.4-6.2L21.82,8.84l-4,9.42-1.27.4L10.9,32.06l2.18-.21.67,2.35L16.53,33l1.07,2.62,2.59-.72L21,37.13l2.84-.54Z"/><polygon class="cls-4" points="11.78 12.24 14.66 14.27 15.71 12.58 12.19 10.06 11.78 10.42 11.31 11.15 11.78 12.24"/><path class="cls-5" d="M12.19,12.24l.88-.88v-.41l-.88-.88h-.41l-.88.88v.41l.88.88ZM12,10.68l.47.47-.47.47-.47-.47Z"/><polygon class="cls-6" points="12.43 41.27 14.64 42.52 16.06 40.13 12.43 38.33 12.43 39.21 11.56 39.8 12.43 40.42 12.43 41.27"/><path class="cls-5" d="M11.25,40.1a.87.87,0,0,1,.88.88.29.29,0,0,0,.59,0,.87.87,0,0,1,.88-.88.29.29,0,0,0,0-.59.87.87,0,0,1-.88-.88.29.29,0,1,0-.59,0,.87.87,0,0,1-.88.88.29.29,0,1,0,0,.59Zm1.18-.59a1.4,1.4,0,0,0,.29.29,1.39,1.39,0,0,0-.29.29,1.4,1.4,0,0,0-.29-.29A1.4,1.4,0,0,0,12.43,39.51Z"/><polygon class="cls-7" points="38.65 34.03 41.37 35.63 42.3 33.92 39.06 31.85 38.04 32.94 38.65 34.03"/><path class="cls-5" d="M39.06,34l.88-.88v-.41l-.88-.88h-.41l-.88.88v.41l.88.88Zm-.21-1.56.47.47-.47.47-.47-.47Z"/><polygon class="cls-8" points="36.7 14.41 39.1 15.83 39.81 14.34 36.88 12.7 36.7 14.41"/><path class="cls-5" d="M36.29,13.88h.29v.29a.29.29,0,1,0,.59,0v-.29h.29a.29.29,0,1,0,0-.59h-.29V13a.29.29,0,0,0-.59,0v.29h-.29a.29.29,0,1,0,0,.59Z"/><polygon class="cls-9" points="6.6 19.82 7.56 20.41 7.86 19.86 6.9 19.31 6.6 19.82"/><path class="cls-5" d="M6.75,19.86a.29.29,0,1,0-.29-.29A.28.28,0,0,0,6.75,19.86Z"/><polygon class="cls-10" points="30.73 38.29 31.7 38.88 31.99 38.33 31.03 37.78 30.73 38.29"/><path class="cls-5" d="M30.89,38.33a.29.29,0,1,0-.29-.29A.28.28,0,0,0,30.89,38.33Z"/><path class="cls-5" d="M26.6,12.5l-3.38-1.58a.43.43,0,0,0-.57.21L21.08,14.5a.43.43,0,0,0,.21.57l1.82.85a.43.43,0,1,0,.36-.78L22,14.48l1.21-2.6,2.6,1.21-.67,1.43a.43.43,0,1,0,.78.36l.85-1.82A.43.43,0,0,0,26.6,12.5Z"/><path class="cls-5" d="M33.1,15.53,29.72,14a.43.43,0,0,0-.57.21l-1.58,3.38a.43.43,0,0,0,.21.57L29.6,19a.43.43,0,1,0,.36-.78l-1.43-.67,1.21-2.6,2.6,1.21-.67,1.43a.43.43,0,1,0,.78.36l.85-1.82A.43.43,0,0,0,33.1,15.53Z"/><path class="cls-5" d="M31.41,24.56l-.13-.06,4.31-9.22a.43.43,0,0,0-.21-.57l-13-6.07a.43.43,0,0,0-.57.21l-4.31,9.22L17.38,18a.43.43,0,0,0-.57.21l-6.56,14a.43.43,0,0,0,.54.59L13,32l.79,2.17a.43.43,0,0,0,.55.26l2.17-.79.79,2.17a.43.43,0,0,0,.55.26L20,35.31l.79,2.17a.43.43,0,0,0,.55.26L23.49,37l.79,2.17a.43.43,0,0,0,.79,0l6.56-14A.43.43,0,0,0,31.41,24.56Zm-2.5-11.93,5.72,2.67L32,21l-5.72-2.67Zm-6.5-3,5.72,2.67L25.47,18l-5.72-2.67Zm-3,6.5,5.72,2.67-.36.78L19,16.87Zm-.73,1.56h0l11,5.16a.43.43,0,0,0,.36-.78L25.52,19.9l.36-.78,5.72,2.67-1.09,2.34L18.29,18.43ZM26,35.09,15.69,30.26a.43.43,0,1,0-.36.78l10.33,4.83-.93,2-.58-1.6A.43.43,0,0,0,23.6,36l-2.17.79-.79-2.17a.43.43,0,0,0-.55-.26l-2.17.79L17.13,33a.43.43,0,0,0-.55-.26l-2.17.79-.79-2.17a.43.43,0,0,0-.55-.26l-1.6.58.93-2,1.36.64a.43.43,0,1,0,.36-.78l-1.36-.64L17.41,19l13.25,6.19Z"/></g></g></g></svg>