<svg xmlns="http://www.w3.org/2000/svg" xmlns:xlink="http://www.w3.org/1999/xlink" viewBox="0 0 48 48"><defs><style>.cls-1{isolation:isolate;}.cls-2{fill:#ffce56;}.cls-3{opacity:0.4;fill:url(#linear-gradient);}.cls-10,.cls-11,.cls-12,.cls-3,.cls-4,.cls-6,.cls-7,.cls-8,.cls-9{mix-blend-mode:multiply;}.cls-10,.cls-11,.cls-12,.cls-4,.cls-6,.cls-7,.cls-8,.cls-9{opacity:0.5;}.cls-4{fill:url(#linear-gradient-2);}.cls-5{fill:#fff;}.cls-6{fill:url(#linear-gradient-3);}.cls-7{fill:url(#linear-gradient-4);}.cls-8{fill:url(#linear-gradient-5);}.cls-9{fill:url(#linear-gradient-6);}.cls-10{fill:url(#linear-gradient-7);}.cls-11{fill:url(#linear-gradient-8);}.cls-12{fill:url(#linear-gradient-9);}</style><linearGradient id="linear-gradient" x1="9.43" y1="20.52" x2="35.42" y2="31.86" gradientUnits="userSpaceOnUse"><stop offset="0"/><stop offset="0.02" stop-color="#060606"/><stop offset="0.3" stop-color="#5d5d5d"/><stop offset="0.55" stop-color="#a2a2a2"/><stop offset="0.76" stop-color="#d5d5d5"/><stop offset="0.91" stop-color="#f3f3f3"/><stop offset="1" stop-color="#fff"/></linearGradient><linearGradient id="linear-gradient-2" x1="10.76" y1="10.11" x2="14.74" y2="13.19" gradientUnits="userSpaceOnUse"><stop offset="0"/><stop offset="0.14" stop-color="#2e2e2e"/><stop offset="0.38" stop-color="#777"/><stop offset="0.59" stop-color="#b1b1b1"/><stop offset="0.77" stop-color="#dcdcdc"/><stop offset="0.92" stop-color="#f5f5f5"/><stop offset="1" stop-color="#fff"/></linearGradient><linearGradient id="linear-gradient-3" x1="9.15" y1="34.69" x2="11.79" y2="36.17" gradientUnits="userSpaceOnUse"><stop offset="0"/><stop offset="0.05" stop-color="#171717"/><stop offset="0.2" stop-color="#545454"/><stop offset="0.35" stop-color="#888"/><stop offset="0.5" stop-color="#b3b3b3"/><stop offset="0.64" stop-color="#d4d4d4"/><stop offset="0.77" stop-color="#ececec"/><stop offset="0.9" stop-color="#fafafa"/><stop offset="1" stop-color="#fff"/></linearGradient><linearGradient id="linear-gradient-4" x1="37.8" y1="32.81" x2="41.15" y2="34.27" xlink:href="#linear-gradient"/><linearGradient id="linear-gradient-5" x1="36.32" y1="13.57" x2="38.92" y2="14.7" xlink:href="#linear-gradient"/><linearGradient id="linear-gradient-6" x1="6.68" y1="19.75" x2="7.59" y2="20.15" xlink:href="#linear-gradient"/><linearGradient id="linear-gradient-7" x1="20.87" y1="12.03" x2="21.78" y2="12.43" xlink:href="#linear-gradient"/><linearGradient id="linear-gradient-8" x1="30.94" y1="38.31" x2="31.85" y2="38.71" xlink:href="#linear-gradient"/><linearGradient id="linear-gradient-9" x1="37.94" y1="22.18" x2="38.85" y2="22.57" xlink:href="#linear-gradient"/></defs><title>citrico</title><g class="cls-1"><g id="Layer_2" data-name="Layer 2"><g id="Capa_1" data-name="Capa 1"><circle class="cls-2" cx="24" cy="24" r="24"/><path class="cls-3" d="M15.92,34,32.29,46.68a28.53,28.53,0,0,0,10.37-7.32A24.84,24.84,0,0,0,48,27L33.53,14.85l-3.16-.15-4.24-.89L21,15l-5.56,5-1.74,6.56,1.18,4.3a1.73,1.73,0,0,0-.2,1.77C15.85,34.75,15.92,34,15.92,34Z"/><polygon class="cls-4" points="11.98 12.4 14.87 14.44 15.92 12.75 12.39 10.21 11.98 10.57 11.5 11.31 11.98 12.4"/><path class="cls-5" d="M12.39,12.4l.89-.89V11.1l-.89-.89H12l-.89.89v.41l.89.89Zm-.21-1.57.47.47-.47.47-.47-.47Z"/><polygon class="cls-6" points="10 36.77 12.22 38.02 13.66 35.62 10 33.8 10 34.69 9.13 35.28 10 35.91 10 36.77"/><path class="cls-5" d="M8.82,35.58a.87.87,0,0,1,.89.89.3.3,0,0,0,.59,0,.87.87,0,0,1,.89-.89.3.3,0,1,0,0-.59.87.87,0,0,1-.89-.89.3.3,0,1,0-.59,0,.87.87,0,0,1-.89.89.3.3,0,0,0,0,.59ZM10,35a1.4,1.4,0,0,0,.3.3,1.4,1.4,0,0,0-.3.3,1.41,1.41,0,0,0-.3-.3A1.41,1.41,0,0,0,10,35Z"/><polygon class="cls-7" points="38.98 34.31 41.72 35.91 42.66 34.2 39.4 32.12 38.37 33.22 38.98 34.31"/><path class="cls-5" d="M39.4,34.31l.89-.89V33l-.89-.89H39l-.89.89v.41l.89.89Zm-.21-1.57.47.47-.47.47-.47-.47Z"/><polygon class="cls-8" points="37.02 14.58 39.44 16.02 40.15 14.51 37.21 12.87 37.02 14.58"/><path class="cls-5" d="M36.61,14.05h.3v.3a.3.3,0,1,0,.59,0v-.3h.3a.3.3,0,0,0,0-.59h-.3v-.3a.3.3,0,0,0-.59,0v.3h-.3a.3.3,0,0,0,0,.59Z"/><polygon class="cls-9" points="6.76 20.03 7.74 20.62 8.03 20.07 7.07 19.51 6.76 20.03"/><path class="cls-5" d="M6.92,20.07a.3.3,0,1,0-.3-.3A.28.28,0,0,0,6.92,20.07Z"/><polygon class="cls-10" points="20.95 12.31 21.93 12.9 22.22 12.35 21.26 11.8 20.95 12.31"/><path class="cls-5" d="M21.1,12.35a.3.3,0,1,0-.3-.3A.28.28,0,0,0,21.1,12.35Z"/><polygon class="cls-11" points="31.02 38.59 31.99 39.18 32.29 38.63 31.32 38.08 31.02 38.59"/><path class="cls-5" d="M31.18,38.63a.3.3,0,1,0-.3-.3A.28.28,0,0,0,31.18,38.63Z"/><polygon class="cls-12" points="38.02 22.45 38.99 23.04 39.29 22.49 38.32 21.94 38.02 22.45"/><path class="cls-5" d="M38.18,22.49a.3.3,0,1,0-.3-.3A.28.28,0,0,0,38.18,22.49Z"/><path class="cls-5" d="M34.71,25.14h-.57a9.8,9.8,0,0,0-.55-7.5,2,2,0,0,0-2.77-2.93c-3.91-2.42-9.56-1.31-13.57,2.7S12.13,27.08,14.55,31a2,2,0,0,0,2.93,2.77,8.9,8.9,0,0,0,4.27,1,11.39,11.39,0,0,0,3.6-.61,8.88,8.88,0,0,0,11-8.64v-.4H34.71ZM22.59,29.82A6.44,6.44,0,0,1,21,26h5.48ZM27,26.52V32a6.43,6.43,0,0,1-3.87-1.6Zm.81,0,3.87,3.87A6.43,6.43,0,0,1,27.84,32Zm4.44,3.3L28.41,26h5.48A6.44,6.44,0,0,1,32.28,29.82ZM17.62,32.91l-.27-.16-.38.38a1.21,1.21,0,1,1-1.71-1.71l.33-.33-.19-.28C13,27.27,14.05,21.76,17.82,18s9.28-4.81,12.82-2.43l.28.19.33-.33A1.21,1.21,0,0,1,33,17.13l-.38.38.16.27a9,9,0,0,1,.55,7.36H18.55v.4c0,.2,0,.4,0,.6v.15c0,.19,0,.38.06.56v0c0,.2.07.39.11.58l0,.14c0,.17.09.34.14.51l0,.06c.06.18.12.36.19.53l.06.15c.06.14.12.28.18.42l.05.12c.08.16.16.31.24.46l.11.19.19.31.14.21.25.35.15.2.21.26.18.2.31.32.16.15.33.3.08.07.46.35.07.05a8.84,8.84,0,0,0,1.66.93A8.66,8.66,0,0,1,17.62,32.91Zm9.82.72a8,8,0,0,1-2-.26l-.62-.18h0l-.58-.22-.05,0a8.09,8.09,0,0,1-1.32-.75l-.35-.25-.19-.16-.36-.31-.16-.16-.35-.37-.13-.15c-.12-.14-.24-.29-.35-.44l-.09-.12A8.09,8.09,0,0,1,20.13,29l-.07-.17c-.07-.16-.14-.32-.2-.48l-.08-.24q-.07-.22-.13-.44l-.07-.26c0-.16-.07-.32-.1-.48s0-.16,0-.24c0-.24-.06-.48-.07-.73h.82a7.26,7.26,0,0,0,14.51,0h.82A8.09,8.09,0,0,1,27.44,33.63Z"/><path class="cls-5" d="M25.36,17.6l.18,0h.4l.22,0a1.24,1.24,0,0,0,1.21-.82,1.37,1.37,0,0,0-.1-1.08,1.09,1.09,0,0,0-.71-.56,4.21,4.21,0,0,0-1.61-.07,1.23,1.23,0,0,0-.82.51,1.27,1.27,0,0,0,1.23,2Zm-.58-1.53a.43.43,0,0,1,.28-.18,3.44,3.44,0,0,1,1.31.06.3.3,0,0,1,.18.16.56.56,0,0,1,0,.42h0a.51.51,0,0,1-.64.26h0l-.12,0h-.37l-.22,0a.46.46,0,0,1-.46-.73Z"/></g></g></g></svg>