<svg xmlns="http://www.w3.org/2000/svg" xmlns:xlink="http://www.w3.org/1999/xlink" viewBox="0 0 48 48"><defs><style>.cls-1{isolation:isolate;}.cls-2{fill:#665e49;}.cls-10,.cls-3,.cls-5,.cls-6,.cls-7,.cls-8,.cls-9{opacity:0.5;}.cls-10,.cls-11,.cls-3,.cls-5,.cls-6,.cls-7,.cls-8,.cls-9{mix-blend-mode:multiply;}.cls-3{fill:url(#linear-gradient);}.cls-4{fill:#fff;}.cls-5{fill:url(#linear-gradient-2);}.cls-6{fill:url(#linear-gradient-3);}.cls-7{fill:url(#linear-gradient-4);}.cls-8{fill:url(#linear-gradient-5);}.cls-9{fill:url(#linear-gradient-6);}.cls-10{fill:url(#linear-gradient-7);}.cls-11{opacity:0.4;fill:url(#linear-gradient-8);}</style><linearGradient id="linear-gradient" x1="41.07" y1="24.11" x2="45.05" y2="27.18" gradientUnits="userSpaceOnUse"><stop offset="0"/><stop offset="0.14" stop-color="#2e2e2e"/><stop offset="0.38" stop-color="#777"/><stop offset="0.59" stop-color="#b1b1b1"/><stop offset="0.77" stop-color="#dcdcdc"/><stop offset="0.92" stop-color="#f5f5f5"/><stop offset="1" stop-color="#fff"/></linearGradient><linearGradient id="linear-gradient-2" x1="18.13" y1="41.27" x2="20.18" y2="42.42" gradientUnits="userSpaceOnUse"><stop offset="0"/><stop offset="0.05" stop-color="#171717"/><stop offset="0.2" stop-color="#545454"/><stop offset="0.35" stop-color="#888"/><stop offset="0.5" stop-color="#b3b3b3"/><stop offset="0.64" stop-color="#d4d4d4"/><stop offset="0.77" stop-color="#ececec"/><stop offset="0.9" stop-color="#fafafa"/><stop offset="1" stop-color="#fff"/></linearGradient><linearGradient id="linear-gradient-3" x1="10.9" y1="11.08" x2="13.49" y2="12.21" gradientUnits="userSpaceOnUse"><stop offset="0"/><stop offset="0.02" stop-color="#060606"/><stop offset="0.3" stop-color="#5d5d5d"/><stop offset="0.55" stop-color="#a2a2a2"/><stop offset="0.76" stop-color="#d5d5d5"/><stop offset="0.91" stop-color="#f3f3f3"/><stop offset="1" stop-color="#fff"/></linearGradient><linearGradient id="linear-gradient-4" x1="6.48" y1="19.35" x2="7.39" y2="19.74" xlink:href="#linear-gradient-3"/><linearGradient id="linear-gradient-5" x1="41.86" y1="14.28" x2="42.77" y2="14.68" xlink:href="#linear-gradient-3"/><linearGradient id="linear-gradient-6" x1="37.02" y1="32.93" x2="37.93" y2="33.32" xlink:href="#linear-gradient-3"/><linearGradient id="linear-gradient-7" x1="27.23" y1="5" x2="28.14" y2="5.4" xlink:href="#linear-gradient-3"/><linearGradient id="linear-gradient-8" x1="13.26" y1="15.02" x2="36.91" y2="34.65" xlink:href="#linear-gradient-3"/></defs><title>defumado</title><g class="cls-1"><g id="Layer_2" data-name="Layer 2"><g id="Capa_1" data-name="Capa 1"><circle class="cls-2" cx="24" cy="24" r="24"/><polygon class="cls-3" points="42.28 26.4 45.18 28.44 46.23 26.75 42.7 24.21 42.28 24.57 41.81 25.3 42.28 26.4"/><path class="cls-4" d="M42.7,26.4l.89-.89V25.1l-.89-.89h-.41l-.89.89v.41l.89.89Zm-.21-1.57.47.47-.47.47L42,25.3Z"/><polygon class="cls-5" points="18.79 42.89 20.52 43.86 21.64 41.99 18.79 40.58 18.79 41.27 18.11 41.73 18.79 42.22 18.79 42.89"/><path class="cls-4" d="M17.87,42a.68.68,0,0,1,.69.69.23.23,0,1,0,.46,0,.68.68,0,0,1,.69-.69.23.23,0,0,0,0-.46.68.68,0,0,1-.69-.69.23.23,0,0,0-.46,0,.68.68,0,0,1-.69.69.23.23,0,1,0,0,.46Zm.92-.46a1.1,1.1,0,0,0,.23.23,1.07,1.07,0,0,0-.23.23,1.09,1.09,0,0,0-.23-.23A1.11,1.11,0,0,0,18.79,41.5Z"/><polygon class="cls-6" points="11.6 12.09 14.01 13.53 14.73 12.02 11.78 10.37 11.6 12.09"/><path class="cls-4" d="M11.19,11.56h.3v.3a.3.3,0,1,0,.59,0v-.3h.3a.3.3,0,1,0,0-.59h-.3v-.3a.3.3,0,0,0-.59,0V11h-.3a.3.3,0,1,0,0,.59Z"/><polygon class="cls-7" points="6.56 19.62 7.53 20.21 7.83 19.66 6.86 19.11 6.56 19.62"/><path class="cls-4" d="M6.72,19.66a.3.3,0,1,0-.3-.3A.28.28,0,0,0,6.72,19.66Z"/><polygon class="cls-8" points="41.94 14.55 42.91 15.14 43.2 14.6 42.24 14.04 41.94 14.55"/><path class="cls-4" d="M42.08,14.59a.3.3,0,1,0-.3-.3A.28.28,0,0,0,42.08,14.59Z"/><polygon class="cls-9" points="37.1 33.2 38.07 33.79 38.37 33.24 37.4 32.69 37.1 33.2"/><path class="cls-4" d="M37.26,33.24a.3.3,0,1,0-.3-.3A.28.28,0,0,0,37.26,33.24Z"/><polygon class="cls-10" points="27.31 5.28 28.28 5.87 28.58 5.32 27.61 4.76 27.31 5.28"/><path class="cls-4" d="M27.47,5.32a.3.3,0,1,0-.3-.3A.28.28,0,0,0,27.47,5.32Z"/><path class="cls-11" d="M15.57,31.45l19,14.08a23.09,23.09,0,0,0,8.17-6.59,32.85,32.85,0,0,0,4.71-10L31.87,17.74h-16s2.05,2.44,1.76,4-3.51,4.07-3.45,5.65A13.27,13.27,0,0,0,15.57,31.45Z"/><path class="cls-4" d="M23,24.06a5,5,0,0,0-1.75,3.5A5.47,5.47,0,0,0,23,31.22a.74.74,0,0,0,1.07,0,.74.74,0,0,0,0-1.07,4,4,0,0,1-1.29-2.59A3.39,3.39,0,0,1,24,25.13a4.87,4.87,0,0,0,1.75-3.5A5,5,0,0,0,24,18,.75.75,0,1,0,23,19a4,4,0,0,1,1.29,2.59A3.39,3.39,0,0,1,23,24.06Z"/><path class="cls-4" d="M29.59,27.57a5.47,5.47,0,0,0,1.75,3.65.69.69,0,0,0,.53.23.54.54,0,0,0,.46-.23.74.74,0,0,0,0-1.07A4,4,0,0,1,31,27.57a3.39,3.39,0,0,1,1.29-2.44,4.71,4.71,0,0,0,1.83-3.5A4.9,4.9,0,0,0,32.4,18,.75.75,0,1,0,31.34,19a4,4,0,0,1,1.29,2.59,3.53,3.53,0,0,1-1.29,2.44A5,5,0,0,0,29.59,27.57Z"/><path class="cls-4" d="M13.6,27.57a5.47,5.47,0,0,0,1.75,3.65.69.69,0,0,0,.53.23.54.54,0,0,0,.46-.23.74.74,0,0,0,0-1.07A4,4,0,0,1,15,27.57a3.39,3.39,0,0,1,1.29-2.44,4.71,4.71,0,0,0,1.83-3.5A4.9,4.9,0,0,0,16.41,18,.75.75,0,1,0,15.35,19a4,4,0,0,1,1.29,2.59,3.53,3.53,0,0,1-1.29,2.44A5,5,0,0,0,13.6,27.57Z"/></g></g></g></svg>