<svg xmlns="http://www.w3.org/2000/svg" xmlns:xlink="http://www.w3.org/1999/xlink" viewBox="0 0 48 48"><defs><style>.cls-1{isolation:isolate;}.cls-2{fill:#bd173d;}.cls-3{opacity:0.4;fill:url(#linear-gradient);}.cls-10,.cls-11,.cls-3,.cls-4,.cls-6,.cls-7,.cls-8,.cls-9{mix-blend-mode:multiply;}.cls-10,.cls-11,.cls-4,.cls-6,.cls-7,.cls-8,.cls-9{opacity:0.5;}.cls-4{fill:url(#linear-gradient-2);}.cls-5{fill:#fff;}.cls-6{fill:url(#linear-gradient-3);}.cls-7{fill:url(#linear-gradient-4);}.cls-8{fill:url(#linear-gradient-5);}.cls-9{fill:url(#linear-gradient-6);}.cls-10{fill:url(#linear-gradient-7);}.cls-11{fill:url(#linear-gradient-8);}</style><linearGradient id="linear-gradient" x1="15.53" y1="23.91" x2="32.45" y2="33.99" gradientUnits="userSpaceOnUse"><stop offset="0"/><stop offset="0.02" stop-color="#060606"/><stop offset="0.3" stop-color="#5d5d5d"/><stop offset="0.55" stop-color="#a2a2a2"/><stop offset="0.76" stop-color="#d5d5d5"/><stop offset="0.91" stop-color="#f3f3f3"/><stop offset="1" stop-color="#fff"/></linearGradient><linearGradient id="linear-gradient-2" x1="41.16" y1="24.11" x2="45.14" y2="27.18" gradientUnits="userSpaceOnUse"><stop offset="0"/><stop offset="0.14" stop-color="#2e2e2e"/><stop offset="0.38" stop-color="#777"/><stop offset="0.59" stop-color="#b1b1b1"/><stop offset="0.77" stop-color="#dcdcdc"/><stop offset="0.92" stop-color="#f5f5f5"/><stop offset="1" stop-color="#fff"/></linearGradient><linearGradient id="linear-gradient-3" x1="18.22" y1="41.27" x2="20.27" y2="42.42" gradientUnits="userSpaceOnUse"><stop offset="0"/><stop offset="0.05" stop-color="#171717"/><stop offset="0.2" stop-color="#545454"/><stop offset="0.35" stop-color="#888"/><stop offset="0.5" stop-color="#b3b3b3"/><stop offset="0.64" stop-color="#d4d4d4"/><stop offset="0.77" stop-color="#ececec"/><stop offset="0.9" stop-color="#fafafa"/><stop offset="1" stop-color="#fff"/></linearGradient><linearGradient id="linear-gradient-4" x1="10.99" y1="11.08" x2="13.58" y2="12.21" xlink:href="#linear-gradient"/><linearGradient id="linear-gradient-5" x1="6.57" y1="19.35" x2="7.48" y2="19.74" xlink:href="#linear-gradient"/><linearGradient id="linear-gradient-6" x1="41.95" y1="14.28" x2="42.86" y2="14.68" xlink:href="#linear-gradient"/><linearGradient id="linear-gradient-7" x1="37.11" y1="32.93" x2="38.02" y2="33.32" xlink:href="#linear-gradient"/><linearGradient id="linear-gradient-8" x1="27.32" y1="5" x2="28.23" y2="5.4" xlink:href="#linear-gradient"/></defs><title>doce</title><g class="cls-1"><g id="Layer_2" data-name="Layer 2"><g id="Capa_1" data-name="Capa 1"><circle class="cls-2" cx="24" cy="24" r="24"/><path class="cls-3" d="M17.07,34.1,35.79,44.91s5.82-3.59,7.89-7.17,2.48-4.5,2.48-4.5L31.83,24.35s-1.56,0-1.68,0-1.08,0-1.08,0a.36.36,0,0,0-.37-.49c-.52,0-9.4.14-9.4.14l-.15,4.78,2,3.28-4.79.28Z"/><polygon class="cls-4" points="42.38 26.4 45.27 28.44 46.32 26.75 42.79 24.21 42.38 24.57 41.9 25.3 42.38 26.4"/><path class="cls-5" d="M42.79,26.4l.89-.89V25.1l-.89-.89h-.41l-.89.89v.41l.89.89Zm-.21-1.57.47.47-.47.47-.47-.47Z"/><polygon class="cls-6" points="18.88 42.89 20.61 43.86 21.73 41.99 18.88 40.58 18.88 41.27 18.2 41.73 18.88 42.22 18.88 42.89"/><path class="cls-5" d="M18,42a.68.68,0,0,1,.69.69.23.23,0,1,0,.46,0A.68.68,0,0,1,19.8,42a.23.23,0,0,0,0-.46.68.68,0,0,1-.69-.69.23.23,0,1,0-.46,0,.68.68,0,0,1-.69.69A.23.23,0,1,0,18,42Zm.92-.46a1.1,1.1,0,0,0,.23.23,1.07,1.07,0,0,0-.23.23,1.09,1.09,0,0,0-.23-.23A1.11,1.11,0,0,0,18.88,41.5Z"/><polygon class="cls-7" points="11.69 12.09 14.1 13.53 14.82 12.02 11.87 10.37 11.69 12.09"/><path class="cls-5" d="M11.28,11.56h.3v.3a.3.3,0,1,0,.59,0v-.3h.3a.3.3,0,1,0,0-.59h-.3v-.3a.3.3,0,0,0-.59,0V11h-.3a.3.3,0,1,0,0,.59Z"/><polygon class="cls-8" points="6.65 19.62 7.62 20.21 7.92 19.66 6.95 19.11 6.65 19.62"/><path class="cls-5" d="M6.81,19.66a.3.3,0,1,0-.3-.3A.28.28,0,0,0,6.81,19.66Z"/><polygon class="cls-9" points="42.03 14.55 43 15.14 43.29 14.6 42.33 14.04 42.03 14.55"/><path class="cls-5" d="M42.17,14.59a.3.3,0,1,0-.3-.3A.28.28,0,0,0,42.17,14.59Z"/><polygon class="cls-10" points="37.19 33.2 38.16 33.79 38.46 33.24 37.49 32.69 37.19 33.2"/><path class="cls-5" d="M37.35,33.24a.3.3,0,1,0-.3-.3A.28.28,0,0,0,37.35,33.24Z"/><polygon class="cls-11" points="27.4 5.28 28.37 5.87 28.67 5.32 27.7 4.76 27.4 5.28"/><path class="cls-5" d="M27.56,5.32a.3.3,0,1,0-.3-.3A.28.28,0,0,0,27.56,5.32Z"/><path class="cls-5" d="M32.31,31.71H27.81l.21-.18a.45.45,0,0,0,0-.63.46.46,0,0,0-.63,0,3.19,3.19,0,0,1-2.16.84H22.77a3.2,3.2,0,0,1-3.19-3.19V24.19h8.87v.45a.45.45,0,0,0,.23.39.46.46,0,0,0,.45,0,2,2,0,0,1,1.22-.29,2,2,0,0,1,1.86,2,2,2,0,0,1-3.08,1.71.46.46,0,0,0-.44,0,.45.45,0,0,0-.25.36,3.21,3.21,0,0,1-.13.65.45.45,0,0,0,.29.56.45.45,0,0,0,.56-.29l.06-.22A2.92,2.92,0,1,0,29.34,24v-.14a.53.53,0,0,0-.53-.53h-9.6a.53.53,0,0,0-.53.53v4.7a4.11,4.11,0,0,0,1.54,3.19h-4a.45.45,0,0,0-.45.45,2.11,2.11,0,0,0,2.1,2.1H30.66a2.1,2.1,0,0,0,2.1-2.1A.45.45,0,0,0,32.31,31.71Zm-1.66,1.66H17.87a1.21,1.21,0,0,1-1.12-.76h15a1.21,1.21,0,0,1-1.12.76Z"/><path class="cls-5" d="M26.65,18.51a2.13,2.13,0,0,0-2.09-1.74,2.1,2.1,0,0,0-.83.17c-.74-.18-1.24,0-1.51.46l-5.86-3.12a1,1,0,1,0-.83,1.78l6.29,2.53a2.13,2.13,0,0,0,0,.71,2.17,2.17,0,0,0,1.36,1.51,3.93,3.93,0,0,0,1.65.38,3.32,3.32,0,0,0,.73-.08,2.35,2.35,0,0,0,1.67-1.25v0c.12-.25.11-.69-.6-1.33Zm.11,1.1h0s-.08.08-.24.1a2.1,2.1,0,0,0,.13-.42c.12.18.13.28.12.31Zm-2.21-2.31a1.59,1.59,0,0,1,1.58,1.38,1.53,1.53,0,0,1,0,.21,1.58,1.58,0,0,1-.22.81A7.05,7.05,0,0,1,24,19.09a5,5,0,0,1-1-.57,1.59,1.59,0,0,1,.85-1.06A1.57,1.57,0,0,1,24.56,17.31ZM23,17.42a2.11,2.11,0,0,0-.41.6.49.49,0,0,1,0-.32h0a.44.44,0,0,1,.37-.29Zm-7.55-2.11a.45.45,0,0,1,.28-.59l.14,0a.45.45,0,0,1,.21.05L22,17.88l-.08.17-6.18-2.49A.45.45,0,0,1,15.47,15.31Zm10,5.28a3.2,3.2,0,0,1-2-.26,1.49,1.49,0,0,1-1.06-1.69l.18.19a4.87,4.87,0,0,0,1.22.76,7.24,7.24,0,0,0,2.28.68h.16A2.16,2.16,0,0,1,25.45,20.59Z"/><path class="cls-5" d="M24.26,18.1a.27.27,0,1,0-.19-.08A.27.27,0,0,0,24.26,18.1Z"/><path class="cls-5" d="M25.12,18.19a.27.27,0,1,0-.27-.27.27.27,0,0,0,.27.27Z"/><path class="cls-5" d="M24.4,18.83a.27.27,0,0,0,.27.27.27.27,0,1,0-.19-.46A.27.27,0,0,0,24.4,18.83Z"/><path class="cls-5" d="M25.42,19a.27.27,0,1,0-.08-.19A.27.27,0,0,0,25.42,19Z"/><path class="cls-5" d="M23.43,18.59a.27.27,0,1,0-.08-.19A.27.27,0,0,0,23.43,18.59Z"/></g></g></g></svg>