<svg xmlns="http://www.w3.org/2000/svg" xmlns:xlink="http://www.w3.org/1999/xlink" viewBox="0 0 48 48"><defs><style>.cls-1{isolation:isolate;}.cls-2{fill:#cf4927;}.cls-3{opacity:0.3;fill:url(#linear-gradient);}.cls-10,.cls-11,.cls-3,.cls-4,.cls-6,.cls-7,.cls-8,.cls-9{mix-blend-mode:multiply;}.cls-10,.cls-11,.cls-4,.cls-6,.cls-7,.cls-8,.cls-9{opacity:0.5;}.cls-4{fill:url(#linear-gradient-2);}.cls-5{fill:#fff;}.cls-6{fill:url(#linear-gradient-3);}.cls-7{fill:url(#linear-gradient-4);}.cls-8{fill:url(#linear-gradient-5);}.cls-9{fill:url(#linear-gradient-6);}.cls-10{fill:url(#linear-gradient-7);}.cls-11{fill:url(#linear-gradient-8);}.cls-12{fill:none;stroke:#fff;stroke-linecap:round;stroke-linejoin:round;stroke-width:1.5px;}</style><linearGradient id="linear-gradient" x1="14.95" y1="31.59" x2="47.5" y2="31.59" gradientUnits="userSpaceOnUse"><stop offset="0"/><stop offset="0.02" stop-color="#060606"/><stop offset="0.3" stop-color="#5d5d5d"/><stop offset="0.55" stop-color="#a2a2a2"/><stop offset="0.76" stop-color="#d5d5d5"/><stop offset="0.91" stop-color="#f3f3f3"/><stop offset="1" stop-color="#fff"/></linearGradient><linearGradient id="linear-gradient-2" x1="41.07" y1="24.11" x2="45.05" y2="27.18" gradientUnits="userSpaceOnUse"><stop offset="0"/><stop offset="0.14" stop-color="#2e2e2e"/><stop offset="0.38" stop-color="#777"/><stop offset="0.59" stop-color="#b1b1b1"/><stop offset="0.77" stop-color="#dcdcdc"/><stop offset="0.92" stop-color="#f5f5f5"/><stop offset="1" stop-color="#fff"/></linearGradient><linearGradient id="linear-gradient-3" x1="18.13" y1="41.27" x2="20.18" y2="42.42" gradientUnits="userSpaceOnUse"><stop offset="0"/><stop offset="0.05" stop-color="#171717"/><stop offset="0.2" stop-color="#545454"/><stop offset="0.35" stop-color="#888"/><stop offset="0.5" stop-color="#b3b3b3"/><stop offset="0.64" stop-color="#d4d4d4"/><stop offset="0.77" stop-color="#ececec"/><stop offset="0.9" stop-color="#fafafa"/><stop offset="1" stop-color="#fff"/></linearGradient><linearGradient id="linear-gradient-4" x1="10.9" y1="11.08" x2="13.49" y2="12.21" xlink:href="#linear-gradient"/><linearGradient id="linear-gradient-5" x1="6.48" y1="19.35" x2="7.39" y2="19.74" xlink:href="#linear-gradient"/><linearGradient id="linear-gradient-6" x1="41.86" y1="14.28" x2="42.77" y2="14.68" xlink:href="#linear-gradient"/><linearGradient id="linear-gradient-7" x1="37.02" y1="32.93" x2="37.93" y2="33.32" xlink:href="#linear-gradient"/><linearGradient id="linear-gradient-8" x1="27.23" y1="5" x2="28.14" y2="5.4" xlink:href="#linear-gradient"/></defs><title>encorpado</title><g class="cls-1"><g id="Layer_2" data-name="Layer 2"><g id="Capa_1" data-name="Capa 1"><circle class="cls-2" cx="24" cy="24" r="24"/><path class="cls-3" d="M16.64,31.94,38.37,43.23S44,38.87,45.6,34.48s1.9-5.58,1.9-5.58l-14.7-8H29.72v-.66l-10.93-.27v6.38L20.35,29l-1.2.46-4.2-.31.73,1.47Z"/><polygon class="cls-4" points="42.28 26.4 45.18 28.44 46.23 26.75 42.7 24.21 42.28 24.57 41.81 25.3 42.28 26.4"/><path class="cls-5" d="M42.7,26.4l.89-.89V25.1l-.89-.89h-.41l-.89.89v.41l.89.89Zm-.21-1.57.47.47-.47.47L42,25.3Z"/><polygon class="cls-6" points="18.79 42.89 20.52 43.86 21.64 41.99 18.79 40.58 18.79 41.27 18.11 41.73 18.79 42.22 18.79 42.89"/><path class="cls-5" d="M17.87,42a.68.68,0,0,1,.69.69.23.23,0,1,0,.46,0,.68.68,0,0,1,.69-.69.23.23,0,0,0,0-.46.68.68,0,0,1-.69-.69.23.23,0,1,0-.46,0,.68.68,0,0,1-.69.69.23.23,0,1,0,0,.46Zm.92-.46a1.1,1.1,0,0,0,.23.23,1.07,1.07,0,0,0-.23.23,1.08,1.08,0,0,0-.23-.23A1.11,1.11,0,0,0,18.79,41.5Z"/><polygon class="cls-7" points="11.6 12.09 14.01 13.53 14.73 12.02 11.78 10.37 11.6 12.09"/><path class="cls-5" d="M11.19,11.56h.3v.3a.3.3,0,1,0,.59,0v-.3h.3a.3.3,0,1,0,0-.59h-.3v-.3a.3.3,0,0,0-.59,0V11h-.3a.3.3,0,1,0,0,.59Z"/><polygon class="cls-8" points="6.56 19.62 7.53 20.21 7.83 19.66 6.86 19.11 6.56 19.62"/><path class="cls-5" d="M6.72,19.66a.3.3,0,1,0-.3-.3A.28.28,0,0,0,6.72,19.66Z"/><polygon class="cls-9" points="41.94 14.55 42.91 15.14 43.2 14.6 42.24 14.04 41.94 14.55"/><path class="cls-5" d="M42.08,14.59a.3.3,0,1,0-.3-.3A.28.28,0,0,0,42.08,14.59Z"/><polygon class="cls-10" points="37.1 33.2 38.07 33.79 38.37 33.24 37.4 32.69 37.1 33.2"/><path class="cls-5" d="M37.26,33.24a.3.3,0,1,0-.3-.3A.28.28,0,0,0,37.26,33.24Z"/><polygon class="cls-11" points="27.31 5.28 28.28 5.87 28.58 5.32 27.61 4.76 27.31 5.28"/><path class="cls-5" d="M27.47,5.32a.3.3,0,1,0-.3-.3A.28.28,0,0,0,27.47,5.32Z"/><path class="cls-5" d="M33.8,29.07H28.62l.24-.21a.52.52,0,0,0,0-.73.53.53,0,0,0-.73,0,3.66,3.66,0,0,1-2.48,1H22.82a3.67,3.67,0,0,1-3.67-3.67v-5h10.2v.52a.52.52,0,0,0,.26.45.53.53,0,0,0,.52,0,2.33,2.33,0,0,1,1.4-.33,2.3,2.3,0,0,1,2.14,2.32,2.32,2.32,0,0,1-3.55,2,.53.53,0,0,0-.5,0,.51.51,0,0,0-.28.41,3.68,3.68,0,0,1-.15.75.52.52,0,0,0,.34.64.52.52,0,0,0,.64-.34l.07-.26a3.35,3.35,0,1,0,.13-6.38V20a.61.61,0,0,0-.61-.61h-11a.61.61,0,0,0-.61.61v5.4a4.73,4.73,0,0,0,1.77,3.67H15.29a.52.52,0,0,0-.51.51A2.42,2.42,0,0,0,17.19,32H31.9a2.42,2.42,0,0,0,2.42-2.42A.52.52,0,0,0,33.8,29.07ZM31.9,31H17.19a1.4,1.4,0,0,1-1.29-.87H33.19A1.39,1.39,0,0,1,31.9,31Z"/><line class="cls-12" x1="20.35" y1="17.49" x2="20.35" y2="14"/><line class="cls-12" x1="21.98" y1="16.34" x2="21.98" y2="12.85"/></g></g></g></svg>