<svg xmlns="http://www.w3.org/2000/svg" xmlns:xlink="http://www.w3.org/1999/xlink" viewBox="0 0 48 48"><defs><style>.cls-1{isolation:isolate;}.cls-2{fill:#75823a;}.cls-10,.cls-11,.cls-3,.cls-5,.cls-6,.cls-7,.cls-8,.cls-9{opacity:0.5;}.cls-10,.cls-11,.cls-12,.cls-3,.cls-5,.cls-6,.cls-7,.cls-8,.cls-9{mix-blend-mode:multiply;}.cls-3{fill:url(#linear-gradient);}.cls-4{fill:#fff;}.cls-5{fill:url(#linear-gradient-2);}.cls-6{fill:url(#linear-gradient-3);}.cls-7{fill:url(#linear-gradient-4);}.cls-8{fill:url(#linear-gradient-5);}.cls-9{fill:url(#linear-gradient-6);}.cls-10{fill:url(#linear-gradient-7);}.cls-11{fill:url(#linear-gradient-8);}.cls-12{opacity:0.4;fill:url(#linear-gradient-9);}</style><linearGradient id="linear-gradient" x1="41.07" y1="24.11" x2="45.05" y2="27.18" gradientUnits="userSpaceOnUse"><stop offset="0"/><stop offset="0.14" stop-color="#2e2e2e"/><stop offset="0.38" stop-color="#777"/><stop offset="0.59" stop-color="#b1b1b1"/><stop offset="0.77" stop-color="#dcdcdc"/><stop offset="0.92" stop-color="#f5f5f5"/><stop offset="1" stop-color="#fff"/></linearGradient><linearGradient id="linear-gradient-2" x1="28.12" y1="41" x2="30.75" y2="42.48" gradientUnits="userSpaceOnUse"><stop offset="0"/><stop offset="0.05" stop-color="#171717"/><stop offset="0.2" stop-color="#545454"/><stop offset="0.35" stop-color="#888"/><stop offset="0.5" stop-color="#b3b3b3"/><stop offset="0.64" stop-color="#d4d4d4"/><stop offset="0.77" stop-color="#ececec"/><stop offset="0.9" stop-color="#fafafa"/><stop offset="1" stop-color="#fff"/></linearGradient><linearGradient id="linear-gradient-3" x1="5.25" y1="28.55" x2="8.6" y2="30.01" gradientUnits="userSpaceOnUse"><stop offset="0"/><stop offset="0.02" stop-color="#060606"/><stop offset="0.3" stop-color="#5d5d5d"/><stop offset="0.55" stop-color="#a2a2a2"/><stop offset="0.76" stop-color="#d5d5d5"/><stop offset="0.91" stop-color="#f3f3f3"/><stop offset="1" stop-color="#fff"/></linearGradient><linearGradient id="linear-gradient-4" x1="10.9" y1="11.08" x2="13.49" y2="12.21" xlink:href="#linear-gradient-3"/><linearGradient id="linear-gradient-5" x1="6.48" y1="19.35" x2="7.39" y2="19.74" xlink:href="#linear-gradient-3"/><linearGradient id="linear-gradient-6" x1="41.86" y1="14.28" x2="42.77" y2="14.68" xlink:href="#linear-gradient-3"/><linearGradient id="linear-gradient-7" x1="37.02" y1="32.93" x2="37.93" y2="33.32" xlink:href="#linear-gradient-3"/><linearGradient id="linear-gradient-8" x1="27.23" y1="5" x2="28.14" y2="5.4" xlink:href="#linear-gradient-3"/><linearGradient id="linear-gradient-9" x1="11.29" y1="13.01" x2="36.68" y2="34.07" xlink:href="#linear-gradient-3"/></defs><title>especiarias</title><g class="cls-1"><g id="Layer_2" data-name="Layer 2"><g id="Capa_1" data-name="Capa 1"><circle class="cls-2" cx="24" cy="24" r="24"/><polygon class="cls-3" points="42.28 26.4 45.18 28.44 46.23 26.75 42.7 24.21 42.28 24.57 41.81 25.3 42.28 26.4"/><path class="cls-4" d="M42.7,26.4l.89-.89V25.1l-.89-.89h-.41l-.89.89v.41l.89.89Zm-.21-1.57.47.47-.47.47L42,25.3Z"/><polygon class="cls-5" points="28.96 43.08 31.19 44.33 32.62 41.93 28.96 40.11 28.96 41 28.09 41.59 28.96 42.22 28.96 43.08"/><path class="cls-4" d="M27.78,41.89a.87.87,0,0,1,.89.89.3.3,0,0,0,.59,0,.87.87,0,0,1,.89-.89.3.3,0,0,0,0-.59.87.87,0,0,1-.89-.89.3.3,0,1,0-.59,0,.87.87,0,0,1-.89.89.3.3,0,0,0,0,.59ZM29,41.3a1.4,1.4,0,0,0,.3.3,1.4,1.4,0,0,0-.3.3,1.41,1.41,0,0,0-.3-.3A1.41,1.41,0,0,0,29,41.3Z"/><polygon class="cls-6" points="6.44 30.04 9.17 31.64 10.11 29.93 6.85 27.85 5.82 28.95 6.44 30.04"/><path class="cls-4" d="M6.85,30l.89-.89v-.41l-.89-.89H6.44l-.89.89v.41l.89.89Zm-.21-1.57.47.47-.47.47-.47-.47Z"/><polygon class="cls-7" points="11.6 12.09 14.01 13.53 14.73 12.02 11.78 10.37 11.6 12.09"/><path class="cls-4" d="M11.19,11.56h.3v.3a.3.3,0,1,0,.59,0v-.3h.3a.3.3,0,1,0,0-.59h-.3v-.3a.3.3,0,0,0-.59,0V11h-.3a.3.3,0,0,0,0,.59Z"/><polygon class="cls-8" points="6.56 19.62 7.53 20.21 7.83 19.66 6.86 19.11 6.56 19.62"/><path class="cls-4" d="M6.72,19.66a.3.3,0,1,0-.3-.3A.28.28,0,0,0,6.72,19.66Z"/><polygon class="cls-9" points="41.94 14.55 42.91 15.14 43.2 14.6 42.24 14.04 41.94 14.55"/><path class="cls-4" d="M42.08,14.59a.3.3,0,1,0-.3-.3A.28.28,0,0,0,42.08,14.59Z"/><polygon class="cls-10" points="37.1 33.2 38.07 33.79 38.37 33.24 37.4 32.69 37.1 33.2"/><path class="cls-4" d="M37.26,33.24a.3.3,0,1,0-.3-.3A.28.28,0,0,0,37.26,33.24Z"/><polygon class="cls-11" points="27.31 5.28 28.28 5.87 28.58 5.32 27.61 4.76 27.31 5.28"/><path class="cls-4" d="M27.47,5.32a.3.3,0,1,0-.3-.3A.28.28,0,0,0,27.47,5.32Z"/><path class="cls-12" d="M14.42,32.63l17,14.21s7.53-3,11.18-7.64,5.32-12.88,5.32-12.88L32.63,13.56l-2.51.85-2.49,1.94-1.55,1.34.35-3.28L24,11.26l-.76,1.34L22.85,14l-.43,2-.24,3a22.74,22.74,0,0,0-2.37-3.81c-.91-.93-3.72-1.74-3.72-1.74l-.1.89s.39,3.25,1.11,4.17a25.73,25.73,0,0,0,3.33,2.8s-3.74-.82-6,0a8.89,8.89,0,0,0-2.82,1.28,4.68,4.68,0,0,0,3.13,2C17,25.1,19,25.3,19,25.3s-3,1.15-3.67,3.25-1,3.67-1,3.67Z"/><path class="cls-4" d="M37,22.24a15.76,15.76,0,0,0-5.62-1.58,4.7,4.7,0,0,0-.71.05c-.5.08-.93.15-1.29.23.63-.59,1.34-1.27,1.81-1.8,1.38-1.54,1.59-5.09,1.6-5.24a.44.44,0,0,0-.14-.34.43.43,0,0,0-.35-.12A8.28,8.28,0,0,0,27,16.36q-.24.31-.44.61a12.89,12.89,0,0,0,0-1.31c-.06-2.39-2.22-4.82-2.31-4.92a.44.44,0,0,0-.38-.14.44.44,0,0,0-.33.23c-.07.13-1.72,3.28-1.66,5.45,0,.59,0,1.1,0,1.54a22.94,22.94,0,0,0-1.35-2.09c-1.14-1.51-4.39-2.63-4.53-2.68a.44.44,0,0,0-.58.4c0,.15-.06,3.71,1.55,5.71a10.66,10.66,0,0,0,1.59,1.56,12.57,12.57,0,0,0-1.93-.15A16.45,16.45,0,0,0,11,22.12a.44.44,0,0,0-.1.72c.11.1,2.68,2.35,4.82,2.6a17.84,17.84,0,0,0,1.81.11,5.39,5.39,0,0,0-1.79,1.59,13.5,13.5,0,0,0-1.89,5,.44.44,0,0,0,.54.49,24.26,24.26,0,0,0,5.3-2A10,10,0,0,0,21.55,29a8.08,8.08,0,0,0,0,2.78,9.11,9.11,0,0,0,1.22,2.87,4.38,4.38,0,0,1,.78-.41,8.32,8.32,0,0,1-1.14-2.63,9.44,9.44,0,0,1,.46-4.28.44.44,0,0,0-.77-.4,13.06,13.06,0,0,1-2.85,3,20.15,20.15,0,0,1-4.37,1.72,12,12,0,0,1,1.61-4c1.27-1.83,4-2.19,4.06-2.19a.44.44,0,0,0-.09-.87s-1.19.1-2.54.1a18.07,18.07,0,0,1-2.07-.1A9.26,9.26,0,0,1,12,22.63a14.16,14.16,0,0,1,4.7-1.17,12.29,12.29,0,0,1,4.12.74.44.44,0,0,0,.37-.79,12.7,12.7,0,0,1-3.47-2.78,8.55,8.55,0,0,1-1.34-4.52,9.49,9.49,0,0,1,3.52,2.15,32.43,32.43,0,0,1,2.12,3.48.44.44,0,0,0,.82-.2s0-1.22-.06-3.28a11.8,11.8,0,0,1,1.26-4.41,7.54,7.54,0,0,1,1.67,3.84,15.19,15.19,0,0,1-.45,3.8,4,4,0,0,0-.14.53.44.44,0,0,0,.85.2s.05-.18.12-.46a9.85,9.85,0,0,1,1.59-2.86,7.28,7.28,0,0,1,4.11-2.48c-.11,1-.44,3.17-1.32,4.15s-3.06,2.93-3.08,2.95a.44.44,0,0,0,.48.72,12.66,12.66,0,0,1,2.87-.65,3.85,3.85,0,0,1,.58,0,13.38,13.38,0,0,1,4.56,1.19A12,12,0,0,1,32,24.65a8.64,8.64,0,0,1-1.77.17,10.21,10.21,0,0,1-2.42-.29.44.44,0,0,0-.38.77s1.13.88,2.58,2.25a1.92,1.92,0,0,1,1-.22L31,27.26c-.66-.64-1.27-1.18-1.76-1.61.31,0,.65,0,1,0a9.47,9.47,0,0,0,2-.19A14,14,0,0,0,37.06,23a.44.44,0,0,0-.08-.73Z"/><path class="cls-4" d="M24.69,33.56c.45-.31.87-.64,1.31-1a5.64,5.64,0,0,0,.22-.85,11,11,0,0,0-.06-2.22,4.94,4.94,0,0,0,1.16,1.27,4.47,4.47,0,0,0,.61.34c.12-.24.23-.52.33-.81a3.46,3.46,0,0,1-.44-.25,8.2,8.2,0,0,1-2-3,.44.44,0,0,0-.84.23,24.58,24.58,0,0,1,.36,4.33A9.33,9.33,0,0,1,24.69,33.56Z"/><path class="cls-4" d="M22.35,37.4a1.31,1.31,0,0,1-1.22-.63c-.8-1.37,1.61-2.8,3.05-3.65l.49-.3c.78-.52,2.62-1.9,3.22-2.36A2.33,2.33,0,0,0,28.47,29c.16-.89.36-2.15,1.92-2a.72.72,0,0,1,.52.31c.27.4.12,1,0,1.64a4.62,4.62,0,0,0-.16.84A1.34,1.34,0,0,0,31,29.8a2.3,2.3,0,0,1,.63-.11,1.31,1.31,0,0,1,.95.41,1.61,1.61,0,0,1,.2,1.84,1.39,1.39,0,0,0-.13.59,1.4,1.4,0,0,0,.51.09c.39,0,.86.05,1,.48a.87.87,0,0,1-.07.79,2.56,2.56,0,0,1-1.89,1,2.51,2.51,0,0,1-1.73-.52,1.92,1.92,0,0,0-.93-.39h0a6,6,0,0,0-3.12,1.5C25.51,36.22,23.63,37.4,22.35,37.4Zm7.74-9.48c-.47,0-.59.27-.76,1.25a3,3,0,0,1-.91,2c-1.66,1.25-2.73,2-3.27,2.39l-.52.32c-2.57,1.52-2.91,2.17-2.74,2.46,0,.06.12.2.47.2a8,8,0,0,0,3.54-1.7,6.61,6.61,0,0,1,3.65-1.68h.07a2.69,2.69,0,0,1,1.37.52,1.71,1.71,0,0,0,1.16.4,1.88,1.88,0,0,0,1.21-.55l-.23,0c-.42,0-1.12-.07-1.3-.73A1.87,1.87,0,0,1,32,31.65c.17-.5.22-.72,0-.93a.43.43,0,0,0-.33-.15,1.6,1.6,0,0,0-.4.08,1.23,1.23,0,0,1-1.13-.12c-.42-.36-.25-1-.08-1.71a4.52,4.52,0,0,0,.16-.89Z"/><path class="cls-4" d="M33.81,33.71a.44.44,0,0,1-.27-.78s3.29-2.57,2-4.24-4.84-.63-4.87-.62a.44.44,0,0,1-.28-.83c.17-.06,4.13-1.35,5.85.92s-2,5.34-2.19,5.46A.43.43,0,0,1,33.81,33.71Z"/><path class="cls-4" d="M32.48,29.33a.44.44,0,0,1-.16-.84,9.25,9.25,0,0,1,3.43-.73.44.44,0,0,1,.42.46.43.43,0,0,1-.45.42,8.62,8.62,0,0,0-3.07.67A.43.43,0,0,1,32.48,29.33Z"/><path class="cls-4" d="M33.83,31.44a.44.44,0,0,1-.2-.82,10.12,10.12,0,0,0,2-1.62.44.44,0,1,1,.63.6A10.81,10.81,0,0,1,34,31.39.43.43,0,0,1,33.83,31.44Z"/><path class="cls-4" d="M30.53,32.9h0a1.35,1.35,0,0,1-1.06-.52,2,2,0,0,1-.24-1.49.44.44,0,0,1,.85.2,1.11,1.11,0,0,0,.09.76s.12.15.41.17a.44.44,0,0,1,0,.87Z"/></g></g></g></svg>