<svg xmlns="http://www.w3.org/2000/svg" xmlns:xlink="http://www.w3.org/1999/xlink" viewBox="0 0 48 48"><defs><style>.cls-1{isolation:isolate;}.cls-10,.cls-11,.cls-2,.cls-4,.cls-7,.cls-8,.cls-9{opacity:0.5;}.cls-10,.cls-11,.cls-2,.cls-4,.cls-6,.cls-7,.cls-8,.cls-9{mix-blend-mode:multiply;}.cls-2{fill:url(#linear-gradient);}.cls-3{fill:#fff;}.cls-4{fill:url(#linear-gradient-2);}.cls-5{fill:#e96063;}.cls-6{opacity:0.4;fill:url(#linear-gradient-3);}.cls-7{fill:url(#linear-gradient-4);}.cls-8{fill:url(#linear-gradient-5);}.cls-9{fill:url(#linear-gradient-6);}.cls-10{fill:url(#linear-gradient-7);}.cls-11{fill:url(#linear-gradient-8);}</style><linearGradient id="linear-gradient" x1="35.32" y1="12.78" x2="39.3" y2="15.86" gradientUnits="userSpaceOnUse"><stop offset="0"/><stop offset="0.14" stop-color="#2e2e2e"/><stop offset="0.38" stop-color="#777"/><stop offset="0.59" stop-color="#b1b1b1"/><stop offset="0.77" stop-color="#dcdcdc"/><stop offset="0.92" stop-color="#f5f5f5"/><stop offset="1" stop-color="#fff"/></linearGradient><linearGradient id="linear-gradient-2" x1="35.8" y1="31.73" x2="38.4" y2="32.87" gradientUnits="userSpaceOnUse"><stop offset="0"/><stop offset="0.02" stop-color="#060606"/><stop offset="0.3" stop-color="#5d5d5d"/><stop offset="0.55" stop-color="#a2a2a2"/><stop offset="0.76" stop-color="#d5d5d5"/><stop offset="0.91" stop-color="#f3f3f3"/><stop offset="1" stop-color="#fff"/></linearGradient><linearGradient id="linear-gradient-3" x1="12.72" y1="29.42" x2="47.72" y2="29.42" xlink:href="#linear-gradient-2"/><linearGradient id="linear-gradient-4" x1="34.13" y1="10.12" x2="36.77" y2="11.6" gradientUnits="userSpaceOnUse"><stop offset="0"/><stop offset="0.05" stop-color="#171717"/><stop offset="0.2" stop-color="#545454"/><stop offset="0.35" stop-color="#888"/><stop offset="0.5" stop-color="#b3b3b3"/><stop offset="0.64" stop-color="#d4d4d4"/><stop offset="0.77" stop-color="#ececec"/><stop offset="0.9" stop-color="#fafafa"/><stop offset="1" stop-color="#fff"/></linearGradient><linearGradient id="linear-gradient-5" x1="10.73" y1="12.25" x2="14.07" y2="13.71" xlink:href="#linear-gradient-2"/><linearGradient id="linear-gradient-6" x1="4.14" y1="20.31" x2="5.05" y2="20.71" xlink:href="#linear-gradient-2"/><linearGradient id="linear-gradient-7" x1="10.25" y1="27.27" x2="11.16" y2="27.67" xlink:href="#linear-gradient-2"/><linearGradient id="linear-gradient-8" x1="28.4" y1="38.87" x2="29.31" y2="39.27" xlink:href="#linear-gradient-2"/></defs><title>floral</title><g class="cls-1"><g id="Layer_2" data-name="Layer 2"><g id="Capa_1" data-name="Capa 1"><polygon class="cls-2" points="36.54 15.08 39.43 17.12 40.48 15.42 36.95 12.89 36.54 13.25 36.06 13.98 36.54 15.08"/><path class="cls-3" d="M37,15.08l.89-.89v-.41L37,12.89h-.41l-.89.89v.41l.89.89Zm-.21-1.57.47.47-.47.47L36.27,14Z"/><polygon class="cls-4" points="36.5 32.75 38.92 34.18 39.63 32.68 36.69 31.03 36.5 32.75"/><path class="cls-3" d="M36.09,32.22h.3v.3a.3.3,0,1,0,.59,0v-.3h.3a.3.3,0,0,0,0-.59H37v-.3a.3.3,0,0,0-.59,0v.3h-.3a.3.3,0,0,0,0,.59Z"/><circle class="cls-5" cx="24" cy="24" r="24"/><path class="cls-6" d="M16.92,34.42l16.87,11.5A21.78,21.78,0,0,0,44,37.27C48.41,30.53,47.67,28,47.67,28l-12.4-7.33-3-1.56-3.68-.93-1.77-2.59L24,12.91,22.22,14l-2.4,3.13-.89,1.49L18,17.92,15,19l-2.26,1.58.9,2.11L15,25.57l.77,1,.62.45-.7,1.36L16,32.61Z"/><polygon class="cls-7" points="34.98 12.19 37.2 13.44 38.63 11.04 34.98 9.23 34.98 10.12 34.1 10.71 34.98 11.34 34.98 12.19"/><path class="cls-3" d="M33.79,11a.87.87,0,0,1,.89.89.3.3,0,0,0,.59,0,.87.87,0,0,1,.89-.89.3.3,0,0,0,0-.59.87.87,0,0,1-.89-.89.3.3,0,1,0-.59,0,.87.87,0,0,1-.89.89.3.3,0,1,0,0,.59ZM35,10.41a1.4,1.4,0,0,0,.3.3,1.4,1.4,0,0,0-.3.3,1.41,1.41,0,0,0-.3-.3A1.41,1.41,0,0,0,35,10.41Z"/><polygon class="cls-8" points="11.91 13.75 14.64 15.35 15.58 13.64 12.32 11.56 11.29 12.65 11.91 13.75"/><path class="cls-3" d="M12.32,13.75l.89-.89v-.41l-.89-.89h-.41l-.89.89v.41l.89.89Zm-.21-1.57.47.47-.47.47-.47-.47Z"/><polygon class="cls-9" points="4.23 20.59 5.2 21.18 5.49 20.63 4.53 20.07 4.23 20.59"/><path class="cls-3" d="M4.38,20.63a.3.3,0,1,0-.3-.3A.28.28,0,0,0,4.38,20.63Z"/><polygon class="cls-10" points="10.33 27.54 11.3 28.13 11.6 27.58 10.63 27.03 10.33 27.54"/><path class="cls-3" d="M10.47,27.58a.3.3,0,1,0-.3-.3A.28.28,0,0,0,10.47,27.58Z"/><polygon class="cls-11" points="28.48 39.15 29.45 39.74 29.75 39.19 28.78 38.63 28.48 39.15"/><path class="cls-3" d="M28.64,39.19a.3.3,0,1,0-.3-.3A.28.28,0,0,0,28.64,39.19Z"/><path class="cls-3" d="M35.46,20.95c-.21-.66-1.82-1.82-3.42-2.26a5.1,5.1,0,0,0-3.11-.82,5.07,5.07,0,0,0-1.74-2.7c-.91-1.38-2.51-2.55-3.2-2.55s-2.29,1.17-3.2,2.55a5.07,5.07,0,0,0-1.74,2.7,5.09,5.09,0,0,0-3.1.82c-1.59.44-3.2,1.6-3.42,2.26s.41,2.54,1.44,3.83a5.07,5.07,0,0,0,2,2.49,5.1,5.1,0,0,0-.18,3.21c-.08,1.65.53,3.54,1.09,3.95a2.8,2.8,0,0,0,1.46.28A7.81,7.81,0,0,0,21,34.24a5.1,5.1,0,0,0,3-1.16,5.07,5.07,0,0,0,3,1.16,7.81,7.81,0,0,0,2.63.47,2.8,2.8,0,0,0,1.46-.28c.56-.41,1.17-2.3,1.09-3.95A5.07,5.07,0,0,0,32,27.27a5.09,5.09,0,0,0,2-2.49C35.06,23.49,35.68,21.61,35.46,20.95Zm-2.11,3.52a4.36,4.36,0,0,1-1.69,2.13,5.28,5.28,0,0,0-.29-.45,5.11,5.11,0,0,0-2.65-1.88,4.72,4.72,0,0,0-.67-2.05,5.1,5.1,0,0,0,1-3.08,5.18,5.18,0,0,0,0-.54,4.36,4.36,0,0,1,2.62.73l.11.05a5.84,5.84,0,0,1,3,1.79,5.84,5.84,0,0,1-1.35,3.19A.36.36,0,0,0,33.36,24.47Zm-2.7,9.36a5.84,5.84,0,0,1-3.45-.29l-.12,0a4.36,4.36,0,0,1-4.19-4.22A4.75,4.75,0,0,0,28.73,25a4.36,4.36,0,0,1,2.72,5.29.37.37,0,0,0,0,.12A5.84,5.84,0,0,1,30.65,33.83Zm-9.86-.3a5.84,5.84,0,0,1-3.45.3,5.83,5.83,0,0,1-.79-3.37.37.37,0,0,0,0-.12,4.37,4.37,0,0,1,.11-2.72l.5.19a5.09,5.09,0,0,0,3.25,0A4.77,4.77,0,0,0,22.16,29a5.1,5.1,0,0,0,1.31,3.52,4.36,4.36,0,0,1-2.55.95Zm-6.22-9.17a5.84,5.84,0,0,1-1.35-3.19,5.83,5.83,0,0,1,3-1.79l.11-.05a4.36,4.36,0,0,1,2.62-.73,5.17,5.17,0,0,0,0,.54,5.1,5.1,0,0,0,1,3.08,4.74,4.74,0,0,0,0,4.94,4.36,4.36,0,0,1-5.31-2.68A.37.37,0,0,0,14.58,24.37Zm6.8-8.74A5.84,5.84,0,0,1,24,13.35a5.83,5.83,0,0,1,2.62,2.27.36.36,0,0,0,.08.09,4.36,4.36,0,0,1,.91,5.88,4.74,4.74,0,0,0-7.22,0,4.36,4.36,0,0,1,.91-5.88A.36.36,0,0,0,21.38,15.62Zm6.09,11.06A4,4,0,0,1,26,28.15a4,4,0,0,1-2,.54h0a4,4,0,0,1-2-.54,4,4,0,0,1-1.47-1.47,4,4,0,0,1-.54-2h0a4,4,0,0,1,.54-2A4,4,0,0,1,22,21.2a4,4,0,0,1,2-.54h0a4,4,0,0,1,2,.54,4,4,0,0,1,1.47,1.47,4,4,0,0,1,.54,2h0A4,4,0,0,1,27.47,26.68Z"/></g></g></g></svg>