<svg xmlns="http://www.w3.org/2000/svg" xmlns:xlink="http://www.w3.org/1999/xlink" viewBox="0 0 48 48"><defs><style>.cls-1{isolation:isolate;}.cls-2{fill:#96396f;}.cls-3{opacity:0.3;fill:url(#linear-gradient);}.cls-10,.cls-11,.cls-3,.cls-4,.cls-6,.cls-7,.cls-8,.cls-9{mix-blend-mode:multiply;}.cls-10,.cls-11,.cls-4,.cls-6,.cls-7,.cls-8,.cls-9{opacity:0.5;}.cls-4{fill:url(#linear-gradient-2);}.cls-5{fill:#fff;}.cls-6{fill:url(#linear-gradient-3);}.cls-7{fill:url(#linear-gradient-4);}.cls-8{fill:url(#linear-gradient-5);}.cls-9{fill:url(#linear-gradient-6);}.cls-10{fill:url(#linear-gradient-7);}.cls-11{fill:url(#linear-gradient-8);}</style><linearGradient id="linear-gradient" x1="20.35" y1="21.37" x2="38.7" y2="33.54" gradientUnits="userSpaceOnUse"><stop offset="0"/><stop offset="0.02" stop-color="#060606"/><stop offset="0.3" stop-color="#5d5d5d"/><stop offset="0.55" stop-color="#a2a2a2"/><stop offset="0.76" stop-color="#d5d5d5"/><stop offset="0.91" stop-color="#f3f3f3"/><stop offset="1" stop-color="#fff"/></linearGradient><linearGradient id="linear-gradient-2" x1="42.97" y1="24.2" x2="43.88" y2="24.59" xlink:href="#linear-gradient"/><linearGradient id="linear-gradient-3" x1="37.72" y1="30.59" x2="40.35" y2="32.07" gradientUnits="userSpaceOnUse"><stop offset="0"/><stop offset="0.05" stop-color="#171717"/><stop offset="0.2" stop-color="#545454"/><stop offset="0.35" stop-color="#888"/><stop offset="0.5" stop-color="#b3b3b3"/><stop offset="0.64" stop-color="#d4d4d4"/><stop offset="0.77" stop-color="#ececec"/><stop offset="0.9" stop-color="#fafafa"/><stop offset="1" stop-color="#fff"/></linearGradient><linearGradient id="linear-gradient-4" x1="9.31" y1="13.4" x2="12.65" y2="14.86" xlink:href="#linear-gradient"/><linearGradient id="linear-gradient-5" x1="38.04" y1="11.63" x2="40.64" y2="12.76" xlink:href="#linear-gradient"/><linearGradient id="linear-gradient-6" x1="9.51" y1="33.07" x2="10.42" y2="33.46" xlink:href="#linear-gradient"/><linearGradient id="linear-gradient-7" x1="19.55" y1="7.05" x2="20.46" y2="7.44" xlink:href="#linear-gradient"/><linearGradient id="linear-gradient-8" x1="20.02" y1="16.48" x2="20.93" y2="16.88" xlink:href="#linear-gradient"/></defs><title>frutasvermelhas</title><g class="cls-1"><g id="Layer_2" data-name="Layer 2"><g id="Capa_1" data-name="Capa 1"><circle class="cls-2" cx="24" cy="24" r="24"/><path class="cls-3" d="M26.12,10.6l21.82,15A26.61,26.61,0,0,1,43.51,38,25.57,25.57,0,0,1,35,45.37L22.75,37.55l-6-7.14-2-6.33V20.81l1.52-2.19,3.19-.89-2.22-1.49,3.07-1,1.65-.38,1.84,1.6v-2.7l1-2.88Z"/><polygon class="cls-4" points="43.05 24.47 44.02 25.06 44.32 24.51 43.35 23.96 43.05 24.47"/><path class="cls-5" d="M43.21,24.51a.3.3,0,1,0-.3-.3A.28.28,0,0,0,43.21,24.51Z"/><polygon class="cls-6" points="38.56 32.66 40.79 33.91 42.22 31.51 38.56 29.7 38.56 30.59 37.69 31.18 38.56 31.81 38.56 32.66"/><path class="cls-5" d="M37.38,31.48a.87.87,0,0,1,.89.89.3.3,0,0,0,.59,0,.87.87,0,0,1,.89-.89.3.3,0,0,0,0-.59.87.87,0,0,1-.89-.89.3.3,0,1,0-.59,0,.87.87,0,0,1-.89.89.3.3,0,1,0,0,.59Zm1.19-.59a1.4,1.4,0,0,0,.3.3,1.4,1.4,0,0,0-.3.3,1.41,1.41,0,0,0-.3-.3A1.41,1.41,0,0,0,38.57,30.88Z"/><polygon class="cls-7" points="10.49 14.9 13.22 16.5 14.16 14.79 10.9 12.71 9.87 13.81 10.49 14.9"/><path class="cls-5" d="M10.9,14.9l.89-.89V13.6l-.89-.89h-.41l-.89.89V14l.89.89Zm-.21-1.57.47.47-.47.47-.47-.47Z"/><polygon class="cls-8" points="38.74 12.64 41.16 14.07 41.87 12.57 38.93 10.92 38.74 12.64"/><path class="cls-5" d="M38.33,12.11h.3v.3a.3.3,0,1,0,.59,0v-.3h.3a.3.3,0,1,0,0-.59h-.3v-.3a.3.3,0,0,0-.59,0v.3h-.3a.3.3,0,1,0,0,.59Z"/><polygon class="cls-9" points="9.6 33.34 10.57 33.93 10.86 33.38 9.9 32.83 9.6 33.34"/><path class="cls-5" d="M9.75,33.38a.3.3,0,1,0-.3-.3A.28.28,0,0,0,9.75,33.38Z"/><polygon class="cls-10" points="19.63 7.32 20.6 7.91 20.9 7.36 19.93 6.81 19.63 7.32"/><path class="cls-5" d="M19.79,7.36a.3.3,0,1,0-.3-.3A.28.28,0,0,0,19.79,7.36Z"/><polygon class="cls-11" points="20.1 16.76 21.07 17.35 21.37 16.8 20.4 16.25 20.1 16.76"/><path class="cls-5" d="M20.26,16.8a.3.3,0,1,0-.3-.3A.28.28,0,0,0,20.26,16.8Z"/><path class="cls-5" d="M24.07,23.87v-.7a.48.48,0,0,0-1,0v.7a.48.48,0,0,0,1,0Z"/><path class="cls-5" d="M24.54,27.57a.48.48,0,0,0-.48.48v.7a.48.48,0,0,0,1,0V28A.48.48,0,0,0,24.54,27.57Z"/><path class="cls-5" d="M19.9,25.61a.48.48,0,0,0-.48.48v.7a.48.48,0,0,0,1,0v-.7A.48.48,0,0,0,19.9,25.61Z"/><path class="cls-5" d="M20.91,29.91a.48.48,0,0,0-.48.48v.7a.48.48,0,1,0,1,0v-.7A.48.48,0,0,0,20.91,29.91Z"/><path class="cls-5" d="M28.52,29.22a.48.48,0,0,0-.48.48v.7a.48.48,0,1,0,1,0v-.7A.48.48,0,0,0,28.52,29.22Z"/><path class="cls-5" d="M24.23,32.74a.48.48,0,0,0-.48.48v.7a.48.48,0,1,0,1,0v-.7A.48.48,0,0,0,24.23,32.74Z"/><path class="cls-5" d="M28.43,26.25v-.7a.48.48,0,0,0-1,0v.7a.48.48,0,1,0,1,0Z"/><path class="cls-5" d="M30.78,22a.48.48,0,0,0-.48.48v.7a.48.48,0,0,0,1,0v-.7A.48.48,0,0,0,30.78,22Z"/><path class="cls-5" d="M16.71,22a.48.48,0,0,0-.48.48v.7a.48.48,0,0,0,1,0v-.7A.48.48,0,0,0,16.71,22Z"/><path class="cls-5" d="M33.23,19.66a3.56,3.56,0,0,0-3-2.09,1.7,1.7,0,0,0,.91-.92c.17-.54-.59-.84-1-1a17.29,17.29,0,0,0-1.68-.56c-1.19-.34-2.4-.62-2.42-.62a.48.48,0,0,0-.48.17c-.31.38-.76.88-1.07,1.21,0-.26,0-.63,0-.9,0-1.4.14-2.73.64-3.29a.72.72,0,0,1,.62-.25.48.48,0,0,0,.06-1,1.69,1.69,0,0,0-1.39.56c-.74.81-.95,2.41-1,3.89h0v0h0c0,.26,0,.57,0,.82-.31-.33-.67-.74-1-1.13a.48.48,0,0,0-.48-.17s-1.23.28-2.42.62a17.38,17.38,0,0,0-1.67.56c-.4.17-1.16.46-1,1,.11.37.56.67,1.07.9a3.62,3.62,0,0,0-3.22,2.11c-.88,1.75-1.07,5.17,1,9.53,1.53,3.19,2.93,5.38,4.81,6.94h0A5.45,5.45,0,0,0,24,37.55H24a5.46,5.46,0,0,0,3.34-1.42h0c1.88-1.56,3.28-3.75,4.81-6.94C34.3,24.83,34.11,21.4,33.23,19.66Zm-11.3-4.18a8.08,8.08,0,0,0,1.64,1.66c0,.1.1.83.11.91a.48.48,0,0,0,.48.41h.07a.48.48,0,0,0,.41-.55c0-.15-.09-.7-.08-.8a7.87,7.87,0,0,0,1.59-1.62,29.43,29.43,0,0,1,3.74,1.09,17.27,17.27,0,0,1-2.64.7.48.48,0,0,0-.33.7,34,34,0,0,1,1.94,4.17c-.7-.42-1.91-1.33-2.64-1.88C24.59,19,24.35,18.9,24.07,18.9H24c-.28,0-.52.15-2.12,1.37-.73.55-1.94,1.46-2.64,1.88A34,34,0,0,1,21.16,18a.48.48,0,0,0-.33-.7,17.25,17.25,0,0,1-2.64-.7A29.35,29.35,0,0,1,21.93,15.48Zm9.41,13.29c-1.47,3.05-2.79,5.09-4.55,6.55A4.72,4.72,0,0,1,24,36.59H24a4.72,4.72,0,0,1-2.73-1.28c-1.77-1.46-3.09-3.49-4.55-6.55-1.95-4-1.77-7.2-1-8.68s2-1.58,3.14-1.62h0l.76,0a.48.48,0,0,0,.22-.06c-.17.45-.44,1-.68,1.53-.34.72-.59,1.31-.75,1.77-.24.69-.33,1.17,0,1.47a.6.6,0,0,0,.44.17h0c.56,0,1.6-.74,3.67-2.3.56-.42,1.24-.94,1.54-1.12a.07.07,0,0,1,.08,0c.3.19,1,.7,1.54,1.12,2.07,1.56,3.1,2.3,3.67,2.3h0a.6.6,0,0,0,.44-.17c.3-.3.21-.78,0-1.47-.16-.45-.41-1-.75-1.77-.24-.52-.47-1.05-.62-1.49h.1l.75,0h0c1.16,0,2.37.09,3.14,1.62S33.28,24.72,31.34,28.77Z"/></g></g></g></svg>