<svg xmlns="http://www.w3.org/2000/svg" xmlns:xlink="http://www.w3.org/1999/xlink" viewBox="0 0 48 48"><defs><style>.cls-1{isolation:isolate;}.cls-2{fill:#f37121;}.cls-3{opacity:0.4;fill:url(#linear-gradient);}.cls-10,.cls-11,.cls-3,.cls-4,.cls-6,.cls-7,.cls-8,.cls-9{mix-blend-mode:multiply;}.cls-10,.cls-11,.cls-4,.cls-6,.cls-7,.cls-8,.cls-9{opacity:0.5;}.cls-4{fill:url(#linear-gradient-2);}.cls-5{fill:#fff;}.cls-6{fill:url(#linear-gradient-3);}.cls-7{fill:url(#linear-gradient-4);}.cls-8{fill:url(#linear-gradient-5);}.cls-9{fill:url(#linear-gradient-6);}.cls-10{fill:url(#linear-gradient-7);}.cls-11{fill:url(#linear-gradient-8);}</style><linearGradient id="linear-gradient" x1="22.29" y1="21.57" x2="39.53" y2="33" gradientUnits="userSpaceOnUse"><stop offset="0"/><stop offset="0.02" stop-color="#060606"/><stop offset="0.3" stop-color="#5d5d5d"/><stop offset="0.55" stop-color="#a2a2a2"/><stop offset="0.76" stop-color="#d5d5d5"/><stop offset="0.91" stop-color="#f3f3f3"/><stop offset="1" stop-color="#fff"/></linearGradient><linearGradient id="linear-gradient-2" x1="38.34" y1="11.67" x2="40.97" y2="13.15" gradientUnits="userSpaceOnUse"><stop offset="0"/><stop offset="0.05" stop-color="#171717"/><stop offset="0.2" stop-color="#545454"/><stop offset="0.35" stop-color="#888"/><stop offset="0.5" stop-color="#b3b3b3"/><stop offset="0.64" stop-color="#d4d4d4"/><stop offset="0.77" stop-color="#ececec"/><stop offset="0.9" stop-color="#fafafa"/><stop offset="1" stop-color="#fff"/></linearGradient><linearGradient id="linear-gradient-3" x1="8.84" y1="13.32" x2="12.18" y2="14.78" xlink:href="#linear-gradient"/><linearGradient id="linear-gradient-4" x1="23.34" y1="41.73" x2="25.94" y2="42.86" xlink:href="#linear-gradient"/><linearGradient id="linear-gradient-5" x1="9.04" y1="32.98" x2="9.95" y2="33.38" xlink:href="#linear-gradient"/><linearGradient id="linear-gradient-6" x1="42.89" y1="24.11" x2="43.8" y2="24.51" xlink:href="#linear-gradient"/><linearGradient id="linear-gradient-7" x1="19.08" y1="6.96" x2="19.99" y2="7.36" xlink:href="#linear-gradient"/><linearGradient id="linear-gradient-8" x1="19.55" y1="16.4" x2="20.46" y2="16.8" xlink:href="#linear-gradient"/></defs><title>frutasdecaroco</title><g class="cls-1"><g id="Layer_2" data-name="Layer 2"><g id="Capa_1" data-name="Capa 1"><circle class="cls-2" cx="24" cy="24" r="24"/><path class="cls-3" d="M36.4,44.55,16.08,31.38s-2.5-5.91-1-8.2,4.37-5.24,7.66-5,1.38,0,1.38,0-.31-3.54,1.4-4.43,2.39,0,2.39,0L32.67,15,48,24.67A21.83,21.83,0,0,1,44.85,35.9,25.08,25.08,0,0,1,36.4,44.55Z"/><polygon class="cls-4" points="39.18 13.74 41.41 14.99 42.84 12.59 39.18 10.78 39.18 11.66 38.31 12.26 39.18 12.88 39.18 13.74"/><path class="cls-5" d="M38,12.55a.87.87,0,0,1,.89.89.3.3,0,0,0,.59,0,.87.87,0,0,1,.89-.89.3.3,0,1,0,0-.59.87.87,0,0,1-.89-.89.3.3,0,1,0-.59,0A.87.87,0,0,1,38,12a.3.3,0,0,0,0,.59ZM39.18,12a1.4,1.4,0,0,0,.3.3,1.4,1.4,0,0,0-.3.3,1.41,1.41,0,0,0-.3-.3A1.41,1.41,0,0,0,39.18,12Z"/><polygon class="cls-6" points="10.02 14.82 12.75 16.42 13.69 14.71 10.43 12.63 9.4 13.72 10.02 14.82"/><path class="cls-5" d="M10.43,14.82l.89-.89v-.41l-.89-.89H10l-.89.89v.41l.89.89Zm-.21-1.57.47.47-.47.47-.47-.47Z"/><polygon class="cls-7" points="24.04 42.74 26.46 44.18 27.17 42.67 24.23 41.02 24.04 42.74"/><path class="cls-5" d="M23.63,42.21h.3v.3a.3.3,0,1,0,.59,0v-.3h.3a.3.3,0,0,0,0-.59h-.3v-.3a.3.3,0,0,0-.59,0v.3h-.3a.3.3,0,0,0,0,.59Z"/><polygon class="cls-8" points="9.13 33.26 10.1 33.85 10.39 33.3 9.43 32.75 9.13 33.26"/><path class="cls-5" d="M9.28,33.3A.3.3,0,1,0,9,33,.28.28,0,0,0,9.28,33.3Z"/><polygon class="cls-9" points="42.97 24.39 43.95 24.98 44.24 24.43 43.27 23.87 42.97 24.39"/><path class="cls-5" d="M43.13,24.43a.3.3,0,1,0-.3-.3A.28.28,0,0,0,43.13,24.43Z"/><polygon class="cls-10" points="19.16 7.24 20.14 7.83 20.43 7.28 19.47 6.73 19.16 7.24"/><path class="cls-5" d="M19.32,7.28A.3.3,0,1,0,19,7,.28.28,0,0,0,19.32,7.28Z"/><polygon class="cls-11" points="19.63 16.68 20.6 17.27 20.9 16.72 19.93 16.16 19.63 16.68"/><path class="cls-5" d="M19.79,16.71a.3.3,0,1,0-.3-.3A.28.28,0,0,0,19.79,16.71Z"/><g id="group-10svg"><path id="path-1" class="cls-5" d="M25.56,31.72a5.14,5.14,0,0,1-1.46-.21,5.14,5.14,0,0,1-1.46.21A5.56,5.56,0,0,1,17.24,26a5.56,5.56,0,0,1,5.4-5.69,5.12,5.12,0,0,1,1.46.21,5.11,5.11,0,0,1,1.46-.21A5.56,5.56,0,0,1,31,26,5.56,5.56,0,0,1,25.56,31.72ZM24.1,30.47l.16,0a4.12,4.12,0,0,0,1.3.21A4.54,4.54,0,0,0,29.94,26a4.54,4.54,0,0,0-4.38-4.67,4.1,4.1,0,0,0-1.3.21.52.52,0,0,1-.32,0,4.1,4.1,0,0,0-1.3-.21A4.54,4.54,0,0,0,18.26,26a4.54,4.54,0,0,0,4.38,4.67,4.12,4.12,0,0,0,1.3-.21Z"/><path id="path-2" class="cls-5" d="M26.26,34.22a7.38,7.38,0,0,1-2.16-.32,7.39,7.39,0,0,1-2.16.32A8,8,0,0,1,14.19,26a8,8,0,0,1,7.75-8.18,7.39,7.39,0,0,1,2.16.32,7.38,7.38,0,0,1,2.16-.32A8,8,0,0,1,34,26,8,8,0,0,1,26.26,34.22ZM24.1,32.85l.16,0a6.36,6.36,0,0,0,2,.32A7,7,0,0,0,33,26a7,7,0,0,0-6.73-7.16,6.38,6.38,0,0,0-2,.32.51.51,0,0,1-.32,0,6.38,6.38,0,0,0-2-.32A7,7,0,0,0,15.21,26a7,7,0,0,0,6.73,7.16,6.36,6.36,0,0,0,2-.32Z"/><path id="path-3" class="cls-5" d="M24,29c-1.22,0-2.17-1.33-2.17-3s1-3,2.17-3,2.17,1.33,2.17,3S25.22,29,24,29Zm0-5c-.54,0-1.15.83-1.15,2s.61,2,1.15,2,1.15-.83,1.15-2S24.55,23.91,24,23.91Z"/><path id="path-4" class="cls-5" d="M29.17,17a5.88,5.88,0,0,1-2.45-.58c-.06,0-1.11-.54-2-1a.51.51,0,0,1-.25-.47,2.15,2.15,0,0,1,2.12-2.15,3.51,3.51,0,0,1,1.11.2c2.41.82,4.63,1.69,4.65,1.7a.51.51,0,0,1,.22.78A4.44,4.44,0,0,1,29.17,17Zm-3.62-2.34c.77.43,1.6.83,1.61.84a4.86,4.86,0,0,0,2,.48,3.48,3.48,0,0,0,2.06-.66c-.85-.32-2.31-.87-3.85-1.39a2.48,2.48,0,0,0-.79-.15A1.05,1.05,0,0,0,25.55,14.69Z"/><path id="path-5" class="cls-5" d="M24.1,18.87a.51.51,0,0,1-.51-.48A28.42,28.42,0,0,1,24,15.06v0a3.58,3.58,0,0,1,1.76-2.11.51.51,0,0,1,.49.9A2.57,2.57,0,0,0,25,15.25a27,27,0,0,0-.38,3.08.51.51,0,0,1-.48.54Z"/></g></g></g></g></svg>