<svg xmlns="http://www.w3.org/2000/svg" xmlns:xlink="http://www.w3.org/1999/xlink" viewBox="0 0 48 48"><defs><style>.cls-1{isolation:isolate;}.cls-2{fill:#5c9237;}.cls-10,.cls-11,.cls-3,.cls-5,.cls-6,.cls-7,.cls-8,.cls-9{opacity:0.5;}.cls-10,.cls-11,.cls-12,.cls-3,.cls-5,.cls-6,.cls-7,.cls-8,.cls-9{mix-blend-mode:multiply;}.cls-3{fill:url(#linear-gradient);}.cls-4{fill:#fff;}.cls-5{fill:url(#linear-gradient-2);}.cls-6{fill:url(#linear-gradient-3);}.cls-7{fill:url(#linear-gradient-4);}.cls-8{fill:url(#linear-gradient-5);}.cls-9{fill:url(#linear-gradient-6);}.cls-10{fill:url(#linear-gradient-7);}.cls-11{fill:url(#linear-gradient-8);}.cls-12{opacity:0.4;fill:url(#linear-gradient-9);}</style><linearGradient id="linear-gradient" x1="41.07" y1="24.11" x2="45.05" y2="27.18" gradientUnits="userSpaceOnUse"><stop offset="0"/><stop offset="0.14" stop-color="#2e2e2e"/><stop offset="0.38" stop-color="#777"/><stop offset="0.59" stop-color="#b1b1b1"/><stop offset="0.77" stop-color="#dcdcdc"/><stop offset="0.92" stop-color="#f5f5f5"/><stop offset="1" stop-color="#fff"/></linearGradient><linearGradient id="linear-gradient-2" x1="28.12" y1="41" x2="30.75" y2="42.48" gradientUnits="userSpaceOnUse"><stop offset="0"/><stop offset="0.05" stop-color="#171717"/><stop offset="0.2" stop-color="#545454"/><stop offset="0.35" stop-color="#888"/><stop offset="0.5" stop-color="#b3b3b3"/><stop offset="0.64" stop-color="#d4d4d4"/><stop offset="0.77" stop-color="#ececec"/><stop offset="0.9" stop-color="#fafafa"/><stop offset="1" stop-color="#fff"/></linearGradient><linearGradient id="linear-gradient-3" x1="5.25" y1="28.55" x2="8.6" y2="30.01" gradientUnits="userSpaceOnUse"><stop offset="0"/><stop offset="0.02" stop-color="#060606"/><stop offset="0.3" stop-color="#5d5d5d"/><stop offset="0.55" stop-color="#a2a2a2"/><stop offset="0.76" stop-color="#d5d5d5"/><stop offset="0.91" stop-color="#f3f3f3"/><stop offset="1" stop-color="#fff"/></linearGradient><linearGradient id="linear-gradient-4" x1="10.9" y1="11.08" x2="13.49" y2="12.21" xlink:href="#linear-gradient-3"/><linearGradient id="linear-gradient-5" x1="6.48" y1="19.35" x2="7.39" y2="19.74" xlink:href="#linear-gradient-3"/><linearGradient id="linear-gradient-6" x1="41.86" y1="14.28" x2="42.77" y2="14.68" xlink:href="#linear-gradient-3"/><linearGradient id="linear-gradient-7" x1="37.02" y1="32.93" x2="37.93" y2="33.32" xlink:href="#linear-gradient-3"/><linearGradient id="linear-gradient-8" x1="27.23" y1="5" x2="28.14" y2="5.4" xlink:href="#linear-gradient-3"/><linearGradient id="linear-gradient-9" x1="16.88" y1="21.37" x2="37.4" y2="33.15" xlink:href="#linear-gradient-3"/></defs><title>herbal</title><g class="cls-1"><g id="Layer_2" data-name="Layer 2"><g id="Capa_1" data-name="Capa 1"><circle class="cls-2" cx="24" cy="24" r="24"/><polygon class="cls-3" points="42.28 26.4 45.18 28.44 46.23 26.75 42.7 24.21 42.28 24.57 41.81 25.3 42.28 26.4"/><path class="cls-4" d="M42.7,26.4l.89-.89V25.1l-.89-.89h-.41l-.89.89v.41l.89.89Zm-.21-1.57.47.47-.47.47L42,25.3Z"/><polygon class="cls-5" points="28.96 43.08 31.19 44.33 32.62 41.93 28.96 40.11 28.96 41 28.09 41.59 28.96 42.22 28.96 43.08"/><path class="cls-4" d="M27.78,41.89a.87.87,0,0,1,.89.89.3.3,0,0,0,.59,0,.87.87,0,0,1,.89-.89.3.3,0,1,0,0-.59.87.87,0,0,1-.89-.89.3.3,0,1,0-.59,0,.87.87,0,0,1-.89.89.3.3,0,0,0,0,.59ZM29,41.3a1.4,1.4,0,0,0,.3.3,1.4,1.4,0,0,0-.3.3,1.41,1.41,0,0,0-.3-.3A1.41,1.41,0,0,0,29,41.3Z"/><polygon class="cls-6" points="6.44 30.04 9.17 31.64 10.11 29.93 6.85 27.85 5.82 28.95 6.44 30.04"/><path class="cls-4" d="M6.85,30l.89-.89v-.41l-.89-.89H6.44l-.89.89v.41l.89.89Zm-.21-1.57.47.47-.47.47-.47-.47Z"/><polygon class="cls-7" points="11.6 12.09 14.01 13.53 14.73 12.02 11.78 10.37 11.6 12.09"/><path class="cls-4" d="M11.19,11.56h.3v.3a.3.3,0,1,0,.59,0v-.3h.3a.3.3,0,1,0,0-.59h-.3v-.3a.3.3,0,0,0-.59,0V11h-.3a.3.3,0,1,0,0,.59Z"/><polygon class="cls-8" points="6.56 19.62 7.53 20.21 7.83 19.66 6.86 19.11 6.56 19.62"/><path class="cls-4" d="M6.72,19.66a.3.3,0,1,0-.3-.3A.28.28,0,0,0,6.72,19.66Z"/><polygon class="cls-9" points="41.94 14.55 42.91 15.14 43.2 14.6 42.24 14.04 41.94 14.55"/><path class="cls-4" d="M42.08,14.59a.3.3,0,1,0-.3-.3A.28.28,0,0,0,42.08,14.59Z"/><polygon class="cls-10" points="37.1 33.2 38.07 33.79 38.37 33.24 37.4 32.69 37.1 33.2"/><path class="cls-4" d="M37.26,33.24a.3.3,0,1,0-.3-.3A.28.28,0,0,0,37.26,33.24Z"/><polygon class="cls-11" points="27.31 5.28 28.28 5.87 28.58 5.32 27.61 4.76 27.31 5.28"/><path class="cls-4" d="M27.47,5.32a.3.3,0,1,0-.3-.3A.28.28,0,0,0,27.47,5.32Z"/><path class="cls-12" d="M13.12,34.34,32.48,46.18s7.73-2.18,11.6-9A31.06,31.06,0,0,0,48,23.62L29.34,12.89s-.08-.4-.38-.4-.71.63-.71.63l.35,1.64,1,.63L28.39,20l-.9-1.42-1.72-2-.38,2.31.47,2.09,1.07,1.26-.79,2.31L24.4,26.4,24,24.21l-1-1.13-.92-.38-.7.38.35,2.69,1.42,1.68-2.28,2.43-3.16,2.31L18.68,30l.16-2.44-.73-1.28-2,1.53-1,2.5.41,2.34.06.55Z"/><path class="cls-4" d="M28.82,12c-.69.19-1,1.13-.72,2.15a2.49,2.49,0,0,0,.64,1.13,1.39,1.39,0,0,0,.53.33,25.76,25.76,0,0,1-1.11,3.78c0-.13,0-.25-.07-.38a4.53,4.53,0,0,0-2-2.86.37.37,0,0,0-.52.11,4.56,4.56,0,0,0,1.18,6.16q-.51.94-1.11,1.83-.49.74-1,1.44a4.78,4.78,0,0,0-.18-1.22C24,22.94,23,21.95,22.06,22.2a1.47,1.47,0,0,0-1,1.23,4.27,4.27,0,0,0,.11,2,5.18,5.18,0,0,0,.17.5,2.93,2.93,0,0,0,1.52,1.78A25.66,25.66,0,0,1,20.3,30c-.61.47-1.21.9-1.78,1.27a4.92,4.92,0,0,0,.21-4.69l-.18-.37a.37.37,0,0,0-.5-.17l-.37.18a5.05,5.05,0,0,0-.47.26.37.37,0,0,0,.4.63l.4-.22h0v0a4.18,4.18,0,0,1-1.49,5.33l1-2.89a.37.37,0,0,0,0-.12.37.37,0,0,0-.73-.12l-1,2.89a4.19,4.19,0,0,1,.91-4.19.37.37,0,0,0-.55-.51,4.93,4.93,0,0,0-.83,5.51l.09.18a17.61,17.61,0,0,1-2.11.87.37.37,0,1,0,.22.71,24.59,24.59,0,0,0,7.14-4l.81-.66.29.2a4.93,4.93,0,0,0,6.86-1.26l.23-.34a.37.37,0,0,0,.07-.21.39.39,0,0,0,0-.07.37.37,0,0,0-.16-.24l-.34-.23A4.9,4.9,0,0,0,24.8,27l-.36.08a24.84,24.84,0,0,0,1.82-2.38l.19-.28a4.53,4.53,0,0,0,6-1.35.37.37,0,0,0-.1-.52,4.53,4.53,0,0,0-4.61-.31,25.15,25.15,0,0,0,1.2-2.73,1.87,1.87,0,0,0,2.06,0,2,2,0,0,0,1.15-1.56.93.93,0,0,0-.11-.45,1.14,1.14,0,0,0-1-.54,2.49,2.49,0,0,0-1.25.33l-.13.08q.27-1,.46-2a.37.37,0,0,0,0-.07.37.37,0,0,0-.3-.37.37.37,0,0,0-.17,0h0c-.07-.07-.23,0-.37-.17a1.77,1.77,0,0,1-.43-.79c-.18-.67,0-1.17.2-1.23s.62.29.8,1a2,2,0,0,1,.07.61.37.37,0,1,0,.75,0s0-.07,0-.11a2.76,2.76,0,0,0-.1-.73C30.27,12.51,29.51,11.86,28.82,12Zm-.75,16.39,0,0,0,0a4.18,4.18,0,0,1-5.38,1.33l3-.58a.37.37,0,0,0-.14-.73l-3,.57a4.18,4.18,0,0,1,5.49-.64Zm-6.19-3.49a4,4,0,0,1-.09-.81,2.68,2.68,0,0,1,.05-.55c.08-.36.24-.61.42-.66.36-.1.93.43,1.29,1.32l.22.74a3.38,3.38,0,0,1,0,1.35c-.08.36-.24.61-.42.66s-.86-.35-1.24-1.2Zm9.68-2a3.78,3.78,0,0,1-4.07,1.12l2.23-.42a.37.37,0,0,0,.3-.37.4.4,0,0,0,0-.07.37.37,0,0,0-.44-.3l-2.19.42A3.78,3.78,0,0,1,31.56,23Zm-4.28-1.84L27,19.67a.37.37,0,0,0-.73.16l.33,1.45A3.81,3.81,0,0,1,26,17.06a3.82,3.82,0,0,1,1.27,4.09Zm4.08-3.31c.1.19-.14.67-.74,1s-1.14.27-1.24.09a.44.44,0,0,1,.08-.4A1.93,1.93,0,0,1,31,17.69.44.44,0,0,1,31.36,17.84Z"/></g></g></g></svg>