<svg xmlns="http://www.w3.org/2000/svg" xmlns:xlink="http://www.w3.org/1999/xlink" viewBox="0 0 48 48"><defs><style>.cls-1{isolation:isolate;}.cls-2{fill:#8b560f;}.cls-3{opacity:0.4;fill:url(#linear-gradient);}.cls-10,.cls-3,.cls-4,.cls-6,.cls-7,.cls-8,.cls-9{mix-blend-mode:multiply;}.cls-10,.cls-4,.cls-6,.cls-7,.cls-8,.cls-9{opacity:0.5;}.cls-4{fill:url(#linear-gradient-2);}.cls-5{fill:#fff;}.cls-6{fill:url(#linear-gradient-3);}.cls-7{fill:url(#linear-gradient-4);}.cls-8{fill:url(#linear-gradient-5);}.cls-9{fill:url(#linear-gradient-6);}.cls-10{fill:url(#linear-gradient-7);}</style><linearGradient id="linear-gradient" x1="12.74" y1="16.53" x2="36.5" y2="33.86" gradientUnits="userSpaceOnUse"><stop offset="0"/><stop offset="0.02" stop-color="#060606"/><stop offset="0.3" stop-color="#5d5d5d"/><stop offset="0.55" stop-color="#a2a2a2"/><stop offset="0.76" stop-color="#d5d5d5"/><stop offset="0.91" stop-color="#f3f3f3"/><stop offset="1" stop-color="#fff"/></linearGradient><linearGradient id="linear-gradient-2" x1="8.73" y1="13.17" x2="11.37" y2="14.65" gradientUnits="userSpaceOnUse"><stop offset="0"/><stop offset="0.05" stop-color="#171717"/><stop offset="0.2" stop-color="#545454"/><stop offset="0.35" stop-color="#888"/><stop offset="0.5" stop-color="#b3b3b3"/><stop offset="0.64" stop-color="#d4d4d4"/><stop offset="0.77" stop-color="#ececec"/><stop offset="0.9" stop-color="#fafafa"/><stop offset="1" stop-color="#fff"/></linearGradient><linearGradient id="linear-gradient-3" x1="39.27" y1="19.36" x2="42.61" y2="20.82" xlink:href="#linear-gradient"/><linearGradient id="linear-gradient-4" x1="10.97" y1="37.15" x2="13.57" y2="38.28" xlink:href="#linear-gradient"/><linearGradient id="linear-gradient-5" x1="27.47" y1="8.64" x2="28.38" y2="9.04" xlink:href="#linear-gradient"/><linearGradient id="linear-gradient-6" x1="5.69" y1="25.27" x2="6.6" y2="25.67" xlink:href="#linear-gradient"/><linearGradient id="linear-gradient-7" x1="36.03" y1="37.58" x2="36.94" y2="37.98" xlink:href="#linear-gradient"/></defs><title>nozes</title><g class="cls-1"><g id="Layer_2" data-name="Layer 2"><g id="Capa_1" data-name="Capa 1"><circle class="cls-2" cx="24" cy="24" r="24"/><path class="cls-3" d="M21.92,14.39C24,14,29.71,12.93,32.49,15s15,13.71,15,13.71-1.92,7.87-7.06,12.71-8.34,5.13-8.34,5.13l-18-14.51a22,22,0,0,0-2.29-2.4c-.47-.25-2.19-.52-2.28-1.19s2.12-1.34,2.09-2.62a10.93,10.93,0,0,1,2-6.79A15.18,15.18,0,0,1,21.92,14.39Z"/><polygon class="cls-4" points="9.58 15.24 11.8 16.5 13.23 14.1 9.58 12.28 9.58 13.17 8.7 13.76 9.58 14.39 9.58 15.24"/><path class="cls-5" d="M8.39,14.06a.87.87,0,0,1,.89.89.3.3,0,0,0,.59,0,.87.87,0,0,1,.89-.89.3.3,0,0,0,0-.59.87.87,0,0,1-.89-.89.3.3,0,1,0-.59,0,.87.87,0,0,1-.89.89.3.3,0,0,0,0,.59Zm1.19-.59a1.4,1.4,0,0,0,.3.3,1.39,1.39,0,0,0-.3.3,1.41,1.41,0,0,0-.3-.3A1.41,1.41,0,0,0,9.58,13.47Z"/><polygon class="cls-6" points="40.45 20.86 43.18 22.46 44.12 20.75 40.86 18.67 39.83 19.76 40.45 20.86"/><path class="cls-5" d="M40.86,20.86l.89-.89v-.41l-.89-.89h-.41l-.89.89V20l.89.89Zm-.21-1.57.47.47-.47.47-.47-.47Z"/><polygon class="cls-7" points="11.67 38.16 14.09 39.6 14.8 38.09 11.86 36.45 11.67 38.16"/><path class="cls-5" d="M11.26,37.63h.3v.3a.3.3,0,1,0,.59,0v-.3h.3a.3.3,0,0,0,0-.59h-.3v-.3a.3.3,0,0,0-.59,0V37h-.3a.3.3,0,1,0,0,.59Z"/><polygon class="cls-8" points="27.55 8.91 28.52 9.51 28.82 8.96 27.86 8.4 27.55 8.91"/><path class="cls-5" d="M27.71,9a.3.3,0,1,0-.3-.3A.28.28,0,0,0,27.71,9Z"/><polygon class="cls-9" points="5.78 25.54 6.75 26.13 7.04 25.58 6.08 25.03 5.78 25.54"/><path class="cls-5" d="M5.94,25.58a.3.3,0,1,0-.3-.3A.28.28,0,0,0,5.94,25.58Z"/><polygon class="cls-10" points="36.12 37.86 37.09 38.45 37.38 37.9 36.42 37.34 36.12 37.86"/><path class="cls-5" d="M36.28,37.9a.3.3,0,1,0-.3-.3A.28.28,0,0,0,36.28,37.9Z"/><path class="cls-5" d="M37.11,21.58s0,0,0,0a7.33,7.33,0,0,0-1-2.22,3,3,0,0,1-.26-.74,5.3,5.3,0,0,0-1-2.18l-.06-.07c-.84-.94-3.39-3.81-9.81-3a25.27,25.27,0,0,0-4.38,1c-6,1.88-9.2,5.59-9.39,11,0,.15,0,.26,0,.33a3.78,3.78,0,0,1-1,1.32c-.6.65-1.07,1.16-.92,1.66s.71.7,1.25.83a4.86,4.86,0,0,1,1.14.4,6.75,6.75,0,0,1,1.51,1.33,7.23,7.23,0,0,0,1.32,1.2,13.37,13.37,0,0,0,3.8.88l.52.08.61.18a16.75,16.75,0,0,0,4.41.92,7.06,7.06,0,0,0,.89-.06,17.1,17.1,0,0,0,3.88-1.07l.59-.17a9,9,0,0,0,2.6-1,22.61,22.61,0,0,0,3.2-4,32,32,0,0,0,2.14-6.61A.46.46,0,0,0,37.11,21.58Zm-25.23,4.2c0-.09,0-.22,0-.4.18-5.09,3.16-8.57,8.85-10.34A24.53,24.53,0,0,1,25,14.1c6-.74,8.37,1.9,9.15,2.77l.06.07a4.62,4.62,0,0,1,.85,1.88,3,3,0,0,0,.4,1,7.23,7.23,0,0,1,.85,1.73A21.88,21.88,0,0,1,33,25.11c-.27.14-.63.34-1,.56A18.11,18.11,0,0,1,29,27.11c-.55.17-1.5.39-2.5.62-1.16.27-2.36.55-3,.77a16.23,16.23,0,0,1-4.72,0L18,28.49,10.31,28l.41-.46A3.85,3.85,0,0,0,11.88,25.79ZM34.3,27.88a22.42,22.42,0,0,1-3,3.75,10,10,0,0,1-2.33.83c-.37.1-.57.16-.68.2a16.28,16.28,0,0,1-3.68,1,6.31,6.31,0,0,1-.8.05,16.16,16.16,0,0,1-4.19-.88L19,32.65l-.6-.09a14,14,0,0,1-3.5-.77,6.81,6.81,0,0,1-1.16-1.07A7.24,7.24,0,0,0,12,29.23a5.21,5.21,0,0,0-1.21-.44l7.19.46.76.06a24.1,24.1,0,0,0,4.22.09,4.18,4.18,0,0,0,.8-.17c.64-.22,1.83-.49,3-.75s2-.46,2.55-.64a18.48,18.48,0,0,0,3.07-1.5c.39-.22.73-.41,1-.55A14.32,14.32,0,0,0,36,23.13,35.25,35.25,0,0,1,34.3,27.88Z"/><path class="cls-5" d="M13.68,24.43a.38.38,0,0,0,.27-.17,49.52,49.52,0,0,1,3-4.14,20.77,20.77,0,0,1,3.24-1.84,4.59,4.59,0,0,0,.86-.54,6.41,6.41,0,0,1,2.44-1.21,17,17,0,0,1,5.47-.41c.56.29,2.68,1.28,2.78,1.33a.38.38,0,0,0,.32-.69s-2.2-1-2.75-1.31c-.74-.39-4.34-.06-6,.35a7.17,7.17,0,0,0-2.71,1.34,4.1,4.1,0,0,1-.71.46,20.6,20.6,0,0,0-3.44,2,50.68,50.68,0,0,0-3.12,4.28.38.38,0,0,0,.36.59Z"/><path class="cls-5" d="M25.79,19.07a3.21,3.21,0,0,0,1.38-.23l.15-.11a2.18,2.18,0,0,1,1.29-.52,18.64,18.64,0,0,1,3,.57.38.38,0,0,0,.32-.7,17.74,17.74,0,0,0-3.27-.64,2.86,2.86,0,0,0-1.77.66l-.12.08a5.55,5.55,0,0,1-1,.11,12.49,12.49,0,0,0-1.74.19,4,4,0,0,0-1.65,1,3.87,3.87,0,0,1-1.36.85,5.31,5.31,0,0,0-1.55.67,5.19,5.19,0,0,1-.59.32A.38.38,0,0,0,19,22l.11,0a5.9,5.9,0,0,0,.68-.36,4.52,4.52,0,0,1,1.36-.59,4.47,4.47,0,0,0,1.65-1,3.45,3.45,0,0,1,1.32-.82A12,12,0,0,1,25.79,19.07Z"/><path class="cls-5" d="M13,27.11a.38.38,0,0,0,.19-.08,3.94,3.94,0,0,0,.65-.72c.27-.35.58-.75.86-.82l.86-.19c1-.22,1.28-.27,1.4-.45a5.24,5.24,0,0,1,1.27-.72,10.17,10.17,0,0,1,1.06-.1,7.44,7.44,0,0,0,2.39-.35.38.38,0,1,0-.38-.67,9.81,9.81,0,0,1-2.07.26,8.37,8.37,0,0,0-1.2.12,5.37,5.37,0,0,0-1.62.93c-.16.06-.67.16-1,.24l-.89.2a2.69,2.69,0,0,0-1.28,1.1,3.51,3.51,0,0,1-.51.58.38.38,0,0,0,.28.68Z"/><path class="cls-5" d="M30.43,20.85a3.82,3.82,0,0,0-1.07,0,4.72,4.72,0,0,0-.8.27,5.14,5.14,0,0,1-1.1.35.38.38,0,0,0,.12.76h0a5.84,5.84,0,0,0,1.25-.39,4,4,0,0,1,.67-.23,3.25,3.25,0,0,1,.86,0,5.74,5.74,0,0,0,1.28,0A11.83,11.83,0,0,0,33.55,21l.48-.16a.38.38,0,0,0-.09-.76,3.85,3.85,0,0,0-.65.2,11.28,11.28,0,0,1-1.75.51A5.28,5.28,0,0,1,30.43,20.85Z"/><path class="cls-5" d="M28.63,24.07c-.25,0-2.66.19-3.09.17a1.56,1.56,0,0,0-.95.34,1.91,1.91,0,0,1-.42.23,19.25,19.25,0,0,1-2.41.29.37.37,0,0,0-.35.41.38.38,0,0,0,.41.35c.13,0,.94-.07,1.63-.16a6.19,6.19,0,0,0,1-.17,2.55,2.55,0,0,0,.6-.32.93.93,0,0,1,.49-.22c.5,0,2.93-.12,3.24-.17a.38.38,0,0,0-.12-.76Z"/><path class="cls-5" d="M33.68,22.49a6.32,6.32,0,0,1-.89.77c-.19.15-.38.29-.53.43a4.07,4.07,0,0,1-1.32.63.38.38,0,0,0,.1.76,4.6,4.6,0,0,0,1.73-.82c.14-.13.31-.26.49-.4a7,7,0,0,0,1-.88.38.38,0,1,0-.58-.5Z"/><path class="cls-5" d="M30.08,29.43a14.52,14.52,0,0,1-1.76.51l-.37.09a3.79,3.79,0,0,0-1,.57,4.46,4.46,0,0,1-1,.57,3.32,3.32,0,0,1-1.12,0,3.2,3.2,0,0,0-1-.05,14.42,14.42,0,0,1-2,.24,4.77,4.77,0,0,1-1.56-.74.38.38,0,1,0-.42.64,5.23,5.23,0,0,0,2,.87A14.89,14.89,0,0,0,24,31.82a3.14,3.14,0,0,1,.71.06,4.8,4.8,0,0,0,1.2.07l.23,0a4.74,4.74,0,0,0,1.22-.68,3.89,3.89,0,0,1,.77-.46l.36-.09a14.09,14.09,0,0,0,1.89-.55.38.38,0,1,0-.32-.7Z"/></g></g></g></svg>