<svg xmlns="http://www.w3.org/2000/svg" xmlns:xlink="http://www.w3.org/1999/xlink" viewBox="0 0 48 48"><defs><style>.cls-1{isolation:isolate;}.cls-2{fill:#0089be;}.cls-10,.cls-3,.cls-5,.cls-6,.cls-7,.cls-8,.cls-9{opacity:0.5;}.cls-10,.cls-11,.cls-3,.cls-5,.cls-6,.cls-7,.cls-8,.cls-9{mix-blend-mode:multiply;}.cls-3{fill:url(#linear-gradient);}.cls-4{fill:#fff;}.cls-5{fill:url(#linear-gradient-2);}.cls-6{fill:url(#linear-gradient-3);}.cls-7{fill:url(#linear-gradient-4);}.cls-8{fill:url(#linear-gradient-5);}.cls-9{fill:url(#linear-gradient-6);}.cls-10{fill:url(#linear-gradient-7);}.cls-11{opacity:0.4;fill:url(#linear-gradient-8);}</style><linearGradient id="linear-gradient" x1="41.07" y1="24.11" x2="45.05" y2="27.18" gradientUnits="userSpaceOnUse"><stop offset="0"/><stop offset="0.14" stop-color="#2e2e2e"/><stop offset="0.38" stop-color="#777"/><stop offset="0.59" stop-color="#b1b1b1"/><stop offset="0.77" stop-color="#dcdcdc"/><stop offset="0.92" stop-color="#f5f5f5"/><stop offset="1" stop-color="#fff"/></linearGradient><linearGradient id="linear-gradient-2" x1="18.13" y1="41.27" x2="20.18" y2="42.42" gradientUnits="userSpaceOnUse"><stop offset="0"/><stop offset="0.05" stop-color="#171717"/><stop offset="0.2" stop-color="#545454"/><stop offset="0.35" stop-color="#888"/><stop offset="0.5" stop-color="#b3b3b3"/><stop offset="0.64" stop-color="#d4d4d4"/><stop offset="0.77" stop-color="#ececec"/><stop offset="0.9" stop-color="#fafafa"/><stop offset="1" stop-color="#fff"/></linearGradient><linearGradient id="linear-gradient-3" x1="10.9" y1="11.08" x2="13.49" y2="12.21" gradientUnits="userSpaceOnUse"><stop offset="0"/><stop offset="0.02" stop-color="#060606"/><stop offset="0.3" stop-color="#5d5d5d"/><stop offset="0.55" stop-color="#a2a2a2"/><stop offset="0.76" stop-color="#d5d5d5"/><stop offset="0.91" stop-color="#f3f3f3"/><stop offset="1" stop-color="#fff"/></linearGradient><linearGradient id="linear-gradient-4" x1="6.48" y1="19.35" x2="7.39" y2="19.74" xlink:href="#linear-gradient-3"/><linearGradient id="linear-gradient-5" x1="41.86" y1="14.28" x2="42.77" y2="14.68" xlink:href="#linear-gradient-3"/><linearGradient id="linear-gradient-6" x1="37.02" y1="32.93" x2="37.93" y2="33.32" xlink:href="#linear-gradient-3"/><linearGradient id="linear-gradient-7" x1="27.23" y1="5" x2="28.14" y2="5.4" xlink:href="#linear-gradient-3"/><linearGradient id="linear-gradient-8" x1="16.28" y1="14.12" x2="38.85" y2="32.85" xlink:href="#linear-gradient-3"/></defs><title>salgado</title><g class="cls-1"><g id="Layer_2" data-name="Layer 2"><g id="Capa_1" data-name="Capa 1"><circle class="cls-2" cx="24" cy="24" r="24"/><polygon class="cls-3" points="42.28 26.4 45.18 28.44 46.23 26.75 42.7 24.21 42.28 24.57 41.81 25.3 42.28 26.4"/><path class="cls-4" d="M42.7,26.4l.89-.89V25.1l-.89-.89h-.41l-.89.89v.41l.89.89Zm-.21-1.57.47.47-.47.47L42,25.3Z"/><polygon class="cls-5" points="18.79 42.89 20.52 43.86 21.64 41.99 18.79 40.58 18.79 41.27 18.11 41.73 18.79 42.22 18.79 42.89"/><path class="cls-4" d="M17.87,42a.68.68,0,0,1,.69.69.23.23,0,1,0,.46,0,.68.68,0,0,1,.69-.69.23.23,0,0,0,0-.46.68.68,0,0,1-.69-.69.23.23,0,0,0-.46,0,.68.68,0,0,1-.69.69.23.23,0,1,0,0,.46Zm.92-.46a1.1,1.1,0,0,0,.23.23,1.07,1.07,0,0,0-.23.23,1.09,1.09,0,0,0-.23-.23A1.11,1.11,0,0,0,18.79,41.5Z"/><polygon class="cls-6" points="11.6 12.09 14.01 13.53 14.73 12.02 11.78 10.37 11.6 12.09"/><path class="cls-4" d="M11.19,11.56h.3v.3a.3.3,0,1,0,.59,0v-.3h.3a.3.3,0,1,0,0-.59h-.3v-.3a.3.3,0,0,0-.59,0V11h-.3a.3.3,0,1,0,0,.59Z"/><polygon class="cls-7" points="6.56 19.62 7.53 20.21 7.83 19.66 6.86 19.11 6.56 19.62"/><path class="cls-4" d="M6.72,19.66a.3.3,0,1,0-.3-.3A.28.28,0,0,0,6.72,19.66Z"/><polygon class="cls-8" points="41.94 14.55 42.91 15.14 43.2 14.6 42.24 14.04 41.94 14.55"/><path class="cls-4" d="M42.08,14.59a.3.3,0,1,0-.3-.3A.28.28,0,0,0,42.08,14.59Z"/><polygon class="cls-9" points="37.1 33.2 38.07 33.79 38.37 33.24 37.4 32.69 37.1 33.2"/><path class="cls-4" d="M37.26,33.24a.3.3,0,1,0-.3-.3A.28.28,0,0,0,37.26,33.24Z"/><polygon class="cls-10" points="27.31 5.28 28.28 5.87 28.58 5.32 27.61 4.76 27.31 5.28"/><path class="cls-4" d="M27.47,5.32a.3.3,0,1,0-.3-.3A.28.28,0,0,0,27.47,5.32Z"/><path class="cls-11" d="M37.56,42.89s1.95.47,5.23-4a32.85,32.85,0,0,0,4.71-10L22.07,15.47l-4.43,3.32s-2,1.08-2.33,2.59-.47-1-.4.56S37.56,42.89,37.56,42.89Z"/><path class="cls-4" d="M30.34,31.11a.45.45,0,1,0,.32.13A.45.45,0,0,0,30.34,31.11Z"/><path class="cls-4" d="M30.34,33.29a.45.45,0,1,0,.32.13A.45.45,0,0,0,30.34,33.29Z"/><path class="cls-4" d="M28.79,32.29a.45.45,0,1,0,.32.13A.45.45,0,0,0,28.79,32.29Z"/><path class="cls-4" d="M28.79,34.29a.45.45,0,1,0,.32.13A.45.45,0,0,0,28.79,34.29Z"/><path class="cls-4" d="M31.12,25.77l-1.7-1.7h0l-6-7.66a2.71,2.71,0,0,0-4.06-.25l-3.7,3.7a2.71,2.71,0,0,0,.25,4.06l7.66,6h0l1.7,1.7a1.5,1.5,0,0,0,2.12,0l3.69-3.69a1.5,1.5,0,0,0,0-2.12Zm-9.81-9.51h.11a1.81,1.81,0,0,1,1.32.69l5.72,7.35-.93.92-6.15-6.81a5,5,0,0,0-1.71-1.27l.36-.36a1.81,1.81,0,0,1,1.28-.53ZM18.93,17.9Zm0,0A2.86,2.86,0,0,1,20.72,19l6.18,6.84-1.49,1.49-6.84-6.18a2.86,2.86,0,0,1-1.13-1.8Zm-1.49,1.49Zm-1.63,2.49a1.81,1.81,0,0,1,.53-1.39l.36-.36A5,5,0,0,0,18,21.85L24.77,28l-.92.93L16.5,23.2a1.81,1.81,0,0,1-.69-1.32Zm14.68,5.36-3.69,3.69a.59.59,0,0,1-.84,0l-1.42-1.42L29.06,25l1.42,1.42A.6.6,0,0,1,30.48,27.25Z"/></g></g></g></svg>