<svg xmlns="http://www.w3.org/2000/svg" xmlns:xlink="http://www.w3.org/1999/xlink" viewBox="0 0 18.72 18.72"><defs><style>.cls-1{isolation:isolate;}.cls-2{fill:#5c9237;}.cls-10,.cls-11,.cls-3,.cls-5,.cls-6,.cls-7,.cls-8,.cls-9{opacity:0.5;}.cls-10,.cls-11,.cls-12,.cls-3,.cls-5,.cls-6,.cls-7,.cls-8,.cls-9{mix-blend-mode:multiply;}.cls-3{fill:url(#linear-gradient);}.cls-4{fill:#fff;}.cls-5{fill:url(#linear-gradient-2);}.cls-6{fill:url(#linear-gradient-3);}.cls-7{fill:url(#linear-gradient-4);}.cls-8{fill:url(#linear-gradient-5);}.cls-9{fill:url(#linear-gradient-6);}.cls-10{fill:url(#linear-gradient-7);}.cls-11{fill:url(#linear-gradient-8);}.cls-12{opacity:0.4;fill:url(#linear-gradient-9);}</style><linearGradient id="linear-gradient" x1="16.02" y1="9.4" x2="17.57" y2="10.6" gradientUnits="userSpaceOnUse"><stop offset="0"/><stop offset="0.14" stop-color="#2e2e2e"/><stop offset="0.38" stop-color="#777"/><stop offset="0.59" stop-color="#b1b1b1"/><stop offset="0.77" stop-color="#dcdcdc"/><stop offset="0.92" stop-color="#f5f5f5"/><stop offset="1" stop-color="#fff"/></linearGradient><linearGradient id="linear-gradient-2" x1="10.97" y1="15.99" x2="12" y2="16.57" gradientUnits="userSpaceOnUse"><stop offset="0"/><stop offset="0.05" stop-color="#171717"/><stop offset="0.2" stop-color="#545454"/><stop offset="0.35" stop-color="#888"/><stop offset="0.5" stop-color="#b3b3b3"/><stop offset="0.64" stop-color="#d4d4d4"/><stop offset="0.77" stop-color="#ececec"/><stop offset="0.9" stop-color="#fafafa"/><stop offset="1" stop-color="#fff"/></linearGradient><linearGradient id="linear-gradient-3" x1="2.05" y1="11.14" x2="3.35" y2="11.7" gradientUnits="userSpaceOnUse"><stop offset="0"/><stop offset="0.02" stop-color="#060606"/><stop offset="0.3" stop-color="#5d5d5d"/><stop offset="0.55" stop-color="#a2a2a2"/><stop offset="0.76" stop-color="#d5d5d5"/><stop offset="0.91" stop-color="#f3f3f3"/><stop offset="1" stop-color="#fff"/></linearGradient><linearGradient id="linear-gradient-4" x1="4.25" y1="4.32" x2="5.26" y2="4.76" xlink:href="#linear-gradient-3"/><linearGradient id="linear-gradient-5" x1="2.53" y1="7.55" x2="2.88" y2="7.7" xlink:href="#linear-gradient-3"/><linearGradient id="linear-gradient-6" x1="16.33" y1="5.57" x2="16.68" y2="5.73" xlink:href="#linear-gradient-3"/><linearGradient id="linear-gradient-7" x1="14.44" y1="12.84" x2="14.8" y2="13" xlink:href="#linear-gradient-3"/><linearGradient id="linear-gradient-8" x1="10.62" y1="1.95" x2="10.98" y2="2.11" xlink:href="#linear-gradient-3"/><linearGradient id="linear-gradient-9" x1="6.59" y1="8.34" x2="14.59" y2="12.93" xlink:href="#linear-gradient-3"/></defs><title>herbal</title><g class="cls-1"><g id="Layer_2" data-name="Layer 2"><g id="Capa_1" data-name="Capa 1"><circle class="cls-2" cx="9.36" cy="9.36" r="9.36"/><polygon class="cls-3" points="16.5 10.3 17.62 11.09 18.03 10.43 16.66 9.44 16.5 9.59 16.31 9.87 16.5 10.3"/><path class="cls-4" d="M16.66,10.3,17,10V9.79l-.35-.35h-.16l-.35.35V10l.35.35Zm-.08-.61.18.18-.18.18-.18-.18Z"/><polygon class="cls-5" points="11.3 16.8 12.17 17.29 12.72 16.36 11.3 15.65 11.3 15.99 10.96 16.23 11.3 16.47 11.3 16.8"/><path class="cls-4" d="M10.84,16.34a.34.34,0,0,1,.35.35.12.12,0,0,0,.23,0,.34.34,0,0,1,.35-.35.12.12,0,0,0,0-.23.34.34,0,0,1-.35-.35.12.12,0,1,0-.23,0,.34.34,0,0,1-.35.35.12.12,0,1,0,0,.23Zm.46-.23a.55.55,0,0,0,.12.12.55.55,0,0,0-.12.12.55.55,0,0,0-.12-.12A.55.55,0,0,0,11.3,16.11Z"/><polygon class="cls-6" points="2.51 11.72 3.58 12.34 3.94 11.68 2.67 10.87 2.27 11.29 2.51 11.72"/><path class="cls-4" d="M2.67,11.72,3,11.37v-.16l-.35-.35H2.51l-.35.35v.16l.35.35Zm-.08-.61.18.19-.18.18-.18-.18Z"/><polygon class="cls-7" points="4.52 4.72 5.47 5.28 5.74 4.69 4.59 4.05 4.52 4.72"/><path class="cls-4" d="M4.36,4.51h.12v.12a.12.12,0,1,0,.23,0V4.51h.12a.12.12,0,1,0,0-.23H4.71V4.16a.12.12,0,0,0-.23,0v.12H4.36a.12.12,0,0,0,0,.23Z"/><polygon class="cls-8" points="2.56 7.65 2.94 7.88 3.05 7.67 2.68 7.45 2.56 7.65"/><path class="cls-4" d="M2.62,7.67a.12.12,0,1,0-.12-.12A.11.11,0,0,0,2.62,7.67Z"/><polygon class="cls-9" points="16.36 5.68 16.74 5.91 16.85 5.69 16.48 5.48 16.36 5.68"/><path class="cls-4" d="M16.41,5.69a.12.12,0,1,0-.12-.12A.11.11,0,0,0,16.41,5.69Z"/><polygon class="cls-10" points="14.47 12.95 14.85 13.18 14.97 12.97 14.59 12.75 14.47 12.95"/><path class="cls-4" d="M14.53,13a.12.12,0,1,0-.12-.12A.11.11,0,0,0,14.53,13Z"/><polygon class="cls-11" points="10.65 2.06 11.03 2.29 11.15 2.07 10.77 1.86 10.65 2.06"/><path class="cls-4" d="M10.72,2.07A.12.12,0,1,0,10.6,2,.11.11,0,0,0,10.72,2.07Z"/><path class="cls-12" d="M5.12,13.39,12.67,18a8.28,8.28,0,0,0,4.52-3.53,12.12,12.12,0,0,0,1.53-5.28L11.45,5s0-.16-.15-.16-.28.25-.28.25l.14.64.41.25-.49,1.78-.35-.55L10,6.45l-.15.9.19.81.42.49-.31.9-.68.74-.16-.85L9,9l-.36-.15L8.36,9l.14,1,.55.65-.89.95-1.23.9.36-.84.06-1-.28-.5-.78.6-.41,1,.16.91,0,.22Z"/><path class="cls-4" d="M11.24,4.7c-.27.07-.39.44-.28.84a1,1,0,0,0,.25.44.54.54,0,0,0,.21.13A10,10,0,0,1,11,7.58s0-.1,0-.15a1.77,1.77,0,0,0-.78-1.12.15.15,0,0,0-.2,0,1.78,1.78,0,0,0,.46,2.4q-.2.37-.43.71T9.6,10a1.87,1.87,0,0,0-.07-.48c-.17-.61-.56-1-.92-.9a.57.57,0,0,0-.37.48,1.66,1.66,0,0,0,0,.77,2,2,0,0,0,.06.2,1.14,1.14,0,0,0,.59.69,10,10,0,0,1-1,.91c-.24.18-.47.35-.69.5a1.92,1.92,0,0,0,.08-1.83l-.07-.14A.15.15,0,0,0,7,10.16l-.14.07-.18.1a.15.15,0,0,0,.15.25L7,10.5H7a1.63,1.63,0,0,1-.58,2.08l.39-1.13a.14.14,0,0,0,0,0,.15.15,0,0,0-.28,0l-.39,1.13a1.63,1.63,0,0,1,.35-1.63.15.15,0,0,0-.21-.2A1.92,1.92,0,0,0,6,12.8l0,.07a6.88,6.88,0,0,1-.82.34.15.15,0,1,0,.09.28,9.59,9.59,0,0,0,2.79-1.54l.32-.26.11.08a1.92,1.92,0,0,0,2.68-.49l.09-.13a.14.14,0,0,0,0-.08v0a.15.15,0,0,0-.06-.09l-.13-.09a1.91,1.91,0,0,0-1.44-.31l-.14,0a9.68,9.68,0,0,0,.71-.93l.07-.11A1.77,1.77,0,0,0,12.65,9a.15.15,0,0,0,0-.08v0a.15.15,0,0,0-.06-.09,1.77,1.77,0,0,0-1.8-.12,9.81,9.81,0,0,0,.47-1.06.73.73,0,0,0,.8,0A.77.77,0,0,0,12.53,7a.36.36,0,0,0,0-.18.44.44,0,0,0-.39-.21,1,1,0,0,0-.49.13l-.05,0q.1-.38.18-.77V6a.15.15,0,0,0-.12-.14h-.07s-.09,0-.14-.06a.69.69,0,0,1-.17-.31c-.07-.26,0-.46.08-.48s.24.11.31.37a.78.78,0,0,1,0,.24.15.15,0,0,0,.29,0v0a1.08,1.08,0,0,0,0-.28C11.81,4.88,11.51,4.63,11.24,4.7Zm-.29,6.39h0a1.63,1.63,0,0,1-2.1.52L10,11.41a.15.15,0,0,0,.12-.14v0a.15.15,0,0,0-.17-.12l-1.17.22a1.63,1.63,0,0,1,2.14-.25ZM8.53,9.73a1.54,1.54,0,0,1,0-.32,1,1,0,0,1,0-.22c0-.14.09-.24.16-.26s.36.17.5.52l.09.29a1.32,1.32,0,0,1,0,.53c0,.14-.09.24-.16.26s-.34-.14-.48-.47ZM12.31,9a1.48,1.48,0,0,1-1.59.44l.87-.17a.15.15,0,0,0,.12-.14v0A.15.15,0,0,0,11.54,9l-.86.16A1.48,1.48,0,0,1,12.31,9Zm-1.67-.72-.13-.58a.15.15,0,0,0-.28.06l.13.56a1.49,1.49,0,0,1-.21-1.65,1.49,1.49,0,0,1,.49,1.6ZM12.23,7c0,.07-.05.26-.29.39s-.45.11-.49,0a.17.17,0,0,1,0-.16.75.75,0,0,1,.6-.33A.17.17,0,0,1,12.23,7Z"/></g></g></g></svg>