<svg xmlns="http://www.w3.org/2000/svg" xmlns:xlink="http://www.w3.org/1999/xlink" viewBox="0 0 39.78 39.78"><defs><style>.cls-1{isolation:isolate;}.cls-2{fill:#5c9237;}.cls-10,.cls-11,.cls-3,.cls-5,.cls-6,.cls-7,.cls-8,.cls-9{opacity:0.5;mix-blend-mode:multiply;}.cls-3{fill:url(#linear-gradient);}.cls-4{fill:#fff;}.cls-5{fill:url(#linear-gradient-2);}.cls-6{fill:url(#linear-gradient-3);}.cls-7{fill:url(#linear-gradient-4);}.cls-8{fill:url(#linear-gradient-5);}.cls-9{fill:url(#linear-gradient-6);}.cls-10{fill:url(#linear-gradient-7);}.cls-11{fill:url(#linear-gradient-8);}</style><linearGradient id="linear-gradient" x1="34.04" y1="19.98" x2="37.34" y2="22.53" gradientUnits="userSpaceOnUse"><stop offset="0"/><stop offset="0.14" stop-color="#2e2e2e"/><stop offset="0.38" stop-color="#777"/><stop offset="0.59" stop-color="#b1b1b1"/><stop offset="0.77" stop-color="#dcdcdc"/><stop offset="0.92" stop-color="#f5f5f5"/><stop offset="1" stop-color="#fff"/></linearGradient><linearGradient id="linear-gradient-2" x1="23.3" y1="33.98" x2="25.49" y2="35.21" gradientUnits="userSpaceOnUse"><stop offset="0"/><stop offset="0.05" stop-color="#171717"/><stop offset="0.2" stop-color="#545454"/><stop offset="0.35" stop-color="#888"/><stop offset="0.5" stop-color="#b3b3b3"/><stop offset="0.64" stop-color="#d4d4d4"/><stop offset="0.77" stop-color="#ececec"/><stop offset="0.9" stop-color="#fafafa"/><stop offset="1" stop-color="#fff"/></linearGradient><linearGradient id="linear-gradient-3" x1="4.36" y1="23.66" x2="7.13" y2="24.87" gradientUnits="userSpaceOnUse"><stop offset="0"/><stop offset="0.02" stop-color="#060606"/><stop offset="0.3" stop-color="#5d5d5d"/><stop offset="0.55" stop-color="#a2a2a2"/><stop offset="0.76" stop-color="#d5d5d5"/><stop offset="0.91" stop-color="#f3f3f3"/><stop offset="1" stop-color="#fff"/></linearGradient><linearGradient id="linear-gradient-4" x1="9.03" y1="9.18" x2="11.18" y2="10.12" xlink:href="#linear-gradient-3"/><linearGradient id="linear-gradient-5" x1="5.37" y1="16.04" x2="6.12" y2="16.36" xlink:href="#linear-gradient-3"/><linearGradient id="linear-gradient-6" x1="34.69" y1="11.84" x2="35.44" y2="12.16" xlink:href="#linear-gradient-3"/><linearGradient id="linear-gradient-7" x1="30.68" y1="27.29" x2="31.43" y2="27.62" xlink:href="#linear-gradient-3"/><linearGradient id="linear-gradient-8" x1="22.57" y1="4.15" x2="23.32" y2="4.47" xlink:href="#linear-gradient-3"/></defs><title>herbal</title><g class="cls-1"><g id="Layer_2" data-name="Layer 2"><g id="Capa_1" data-name="Capa 1"><circle class="cls-2" cx="19.89" cy="19.89" r="19.89"/><polygon class="cls-3" points="35.05 21.88 37.44 23.57 38.31 22.17 35.39 20.06 35.05 20.36 34.65 20.97 35.05 21.88"/><path class="cls-4" d="M35.39,21.88l.74-.74V20.8l-.74-.74H35l-.74.74v.34l.74.74Zm-.17-1.3.39.39-.39.39L34.82,21Z"/><polygon class="cls-5" points="24.01 35.7 25.85 36.74 27.04 34.75 24.01 33.25 24.01 33.98 23.28 34.47 24.01 34.99 24.01 35.7"/><path class="cls-4" d="M23,34.72a.72.72,0,0,1,.74.74.25.25,0,0,0,.49,0,.72.72,0,0,1,.74-.74.25.25,0,1,0,0-.49.72.72,0,0,1-.74-.74.25.25,0,1,0-.49,0,.72.72,0,0,1-.74.74.25.25,0,0,0,0,.49Zm1-.49a1.16,1.16,0,0,0,.25.25,1.16,1.16,0,0,0-.25.25,1.17,1.17,0,0,0-.25-.25A1.17,1.17,0,0,0,24,34.23Z"/><polygon class="cls-6" points="5.33 24.9 7.6 26.23 8.38 24.81 5.68 23.08 4.83 23.99 5.33 24.9"/><path class="cls-4" d="M5.68,24.9l.74-.74v-.34l-.74-.74H5.33l-.74.74v.34l.74.74Zm-.17-1.3L5.9,24l-.39.39L5.11,24Z"/><polygon class="cls-7" points="9.61 10.02 11.61 11.21 12.21 9.96 9.76 8.6 9.61 10.02"/><path class="cls-4" d="M9.27,9.58h.25v.25a.25.25,0,1,0,.49,0V9.58h.25a.25.25,0,1,0,0-.49H10V8.84a.25.25,0,0,0-.49,0v.25H9.27a.25.25,0,1,0,0,.49Z"/><polygon class="cls-8" points="5.44 16.26 6.24 16.75 6.49 16.3 5.69 15.84 5.44 16.26"/><path class="cls-4" d="M5.57,16.3a.25.25,0,1,0-.25-.25A.23.23,0,0,0,5.57,16.3Z"/><polygon class="cls-9" points="34.76 12.06 35.56 12.55 35.81 12.1 35.01 11.64 34.76 12.06"/><path class="cls-4" d="M34.87,12.1a.25.25,0,1,0-.25-.25A.23.23,0,0,0,34.87,12.1Z"/><polygon class="cls-10" points="30.75 27.52 31.55 28.01 31.8 27.55 31 27.09 30.75 27.52"/><path class="cls-4" d="M30.88,27.55a.25.25,0,1,0-.25-.25A.23.23,0,0,0,30.88,27.55Z"/><polygon class="cls-11" points="22.64 4.37 23.44 4.86 23.69 4.41 22.89 3.95 22.64 4.37"/><path class="cls-4" d="M22.77,4.41a.25.25,0,1,0-.25-.25A.23.23,0,0,0,22.77,4.41Z"/><path class="cls-4" d="M23.89,10c-.57.16-.83.94-.6,1.78a2.06,2.06,0,0,0,.53.93,1.15,1.15,0,0,0,.44.27,21.35,21.35,0,0,1-.92,3.14c0-.1,0-.21-.05-.31a3.75,3.75,0,0,0-1.65-2.37.31.31,0,0,0-.43.09,3.78,3.78,0,0,0,1,5.11q-.43.78-.92,1.51t-.87,1.19a4,4,0,0,0-.15-1c-.36-1.3-1.2-2.13-2-1.92a1.22,1.22,0,0,0-.79,1A3.54,3.54,0,0,0,17.59,21a4.29,4.29,0,0,0,.14.42A2.42,2.42,0,0,0,19,22.94a21.26,21.26,0,0,1-2.16,1.94c-.5.39-1,.74-1.48,1.06A4.08,4.08,0,0,0,15.52,22l-.15-.3A.31.31,0,0,0,15,21.6l-.3.15-.39.22a.31.31,0,0,0,.33.53l.33-.18h0v0a3.47,3.47,0,0,1-1.23,4.42l.83-2.39a.3.3,0,0,0,0-.1.31.31,0,0,0-.6-.1l-.83,2.39a3.47,3.47,0,0,1,.75-3.47.31.31,0,0,0-.45-.42,4.09,4.09,0,0,0-.69,4.57l.07.15a14.6,14.6,0,0,1-1.75.72.31.31,0,1,0,.18.59,20.38,20.38,0,0,0,5.92-3.28l.67-.54.24.16a4.09,4.09,0,0,0,5.69-1l.19-.28a.31.31,0,0,0,.05-.18.32.32,0,0,0,0-.06.31.31,0,0,0-.13-.2l-.28-.19a4.06,4.06,0,0,0-3.06-.66l-.3.07a20.59,20.59,0,0,0,1.51-2l.15-.23a3.75,3.75,0,0,0,4.95-1.12.31.31,0,0,0-.08-.43A3.75,3.75,0,0,0,23,18.45a20.85,20.85,0,0,0,1-2.26,1.55,1.55,0,0,0,1.71,0,1.64,1.64,0,0,0,1-1.3.77.77,0,0,0-.09-.38A.94.94,0,0,0,25.7,14a2.06,2.06,0,0,0-1,.27l-.11.07q.22-.8.38-1.63a.3.3,0,0,0,0-.06.31.31,0,0,0-.25-.3.3.3,0,0,0-.14,0h0c-.06-.06-.19,0-.31-.14a1.47,1.47,0,0,1-.36-.65c-.15-.55,0-1,.17-1s.51.24.67.79a1.66,1.66,0,0,1,.06.5.31.31,0,1,0,.62,0s0-.06,0-.09a2.29,2.29,0,0,0-.08-.6C25.08,10.37,24.46,9.83,23.89,10Zm-.63,13.58,0,0,0,0a3.47,3.47,0,0,1-4.46,1.11l2.51-.48a.31.31,0,0,0-.12-.61l-2.5.48a3.47,3.47,0,0,1,4.55-.53Zm-5.13-2.89a3.29,3.29,0,0,1-.07-.67,2.22,2.22,0,0,1,0-.46c.06-.3.19-.51.35-.55s.77.36,1.07,1.1l.18.61a2.81,2.81,0,0,1,0,1.12c-.06.3-.2.51-.35.55s-.71-.29-1-1Zm8-1.63a3.13,3.13,0,0,1-3.38.93l1.84-.35a.31.31,0,0,0,.25-.3.33.33,0,0,0,0-.06.31.31,0,0,0-.36-.25l-1.82.35A3.14,3.14,0,0,1,26.16,19Zm-3.55-1.52-.28-1.23a.31.31,0,0,0-.6.14l.27,1.2a3.16,3.16,0,0,1-.44-3.5,3.16,3.16,0,0,1,1,3.39ZM26,14.78c.08.15-.11.56-.62.83s-.95.23-1,.07a.37.37,0,0,1,.06-.33,1.6,1.6,0,0,1,1.27-.7A.37.37,0,0,1,26,14.78Z"/></g></g></g></svg>