<svg xmlns="http://www.w3.org/2000/svg" xmlns:xlink="http://www.w3.org/1999/xlink" viewBox="0 0 18.72 18.72"><defs><style>.cls-1{isolation:isolate;}.cls-2{fill:#3e3e3f;}.cls-3{opacity:0.3;fill:url(#linear-gradient);}.cls-10,.cls-11,.cls-3,.cls-4,.cls-6,.cls-7,.cls-8,.cls-9{mix-blend-mode:multiply;}.cls-10,.cls-11,.cls-4,.cls-6,.cls-7,.cls-8,.cls-9{opacity:0.5;}.cls-4{fill:url(#linear-gradient-2);}.cls-5{fill:#fff;}.cls-6{fill:url(#linear-gradient-3);}.cls-7{fill:url(#linear-gradient-4);}.cls-8{fill:url(#linear-gradient-5);}.cls-9{fill:url(#linear-gradient-6);}.cls-10{fill:url(#linear-gradient-7);}.cls-11{fill:url(#linear-gradient-8);}</style><linearGradient id="linear-gradient" x1="6.44" y1="7.84" x2="16.59" y2="13.17" gradientUnits="userSpaceOnUse"><stop offset="0"/><stop offset="0.02" stop-color="#060606"/><stop offset="0.3" stop-color="#5d5d5d"/><stop offset="0.55" stop-color="#a2a2a2"/><stop offset="0.76" stop-color="#d5d5d5"/><stop offset="0.91" stop-color="#f3f3f3"/><stop offset="1" stop-color="#fff"/></linearGradient><linearGradient id="linear-gradient-2" x1="16.02" y1="9.4" x2="17.57" y2="10.6" gradientUnits="userSpaceOnUse"><stop offset="0"/><stop offset="0.14" stop-color="#2e2e2e"/><stop offset="0.38" stop-color="#777"/><stop offset="0.59" stop-color="#b1b1b1"/><stop offset="0.77" stop-color="#dcdcdc"/><stop offset="0.92" stop-color="#f5f5f5"/><stop offset="1" stop-color="#fff"/></linearGradient><linearGradient id="linear-gradient-3" x1="7.07" y1="16.1" x2="7.87" y2="16.55" gradientUnits="userSpaceOnUse"><stop offset="0"/><stop offset="0.05" stop-color="#171717"/><stop offset="0.2" stop-color="#545454"/><stop offset="0.35" stop-color="#888"/><stop offset="0.5" stop-color="#b3b3b3"/><stop offset="0.64" stop-color="#d4d4d4"/><stop offset="0.77" stop-color="#ececec"/><stop offset="0.9" stop-color="#fafafa"/><stop offset="1" stop-color="#fff"/></linearGradient><linearGradient id="linear-gradient-4" x1="4.25" y1="4.32" x2="5.26" y2="4.76" xlink:href="#linear-gradient"/><linearGradient id="linear-gradient-5" x1="2.53" y1="7.55" x2="2.88" y2="7.7" xlink:href="#linear-gradient"/><linearGradient id="linear-gradient-6" x1="16.33" y1="5.57" x2="16.68" y2="5.73" xlink:href="#linear-gradient"/><linearGradient id="linear-gradient-7" x1="14.44" y1="12.84" x2="14.8" y2="13" xlink:href="#linear-gradient"/><linearGradient id="linear-gradient-8" x1="10.62" y1="1.95" x2="10.98" y2="2.11" xlink:href="#linear-gradient"/></defs><title>amargo</title><g class="cls-1"><g id="Layer_2" data-name="Layer 2"><g id="Capa_1" data-name="Capa 1"><circle class="cls-2" cx="9.36" cy="9.36" r="9.36"/><path class="cls-3" d="M9.72,15.19,14,17.5a9,9,0,0,0,3.68-3.8,10.15,10.15,0,0,0,1-5.13L9.88,4.38l-.51.89L9.16,5l-.32.23-.4-.44L8,5.58l-.25-.3L7.06,6.34l-.18-.18L6.22,7.88l-.39-.45S5.3,9.7,5.51,9.87s1,.71,1,.71a.84.84,0,0,0,.25.77,4.23,4.23,0,0,0,1,.42l.86.52.1,1.94Z"/><polygon class="cls-4" points="16.5 10.3 17.62 11.09 18.03 10.43 16.66 9.44 16.5 9.58 16.31 9.87 16.5 10.3"/><path class="cls-5" d="M16.66,10.3,17,10V9.79l-.35-.35h-.16l-.35.35V10l.35.35Zm-.08-.61.18.19-.18.18-.18-.18Z"/><polygon class="cls-6" points="7.33 16.73 8 17.11 8.44 16.38 7.33 15.83 7.33 16.1 7.06 16.28 7.33 16.47 7.33 16.73"/><path class="cls-5" d="M7,16.37a.27.27,0,0,1,.27.27.09.09,0,0,0,.18,0,.27.27,0,0,1,.27-.27.09.09,0,0,0,0-.18.27.27,0,0,1-.27-.27.09.09,0,1,0-.18,0,.27.27,0,0,1-.27.27.09.09,0,1,0,0,.18Zm.36-.18.09.09-.09.09-.09-.09Z"/><polygon class="cls-7" points="4.52 4.72 5.47 5.28 5.74 4.69 4.59 4.05 4.52 4.72"/><path class="cls-5" d="M4.36,4.51h.12v.12a.12.12,0,1,0,.23,0V4.51h.12a.12.12,0,1,0,0-.23H4.71V4.16a.12.12,0,0,0-.23,0v.12H4.36a.12.12,0,0,0,0,.23Z"/><polygon class="cls-8" points="2.56 7.65 2.94 7.88 3.05 7.67 2.68 7.45 2.56 7.65"/><path class="cls-5" d="M2.62,7.67a.12.12,0,1,0-.12-.12A.11.11,0,0,0,2.62,7.67Z"/><polygon class="cls-9" points="16.36 5.68 16.74 5.91 16.85 5.69 16.48 5.48 16.36 5.68"/><path class="cls-5" d="M16.41,5.69a.12.12,0,1,0-.12-.12A.11.11,0,0,0,16.41,5.69Z"/><polygon class="cls-10" points="14.47 12.95 14.85 13.18 14.97 12.97 14.59 12.75 14.47 12.95"/><path class="cls-5" d="M14.53,13a.12.12,0,1,0-.12-.12A.11.11,0,0,0,14.53,13Z"/><polygon class="cls-11" points="10.65 2.06 11.03 2.29 11.15 2.07 10.77 1.86 10.65 2.06"/><path class="cls-5" d="M10.72,2.07A.12.12,0,1,0,10.6,2,.11.11,0,0,0,10.72,2.07Z"/><path class="cls-5" d="M13,9.39,12.7,7.11A.23.23,0,0,0,12.26,7l-.13.25L11.7,6a.23.23,0,0,0-.41-.06l-.4-.85A.23.23,0,0,0,10.49,5l-.11.12-.31-.63a.23.23,0,0,0-.42,0l-.2.39-.09-.2a.23.23,0,0,0-.21-.14h0a.23.23,0,0,0-.21.14l-.08.19-.2-.38a.23.23,0,0,0-.42,0l-.31.63L7.83,5a.23.23,0,0,0-.39.05L7,5.92A.23.23,0,0,0,6.62,6l-.43,1.3L6.06,7a.23.23,0,0,0-.44.07L5.3,9.39a1.21,1.21,0,0,0,.18.83,1,1,0,0,0,.69.45h.11c-.06.57.46,1.13,1.24,1.3l.18,0a1,1,0,0,0,.68.49v1.73a.23.23,0,0,0,.11.2l1.11.73a.23.23,0,0,0,.13,0l.11,0A.23.23,0,0,0,9.95,15V12.5a1,1,0,0,0,.67-.49l.19,0c.78-.17,1.3-.73,1.24-1.3h.11a1,1,0,0,0,.69-.45A1.21,1.21,0,0,0,13,9.39ZM11.83,7.87l-.28.55a.23.23,0,0,0-.4-.07l-.81,1-.26-.53s.71-1.23,1.34-2.25Zm-2.5,2.42a.24.24,0,0,0-.17-.07.23.23,0,0,0-.17.08l-.17.18-.5-.66.84-1.73c.24.46.62,1.21.85,1.72l-.5.66ZM11,6.4l-.5.82-.43-1,.55-.64ZM9.86,5.14l.19.39-.2.24L9.7,5.44Zm-.7.24s.95,2.12,1,2.34l-.37.62-.46-.88a.23.23,0,0,0-.42,0l-.43.88-.37-.63Zm-.7-.24.16.31-.14.32-.21-.24Zm-.75.46.56.65-.43,1L7.33,6.4Zm-.8,1c.63,1,1.33,2.24,1.34,2.26L8,9.4l-.82-1a.23.23,0,0,0-.4.07l-.28-.55ZM5.87,10a.74.74,0,0,1-.11-.51L6,7.9l.63,1.23-.24,1.08H6.23A.52.52,0,0,1,5.87,10Zm.88.72.34-1.52h0l0-.12,1.38,1.79-.67.73-.21,0C7.07,11.4,6.67,11,6.75,10.68Zm2.73,3.85-.64-.42V12.59l.32,0,.32,0v1.94ZM10,12a2.35,2.35,0,0,1-1.6,0,.64.64,0,0,1-.19-.12l1-1.09,1,1.08A.61.61,0,0,1,10,12Zm.75-.48-.2,0-.67-.73c.37-.51,1-1.31,1.37-1.79l.37,1.65C11.65,11,11.25,11.4,10.71,11.52ZM12.45,10a.52.52,0,0,1-.36.24h-.15l-.24-1.08.63-1.23.22,1.55A.74.74,0,0,1,12.45,10Z"/></g></g></g></svg>