<svg xmlns="http://www.w3.org/2000/svg" viewBox="0 0 64 40"><defs><style>.cls-1{fill:#13457c;}.cls-2{fill:#ec1c2e;}.cls-3{fill:#0084c4;}.cls-4{fill:#fff;}.cls-5{fill:none;stroke:#fff;stroke-width:0.21px;}</style></defs><title>Maestro</title><g id="Layer_2" data-name="Layer 2"><g id="Layer_1-2" data-name="Layer 1"><rect class="cls-1" width="64" height="40" rx="2.13" ry="2.13"/><polygon class="cls-2" points="39.62 31.49 40.21 31.47 40.8 31.43 41.37 31.36 41.94 31.25 42.49 31.13 43.04 30.97 43.57 30.79 44.1 30.58 44.61 30.35 45.1 30.1 45.59 29.82 46.05 29.52 46.5 29.2 46.94 28.86 47.36 28.5 47.76 28.12 48.13 27.72 48.5 27.3 48.84 26.86 49.16 26.41 49.46 25.95 49.73 25.46 49.99 24.97 50.22 24.46 50.43 23.93 50.61 23.4 50.76 22.85 50.89 22.3 50.99 21.73 51.06 21.16 51.11 20.57 51.13 19.98 51.11 19.39 51.06 18.81 50.99 18.24 50.89 17.67 50.76 17.12 50.61 16.58 50.43 16.04 50.22 15.52 49.99 15.02 49.73 14.52 49.46 14.04 49.16 13.57 48.84 13.13 48.5 12.69 48.13 12.28 47.76 11.88 47.36 11.5 46.94 11.14 46.5 10.8 46.05 10.48 45.59 10.18 45.1 9.9 44.61 9.64 44.1 9.41 43.57 9.21 43.04 9.03 42.49 8.88 41.94 8.75 41.37 8.64 40.8 8.57 40.21 8.53 39.62 8.51 39.02 8.53 38.44 8.57 37.87 8.64 37.3 8.75 36.74 8.88 36.2 9.03 35.66 9.21 35.14 9.41 34.63 9.64 34.14 9.9 33.66 10.18 33.19 10.48 32.74 10.8 32.31 11.14 31.89 11.5 31.49 11.88 31.11 12.28 30.75 12.69 30.41 13.13 30.09 13.57 29.79 14.04 29.52 14.52 29.26 15.02 29.04 15.52 28.83 16.04 28.65 16.58 28.5 17.12 28.37 17.67 28.27 18.24 28.2 18.81 28.15 19.39 28.14 19.98 28.15 20.57 28.2 21.16 28.27 21.73 28.37 22.3 28.5 22.85 28.65 23.4 28.83 23.93 29.04 24.46 29.26 24.97 29.52 25.46 29.79 25.95 30.09 26.41 30.41 26.86 30.75 27.3 31.11 27.72 31.49 28.12 31.89 28.5 32.31 28.86 32.74 29.2 33.19 29.52 33.66 29.82 34.14 30.1 34.63 30.35 35.14 30.58 35.66 30.79 36.2 30.97 36.74 31.13 37.3 31.25 37.87 31.36 38.44 31.43 39.02 31.47 39.62 31.49"/><polygon class="cls-3" points="24.38 31.49 24.98 31.47 25.56 31.43 26.13 31.36 26.7 31.25 27.26 31.13 27.8 30.97 28.34 30.79 28.86 30.58 29.37 30.35 29.86 30.1 30.34 29.82 30.81 29.52 31.26 29.2 31.69 28.86 32.11 28.5 32.51 28.12 32.89 27.72 33.25 27.3 33.59 26.86 33.91 26.41 34.21 25.95 34.48 25.46 34.74 24.97 34.97 24.46 35.17 23.93 35.35 23.4 35.5 22.85 35.63 22.3 35.73 21.73 35.8 21.16 35.85 20.57 35.87 19.98 35.85 19.39 35.8 18.81 35.73 18.24 35.63 17.67 35.5 17.12 35.35 16.58 35.17 16.04 34.97 15.52 34.74 15.02 34.48 14.52 34.21 14.04 33.91 13.57 33.59 13.13 33.25 12.69 32.89 12.28 32.51 11.88 32.11 11.5 31.69 11.14 31.26 10.8 30.81 10.48 30.34 10.18 29.86 9.9 29.37 9.64 28.86 9.41 28.34 9.21 27.8 9.03 27.26 8.88 26.7 8.75 26.13 8.64 25.56 8.57 24.98 8.53 24.38 8.51 23.79 8.53 23.2 8.57 22.63 8.64 22.07 8.75 21.51 8.88 20.96 9.03 20.43 9.21 19.9 9.41 19.39 9.64 18.9 9.9 18.41 10.18 17.95 10.48 17.5 10.8 17.06 11.14 16.64 11.5 16.25 11.88 15.87 12.28 15.5 12.69 15.16 13.13 14.84 13.57 14.54 14.04 14.27 14.52 14.01 15.02 13.78 15.52 13.57 16.04 13.39 16.58 13.24 17.12 13.11 17.67 13.01 18.24 12.94 18.81 12.89 19.39 12.88 19.98 12.89 20.57 12.94 21.16 13.01 21.73 13.11 22.3 13.24 22.85 13.39 23.4 13.57 23.93 13.78 24.46 14.01 24.97 14.27 25.46 14.54 25.95 14.84 26.41 15.16 26.86 15.5 27.3 15.87 27.72 16.25 28.12 16.64 28.5 17.06 28.86 17.5 29.2 17.95 29.52 18.41 29.82 18.9 30.1 19.39 30.35 19.9 30.58 20.43 30.79 20.96 30.97 21.51 31.13 22.07 31.25 22.63 31.36 23.2 31.43 23.79 31.47 24.38 31.49"/><polygon class="cls-2" points="30.59 12.89 36.41 12.89 36.41 12.25 31.15 12.25 30.59 12.89"/><polygon class="cls-2" points="29.67 14.25 36.41 14.25 36.41 13.61 30.08 13.61 29.67 14.25"/><polygon class="cls-2" points="28.99 15.63 36.41 15.63 36.41 14.99 29.3 14.99 28.99 15.63"/><polygon class="cls-2" points="28.54 16.99 36.41 16.99 36.41 16.35 28.74 16.35 28.54 16.99"/><polygon class="cls-2" points="28.25 18.35 36.41 18.35 36.41 17.71 28.37 17.71 28.25 18.35"/><polygon class="cls-2" points="28.19 20.99 36.41 20.99 36.41 20.35 28.14 20.35 28.19 20.99"/><polygon class="cls-2" points="28.39 22.43 36.41 22.43 36.41 21.79 28.27 21.79 28.39 22.43"/><polygon class="cls-2" points="28.78 23.59 36.41 23.59 36.41 22.95 28.58 22.95 28.78 23.59"/><polygon class="cls-2" points="29.36 25.01 36.41 25.01 36.41 24.37 29.05 24.37 29.36 25.01"/><polygon class="cls-2" points="30.18 26.45 36.41 26.45 36.41 25.81 29.75 25.81 30.18 26.45"/><polygon class="cls-2" points="31.2 27.83 36.35 27.83 36.35 27.19 30.64 27.19 31.2 27.83"/><polygon class="cls-2" points="49.23 27.03 49.27 26.93 49.32 26.84 49.4 26.75 49.48 26.68 49.57 26.63 49.67 26.6 49.78 26.59 49.9 26.6 50 26.63 50.1 26.68 50.18 26.75 50.25 26.84 50.3 26.93 50.34 27.03 50.22 27.03 50.2 26.96 50.15 26.88 50.1 26.81 50.04 26.76 49.96 26.72 49.87 26.69 49.78 26.68 49.69 26.69 49.61 26.72 49.53 26.76 49.46 26.81 49.41 26.88 49.37 26.96 49.35 27.03 49.23 27.03"/><polygon class="cls-2" points="49.59 27.03 49.59 26.9 49.8 26.9 49.85 26.9 49.89 26.9 49.93 26.92 49.96 26.93 49.98 26.95 50 26.97 50.01 27 50.02 27.03 49.92 27.03 49.92 27.03 49.92 27.01 49.91 27 49.9 26.98 49.88 26.97 49.86 26.96 49.84 26.96 49.83 26.96 49.8 26.96 49.69 26.96 49.69 27.03 49.59 27.03"/><polygon class="cls-2" points="49.23 27.13 49.23 27.04 49.23 27.03 49.35 27.03 49.34 27.05 49.34 27.13 49.23 27.13"/><polygon class="cls-2" points="49.59 27.13 49.59 27.03 49.69 27.03 49.69 27.11 49.78 27.11 49.82 27.11 49.85 27.11 49.87 27.11 49.89 27.1 49.9 27.09 49.91 27.08 49.92 27.06 49.92 27.03 50.02 27.03 50.02 27.03 50.01 27.07 50.01 27.1 49.99 27.12 49.98 27.13 49.59 27.13"/><polygon class="cls-2" points="50.23 27.13 50.22 27.05 50.22 27.03 50.34 27.03 50.34 27.04 50.35 27.13 50.23 27.13"/><polygon class="cls-2" points="49.23 27.13 49.22 27.15 49.23 27.26 49.27 27.37 49.32 27.46 49.4 27.54 49.48 27.61 49.57 27.66 49.67 27.68 49.78 27.7 49.9 27.68 50 27.66 50.1 27.61 50.18 27.54 50.25 27.46 50.3 27.37 50.34 27.26 50.35 27.15 50.35 27.13 50.23 27.13 50.23 27.15 50.22 27.25 50.2 27.34 50.15 27.42 50.1 27.49 50.04 27.54 49.96 27.58 49.87 27.61 49.78 27.62 49.69 27.61 49.61 27.58 49.53 27.54 49.46 27.49 49.41 27.42 49.37 27.34 49.34 27.25 49.34 27.15 49.34 27.13 49.23 27.13"/><polygon class="cls-2" points="49.59 27.13 49.59 27.36 49.69 27.36 49.69 27.17 49.78 27.17 49.9 27.36 50 27.36 49.86 27.17 49.89 27.17 49.93 27.16 49.95 27.15 49.98 27.14 49.98 27.13 49.59 27.13"/><polygon class="cls-4" points="37.13 19.01 37.05 19.01 36.98 19 36.91 18.99 36.84 18.98 36.78 18.97 36.71 18.96 36.64 18.95 36.56 18.94 36.48 18.93 36.4 18.92 36.3 18.91 36.2 18.91 36.09 18.91 35.96 18.91 35.82 18.92 35.67 18.93 35.56 18.95 35.46 18.97 35.37 19 35.28 19.03 35.21 19.07 35.14 19.12 35.09 19.17 35.04 19.23 35.01 19.29 34.98 19.35 34.97 19.41 34.97 19.48 34.99 19.55 35.01 19.63 35.05 19.7 35.11 19.77 35.22 19.87 35.34 19.95 35.5 20.02 35.66 20.07 35.83 20.13 36.01 20.18 36.19 20.25 36.36 20.32 36.52 20.42 36.68 20.52 36.81 20.66 36.93 20.83 37.01 21.04 37.07 21.28 37.09 21.56 37.07 21.9 37.03 22.16 36.96 22.38 36.87 22.59 36.77 22.77 36.64 22.93 36.5 23.06 36.34 23.18 36.17 23.28 36 23.36 35.82 23.43 35.64 23.49 35.45 23.53 35.27 23.56 35.09 23.58 34.91 23.59 34.74 23.59 34.51 23.59 34.3 23.59 34.1 23.59 33.93 23.58 33.76 23.57 33.62 23.57 33.48 23.56 33.36 23.54 33.25 23.53 33.15 23.51 33.05 23.49 32.95 23.46 32.86 23.43 32.77 23.41 32.68 23.38 32.58 23.34 32.81 22.16 32.87 22.17 32.93 22.19 33.01 22.2 33.1 22.23 33.2 22.25 33.31 22.27 33.44 22.3 33.56 22.32 33.7 22.34 33.84 22.36 33.99 22.37 34.14 22.39 34.3 22.39 34.46 22.4 34.62 22.4 34.78 22.39 34.93 22.36 35.05 22.32 35.15 22.26 35.22 22.19 35.28 22.11 35.32 22.03 35.36 21.95 35.38 21.86 35.39 21.78 35.39 21.7 35.37 21.63 35.34 21.57 35.3 21.51 35.24 21.46 35.18 21.41 35.11 21.36 35.03 21.32 34.94 21.28 34.85 21.24 34.75 21.2 34.65 21.16 34.54 21.12 34.44 21.08 34.33 21.04 34.23 20.99 34.12 20.94 34.01 20.88 33.91 20.82 33.81 20.76 33.72 20.69 33.63 20.6 33.56 20.52 33.48 20.42 33.42 20.31 33.37 20.2 33.32 20.07 33.29 19.93 33.27 19.78 33.27 19.61 33.28 19.44 33.29 19.33 33.31 19.22 33.32 19.12 33.34 19.02 33.37 18.93 33.39 18.83 33.43 18.75 33.46 18.66 33.5 18.58 33.54 18.5 33.59 18.43 33.65 18.36 33.7 18.29 33.76 18.23 33.83 18.16 33.9 18.11 33.97 18.06 34.05 18.01 34.14 17.96 34.23 17.92 34.33 17.88 34.43 17.84 34.53 17.81 34.65 17.78 34.77 17.75 34.89 17.73 35.02 17.71 35.16 17.7 35.3 17.69 35.45 17.68 35.61 17.67 35.77 17.67 35.97 17.67 36.15 17.67 36.31 17.68 36.46 17.69 36.59 17.69 36.72 17.7 36.83 17.71 36.92 17.72 37.01 17.73 37.08 17.74 37.15 17.75 37.21 17.76 37.27 17.77 37.31 17.78 37.36 17.78 37.4 17.79 37.13 19.01"/><polyline class="cls-5" points="37.13 19.01 37.13 19.01 37.05 19.01 36.98 19 36.91 18.99 36.84 18.98 36.78 18.97 36.71 18.96 36.64 18.95 36.56 18.94 36.48 18.93 36.4 18.92 36.3 18.91 36.2 18.91 36.09 18.91 35.96 18.91 35.82 18.92 35.67 18.93 35.67 18.93 35.56 18.95 35.46 18.97 35.37 19 35.28 19.03 35.21 19.07 35.14 19.12 35.09 19.17 35.04 19.23 35.01 19.29 34.98 19.35 34.97 19.41 34.97 19.48 34.99 19.55 35.01 19.63 35.05 19.7 35.11 19.77 35.11 19.77 35.22 19.87 35.34 19.95 35.5 20.02 35.66 20.07 35.83 20.13 36.01 20.18 36.19 20.25 36.36 20.32 36.52 20.42 36.68 20.52 36.81 20.66 36.93 20.83 37.01 21.04 37.07 21.28 37.09 21.56 37.07 21.9 37.07 21.9 37.03 22.16 36.96 22.38 36.87 22.59 36.77 22.77 36.64 22.93 36.5 23.06 36.34 23.18 36.17 23.28 36 23.36 35.82 23.43 35.64 23.49 35.45 23.53 35.27 23.56 35.09 23.58 34.91 23.59 34.74 23.59 34.74 23.59 34.51 23.59 34.3 23.59 34.1 23.59 33.93 23.58 33.76 23.57 33.62 23.57 33.48 23.56 33.36 23.54 33.25 23.53 33.15 23.51 33.05 23.49 32.95 23.46 32.86 23.43 32.77 23.41 32.68 23.38 32.58 23.34 32.81 22.16 32.81 22.16 32.87 22.17 32.93 22.19 33.01 22.2 33.1 22.23 33.2 22.25 33.31 22.27 33.44 22.3 33.56 22.32 33.7 22.34 33.84 22.36 33.99 22.37 34.14 22.39 34.3 22.39 34.46 22.4 34.62 22.4 34.78 22.39 34.78 22.39 34.93 22.36 35.05 22.32 35.15 22.26 35.22 22.19 35.28 22.11 35.32 22.03 35.36 21.95 35.38 21.86 35.38 21.86 35.39 21.78 35.39 21.7 35.37 21.63 35.34 21.57 35.3 21.51 35.24 21.46 35.18 21.41 35.11 21.36 35.03 21.32 34.94 21.28 34.85 21.24 34.75 21.2 34.65 21.16 34.54 21.12 34.44 21.08 34.33 21.04 34.23 20.99 34.12 20.94 34.01 20.88 33.91 20.82 33.81 20.76 33.72 20.69 33.63 20.6 33.56 20.52 33.48 20.42 33.42 20.31 33.37 20.2 33.32 20.07 33.29 19.93 33.27 19.78 33.27 19.61 33.28 19.44 33.28 19.44 33.29 19.33 33.31 19.22 33.32 19.12 33.34 19.02 33.37 18.93 33.39 18.83 33.43 18.75 33.46 18.66 33.5 18.58 33.54 18.5 33.59 18.43 33.65 18.36 33.7 18.29 33.76 18.23 33.83 18.16 33.9 18.11 33.97 18.06 34.05 18.01 34.14 17.96 34.23 17.92 34.33 17.88 34.43 17.84 34.53 17.81 34.65 17.78 34.77 17.75 34.89 17.73 35.02 17.71 35.16 17.7 35.3 17.69 35.45 17.68 35.61 17.67 35.77 17.67 35.77 17.67 35.97 17.67 36.15 17.67 36.31 17.68 36.46 17.69 36.59 17.69 36.72 17.7 36.83 17.71 36.92 17.72 37.01 17.73 37.08 17.74 37.15 17.75 37.21 17.76 37.27 17.77 37.31 17.78 37.36 17.78 37.4 17.79 37.13 19.01"/><polygon class="cls-4" points="38.37 16.49 39.89 16.49 39.66 17.81 40.59 17.81 40.38 19.01 39.42 18.99 38.92 22 38.91 22.07 38.91 22.12 38.92 22.17 38.94 22.22 38.96 22.25 38.98 22.29 39.02 22.32 39.06 22.34 39.1 22.37 39.15 22.39 39.2 22.4 39.25 22.41 39.31 22.42 39.37 22.42 39.44 22.43 39.5 22.43 39.62 22.43 39.73 22.42 39.83 22.41 39.91 22.39 39.97 22.37 40.02 22.35 40.05 22.33 40.06 22.33 39.91 23.36 39.87 23.38 39.83 23.4 39.79 23.42 39.75 23.44 39.71 23.45 39.66 23.47 39.62 23.48 39.56 23.5 39.51 23.51 39.45 23.53 39.39 23.54 39.32 23.55 39.25 23.56 39.17 23.57 39.09 23.58 38.99 23.59 38.59 23.59 38.37 23.58 38.18 23.56 38.01 23.53 37.86 23.48 37.74 23.44 37.63 23.38 37.55 23.32 37.47 23.25 37.42 23.17 37.38 23.08 37.35 22.99 37.34 22.88 37.33 22.77 37.34 22.65 37.35 22.52 37.37 22.39 38.37 16.49"/><polyline class="cls-5" points="38.37 16.49 39.89 16.49 39.66 17.81 40.59 17.81 40.38 19.01 39.42 18.99 38.92 22 38.92 22 38.91 22.07 38.91 22.12 38.92 22.17 38.94 22.22 38.96 22.25 38.98 22.29 39.02 22.32 39.06 22.34 39.1 22.37 39.15 22.39 39.2 22.4 39.25 22.41 39.31 22.42 39.37 22.42 39.44 22.43 39.5 22.43 39.5 22.43 39.62 22.43 39.73 22.42 39.83 22.41 39.91 22.39 39.97 22.37 40.02 22.35 40.05 22.33 40.06 22.33 39.91 23.36 39.91 23.36 39.87 23.38 39.83 23.4 39.79 23.42 39.75 23.44 39.71 23.45 39.66 23.47 39.62 23.48 39.56 23.5 39.51 23.51 39.45 23.53 39.39 23.54 39.32 23.55 39.25 23.56 39.17 23.57 39.09 23.58 38.99 23.59 38.59 23.59 38.59 23.59 38.37 23.58 38.18 23.56 38.01 23.53 37.86 23.48 37.74 23.44 37.63 23.38 37.55 23.32 37.47 23.25 37.42 23.17 37.38 23.08 37.35 22.99 37.34 22.88 37.33 22.77 37.34 22.65 37.35 22.52 37.37 22.39 38.37 16.49"/><polygon class="cls-4" points="29.15 21.07 29.13 21.16 29.12 21.26 29.13 21.36 29.16 21.46 29.18 21.56 29.23 21.66 29.28 21.76 29.35 21.85 29.42 21.94 29.5 22.03 29.59 22.11 29.68 22.18 29.78 22.24 29.89 22.29 30 22.32 30.12 22.35 30.25 22.37 30.39 22.39 30.53 22.41 30.67 22.41 30.81 22.42 30.95 22.42 31.1 22.41 31.24 22.4 31.39 22.38 31.54 22.35 31.69 22.31 31.84 22.26 31.99 22.2 32.15 22.14 32.31 22.05 32.47 21.96 32.23 23.3 32.14 23.35 32.06 23.39 31.98 23.42 31.89 23.45 31.81 23.48 31.73 23.51 31.64 23.53 31.55 23.55 31.45 23.56 31.34 23.57 31.23 23.58 31.1 23.58 30.97 23.59 30.82 23.59 30.65 23.59 30.47 23.59 30.34 23.59 30.2 23.59 30.07 23.58 29.93 23.56 29.79 23.55 29.66 23.52 29.52 23.49 29.39 23.46 29.25 23.42 29.12 23.38 28.99 23.33 28.86 23.27 28.74 23.21 28.62 23.14 28.5 23.07 28.39 22.98 28.29 22.89 28.18 22.79 28.09 22.69 28 22.57 27.92 22.45 27.84 22.32 27.77 22.18 27.71 22.03 27.66 21.88 27.62 21.71 27.58 21.54 27.56 21.35 27.55 21.15 27.55 20.95 27.55 20.73 27.57 20.5 27.58 20.42 27.59 20.33 27.61 20.24 27.63 20.14 27.65 20.04 27.67 19.94 27.7 19.83 27.73 19.71 27.77 19.6 27.82 19.48 27.86 19.37 27.92 19.25 27.98 19.13 28.04 19.02 28.11 18.9 28.19 18.79 28.27 18.68 28.36 18.57 28.46 18.46 28.57 18.36 28.69 18.26 28.81 18.17 28.94 18.09 29.09 18.01 29.24 17.94 29.4 17.88 29.57 17.82 29.75 17.78 29.94 17.74 30.15 17.71 30.36 17.7 30.59 17.69 30.69 17.69 30.8 17.7 30.91 17.7 31.02 17.72 31.13 17.73 31.24 17.75 31.35 17.78 31.46 17.81 31.57 17.84 31.68 17.89 31.78 17.93 31.88 17.98 31.98 18.05 32.08 18.11 32.17 18.18 32.26 18.26 32.34 18.35 32.42 18.45 32.49 18.55 32.56 18.66 32.62 18.78 32.67 18.91 32.72 19.05 32.75 19.2 32.78 19.36 32.8 19.52 32.81 19.7 32.81 19.89 32.8 20.09 32.78 20.3 32.74 20.52 32.7 20.76 32.64 21.09 28.72 21.09 28.95 20.04 31.3 20.04 31.31 19.89 31.31 19.76 31.31 19.64 31.28 19.52 31.25 19.42 31.21 19.33 31.17 19.25 31.11 19.17 31.05 19.1 30.97 19.05 30.9 19 30.82 18.96 30.73 18.93 30.64 18.91 30.55 18.9 30.45 18.89 30.34 18.89 30.25 18.91 30.15 18.93 30.06 18.96 29.97 19 29.89 19.05 29.81 19.11 29.73 19.17 29.67 19.25 29.61 19.32 29.55 19.41 29.5 19.51 29.45 19.6 29.41 19.71 29.39 19.82 29.36 19.94 29.15 21.07"/><polyline class="cls-5" points="29.15 21.07 29.15 21.07 29.13 21.16 29.12 21.26 29.13 21.36 29.16 21.46 29.18 21.56 29.23 21.66 29.28 21.76 29.35 21.85 29.42 21.94 29.5 22.03 29.59 22.11 29.68 22.18 29.78 22.24 29.89 22.29 30 22.32 30.12 22.35 30.12 22.35 30.25 22.37 30.39 22.39 30.53 22.41 30.67 22.41 30.81 22.42 30.95 22.42 31.1 22.41 31.24 22.4 31.39 22.38 31.54 22.35 31.69 22.31 31.84 22.26 31.99 22.2 32.15 22.14 32.31 22.05 32.47 21.96 32.23 23.3 32.23 23.3 32.14 23.35 32.06 23.39 31.98 23.42 31.89 23.45 31.81 23.48 31.73 23.51 31.64 23.53 31.55 23.55 31.45 23.56 31.34 23.57 31.23 23.58 31.1 23.58 30.97 23.59 30.82 23.59 30.65 23.59 30.47 23.59 30.47 23.59 30.34 23.59 30.2 23.59 30.07 23.58 29.93 23.56 29.79 23.55 29.66 23.52 29.52 23.49 29.39 23.46 29.25 23.42 29.12 23.38 28.99 23.33 28.86 23.27 28.74 23.21 28.62 23.14 28.5 23.07 28.39 22.98 28.29 22.89 28.18 22.79 28.09 22.69 28 22.57 27.92 22.45 27.84 22.32 27.77 22.18 27.71 22.03 27.66 21.88 27.62 21.71 27.58 21.54 27.56 21.35 27.55 21.15 27.55 20.95 27.55 20.73 27.57 20.5 27.57 20.5 27.58 20.42 27.59 20.33 27.61 20.24 27.63 20.14 27.65 20.04 27.67 19.94 27.7 19.83 27.73 19.71 27.77 19.6 27.82 19.48 27.86 19.37 27.92 19.25 27.98 19.13 28.04 19.02 28.11 18.9 28.19 18.79 28.27 18.68 28.36 18.57 28.46 18.46 28.57 18.36 28.69 18.26 28.81 18.17 28.94 18.09 29.09 18.01 29.24 17.94 29.4 17.88 29.57 17.82 29.75 17.78 29.94 17.74 30.15 17.71 30.36 17.7 30.59 17.69 30.59 17.69 30.69 17.69 30.8 17.7 30.91 17.7 31.02 17.72 31.13 17.73 31.24 17.75 31.35 17.78 31.46 17.81 31.57 17.84 31.68 17.89 31.78 17.93 31.88 17.98 31.98 18.05 32.08 18.11 32.17 18.18 32.26 18.26 32.34 18.35 32.42 18.45 32.49 18.55 32.56 18.66 32.62 18.78 32.67 18.91 32.72 19.05 32.75 19.2 32.78 19.36 32.8 19.52 32.81 19.7 32.81 19.89 32.8 20.09 32.78 20.3 32.74 20.52 32.7 20.76 32.64 21.09 28.72 21.09 28.95 20.04 31.3 20.04 31.3 20.04 31.31 19.89 31.31 19.76 31.31 19.64 31.28 19.52 31.25 19.42 31.21 19.33 31.17 19.25 31.11 19.17 31.05 19.1 30.97 19.05 30.9 19 30.82 18.96 30.73 18.93 30.64 18.91 30.55 18.9 30.45 18.89 30.45 18.89 30.34 18.89 30.25 18.91 30.15 18.93 30.06 18.96 29.97 19 29.89 19.05 29.81 19.11 29.73 19.17 29.67 19.25 29.61 19.32 29.55 19.41 29.5 19.51 29.45 19.6 29.41 19.71 29.39 19.82 29.36 19.94 29.15 21.07"/><polygon class="cls-4" points="27.05 22.39 26.83 23.59 25.47 23.59 25.48 23.48 25.5 23.37 25.52 23.27 25.53 23.17 25.55 23.09 25.56 23.02 25.57 22.98 25.59 22.95 25.52 23.04 25.42 23.12 25.32 23.2 25.21 23.27 25.08 23.34 24.95 23.41 24.8 23.47 24.65 23.53 24.5 23.58 24.34 23.62 24.18 23.65 24.02 23.67 23.87 23.68 23.71 23.69 23.56 23.68 23.41 23.65 23.22 23.61 23.05 23.55 22.89 23.48 22.76 23.4 22.64 23.31 22.54 23.21 22.45 23.11 22.37 23 22.31 22.88 22.25 22.77 22.21 22.65 22.18 22.52 22.16 22.4 22.14 22.28 22.13 22.16 22.13 22.04 22.14 21.83 22.18 21.63 22.23 21.43 22.3 21.25 22.39 21.08 22.48 20.93 22.6 20.78 22.73 20.64 22.87 20.51 23.01 20.4 23.17 20.3 23.34 20.21 23.51 20.14 23.69 20.08 23.87 20.04 24.05 20 24.06 20 24.09 20 24.13 19.99 24.19 19.98 24.25 19.98 24.33 19.97 24.41 19.96 24.5 19.95 24.59 19.94 24.68 19.93 24.77 19.92 24.87 19.92 24.95 19.91 25.03 19.91 25.1 19.9 25.16 19.9 25.22 19.9 25.29 19.9 25.35 19.9 25.42 19.91 25.48 19.91 25.55 19.91 25.61 19.91 25.67 19.91 25.72 19.91 25.77 19.91 25.81 19.92 25.85 19.92 25.88 19.92 25.9 19.92 25.92 19.92 25.92 19.92 25.93 19.88 25.96 19.79 25.98 19.69 25.98 19.59 25.97 19.52 25.96 19.46 25.94 19.4 25.91 19.34 25.88 19.29 25.84 19.24 25.8 19.2 25.76 19.15 25.71 19.11 25.66 19.08 25.61 19.05 25.55 19.03 25.49 19.01 25.42 18.99 25.36 18.98 25.3 18.97 25.14 18.97 24.98 18.97 24.81 18.98 24.64 18.99 24.46 19 24.29 19.02 24.11 19.03 23.95 19.05 23.78 19.08 23.63 19.1 23.49 19.13 23.36 19.16 23.24 19.19 23.14 19.22 23.06 19.25 23 19.28 23.39 18 23.51 17.95 23.63 17.9 23.75 17.86 23.88 17.82 24.01 17.8 24.14 17.77 24.29 17.75 24.44 17.74 24.59 17.73 24.74 17.72 24.9 17.72 25.07 17.72 25.24 17.72 25.41 17.72 25.59 17.72 25.78 17.73 25.94 17.74 26.1 17.77 26.27 17.81 26.44 17.86 26.61 17.92 26.78 18 26.94 18.09 27.09 18.2 27.23 18.32 27.35 18.45 27.46 18.6 27.54 18.76 27.6 18.94 27.64 19.13 27.64 19.33 27.61 19.55 27.05 22.39"/><polyline class="cls-5" points="27.05 22.39 26.83 23.59 25.47 23.59 25.47 23.59 25.48 23.48 25.5 23.37 25.52 23.27 25.53 23.17 25.55 23.09 25.56 23.02 25.57 22.98 25.59 22.95 25.59 22.95 25.52 23.04 25.42 23.12 25.32 23.2 25.21 23.27 25.08 23.34 24.95 23.41 24.8 23.47 24.65 23.53 24.5 23.58 24.34 23.62 24.18 23.65 24.02 23.67 23.87 23.68 23.71 23.69 23.56 23.68 23.41 23.65 23.41 23.65 23.22 23.61 23.05 23.55 22.89 23.48 22.76 23.4 22.64 23.31 22.54 23.21 22.45 23.11 22.37 23 22.31 22.88 22.25 22.77 22.21 22.65 22.18 22.52 22.16 22.4 22.14 22.28 22.13 22.16 22.13 22.04 22.13 22.04 22.14 21.83 22.18 21.63 22.23 21.43 22.3 21.25 22.39 21.08 22.48 20.93 22.6 20.78 22.73 20.64 22.87 20.51 23.01 20.4 23.17 20.3 23.34 20.21 23.51 20.14 23.69 20.08 23.87 20.04 24.05 20 24.05 20 24.06 20 24.09 20 24.13 19.99 24.19 19.98 24.25 19.98 24.33 19.97 24.41 19.96 24.5 19.95 24.59 19.94 24.68 19.93 24.77 19.92 24.87 19.92 24.95 19.91 25.03 19.91 25.1 19.9 25.16 19.9 25.16 19.9 25.22 19.9 25.29 19.9 25.35 19.9 25.42 19.91 25.48 19.91 25.55 19.91 25.61 19.91 25.67 19.91 25.72 19.91 25.77 19.91 25.81 19.92 25.85 19.92 25.88 19.92 25.9 19.92 25.92 19.92 25.92 19.92 25.92 19.92 25.93 19.88 25.96 19.79 25.98 19.69 25.98 19.59 25.98 19.59 25.97 19.52 25.96 19.46 25.94 19.4 25.91 19.34 25.88 19.29 25.84 19.24 25.8 19.2 25.76 19.15 25.71 19.11 25.66 19.08 25.61 19.05 25.55 19.03 25.49 19.01 25.42 18.99 25.36 18.98 25.3 18.97 25.3 18.97 25.14 18.97 24.98 18.97 24.81 18.98 24.64 18.99 24.46 19 24.29 19.02 24.11 19.03 23.95 19.05 23.78 19.08 23.63 19.1 23.49 19.13 23.36 19.16 23.24 19.19 23.14 19.22 23.06 19.25 23 19.28 23.39 18 23.39 18 23.51 17.95 23.63 17.9 23.75 17.86 23.88 17.82 24.01 17.8 24.14 17.77 24.29 17.75 24.44 17.74 24.59 17.73 24.74 17.72 24.9 17.72 25.07 17.72 25.24 17.72 25.41 17.72 25.59 17.72 25.78 17.73 25.78 17.73 25.94 17.74 26.1 17.77 26.27 17.81 26.44 17.86 26.61 17.92 26.78 18 26.94 18.09 27.09 18.2 27.23 18.32 27.35 18.45 27.46 18.6 27.54 18.76 27.6 18.94 27.64 19.13 27.64 19.33 27.61 19.55 27.05 22.39"/><polygon class="cls-3" points="25.75 20.97 25.74 20.94 25.72 20.92 25.68 20.9 25.63 20.89 25.57 20.88 25.5 20.88 25.42 20.88 25.34 20.88 25.25 20.88 25.16 20.89 25.07 20.91 24.99 20.92 24.9 20.94 24.82 20.95 24.76 20.97 24.7 20.99 24.66 21 24.62 21.01 24.56 21.03 24.5 21.06 24.44 21.08 24.36 21.12 24.29 21.16 24.22 21.2 24.15 21.25 24.08 21.31 24.02 21.37 23.96 21.44 23.91 21.51 23.87 21.59 23.84 21.68 23.82 21.77 23.81 21.95 23.84 22.09 23.88 22.21 23.95 22.29 24.04 22.35 24.12 22.39 24.22 22.41 24.31 22.41 24.47 22.41 24.62 22.39 24.76 22.36 24.89 22.33 25 22.29 25.1 22.25 25.19 22.19 25.27 22.14 25.34 22.08 25.4 22.02 25.45 21.95 25.5 21.89 25.54 21.83 25.57 21.77 25.59 21.71 25.61 21.65 25.63 21.57 25.65 21.48 25.67 21.39 25.68 21.3 25.7 21.2 25.71 21.12 25.73 21.04 25.75 20.97"/><polygon class="cls-4" points="15.65 23.59 14.18 23.59 15.42 16.49 17.99 16.49 18.24 20.72 19.99 16.49 22.65 16.49 21.41 23.59 19.93 23.59 20.86 18.27 20.81 18.27 18.61 23.59 16.96 23.59 16.94 23.37 16.91 22.78 16.86 21.94 16.8 20.98 16.75 20.01 16.7 19.15 16.66 18.53 16.65 18.27 16.64 18.27 16.63 18.27 16.61 18.27 16.59 18.27 16.58 18.27 16.57 18.27 16.57 18.27 16.59 18.27 15.65 23.59"/><polyline class="cls-5" points="15.65 23.59 14.18 23.59 15.42 16.49 17.99 16.49 18.24 20.72 19.99 16.49 22.65 16.49 21.41 23.59 19.93 23.59 20.86 18.27 20.81 18.27 18.61 23.59 16.96 23.59 16.96 23.59 16.94 23.37 16.91 22.78 16.86 21.94 16.8 20.98 16.75 20.01 16.7 19.15 16.66 18.53 16.65 18.27 16.65 18.27 16.64 18.27 16.63 18.27 16.61 18.27 16.59 18.27 16.58 18.27 16.57 18.27 16.57 18.27 16.59 18.27 15.65 23.59"/><polygon class="cls-4" points="40.32 23.59 41.85 23.59 41.85 23.59 42.38 20.52 42.4 20.4 42.43 20.29 42.46 20.17 42.49 20.06 42.54 19.95 42.59 19.85 42.65 19.75 42.72 19.66 42.81 19.57 42.91 19.5 43.03 19.43 43.16 19.37 43.31 19.32 43.48 19.28 43.66 19.26 43.88 19.25 43.9 19.25 43.92 19.25 43.95 19.25 43.98 19.25 44 19.26 44.03 19.26 44.04 19.26 44.05 19.26 44.05 19.24 44.07 19.18 44.09 19.08 44.12 18.95 44.16 18.82 44.2 18.66 44.25 18.51 44.3 18.37 44.34 18.26 44.39 18.16 44.44 18.06 44.49 17.97 44.54 17.89 44.58 17.82 44.6 17.78 44.61 17.77 44.6 17.77 44.59 17.76 44.56 17.75 44.52 17.75 44.48 17.74 44.44 17.73 44.4 17.73 44.36 17.73 44.19 17.74 44.04 17.76 43.9 17.79 43.77 17.82 43.65 17.87 43.54 17.92 43.44 17.98 43.34 18.04 43.25 18.11 43.16 18.19 43.08 18.27 43 18.36 42.92 18.46 42.85 18.56 42.77 18.67 42.69 18.78 42.87 17.81 41.33 17.79 40.32 23.59 40.32 23.59"/><polyline class="cls-5" points="40.32 23.59 41.85 23.59 41.85 23.59 42.38 20.52 42.38 20.52 42.4 20.4 42.43 20.29 42.46 20.17 42.49 20.06 42.54 19.95 42.59 19.85 42.65 19.75 42.72 19.66 42.81 19.57 42.91 19.5 43.03 19.43 43.16 19.37 43.31 19.32 43.48 19.28 43.66 19.26 43.88 19.25 43.88 19.25 43.9 19.25 43.92 19.25 43.95 19.25 43.98 19.25 44 19.26 44.03 19.26 44.04 19.26 44.05 19.26 44.05 19.26 44.05 19.24 44.07 19.18 44.09 19.08 44.12 18.95 44.16 18.82 44.2 18.66 44.25 18.51 44.3 18.37 44.3 18.37 44.34 18.26 44.39 18.16 44.44 18.06 44.49 17.97 44.54 17.89 44.58 17.82 44.6 17.78 44.61 17.77 44.61 17.77 44.6 17.77 44.59 17.76 44.56 17.75 44.52 17.75 44.48 17.74 44.44 17.73 44.4 17.73 44.36 17.73 44.36 17.73 44.19 17.74 44.04 17.76 43.9 17.79 43.77 17.82 43.65 17.87 43.54 17.92 43.44 17.98 43.34 18.04 43.25 18.11 43.16 18.19 43.08 18.27 43 18.36 42.92 18.46 42.85 18.56 42.77 18.67 42.69 18.78 42.87 17.81 41.33 17.79 40.32 23.59 40.32 23.59"/><polygon class="cls-4" points="46.96 17.73 47.13 17.73 47.3 17.74 47.46 17.76 47.62 17.78 47.77 17.81 47.92 17.85 48.06 17.89 48.2 17.94 48.33 18 48.45 18.06 48.58 18.12 48.69 18.19 48.81 18.27 48.91 18.35 49.01 18.44 49.1 18.54 49.19 18.63 49.28 18.74 49.35 18.84 49.42 18.96 49.49 19.07 49.55 19.2 49.61 19.32 49.65 19.46 49.69 19.59 49.73 19.73 49.76 19.87 49.78 20.02 49.8 20.17 49.8 20.32 49.81 20.48 49.8 20.64 49.79 20.83 49.77 21.02 49.74 21.19 49.71 21.37 49.67 21.53 49.62 21.69 49.57 21.85 49.51 21.99 49.44 22.13 49.38 22.27 49.3 22.4 49.22 22.52 49.13 22.64 49.04 22.74 48.94 22.85 48.84 22.95 48.73 23.04 48.62 23.12 48.51 23.2 48.39 23.27 48.26 23.34 48.13 23.4 48.01 23.46 47.87 23.51 47.73 23.55 47.59 23.59 47.45 23.62 47.3 23.65 47.15 23.67 47 23.68 46.85 23.69 46.69 23.69 46.54 23.69 46.38 23.68 46.24 23.67 46.09 23.64 45.95 23.62 45.8 23.59 45.66 23.55 45.53 23.5 45.4 23.45 45.28 23.4 45.16 23.34 45.04 23.27 44.93 23.2 44.82 23.12 44.72 23.04 44.62 22.95 44.52 22.85 44.44 22.75 44.36 22.64 44.28 22.53 44.21 22.41 44.14 22.29 44.08 22.16 44.03 22.03 43.99 21.89 43.94 21.74 43.91 21.59 43.88 21.43 43.86 21.27 43.85 21.11 43.85 20.93 43.85 20.76 43.86 20.57 43.88 20.4 43.91 20.23 43.94 20.07 43.98 19.91 44.03 19.75 44.08 19.61 44.13 19.46 44.19 19.32 44.26 19.19 44.34 19.07 44.42 18.94 44.5 18.83 44.59 18.72 44.68 18.61 44.78 18.51 44.89 18.42 45 18.33 45.11 18.25 45.23 18.17 45.35 18.11 45.48 18.04 45.61 17.98 45.74 17.93 45.88 17.88 46.03 17.84 46.18 17.81 46.33 17.78 46.48 17.76 46.64 17.74 46.8 17.73 46.96 17.73"/><polyline class="cls-5" points="46.96 17.73 46.96 17.73 47.13 17.73 47.3 17.74 47.46 17.76 47.62 17.78 47.77 17.81 47.92 17.85 48.06 17.89 48.2 17.94 48.33 18 48.45 18.06 48.58 18.12 48.69 18.19 48.81 18.27 48.91 18.35 49.01 18.44 49.1 18.54 49.19 18.63 49.28 18.74 49.35 18.84 49.42 18.96 49.49 19.07 49.55 19.2 49.61 19.32 49.65 19.46 49.69 19.59 49.73 19.73 49.76 19.87 49.78 20.02 49.8 20.17 49.8 20.32 49.81 20.48 49.8 20.64 49.8 20.64 49.79 20.83 49.77 21.02 49.74 21.19 49.71 21.37 49.67 21.53 49.62 21.69 49.57 21.85 49.51 21.99 49.44 22.13 49.38 22.27 49.3 22.4 49.22 22.52 49.13 22.64 49.04 22.74 48.94 22.85 48.84 22.95 48.73 23.04 48.62 23.12 48.51 23.2 48.39 23.27 48.26 23.34 48.13 23.4 48.01 23.46 47.87 23.51 47.73 23.55 47.59 23.59 47.45 23.62 47.3 23.65 47.15 23.67 47 23.68 46.85 23.69 46.69 23.69 46.69 23.69 46.54 23.69 46.38 23.68 46.24 23.67 46.09 23.64 45.95 23.62 45.8 23.59 45.66 23.55 45.53 23.5 45.4 23.45 45.28 23.4 45.16 23.34 45.04 23.27 44.93 23.2 44.82 23.12 44.72 23.04 44.62 22.95 44.52 22.85 44.44 22.75 44.36 22.64 44.28 22.53 44.21 22.41 44.14 22.29 44.08 22.16 44.03 22.03 43.99 21.89 43.94 21.74 43.91 21.59 43.88 21.43 43.86 21.27 43.85 21.11 43.85 20.93 43.85 20.76 43.85 20.76 43.86 20.57 43.88 20.4 43.91 20.23 43.94 20.07 43.98 19.91 44.03 19.75 44.08 19.61 44.13 19.46 44.19 19.32 44.26 19.19 44.34 19.07 44.42 18.94 44.5 18.83 44.59 18.72 44.68 18.61 44.78 18.51 44.89 18.42 45 18.33 45.11 18.25 45.23 18.17 45.35 18.11 45.48 18.04 45.61 17.98 45.74 17.93 45.88 17.88 46.03 17.84 46.18 17.81 46.33 17.78 46.48 17.76 46.64 17.74 46.8 17.73 46.96 17.73"/><polygon class="cls-4" points="49.22 23.3 49.67 23.3 49.67 23.36 49.49 23.36 49.49 23.73 49.4 23.73 49.4 23.36 49.22 23.36 49.22 23.3"/><polyline class="cls-5" points="49.22 23.3 49.67 23.3 49.67 23.36 49.49 23.36 49.49 23.73 49.4 23.73 49.4 23.36 49.22 23.36 49.22 23.3"/><polygon class="cls-4" points="49.72 23.3 49.86 23.3 50.02 23.63 50.02 23.63 50.17 23.3 50.31 23.3 50.31 23.73 50.21 23.73 50.21 23.4 50.21 23.4 50.05 23.73 49.98 23.73 49.82 23.4 49.82 23.4 49.82 23.73 49.72 23.73 49.72 23.3"/><polyline class="cls-5" points="49.72 23.3 49.86 23.3 50.02 23.63 50.02 23.63 50.17 23.3 50.31 23.3 50.31 23.73 50.21 23.73 50.21 23.4 50.21 23.4 50.05 23.73 49.98 23.73 49.82 23.4 49.82 23.4 49.82 23.73 49.72 23.73 49.72 23.3"/><polygon class="cls-2" points="45.76 20.5 45.74 20.71 45.73 20.91 45.73 21.09 45.74 21.25 45.76 21.41 45.79 21.54 45.84 21.66 45.89 21.77 45.95 21.86 46.02 21.94 46.1 22.01 46.19 22.06 46.28 22.1 46.39 22.13 46.5 22.15 46.62 22.16 46.75 22.15 46.87 22.14 46.99 22.11 47.1 22.07 47.21 22.02 47.31 21.95 47.4 21.87 47.49 21.77 47.57 21.67 47.65 21.55 47.72 21.41 47.78 21.27 47.84 21.1 47.88 20.93 47.92 20.73 47.96 20.52 47.98 20.36 47.99 20.21 47.99 20.06 47.98 19.91 47.96 19.78 47.93 19.65 47.88 19.54 47.84 19.43 47.78 19.33 47.71 19.25 47.63 19.17 47.54 19.11 47.44 19.06 47.34 19.03 47.23 19.01 47.1 19.01 46.95 19.02 46.8 19.05 46.67 19.09 46.55 19.15 46.43 19.23 46.33 19.31 46.23 19.4 46.15 19.51 46.07 19.62 46 19.74 45.94 19.86 45.89 19.99 45.85 20.12 45.81 20.25 45.78 20.38 45.76 20.5"/></g></g></svg>