<svg xmlns="http://www.w3.org/2000/svg" xmlns:xlink="http://www.w3.org/1999/xlink" viewBox="0 0 39.78 39.78"><defs><style>.cls-1{isolation:isolate;}.cls-2{fill:#f5cd00;}.cls-10,.cls-11,.cls-3,.cls-5,.cls-6,.cls-7,.cls-8,.cls-9{opacity:0.5;mix-blend-mode:multiply;}.cls-3{fill:url(#linear-gradient);}.cls-4{fill:#fff;}.cls-5{fill:url(#linear-gradient-2);}.cls-6{fill:url(#linear-gradient-3);}.cls-7{fill:url(#linear-gradient-4);}.cls-8{fill:url(#linear-gradient-5);}.cls-9{fill:url(#linear-gradient-6);}.cls-10{fill:url(#linear-gradient-7);}.cls-11{fill:url(#linear-gradient-8);}</style><linearGradient id="linear-gradient" x1="34.04" y1="19.98" x2="37.34" y2="22.53" gradientUnits="userSpaceOnUse"><stop offset="0"/><stop offset="0.14" stop-color="#2e2e2e"/><stop offset="0.38" stop-color="#777"/><stop offset="0.59" stop-color="#b1b1b1"/><stop offset="0.77" stop-color="#dcdcdc"/><stop offset="0.92" stop-color="#f5f5f5"/><stop offset="1" stop-color="#fff"/></linearGradient><linearGradient id="linear-gradient-2" x1="23.3" y1="33.98" x2="25.49" y2="35.21" gradientUnits="userSpaceOnUse"><stop offset="0"/><stop offset="0.05" stop-color="#171717"/><stop offset="0.2" stop-color="#545454"/><stop offset="0.35" stop-color="#888"/><stop offset="0.5" stop-color="#b3b3b3"/><stop offset="0.64" stop-color="#d4d4d4"/><stop offset="0.77" stop-color="#ececec"/><stop offset="0.9" stop-color="#fafafa"/><stop offset="1" stop-color="#fff"/></linearGradient><linearGradient id="linear-gradient-3" x1="4.36" y1="23.66" x2="7.13" y2="24.87" gradientUnits="userSpaceOnUse"><stop offset="0"/><stop offset="0.02" stop-color="#060606"/><stop offset="0.3" stop-color="#5d5d5d"/><stop offset="0.55" stop-color="#a2a2a2"/><stop offset="0.76" stop-color="#d5d5d5"/><stop offset="0.91" stop-color="#f3f3f3"/><stop offset="1" stop-color="#fff"/></linearGradient><linearGradient id="linear-gradient-4" x1="9.03" y1="9.18" x2="11.18" y2="10.12" xlink:href="#linear-gradient-3"/><linearGradient id="linear-gradient-5" x1="5.37" y1="16.04" x2="6.12" y2="16.36" xlink:href="#linear-gradient-3"/><linearGradient id="linear-gradient-6" x1="34.69" y1="11.84" x2="35.44" y2="12.16" xlink:href="#linear-gradient-3"/><linearGradient id="linear-gradient-7" x1="30.68" y1="27.29" x2="31.43" y2="27.62" xlink:href="#linear-gradient-3"/><linearGradient id="linear-gradient-8" x1="22.57" y1="4.15" x2="23.32" y2="4.47" xlink:href="#linear-gradient-3"/></defs><title>acido</title><g class="cls-1"><g id="Layer_2" data-name="Layer 2"><g id="Capa_1" data-name="Capa 1"><circle class="cls-2" cx="19.89" cy="19.89" r="19.89"/><polygon class="cls-3" points="35.05 21.88 37.44 23.57 38.31 22.17 35.39 20.06 35.05 20.36 34.65 20.97 35.05 21.88"/><path class="cls-4" d="M35.39,21.88l.74-.74V20.8l-.74-.74H35l-.74.74v.34l.74.74Zm-.17-1.3.39.39-.39.39L34.82,21Z"/><polygon class="cls-5" points="24.01 35.7 25.85 36.74 27.04 34.75 24.01 33.25 24.01 33.98 23.28 34.47 24.01 34.99 24.01 35.7"/><path class="cls-4" d="M23,34.72a.72.72,0,0,1,.74.74.25.25,0,0,0,.49,0,.72.72,0,0,1,.74-.74.25.25,0,0,0,0-.49.72.72,0,0,1-.74-.74.25.25,0,1,0-.49,0,.72.72,0,0,1-.74.74.25.25,0,0,0,0,.49Zm1-.49a1.16,1.16,0,0,0,.25.25,1.16,1.16,0,0,0-.25.25,1.17,1.17,0,0,0-.25-.25A1.17,1.17,0,0,0,24,34.23Z"/><polygon class="cls-6" points="5.33 24.9 7.6 26.23 8.38 24.81 5.68 23.08 4.83 23.99 5.33 24.9"/><path class="cls-4" d="M5.68,24.9l.74-.74v-.34l-.74-.74H5.33l-.74.74v.34l.74.74Zm-.17-1.3L5.9,24l-.39.39L5.11,24Z"/><polygon class="cls-7" points="9.61 10.02 11.61 11.21 12.21 9.96 9.76 8.6 9.61 10.02"/><path class="cls-4" d="M9.27,9.58h.25v.25a.25.25,0,1,0,.49,0V9.58h.25a.25.25,0,1,0,0-.49H10V8.84a.25.25,0,0,0-.49,0v.25H9.27a.25.25,0,0,0,0,.49Z"/><polygon class="cls-8" points="5.44 16.26 6.24 16.75 6.49 16.3 5.69 15.84 5.44 16.26"/><path class="cls-4" d="M5.57,16.3a.25.25,0,1,0-.25-.25A.23.23,0,0,0,5.57,16.3Z"/><polygon class="cls-9" points="34.76 12.06 35.56 12.55 35.81 12.1 35.01 11.64 34.76 12.06"/><path class="cls-4" d="M34.87,12.1a.25.25,0,1,0-.25-.25A.23.23,0,0,0,34.87,12.1Z"/><polygon class="cls-10" points="30.75 27.52 31.55 28.01 31.8 27.55 31 27.09 30.75 27.52"/><path class="cls-4" d="M30.88,27.55a.25.25,0,1,0-.25-.25A.23.23,0,0,0,30.88,27.55Z"/><polygon class="cls-11" points="22.64 4.37 23.44 4.86 23.69 4.41 22.89 3.95 22.64 4.37"/><path class="cls-4" d="M22.77,4.41a.25.25,0,1,0-.25-.25A.23.23,0,0,0,22.77,4.41Z"/><path class="cls-4" d="M21.3,12.35H21v2.31a7.28,7.28,0,0,0-8.81,1.15l-.23.23.94.94h0L21,25.09v1.86h.33a7.3,7.3,0,0,0,0-14.59Zm-3.65,7.82V15.68A5.28,5.28,0,0,1,20.82,17ZM21,17.79v2.85H18.12Zm-4,2.38L13.8,17A5.28,5.28,0,0,1,17,15.68Zm1.13,1.13H21v2.85Zm3.51-.85,3.18,3.18a5.29,5.29,0,0,1-3.18,1.32v-4.5Zm3.64,2.7L22.1,20h4.49A5.28,5.28,0,0,1,25.27,23.15ZM22.1,19.31l3.17-3.17a5.28,5.28,0,0,1,1.32,3.17Zm-.47-.47v-4.5a5.29,5.29,0,0,1,3.18,1.32ZM21,15.43v.82a6,6,0,0,0-7.62.27L12.86,16A6.62,6.62,0,0,1,21,15.43Zm.66,10.84V25.6a6,6,0,0,0,0-11.91V13a6.63,6.63,0,0,1,0,13.25Z"/><path class="cls-4" d="M13.05,19.31a.62.62,0,0,0-.55.33,8.22,8.22,0,0,0-1.11,2.78,1.66,1.66,0,0,0,3.32,0,8.22,8.22,0,0,0-1.11-2.78A.62.62,0,0,0,13.05,19.31Zm0,4.11a1,1,0,0,1-1-1,8.11,8.11,0,0,1,1-2.4,8.1,8.1,0,0,1,1,2.4A1,1,0,0,1,13.05,23.42Z"/><path class="cls-4" d="M17.7,24.83a.62.62,0,0,0-.55.33A8.23,8.23,0,0,0,16,27.94a1.66,1.66,0,0,0,3.32,0,8.23,8.23,0,0,0-1.11-2.78A.62.62,0,0,0,17.7,24.83Zm0,4.11a1,1,0,0,1-1-1,8.11,8.11,0,0,1,1-2.4,8.11,8.11,0,0,1,1,2.4A1,1,0,0,1,17.7,28.93Z"/></g></g></g></svg>