<svg xmlns="http://www.w3.org/2000/svg" xmlns:xlink="http://www.w3.org/1999/xlink" viewBox="0 0 18.72 18.72"><defs><style>.cls-1{isolation:isolate;}.cls-2{fill:#f5cd00;}.cls-3{opacity:0.3;fill:url(#linear-gradient);}.cls-10,.cls-11,.cls-12,.cls-3,.cls-4,.cls-6,.cls-7,.cls-8,.cls-9{mix-blend-mode:multiply;}.cls-10,.cls-11,.cls-12,.cls-4,.cls-6,.cls-7,.cls-8,.cls-9{opacity:0.5;}.cls-4{fill:url(#linear-gradient-2);}.cls-5{fill:#fff;}.cls-6{fill:url(#linear-gradient-3);}.cls-7{fill:url(#linear-gradient-4);}.cls-8{fill:url(#linear-gradient-5);}.cls-9{fill:url(#linear-gradient-6);}.cls-10{fill:url(#linear-gradient-7);}.cls-11{fill:url(#linear-gradient-8);}.cls-12{fill:url(#linear-gradient-9);}</style><linearGradient id="linear-gradient" x1="6.19" y1="4.8" x2="15.33" y2="12.39" gradientUnits="userSpaceOnUse"><stop offset="0"/><stop offset="0.02" stop-color="#060606"/><stop offset="0.3" stop-color="#5d5d5d"/><stop offset="0.55" stop-color="#a2a2a2"/><stop offset="0.76" stop-color="#d5d5d5"/><stop offset="0.91" stop-color="#f3f3f3"/><stop offset="1" stop-color="#fff"/></linearGradient><linearGradient id="linear-gradient-2" x1="16.02" y1="9.4" x2="17.57" y2="10.6" gradientUnits="userSpaceOnUse"><stop offset="0"/><stop offset="0.14" stop-color="#2e2e2e"/><stop offset="0.38" stop-color="#777"/><stop offset="0.59" stop-color="#b1b1b1"/><stop offset="0.77" stop-color="#dcdcdc"/><stop offset="0.92" stop-color="#f5f5f5"/><stop offset="1" stop-color="#fff"/></linearGradient><linearGradient id="linear-gradient-3" x1="10.97" y1="15.99" x2="12" y2="16.57" gradientUnits="userSpaceOnUse"><stop offset="0"/><stop offset="0.05" stop-color="#171717"/><stop offset="0.2" stop-color="#545454"/><stop offset="0.35" stop-color="#888"/><stop offset="0.5" stop-color="#b3b3b3"/><stop offset="0.64" stop-color="#d4d4d4"/><stop offset="0.77" stop-color="#ececec"/><stop offset="0.9" stop-color="#fafafa"/><stop offset="1" stop-color="#fff"/></linearGradient><linearGradient id="linear-gradient-4" x1="2.05" y1="11.14" x2="3.35" y2="11.7" xlink:href="#linear-gradient"/><linearGradient id="linear-gradient-5" x1="4.25" y1="4.32" x2="5.26" y2="4.76" xlink:href="#linear-gradient"/><linearGradient id="linear-gradient-6" x1="2.53" y1="7.55" x2="2.88" y2="7.7" xlink:href="#linear-gradient"/><linearGradient id="linear-gradient-7" x1="16.33" y1="5.57" x2="16.68" y2="5.73" xlink:href="#linear-gradient"/><linearGradient id="linear-gradient-8" x1="14.44" y1="12.84" x2="14.8" y2="13" xlink:href="#linear-gradient"/><linearGradient id="linear-gradient-9" x1="10.62" y1="1.95" x2="10.98" y2="2.11" xlink:href="#linear-gradient"/></defs><title>acido</title><g class="cls-1"><g id="Layer_2" data-name="Layer 2"><g id="Capa_1" data-name="Capa 1"><circle class="cls-2" cx="9.36" cy="9.36" r="9.36"/><path class="cls-3" d="M10,12.68l5.71,3.54A10.38,10.38,0,0,0,18,13a20.63,20.63,0,0,0,.66-2.52L11.15,6,9.87,5.91V7a3.2,3.2,0,0,0-2-.43,4.32,4.32,0,0,0-2.06.94l4.12,4.13Z"/><polygon class="cls-4" points="16.49 10.3 17.62 11.09 18.03 10.43 16.66 9.44 16.49 9.58 16.31 9.87 16.49 10.3"/><path class="cls-5" d="M16.66,10.3,17,10V9.79l-.35-.35h-.16l-.35.35V10l.35.35Zm-.08-.61.18.18-.18.18-.18-.18Z"/><polygon class="cls-6" points="11.3 16.8 12.17 17.29 12.72 16.36 11.3 15.65 11.3 15.99 10.96 16.23 11.3 16.47 11.3 16.8"/><path class="cls-5" d="M10.84,16.34a.34.34,0,0,1,.35.35.12.12,0,0,0,.23,0,.34.34,0,0,1,.35-.35.12.12,0,0,0,0-.23.34.34,0,0,1-.35-.35.12.12,0,1,0-.23,0,.34.34,0,0,1-.35.35.12.12,0,1,0,0,.23Zm.46-.23a.55.55,0,0,0,.12.12.54.54,0,0,0-.12.12.55.55,0,0,0-.12-.12A.55.55,0,0,0,11.3,16.11Z"/><polygon class="cls-7" points="2.51 11.72 3.58 12.34 3.94 11.68 2.67 10.87 2.27 11.29 2.51 11.72"/><path class="cls-5" d="M2.67,11.72,3,11.37v-.16l-.35-.35H2.51l-.35.35v.16l.35.35Zm-.08-.61.18.19-.18.18-.18-.18Z"/><polygon class="cls-8" points="4.52 4.72 5.47 5.28 5.74 4.69 4.59 4.05 4.52 4.72"/><path class="cls-5" d="M4.36,4.51h.12v.12a.12.12,0,0,0,.23,0V4.51h.12a.12.12,0,1,0,0-.23H4.71V4.16a.12.12,0,0,0-.23,0v.12H4.36a.12.12,0,0,0,0,.23Z"/><polygon class="cls-9" points="2.56 7.65 2.94 7.88 3.05 7.67 2.68 7.45 2.56 7.65"/><path class="cls-5" d="M2.62,7.67a.12.12,0,1,0-.12-.12A.11.11,0,0,0,2.62,7.67Z"/><polygon class="cls-10" points="16.36 5.68 16.74 5.91 16.85 5.69 16.48 5.48 16.36 5.68"/><path class="cls-5" d="M16.41,5.69a.12.12,0,1,0-.12-.12A.11.11,0,0,0,16.41,5.69Z"/><polygon class="cls-11" points="14.47 12.95 14.85 13.18 14.97 12.97 14.59 12.75 14.47 12.95"/><path class="cls-5" d="M14.53,13a.12.12,0,1,0-.12-.12A.11.11,0,0,0,14.53,13Z"/><polygon class="cls-12" points="10.65 2.06 11.03 2.29 11.15 2.07 10.77 1.86 10.65 2.06"/><path class="cls-5" d="M10.72,2.07A.12.12,0,1,0,10.6,2,.11.11,0,0,0,10.72,2.07Z"/><path class="cls-5" d="M10,5.81H9.87V6.9a3.43,3.43,0,0,0-4.15.54l-.11.11L6.05,8h0l3.81,3.81v.87H10a3.43,3.43,0,1,0,0-6.87ZM8.31,9.49V7.38A2.48,2.48,0,0,1,9.8,8ZM9.87,8.37V9.71H8.53ZM8,9.49,6.5,8A2.49,2.49,0,0,1,8,7.38Zm.53.53H9.87v1.34Zm1.65-.4,1.5,1.5a2.49,2.49,0,0,1-1.5.62V9.62Zm1.71,1.27L10.4,9.4h2.11A2.48,2.48,0,0,1,11.89,10.9ZM10.4,9.09,11.89,7.6a2.48,2.48,0,0,1,.62,1.49Zm-.22-.22V6.75a2.49,2.49,0,0,1,1.5.62Zm-.31-1.6v.38a2.81,2.81,0,0,0-3.59.13l-.22-.22A3.12,3.12,0,0,1,9.87,7.26Zm.31,5.1V12a2.81,2.81,0,0,0,0-5.6V6.13a3.12,3.12,0,0,1,0,6.24Z"/><path class="cls-5" d="M6.14,9.09a.29.29,0,0,0-.26.16,3.87,3.87,0,0,0-.52,1.31.78.78,0,0,0,1.56,0A3.87,3.87,0,0,0,6.4,9.25.29.29,0,0,0,6.14,9.09Zm0,1.93a.47.47,0,0,1-.47-.47,3.81,3.81,0,0,1,.47-1.13,3.81,3.81,0,0,1,.47,1.13A.47.47,0,0,1,6.14,11Z"/><path class="cls-5" d="M8.33,11.69a.29.29,0,0,0-.26.16,3.87,3.87,0,0,0-.52,1.31.78.78,0,0,0,1.56,0,3.87,3.87,0,0,0-.52-1.31A.29.29,0,0,0,8.33,11.69Zm0,1.93a.47.47,0,0,1-.47-.47A3.82,3.82,0,0,1,8.33,12a3.82,3.82,0,0,1,.47,1.13A.47.47,0,0,1,8.33,13.62Z"/></g></g></g></svg>