<svg xmlns="http://www.w3.org/2000/svg" xmlns:xlink="http://www.w3.org/1999/xlink" viewBox="0 0 39.78 39.78"><defs><style>.cls-1{isolation:isolate;}.cls-2{fill:#cf4927;}.cls-10,.cls-3,.cls-5,.cls-6,.cls-7,.cls-8,.cls-9{opacity:0.5;mix-blend-mode:multiply;}.cls-3{fill:url(#linear-gradient);}.cls-4{fill:#fff;}.cls-5{fill:url(#linear-gradient-2);}.cls-6{fill:url(#linear-gradient-3);}.cls-7{fill:url(#linear-gradient-4);}.cls-8{fill:url(#linear-gradient-5);}.cls-9{fill:url(#linear-gradient-6);}.cls-10{fill:url(#linear-gradient-7);}.cls-11{fill:none;stroke:#fff;stroke-linecap:round;stroke-linejoin:round;stroke-width:1.5px;}</style><linearGradient id="linear-gradient" x1="34.04" y1="19.98" x2="37.34" y2="22.53" gradientUnits="userSpaceOnUse"><stop offset="0"/><stop offset="0.14" stop-color="#2e2e2e"/><stop offset="0.38" stop-color="#777"/><stop offset="0.59" stop-color="#b1b1b1"/><stop offset="0.77" stop-color="#dcdcdc"/><stop offset="0.92" stop-color="#f5f5f5"/><stop offset="1" stop-color="#fff"/></linearGradient><linearGradient id="linear-gradient-2" x1="15.03" y1="34.21" x2="16.73" y2="35.16" gradientUnits="userSpaceOnUse"><stop offset="0"/><stop offset="0.05" stop-color="#171717"/><stop offset="0.2" stop-color="#545454"/><stop offset="0.35" stop-color="#888"/><stop offset="0.5" stop-color="#b3b3b3"/><stop offset="0.64" stop-color="#d4d4d4"/><stop offset="0.77" stop-color="#ececec"/><stop offset="0.9" stop-color="#fafafa"/><stop offset="1" stop-color="#fff"/></linearGradient><linearGradient id="linear-gradient-3" x1="9.03" y1="9.18" x2="11.18" y2="10.12" gradientUnits="userSpaceOnUse"><stop offset="0"/><stop offset="0.02" stop-color="#060606"/><stop offset="0.3" stop-color="#5d5d5d"/><stop offset="0.55" stop-color="#a2a2a2"/><stop offset="0.76" stop-color="#d5d5d5"/><stop offset="0.91" stop-color="#f3f3f3"/><stop offset="1" stop-color="#fff"/></linearGradient><linearGradient id="linear-gradient-4" x1="5.37" y1="16.04" x2="6.12" y2="16.36" xlink:href="#linear-gradient-3"/><linearGradient id="linear-gradient-5" x1="34.69" y1="11.84" x2="35.44" y2="12.16" xlink:href="#linear-gradient-3"/><linearGradient id="linear-gradient-6" x1="30.68" y1="27.29" x2="31.43" y2="27.62" xlink:href="#linear-gradient-3"/><linearGradient id="linear-gradient-7" x1="22.57" y1="4.15" x2="23.32" y2="4.47" xlink:href="#linear-gradient-3"/></defs><title>encorpado</title><g class="cls-1"><g id="Layer_2" data-name="Layer 2"><g id="Capa_1" data-name="Capa 1"><circle class="cls-2" cx="19.89" cy="19.89" r="19.89"/><polygon class="cls-3" points="35.05 21.88 37.44 23.57 38.31 22.17 35.39 20.06 35.05 20.36 34.65 20.97 35.05 21.88"/><path class="cls-4" d="M35.39,21.88l.74-.74V20.8l-.74-.74H35l-.74.74v.34l.74.74Zm-.17-1.3.39.39-.39.39L34.82,21Z"/><polygon class="cls-5" points="15.57 35.55 17.01 36.35 17.93 34.8 15.57 33.63 15.57 34.21 15.01 34.59 15.57 34.99 15.57 35.55"/><path class="cls-4" d="M14.81,34.78a.56.56,0,0,1,.57.57.19.19,0,1,0,.38,0,.56.56,0,0,1,.57-.57.19.19,0,0,0,0-.38.56.56,0,0,1-.57-.57.19.19,0,1,0-.38,0,.56.56,0,0,1-.57.57.19.19,0,1,0,0,.38Zm.76-.38a.91.91,0,0,0,.19.19.89.89,0,0,0-.19.19.9.9,0,0,0-.19-.19A.92.92,0,0,0,15.57,34.4Z"/><polygon class="cls-6" points="9.61 10.02 11.61 11.21 12.21 9.96 9.76 8.6 9.61 10.02"/><path class="cls-4" d="M9.27,9.58h.25v.25a.25.25,0,1,0,.49,0V9.58h.25a.25.25,0,1,0,0-.49H10V8.84a.25.25,0,0,0-.49,0v.25H9.27a.25.25,0,1,0,0,.49Z"/><polygon class="cls-7" points="5.44 16.26 6.24 16.75 6.49 16.3 5.69 15.84 5.44 16.26"/><path class="cls-4" d="M5.57,16.3a.25.25,0,1,0-.25-.25A.23.23,0,0,0,5.57,16.3Z"/><polygon class="cls-8" points="34.76 12.06 35.56 12.55 35.81 12.1 35.01 11.64 34.76 12.06"/><path class="cls-4" d="M34.87,12.1a.25.25,0,1,0-.25-.25A.23.23,0,0,0,34.87,12.1Z"/><polygon class="cls-9" points="30.75 27.52 31.55 28.01 31.8 27.55 31 27.09 30.75 27.52"/><path class="cls-4" d="M30.88,27.55a.25.25,0,1,0-.25-.25A.23.23,0,0,0,30.88,27.55Z"/><polygon class="cls-10" points="22.64 4.37 23.44 4.86 23.69 4.41 22.89 3.95 22.64 4.37"/><path class="cls-4" d="M22.77,4.41a.25.25,0,1,0-.25-.25A.23.23,0,0,0,22.77,4.41Z"/><path class="cls-4" d="M28,24.09H23.72l.2-.17a.43.43,0,0,0,0-.6.44.44,0,0,0-.6,0,3,3,0,0,1-2.06.8H18.92a3,3,0,0,1-3-3V16.93h8.45v.43a.43.43,0,0,0,.22.37.44.44,0,0,0,.43,0,1.93,1.93,0,0,1,1.16-.27,1.91,1.91,0,0,1,1.77,1.92A1.92,1.92,0,0,1,25,21a.44.44,0,0,0-.41,0,.42.42,0,0,0-.23.34,3,3,0,0,1-.12.62.43.43,0,0,0,.28.53.43.43,0,0,0,.53-.28l.06-.21a2.78,2.78,0,1,0,.11-5.29v-.13a.5.5,0,0,0-.5-.5H15.52a.5.5,0,0,0-.5.5v4.47a3.92,3.92,0,0,0,1.47,3H12.67a.43.43,0,0,0-.43.43,2,2,0,0,0,2,2H26.44a2,2,0,0,0,2-2A.43.43,0,0,0,28,24.09Zm-1.58,1.58H14.25a1.16,1.16,0,0,1-1.07-.73H27.51a1.15,1.15,0,0,1-1.07.73Z"/><line class="cls-11" x1="16.87" y1="14.49" x2="16.87" y2="11.6"/><line class="cls-11" x1="18.22" y1="13.54" x2="18.22" y2="10.65"/></g></g></g></svg>