<svg xmlns="http://www.w3.org/2000/svg" viewBox="0 0 29.36 29.81"><defs><style>.cls-1{fill:#bd8f3b;}</style></defs><title>Espresso</title><g id="Layer_2" data-name="Layer 2"><g id="Capa_1" data-name="Capa 1"><path class="cls-1" d="M26.26,25.44H20.77a9.3,9.3,0,0,0,3.07-2.33,6.51,6.51,0,0,0,5.52-6.68c0-2-1.11-3.77-2.6-4.15a1.17,1.17,0,0,0-.35-.75,1.16,1.16,0,0,0-.82-.35H2.19A1.19,1.19,0,0,0,1,12.36c0,5.09.79,10.6,6,13.08H1.47A1.46,1.46,0,0,0,0,26.91a1.4,1.4,0,0,0,1.26,1.37l6.47.46a.24.24,0,0,1,.22.17,1.62,1.62,0,0,0,1.46.9h8.45a1.5,1.5,0,0,0,1.41-.92.24.24,0,0,1,.22-.15l6.91-.46h.08a1.39,1.39,0,0,0,1.24-1.37A1.46,1.46,0,0,0,26.26,25.44Zm-12.37,0c-10,0-11.48-6.2-11.55-12.93H25.44C25.37,19.23,23.9,25.44,13.89,25.44ZM25,21.38a17.3,17.3,0,0,0,1.73-7.67A3.1,3.1,0,0,1,28,16.43,5.24,5.24,0,0,1,25,21.38ZM18.19,28.3a.38.38,0,0,1-.28.19H9.41a.37.37,0,0,1-.28-.18,1.74,1.74,0,0,0-1.34-.89L1.45,27c-.12,0-.13,0-.13-.06a.18.18,0,0,1,.16-.16H26.31a.18.18,0,0,1,.16.16s0,0-.11,0l-6.82.46A1.72,1.72,0,0,0,18.19,28.3Z"/><path class="cls-1" d="M12.21,6.71a3.81,3.81,0,0,0,1.21,2.55.64.64,0,0,0,.92,0,.64.64,0,0,0,0-.92,2.5,2.5,0,0,1-.83-1.63,2.13,2.13,0,0,1,.82-1.52,3.39,3.39,0,0,0,1.22-2.45A3.49,3.49,0,0,0,14.35.19a.67.67,0,0,0-.92,0,.65.65,0,0,0-.2.46.64.64,0,0,0,.19.46,2.51,2.51,0,0,1,.83,1.63,2.14,2.14,0,0,1-.82,1.52A3.48,3.48,0,0,0,12.21,6.71Z"/><path class="cls-1" d="M17.81,6.71A3.82,3.82,0,0,0,19,9.26a.61.61,0,0,0,.46.2.51.51,0,0,0,.42-.21.64.64,0,0,0,0-.91,2.5,2.5,0,0,1-.83-1.63,2.13,2.13,0,0,1,.81-1.52,3.29,3.29,0,0,0,1.27-2.45A3.4,3.4,0,0,0,20,.19a.66.66,0,0,0-.92,0,.65.65,0,0,0-.2.46.64.64,0,0,0,.19.46,2.51,2.51,0,0,1,.83,1.63A2.21,2.21,0,0,1,19,4.26,3.48,3.48,0,0,0,17.81,6.71Z"/><path class="cls-1" d="M7.12,6.71A3.82,3.82,0,0,0,8.34,9.26a.61.61,0,0,0,.46.2.51.51,0,0,0,.42-.21.64.64,0,0,0,0-.91,2.5,2.5,0,0,1-.83-1.63,2.13,2.13,0,0,1,.81-1.52,3.29,3.29,0,0,0,1.27-2.45A3.4,3.4,0,0,0,9.26.19a.67.67,0,0,0-.92,0,.65.65,0,0,0-.2.46.64.64,0,0,0,.19.46,2.51,2.51,0,0,1,.83,1.63,2.21,2.21,0,0,1-.82,1.52A3.48,3.48,0,0,0,7.12,6.71Z"/><path class="cls-1" d="M11,22.9c-3.51-.59-5.33-2.57-6.09-6.6a.72.72,0,0,0-.79-.53.71.71,0,0,0-.53.79c.82,4.56,3,6.92,7.17,7.65h.1a.64.64,0,0,0,.66-.53A.68.68,0,0,0,11,22.9Z"/></g></g></svg>