<svg xmlns="http://www.w3.org/2000/svg" xmlns:xlink="http://www.w3.org/1999/xlink" viewBox="0 0 39.78 39.78"><defs><style>.cls-1{isolation:isolate;}.cls-2{fill:#8b560f;}.cls-3,.cls-5,.cls-6,.cls-7,.cls-8,.cls-9{opacity:0.5;mix-blend-mode:multiply;}.cls-3{fill:url(#linear-gradient);}.cls-4{fill:#fff;}.cls-5{fill:url(#linear-gradient-2);}.cls-6{fill:url(#linear-gradient-3);}.cls-7{fill:url(#linear-gradient-4);}.cls-8{fill:url(#linear-gradient-5);}.cls-9{fill:url(#linear-gradient-6);}</style><linearGradient id="linear-gradient" x1="7.24" y1="10.92" x2="9.42" y2="12.14" gradientUnits="userSpaceOnUse"><stop offset="0"/><stop offset="0.05" stop-color="#171717"/><stop offset="0.2" stop-color="#545454"/><stop offset="0.35" stop-color="#888"/><stop offset="0.5" stop-color="#b3b3b3"/><stop offset="0.64" stop-color="#d4d4d4"/><stop offset="0.77" stop-color="#ececec"/><stop offset="0.9" stop-color="#fafafa"/><stop offset="1" stop-color="#fff"/></linearGradient><linearGradient id="linear-gradient-2" x1="32.54" y1="16.05" x2="35.32" y2="17.26" gradientUnits="userSpaceOnUse"><stop offset="0"/><stop offset="0.02" stop-color="#060606"/><stop offset="0.3" stop-color="#5d5d5d"/><stop offset="0.55" stop-color="#a2a2a2"/><stop offset="0.76" stop-color="#d5d5d5"/><stop offset="0.91" stop-color="#f3f3f3"/><stop offset="1" stop-color="#fff"/></linearGradient><linearGradient id="linear-gradient-3" x1="9.09" y1="30.79" x2="11.25" y2="31.73" xlink:href="#linear-gradient-2"/><linearGradient id="linear-gradient-4" x1="22.77" y1="7.16" x2="23.52" y2="7.49" xlink:href="#linear-gradient-2"/><linearGradient id="linear-gradient-5" x1="4.72" y1="20.94" x2="5.47" y2="21.27" xlink:href="#linear-gradient-2"/><linearGradient id="linear-gradient-6" x1="29.86" y1="31.15" x2="30.62" y2="31.48" xlink:href="#linear-gradient-2"/></defs><title>nozes</title><g class="cls-1"><g id="Layer_2" data-name="Layer 2"><g id="Capa_1" data-name="Capa 1"><circle class="cls-2" cx="19.89" cy="19.89" r="19.89"/><polygon class="cls-3" points="7.94 12.63 9.78 13.67 10.97 11.68 7.94 10.18 7.94 10.91 7.21 11.41 7.94 11.93 7.94 12.63"/><path class="cls-4" d="M7,11.65a.72.72,0,0,1,.74.74.25.25,0,0,0,.49,0,.72.72,0,0,1,.74-.74.25.25,0,0,0,0-.49.72.72,0,0,1-.74-.74.25.25,0,1,0-.49,0,.72.72,0,0,1-.74.74.25.25,0,0,0,0,.49Zm1-.49a1.16,1.16,0,0,0,.25.25,1.15,1.15,0,0,0-.25.25,1.17,1.17,0,0,0-.25-.25A1.17,1.17,0,0,0,7.94,11.16Z"/><polygon class="cls-5" points="33.52 17.29 35.79 18.61 36.57 17.2 33.87 15.47 33.01 16.38 33.52 17.29"/><path class="cls-4" d="M33.87,17.29l.74-.74v-.34l-.74-.74h-.34l-.74.74v.34l.74.74ZM33.7,16l.39.39-.39.39-.39-.39Z"/><polygon class="cls-6" points="9.67 31.63 11.68 32.82 12.27 31.57 9.83 30.21 9.67 31.63"/><path class="cls-4" d="M9.34,31.19h.25v.25a.25.25,0,1,0,.49,0v-.25h.25a.25.25,0,0,0,0-.49h-.25v-.25a.25.25,0,0,0-.49,0v.25H9.34a.25.25,0,1,0,0,.49Z"/><polygon class="cls-7" points="22.84 7.39 23.64 7.88 23.89 7.42 23.09 6.96 22.84 7.39"/><path class="cls-4" d="M23,7.42a.25.25,0,1,0-.25-.25A.23.23,0,0,0,23,7.42Z"/><polygon class="cls-8" points="4.79 21.17 5.59 21.66 5.84 21.2 5.04 20.75 4.79 21.17"/><path class="cls-4" d="M4.92,21.2A.25.25,0,1,0,4.68,21,.23.23,0,0,0,4.92,21.2Z"/><polygon class="cls-9" points="29.93 31.38 30.74 31.86 30.98 31.41 30.18 30.95 29.93 31.38"/><path class="cls-4" d="M30.07,31.41a.25.25,0,1,0-.25-.25A.23.23,0,0,0,30.07,31.41Z"/><path class="cls-4" d="M30.75,17.89h0A6.08,6.08,0,0,0,29.89,16a2.5,2.5,0,0,1-.22-.61,4.39,4.39,0,0,0-.85-1.81l0-.06c-.7-.78-2.81-3.16-8.13-2.51a21,21,0,0,0-3.63.81C12,13.42,9.39,16.5,9.23,21c0,.12,0,.22,0,.27a3.13,3.13,0,0,1-.79,1.1c-.49.53-.89,1-.77,1.38s.59.58,1,.69a4,4,0,0,1,.95.33,5.59,5.59,0,0,1,1.25,1.1,6,6,0,0,0,1.09,1,11.08,11.08,0,0,0,3.15.73l.43.06.5.15a13.88,13.88,0,0,0,3.66.76,5.85,5.85,0,0,0,.74,0,14.18,14.18,0,0,0,3.21-.89l.49-.14a7.49,7.49,0,0,0,2.16-.8A18.74,18.74,0,0,0,29,23.41a26.55,26.55,0,0,0,1.78-5.48A.38.38,0,0,0,30.75,17.89ZM9.85,21.37c0-.07,0-.18,0-.33.15-4.22,2.62-7.11,7.33-8.57a20.33,20.33,0,0,1,3.52-.78c5-.61,6.94,1.58,7.58,2.3l.05.06a3.83,3.83,0,0,1,.71,1.55,2.5,2.5,0,0,0,.33.83,6,6,0,0,1,.71,1.44,18.13,18.13,0,0,1-2.75,2.95l-.85.47a15,15,0,0,1-2.42,1.19c-.46.14-1.24.32-2.07.52s-2,.45-2.52.64a13.46,13.46,0,0,1-3.91,0l-.63,0L8.55,23.2l.34-.38A3.19,3.19,0,0,0,9.85,21.37ZM28.42,23.1a18.58,18.58,0,0,1-2.49,3.11,8.28,8.28,0,0,1-1.93.68c-.31.08-.47.13-.57.17a13.49,13.49,0,0,1-3,.85,5.23,5.23,0,0,1-.66,0,13.39,13.39,0,0,1-3.47-.73l-.54-.16-.5-.08a11.57,11.57,0,0,1-2.9-.64,5.64,5.64,0,0,1-1-.89,6,6,0,0,0-1.41-1.23,4.32,4.32,0,0,0-1-.36l6,.38.63,0a20,20,0,0,0,3.5.07,3.46,3.46,0,0,0,.66-.14c.53-.18,1.51-.41,2.46-.62s1.64-.38,2.12-.53a15.32,15.32,0,0,0,2.55-1.25l.82-.45a11.87,11.87,0,0,0,2.21-2.21A29.21,29.21,0,0,1,28.42,23.1Z"/><path class="cls-4" d="M11.34,20.25a.32.32,0,0,0,.23-.14A41,41,0,0,1,14,16.68a17.22,17.22,0,0,1,2.68-1.52,3.8,3.8,0,0,0,.71-.45,5.31,5.31,0,0,1,2-1A14.07,14.07,0,0,1,24,13.36c.46.24,2.23,1.06,2.3,1.1a.32.32,0,0,0,.27-.58S24.73,13,24.29,12.8c-.62-.32-3.6-.05-5,.29a5.94,5.94,0,0,0-2.25,1.11,3.4,3.4,0,0,1-.59.38,17.08,17.08,0,0,0-2.85,1.63A42,42,0,0,0,11,19.75a.32.32,0,0,0,.3.49Z"/><path class="cls-4" d="M21.37,15.8a2.66,2.66,0,0,0,1.15-.19l.13-.09a1.8,1.8,0,0,1,1.07-.43,15.45,15.45,0,0,1,2.48.48.32.32,0,0,0,.26-.58,14.71,14.71,0,0,0-2.71-.53,2.37,2.37,0,0,0-1.47.55l-.1.07a4.6,4.6,0,0,1-.85.09,10.35,10.35,0,0,0-1.44.16,3.35,3.35,0,0,0-1.37.81,3.21,3.21,0,0,1-1.13.71,4.4,4.4,0,0,0-1.29.56,4.31,4.31,0,0,1-.49.27.32.32,0,0,0,.17.61l.09,0a4.89,4.89,0,0,0,.56-.3,3.75,3.75,0,0,1,1.12-.49,3.71,3.71,0,0,0,1.37-.83,2.86,2.86,0,0,1,1.1-.68A10,10,0,0,1,21.37,15.8Z"/><path class="cls-4" d="M10.8,22.47A.31.31,0,0,0,11,22.4a3.27,3.27,0,0,0,.54-.6c.23-.29.48-.62.71-.68l.72-.16c.86-.18,1.06-.23,1.16-.38a4.34,4.34,0,0,1,1.05-.6,8.43,8.43,0,0,1,.88-.08,6.17,6.17,0,0,0,2-.29.32.32,0,1,0-.31-.55,8.13,8.13,0,0,1-1.71.21,6.93,6.93,0,0,0-1,.1,4.45,4.45,0,0,0-1.35.77c-.13,0-.56.14-.84.2l-.74.16a2.23,2.23,0,0,0-1.06.91,2.91,2.91,0,0,1-.43.48.32.32,0,0,0,.23.57Z"/><path class="cls-4" d="M25.22,17.28a3.16,3.16,0,0,0-.89,0,3.91,3.91,0,0,0-.66.23,4.26,4.26,0,0,1-.91.29.32.32,0,0,0,.1.63h0a4.84,4.84,0,0,0,1-.33,3.3,3.3,0,0,1,.56-.19,2.69,2.69,0,0,1,.72,0,4.76,4.76,0,0,0,1.06,0,9.81,9.81,0,0,0,1.56-.46l.4-.13a.32.32,0,0,0-.08-.63,3.19,3.19,0,0,0-.54.17,9.35,9.35,0,0,1-1.45.43A4.38,4.38,0,0,1,25.22,17.28Z"/><path class="cls-4" d="M23.73,20c-.21,0-2.2.15-2.56.14a1.29,1.29,0,0,0-.78.28,1.58,1.58,0,0,1-.35.19,16,16,0,0,1-2,.24.31.31,0,0,0-.29.34.32.32,0,0,0,.34.29c.11,0,.78-.06,1.35-.13a5.13,5.13,0,0,0,.79-.14,2.12,2.12,0,0,0,.5-.26.77.77,0,0,1,.41-.18c.41,0,2.42-.1,2.69-.14a.32.32,0,0,0-.1-.63Z"/><path class="cls-4" d="M27.92,18.64a5.24,5.24,0,0,1-.74.64c-.16.12-.31.24-.44.36a3.38,3.38,0,0,1-1.09.53.32.32,0,0,0,.08.63,3.81,3.81,0,0,0,1.43-.68l.41-.33a5.81,5.81,0,0,0,.83-.73.32.32,0,1,0-.48-.42Z"/><path class="cls-4" d="M24.93,24.39a12,12,0,0,1-1.46.42l-.31.08a3.14,3.14,0,0,0-.83.47,3.69,3.69,0,0,1-.82.48,2.75,2.75,0,0,1-.93,0,2.66,2.66,0,0,0-.8,0,12,12,0,0,1-1.64.2,4,4,0,0,1-1.29-.62.32.32,0,1,0-.35.53,4.34,4.34,0,0,0,1.65.72,12.34,12.34,0,0,0,1.75-.21,2.6,2.6,0,0,1,.58,0,4,4,0,0,0,1,.06l.19,0a3.93,3.93,0,0,0,1-.56,3.22,3.22,0,0,1,.63-.38l.3-.07A11.68,11.68,0,0,0,25.19,25a.32.32,0,1,0-.26-.58Z"/></g></g></g></svg>