<svg xmlns="http://www.w3.org/2000/svg" xmlns:xlink="http://www.w3.org/1999/xlink" viewBox="0 0 18.72 18.72"><defs><style>.cls-1{isolation:isolate;}.cls-2{fill:#8b560f;}.cls-3{opacity:0.4;fill:url(#linear-gradient);}.cls-10,.cls-3,.cls-4,.cls-6,.cls-7,.cls-8,.cls-9{mix-blend-mode:multiply;}.cls-10,.cls-4,.cls-6,.cls-7,.cls-8,.cls-9{opacity:0.5;}.cls-4{fill:url(#linear-gradient-2);}.cls-5{fill:#fff;}.cls-6{fill:url(#linear-gradient-3);}.cls-7{fill:url(#linear-gradient-4);}.cls-8{fill:url(#linear-gradient-5);}.cls-9{fill:url(#linear-gradient-6);}.cls-10{fill:url(#linear-gradient-7);}</style><linearGradient id="linear-gradient" x1="4.97" y1="6.45" x2="14.24" y2="13.21" gradientUnits="userSpaceOnUse"><stop offset="0"/><stop offset="0.02" stop-color="#060606"/><stop offset="0.3" stop-color="#5d5d5d"/><stop offset="0.55" stop-color="#a2a2a2"/><stop offset="0.76" stop-color="#d5d5d5"/><stop offset="0.91" stop-color="#f3f3f3"/><stop offset="1" stop-color="#fff"/></linearGradient><linearGradient id="linear-gradient-2" x1="3.41" y1="5.14" x2="4.43" y2="5.71" gradientUnits="userSpaceOnUse"><stop offset="0"/><stop offset="0.05" stop-color="#171717"/><stop offset="0.2" stop-color="#545454"/><stop offset="0.35" stop-color="#888"/><stop offset="0.5" stop-color="#b3b3b3"/><stop offset="0.64" stop-color="#d4d4d4"/><stop offset="0.77" stop-color="#ececec"/><stop offset="0.9" stop-color="#fafafa"/><stop offset="1" stop-color="#fff"/></linearGradient><linearGradient id="linear-gradient-3" x1="15.32" y1="7.55" x2="16.62" y2="8.12" xlink:href="#linear-gradient"/><linearGradient id="linear-gradient-4" x1="4.28" y1="14.49" x2="5.29" y2="14.93" xlink:href="#linear-gradient"/><linearGradient id="linear-gradient-5" x1="10.72" y1="3.37" x2="11.07" y2="3.53" xlink:href="#linear-gradient"/><linearGradient id="linear-gradient-6" x1="2.22" y1="9.86" x2="2.58" y2="10.01" xlink:href="#linear-gradient"/><linearGradient id="linear-gradient-7" x1="14.06" y1="14.66" x2="14.41" y2="14.81" xlink:href="#linear-gradient"/></defs><title>nozes</title><g class="cls-1"><g id="Layer_2" data-name="Layer 2"><g id="Capa_1" data-name="Capa 1"><circle class="cls-2" cx="9.36" cy="9.36" r="9.36"/><path class="cls-3" d="M8.55,5.61c.81-.14,3-.57,4.12.25s5.87,5.35,5.87,5.35a11.48,11.48,0,0,1-2.75,5c-2,1.89-3.25,2-3.25,2l-7-5.66a8.59,8.59,0,0,0-.89-.94c-.18-.1-.85-.2-.89-.46s.83-.52.82-1a4.27,4.27,0,0,1,.8-2.65A5.92,5.92,0,0,1,8.55,5.61Z"/><polygon class="cls-4" points="3.74 5.95 4.6 6.43 5.16 5.5 3.74 4.79 3.74 5.14 3.4 5.37 3.74 5.61 3.74 5.95"/><path class="cls-5" d="M3.27,5.48a.34.34,0,0,1,.35.35.12.12,0,0,0,.23,0,.34.34,0,0,1,.35-.35.12.12,0,0,0,0-.23.34.34,0,0,1-.35-.35.12.12,0,1,0-.23,0,.34.34,0,0,1-.35.35.12.12,0,0,0,0,.23Zm.46-.23a.54.54,0,0,0,.12.12.54.54,0,0,0-.12.12.55.55,0,0,0-.12-.12A.55.55,0,0,0,3.74,5.25Z"/><polygon class="cls-6" points="15.78 8.14 16.84 8.76 17.21 8.1 15.94 7.28 15.54 7.71 15.78 8.14"/><path class="cls-5" d="M15.94,8.14l.35-.35V7.63l-.35-.35h-.16l-.35.35v.16l.35.35Zm-.08-.61.19.18-.19.18-.18-.18Z"/><polygon class="cls-7" points="4.55 14.89 5.5 15.45 5.77 14.86 4.63 14.22 4.55 14.89"/><path class="cls-5" d="M4.39,14.68h.12v.12a.12.12,0,1,0,.23,0v-.12h.12a.12.12,0,0,0,0-.23H4.74v-.12a.12.12,0,0,0-.23,0v.12H4.39a.12.12,0,1,0,0,.23Z"/><polygon class="cls-8" points="10.75 3.48 11.13 3.71 11.24 3.49 10.87 3.28 10.75 3.48"/><path class="cls-5" d="M10.81,3.49a.12.12,0,1,0-.12-.12A.11.11,0,0,0,10.81,3.49Z"/><polygon class="cls-9" points="2.25 9.96 2.63 10.19 2.75 9.98 2.37 9.76 2.25 9.96"/><path class="cls-5" d="M2.32,10a.12.12,0,1,0-.12-.12A.11.11,0,0,0,2.32,10Z"/><polygon class="cls-10" points="14.09 14.77 14.47 15 14.58 14.78 14.21 14.57 14.09 14.77"/><path class="cls-5" d="M14.15,14.78a.12.12,0,1,0-.12-.12A.11.11,0,0,0,14.15,14.78Z"/><path class="cls-5" d="M14.47,8.42h0a2.86,2.86,0,0,0-.41-.87,1.17,1.17,0,0,1-.1-.29,2.07,2.07,0,0,0-.4-.85l0,0C13.22,6,12.22,4.89,9.72,5.2A9.87,9.87,0,0,0,8,5.58c-2.36.73-3.59,2.18-3.66,4.31,0,.06,0,.1,0,.13a1.47,1.47,0,0,1-.37.52c-.23.25-.42.45-.36.65s.28.27.49.32a1.89,1.89,0,0,1,.45.16,2.63,2.63,0,0,1,.59.52,2.82,2.82,0,0,0,.51.47A5.22,5.22,0,0,0,7.12,13l.2,0,.24.07a6.53,6.53,0,0,0,1.72.36l.35,0A6.67,6.67,0,0,0,11.14,13l.23-.07a3.52,3.52,0,0,0,1-.37A8.82,8.82,0,0,0,13.64,11a12.5,12.5,0,0,0,.84-2.58A.18.18,0,0,0,14.47,8.42ZM4.63,10.06s0-.09,0-.16c.07-2,1.23-3.34,3.45-4A9.56,9.56,0,0,1,9.75,5.5c2.35-.29,3.27.74,3.57,1.08l0,0a1.8,1.8,0,0,1,.33.73,1.18,1.18,0,0,0,.15.39,2.82,2.82,0,0,1,.33.68,8.53,8.53,0,0,1-1.29,1.39l-.4.22a7.06,7.06,0,0,1-1.14.56c-.22.07-.58.15-1,.24s-.92.21-1.19.3a6.33,6.33,0,0,1-1.84,0l-.3,0-3-.19.16-.18A1.5,1.5,0,0,0,4.63,10.06Zm8.74.81a8.75,8.75,0,0,1-1.17,1.46,3.9,3.9,0,0,1-.91.32l-.27.08a6.35,6.35,0,0,1-1.43.4l-.31,0a6.3,6.3,0,0,1-1.63-.34l-.25-.08-.24,0a5.45,5.45,0,0,1-1.37-.3A2.66,2.66,0,0,1,5.34,12a2.83,2.83,0,0,0-.66-.58,2,2,0,0,0-.47-.17l2.8.18.3,0a9.4,9.4,0,0,0,1.65,0,1.63,1.63,0,0,0,.31-.07c.25-.08.71-.19,1.16-.29s.77-.18,1-.25a7.21,7.21,0,0,0,1.2-.59l.39-.21a5.58,5.58,0,0,0,1-1A13.77,13.77,0,0,1,13.38,10.87Z"/><path class="cls-5" d="M5.34,9.53a.15.15,0,0,0,.11-.06A19.31,19.31,0,0,1,6.61,7.85a8.11,8.11,0,0,1,1.26-.72,1.79,1.79,0,0,0,.33-.21,2.5,2.5,0,0,1,1-.47,6.62,6.62,0,0,1,2.13-.16l1.08.52a.15.15,0,0,0,.13-.27L11.43,6a6.32,6.32,0,0,0-2.34.14A2.8,2.8,0,0,0,8,6.68a1.59,1.59,0,0,1-.28.18,8,8,0,0,0-1.34.77A19.77,19.77,0,0,0,5.19,9.3a.15.15,0,0,0,.14.23Z"/><path class="cls-5" d="M10.06,7.44a1.25,1.25,0,0,0,.54-.09l.06,0a.85.85,0,0,1,.5-.2,7.28,7.28,0,0,1,1.17.22.15.15,0,0,0,.12-.27,6.92,6.92,0,0,0-1.27-.25,1.12,1.12,0,0,0-.69.26l0,0a2.17,2.17,0,0,1-.4,0,4.87,4.87,0,0,0-.68.08,1.58,1.58,0,0,0-.64.38,1.51,1.51,0,0,1-.53.33,2.07,2.07,0,0,0-.61.26l-.23.13a.15.15,0,0,0,.08.28h0l.26-.14a1.77,1.77,0,0,1,.53-.23,1.74,1.74,0,0,0,.64-.39,1.35,1.35,0,0,1,.52-.32A4.7,4.7,0,0,1,10.06,7.44Z"/><path class="cls-5" d="M5.08,10.57l.07,0a1.53,1.53,0,0,0,.25-.28c.11-.14.23-.29.34-.32l.34-.07c.4-.08.5-.11.55-.18a2,2,0,0,1,.5-.28l.41,0a2.9,2.9,0,0,0,.93-.14A.15.15,0,1,0,8.33,9a3.83,3.83,0,0,1-.81.1,3.25,3.25,0,0,0-.47,0,2.09,2.09,0,0,0-.63.36L6,9.57l-.35.08a1,1,0,0,0-.5.43,1.37,1.37,0,0,1-.2.23.15.15,0,0,0,.11.27Z"/><path class="cls-5" d="M11.87,8.13a1.49,1.49,0,0,0-.42,0,1.84,1.84,0,0,0-.31.11,2,2,0,0,1-.43.14.15.15,0,0,0,0,.29h0a2.29,2.29,0,0,0,.49-.15,1.55,1.55,0,0,1,.26-.09,1.27,1.27,0,0,1,.34,0,2.24,2.24,0,0,0,.5,0,4.62,4.62,0,0,0,.74-.21l.19-.06a.15.15,0,0,0,0-.3L13,7.92a4.4,4.4,0,0,1-.68.2A2.06,2.06,0,0,1,11.87,8.13Z"/><path class="cls-5" d="M11.17,9.39c-.1,0-1,.07-1.2.06a.61.61,0,0,0-.37.13.74.74,0,0,1-.16.09,7.51,7.51,0,0,1-.94.11.15.15,0,0,0-.14.16.15.15,0,0,0,.16.14L9.15,10A2.41,2.41,0,0,0,9.53,10a1,1,0,0,0,.23-.12A.36.36,0,0,1,10,9.75c.19,0,1.14,0,1.26-.07a.15.15,0,0,0,0-.3Z"/><path class="cls-5" d="M13.14,8.77a2.47,2.47,0,0,1-.35.3l-.21.17a1.59,1.59,0,0,1-.51.25.15.15,0,0,0,0,.3,1.79,1.79,0,0,0,.67-.32L13,9.31A2.73,2.73,0,0,0,13.37,9a.15.15,0,1,0-.23-.2Z"/><path class="cls-5" d="M11.73,11.48a5.67,5.67,0,0,1-.69.2l-.14,0a1.48,1.48,0,0,0-.39.22,1.74,1.74,0,0,1-.39.22,1.3,1.3,0,0,1-.44,0,1.25,1.25,0,0,0-.37,0,5.64,5.64,0,0,1-.77.09,1.86,1.86,0,0,1-.61-.29.15.15,0,1,0-.16.25,2,2,0,0,0,.77.34,5.8,5.8,0,0,0,.83-.1,1.22,1.22,0,0,1,.28,0,1.87,1.87,0,0,0,.47,0l.09,0a1.85,1.85,0,0,0,.47-.26A1.52,1.52,0,0,1,11,12l.14,0a5.51,5.51,0,0,0,.74-.22.15.15,0,0,0-.12-.27Z"/></g></g></g></svg>