<svg xmlns="http://www.w3.org/2000/svg" viewBox="0 0 30 30.06"><defs><style>.cls-1,.cls-2{fill:#4d4d4d;}.cls-1{fill-rule:evenodd;}</style></defs><title>qrcode</title><g id="Layer_2" data-name="Layer 2"><g id="Layer_1-2" data-name="Layer 1"><path class="cls-1" d="M9.67,2.92H2.89V9.7H9.67Zm-1,5.81H3.86V3.89H8.7Z"/><polygon class="cls-1" points="12.58 2.92 12.58 3.89 11.61 3.89 11.61 2.92 10.64 2.92 10.64 5.82 11.61 5.82 11.61 4.86 13.55 4.86 13.55 2.92 12.58 2.92"/><rect class="cls-2" x="14.52" y="2.92" width="0.97" height="0.97"/><polygon class="cls-1" points="16.45 6.79 16.45 5.82 17.42 5.82 17.42 4.86 18.39 4.86 18.39 5.82 19.36 5.82 19.36 2.92 18.39 2.92 18.39 3.89 15.48 3.89 15.48 5.82 14.52 5.82 14.52 6.79 13.55 6.79 13.55 7.76 14.52 7.76 14.52 9.7 15.48 9.7 15.48 6.79 16.45 6.79"/><path class="cls-1" d="M20.33,2.92V9.7h6.78V2.92Zm5.81,5.81H21.3V3.89h4.84Z"/><rect class="cls-2" x="4.83" y="4.85" width="2.91" height="2.91"/><rect class="cls-2" x="13.55" y="4.85" width="0.97" height="0.97"/><rect class="cls-2" x="22.27" y="4.85" width="2.91" height="2.91"/><path class="cls-1" d="M20.33,20.36v6.78h6.78V20.36Zm5.81,5.81H21.3V21.33h4.84Z"/><rect class="cls-2" x="22.27" y="22.3" width="2.91" height="2.91"/><rect class="cls-2" x="11.61" y="5.82" width="0.97" height="0.97"/><polygon class="cls-1" points="17.42 8.73 18.39 8.73 18.39 7.76 19.36 7.76 19.36 6.79 17.42 6.79 17.42 7.76 16.45 7.76 16.45 9.7 17.42 9.7 17.42 8.73"/><polygon class="cls-1" points="12.58 12.61 12.58 11.64 11.61 11.64 11.61 7.76 10.64 7.76 10.64 11.64 9.67 11.64 9.67 12.61 8.7 12.61 8.7 13.57 10.64 13.57 10.64 12.61 12.58 12.61"/><rect class="cls-2" x="12.58" y="8.73" width="0.97" height="1.94"/><rect class="cls-2" x="18.39" y="8.73" width="0.97" height="0.97"/><rect class="cls-2" x="15.48" y="9.7" width="0.97" height="0.97"/><rect class="cls-2" x="17.42" y="9.7" width="0.97" height="0.97"/><polygon class="cls-1" points="7.73 11.64 7.73 10.67 4.83 10.67 4.83 13.57 3.86 13.57 3.86 14.54 6.76 14.54 6.76 13.57 5.8 13.57 5.8 12.61 6.76 12.61 6.76 13.57 7.73 13.57 7.73 12.61 8.7 12.61 8.7 11.64 7.73 11.64"/><rect class="cls-2" x="8.7" y="10.67" width="0.97" height="0.97"/><polygon class="cls-1" points="16.45 13.57 16.45 11.64 15.48 11.64 15.48 10.67 13.55 10.67 13.55 11.64 14.52 11.64 14.52 12.61 13.55 12.61 13.55 14.54 14.52 14.54 14.52 13.57 16.45 13.57"/><polygon class="cls-1" points="22.27 10.67 19.36 10.67 19.36 11.64 21.3 11.64 21.3 12.61 22.27 12.61 22.27 10.67"/><polygon class="cls-1" points="24.2 11.64 25.17 11.64 25.17 12.61 24.2 12.61 24.2 13.57 25.17 13.57 25.17 14.54 24.2 14.54 24.2 15.51 27.11 15.51 27.11 12.61 26.14 12.61 26.14 11.64 27.11 11.64 27.11 10.67 24.2 10.67 24.2 11.64"/><rect class="cls-2" x="23.24" y="11.64" width="0.97" height="0.97"/><rect class="cls-2" x="2.89" y="12.61" width="0.97" height="0.97"/><polygon class="cls-1" points="21.3 15.51 21.3 14.54 22.27 14.54 22.27 15.51 23.24 15.51 23.24 13.57 21.3 13.57 21.3 12.61 18.39 12.61 18.39 13.57 19.36 13.57 19.36 15.51 18.39 15.51 18.39 13.57 16.45 13.57 16.45 14.54 17.42 14.54 17.42 16.48 20.33 16.48 20.33 15.51 21.3 15.51"/><rect class="cls-2" x="10.64" y="13.57" width="0.97" height="0.97"/><rect class="cls-2" x="2.89" y="14.54" width="0.97" height="4.84"/><path class="cls-1" d="M15.48,15.51h1v-1H14.52v1.94h-1v1.94h-1V16.48h-1v1h-1V14.54H8.7v1h1v1H7.73v1.94h-1V16.48H4.83v1h1v1h-1v1h5.81v-1h1v1h-1v1h2.91v1h1.94V19.39h-1v-1h1v1h1.94v-1h-1v-1h1v-1H15.48ZM9.67,18.42h-1v-1h1Z"/><rect class="cls-2" x="11.61" y="14.54" width="0.97" height="0.97"/><rect class="cls-2" x="6.76" y="15.51" width="0.97" height="0.97"/><rect class="cls-2" x="12.58" y="15.51" width="0.97" height="0.97"/><rect class="cls-2" x="21.3" y="15.51" width="0.97" height="0.97"/><rect class="cls-2" x="20.33" y="16.48" width="0.97" height="0.97"/><rect class="cls-2" x="25.17" y="16.48" width="1.94" height="0.97"/><path class="cls-1" d="M2.89,27.14H9.67V20.36H2.89Zm1-5.81H8.7v4.84H3.86Z"/><rect class="cls-2" x="20.33" y="20.36" width="0.97" height="0.97"/><polygon class="cls-1" points="12.58 21.32 11.61 21.32 11.61 22.29 10.64 22.29 10.64 25.2 11.61 25.2 11.61 24.23 12.58 24.23 12.58 25.2 13.55 25.2 13.55 23.26 12.58 23.26 12.58 21.32"/><rect class="cls-2" x="4.83" y="22.29" width="2.91" height="2.91"/><rect class="cls-2" x="13.55" y="22.29" width="0.97" height="0.97"/><rect class="cls-2" x="24.2" y="22.29" width="0.97" height="0.97"/><polygon class="cls-1" points="26.14 26.17 23.24 26.17 23.24 27.14 27.11 27.14 27.11 23.26 26.14 23.26 26.14 26.17"/><polygon class="cls-1" points="16.45 24.23 16.45 25.2 17.42 25.2 17.42 26.17 18.39 26.17 18.39 24.23 16.45 24.23"/><rect class="cls-2" x="24.2" y="24.23" width="0.97" height="0.97"/><rect class="cls-2" x="11.61" y="25.2" width="0.97" height="0.97"/><rect class="cls-2" x="13.55" y="25.2" width="0.97" height="0.97"/><rect class="cls-2" x="15.48" y="25.2" width="0.97" height="0.97"/><rect class="cls-2" x="18.39" y="26.17" width="0.97" height="0.97"/><polygon class="cls-2" points="19.36 19.39 19.36 19.32 25.17 19.32 25.17 18.42 24.2 18.42 24.2 16.48 23.24 16.48 23.24 17.45 21.3 17.45 21.3 18.42 19.36 18.42 19.36 17.45 18.39 17.45 18.39 20.36 17.42 20.36 17.42 21.32 16.45 21.32 16.45 22.29 17.42 22.29 17.42 23.26 19.36 23.26 19.36 22.29 19.36 19.39"/><rect class="cls-2" x="26.14" y="18.42" width="0.97" height="0.91"/><rect class="cls-2" width="0.71" height="5.45"/><rect class="cls-2" x="2.37" y="-2.37" width="0.71" height="5.45" transform="translate(3.08 -2.37) rotate(90)"/><rect class="cls-2" x="26.92" y="-2.37" width="0.71" height="5.45" transform="translate(27.63 -26.92) rotate(90)"/><rect class="cls-2" x="29.29" width="0.71" height="5.45" transform="translate(59.29 5.45) rotate(180)"/><rect class="cls-2" y="24.61" width="0.71" height="5.45"/><rect class="cls-2" x="2.37" y="26.98" width="0.71" height="5.45" transform="translate(-26.98 32.43) rotate(-90)"/><rect class="cls-2" x="26.92" y="26.98" width="0.71" height="5.45" transform="translate(-2.43 56.98) rotate(-90)"/><rect class="cls-2" x="29.29" y="24.61" width="0.71" height="5.45" transform="translate(59.29 54.67) rotate(-180)"/></g></g></svg>