<svg xmlns="http://www.w3.org/2000/svg" viewBox="0 0 22.04 29.64"><defs><style>.cls-1{fill:#4e0000;}</style></defs><title>Moca</title><g id="Layer_2" data-name="Layer 2"><g id="Capa_1" data-name="Capa 1"><path class="cls-1" d="M19.6,9.81h-.68l.88-2.17a.56.56,0,0,0-.52-.77h-.06l-3-3.31a.57.57,0,0,0-.42-.18H13.54L14.28.71A.56.56,0,0,0,13.73,0H9.49A.56.56,0,0,0,9,.73l.83,2.64H7.62a.56.56,0,0,0-.45.22L4.66,6.87H.56a.56.56,0,0,0-.45.9L7,16.9v0L4.38,29a.56.56,0,0,0,.55.68h13.8a.56.56,0,0,0,.54-.71L16.05,17.1a.56.56,0,0,0,0-.18.57.57,0,0,0,0-.11l2.4-5.87h1.12c.14,0,1.33.08,1.33,1.11v3.82a.56.56,0,0,0,1.12,0V12A2.32,2.32,0,0,0,19.6,9.81Zm-2,.34L15,16.36H8L5.67,8H18.45l-.88,2.16Zm-7.32-9H13l-.62,2.25H11ZM7.89,4.49h7.65l2.16,2.37H6.07ZM1.69,8H4.51l1.64,6ZM5.63,28.52,8,17.48h7l3,11Z"/></g></g></svg>