<svg xmlns="http://www.w3.org/2000/svg" viewBox="0 0 64 40"><defs><style>.cls-1{fill:#13457c;}.cls-2{fill:#fbb231;}.cls-2,.cls-3,.cls-4{fill-rule:evenodd;}.cls-3{fill:#ec1c2e;}.cls-4{fill:#fff;}.cls-5{fill:none;stroke:#fff;stroke-miterlimit:2.61;stroke-width:0.22px;}</style></defs><title>Master</title><g id="Layer_2" data-name="Layer 2"><g id="Layer_1-2" data-name="Layer 1"><rect class="cls-1" width="64" height="40" rx="2.13" ry="2.13"/><polygon class="cls-2" points="39.68 31.48 40.27 31.47 40.86 31.42 41.43 31.35 42 31.25 42.55 31.12 43.1 30.97 43.63 30.79 44.16 30.58 44.67 30.35 45.16 30.1 45.65 29.82 46.11 29.52 46.56 29.2 47 28.86 47.41 28.5 47.81 28.11 48.2 27.71 48.56 27.3 48.9 26.86 49.22 26.41 49.52 25.94 49.8 25.46 50.05 24.97 50.28 24.46 50.49 23.93 50.67 23.4 50.82 22.85 50.95 22.3 51.05 21.73 51.13 21.16 51.17 20.57 51.18 19.98 51.17 19.39 51.13 18.81 51.05 18.24 50.95 17.67 50.82 17.12 50.67 16.58 50.49 16.04 50.28 15.53 50.05 15.02 49.8 14.52 49.52 14.05 49.22 13.58 48.9 13.13 48.56 12.7 48.2 12.28 47.81 11.88 47.41 11.5 47 11.14 46.56 10.8 46.11 10.48 45.65 10.18 45.16 9.9 44.67 9.65 44.16 9.42 43.63 9.22 43.1 9.03 42.55 8.88 42 8.75 41.43 8.65 40.86 8.58 40.27 8.53 39.68 8.52 39.09 8.53 38.51 8.58 37.93 8.65 37.37 8.75 36.81 8.88 36.27 9.03 35.74 9.22 35.21 9.42 34.71 9.65 34.22 9.9 33.73 10.18 33.27 10.48 32.82 10.8 32.39 11.14 31.97 11.5 31.57 11.88 31.19 12.28 30.83 12.7 30.49 13.13 30.18 13.58 29.88 14.05 29.6 14.52 29.35 15.02 29.12 15.53 28.91 16.04 28.73 16.58 28.58 17.12 28.45 17.67 28.35 18.24 28.28 18.81 28.23 19.39 28.22 19.98 28.23 20.57 28.28 21.16 28.35 21.73 28.45 22.3 28.58 22.85 28.73 23.4 28.91 23.93 29.12 24.46 29.35 24.97 29.6 25.46 29.88 25.94 30.18 26.41 30.49 26.86 30.83 27.3 31.19 27.71 31.57 28.11 31.97 28.5 32.39 28.86 32.82 29.2 33.27 29.52 33.73 29.82 34.22 30.1 34.71 30.35 35.21 30.58 35.74 30.79 36.27 30.97 36.81 31.12 37.37 31.25 37.93 31.35 38.51 31.42 39.09 31.47 39.68 31.48 39.68 31.48 39.68 31.48"/><polygon class="cls-3" points="24.32 31.48 24.91 31.47 25.49 31.42 26.07 31.35 26.63 31.25 27.19 31.12 27.73 30.97 28.26 30.79 28.79 30.58 29.29 30.35 29.79 30.1 30.26 29.82 30.73 29.52 31.18 29.2 31.61 28.86 32.03 28.5 32.43 28.11 32.8 27.71 33.17 27.3 33.51 26.86 33.82 26.41 34.12 25.94 34.4 25.46 34.65 24.97 34.88 24.46 35.09 23.93 35.27 23.4 35.42 22.85 35.55 22.3 35.65 21.73 35.72 21.16 35.76 20.57 35.78 19.98 35.76 19.39 35.72 18.81 35.65 18.24 35.55 17.67 35.42 17.12 35.27 16.58 35.09 16.04 34.88 15.53 34.65 15.02 34.4 14.52 34.12 14.05 33.82 13.58 33.51 13.13 33.17 12.7 32.8 12.28 32.43 11.88 32.03 11.5 31.61 11.14 31.18 10.8 30.73 10.48 30.26 10.18 29.79 9.9 29.29 9.65 28.79 9.42 28.26 9.22 27.73 9.03 27.19 8.88 26.63 8.75 26.07 8.65 25.49 8.58 24.91 8.53 24.32 8.52 23.73 8.53 23.14 8.58 22.57 8.65 22 8.75 21.45 8.88 20.9 9.03 20.36 9.22 19.84 9.42 19.33 9.65 18.84 9.9 18.36 10.18 17.89 10.48 17.44 10.8 17 11.14 16.58 11.5 16.18 11.88 15.8 12.28 15.44 12.7 15.1 13.13 14.78 13.58 14.48 14.05 14.2 14.52 13.95 15.02 13.72 15.53 13.51 16.04 13.33 16.58 13.18 17.12 13.05 17.67 12.95 18.24 12.87 18.81 12.83 19.39 12.82 19.98 12.83 20.57 12.87 21.16 12.95 21.73 13.05 22.3 13.18 22.85 13.33 23.4 13.51 23.93 13.72 24.46 13.95 24.97 14.2 25.46 14.48 25.94 14.78 26.41 15.1 26.86 15.44 27.3 15.8 27.71 16.18 28.11 16.58 28.5 17 28.86 17.44 29.2 17.89 29.52 18.36 29.82 18.84 30.1 19.33 30.35 19.84 30.58 20.36 30.79 20.9 30.97 21.45 31.12 22 31.25 22.57 31.35 23.14 31.42 23.73 31.47 24.32 31.48 24.32 31.48 24.32 31.48"/><polygon class="cls-2" points="30.66 12.92 36.76 12.92 36.76 12.3 31.18 12.3 30.66 12.92 30.66 12.92 30.66 12.92"/><polygon class="cls-2" points="29.74 14.31 36.76 14.31 36.76 13.69 30.11 13.69 29.74 14.31 29.74 14.31 29.74 14.31"/><polygon class="cls-2" points="29.06 15.69 36.76 15.69 36.76 15.07 29.33 15.07 29.06 15.69 29.06 15.69 29.06 15.69"/><polygon class="cls-2" points="28.59 17.08 36.76 17.08 36.76 16.45 28.79 16.45 28.59 17.08 28.59 17.08 28.59 17.08"/><polygon class="cls-2" points="28.86 23.78 36.78 23.78 36.78 23.16 28.67 23.16 28.86 23.78 28.86 23.78 28.86 23.78"/><polygon class="cls-2" points="29.45 25.16 36.78 25.16 36.78 24.54 29.16 24.54 29.45 25.16 29.45 25.16 29.45 25.16"/><polygon class="cls-2" points="30.27 26.55 36.78 26.55 36.78 25.93 29.88 25.93 30.27 26.55 30.27 26.55 30.27 26.55"/><polygon class="cls-2" points="31.4 27.93 36.78 27.93 36.78 27.31 30.85 27.31 31.4 27.93 31.4 27.93 31.4 27.93"/><polygon class="cls-2" points="28.32 18.46 36.76 18.46 36.76 17.84 28.44 17.84 28.32 18.46 28.32 18.46 28.32 18.46"/><polygon class="cls-2" points="33.46 22.4 36.68 22.4 36.68 21.77 33.58 21.77 33.46 22.4 33.46 22.4 33.46 22.4"/><polygon class="cls-2" points="33.72 21.01 36.68 21.01 36.68 20.39 33.83 20.39 33.72 21.01 33.72 21.01 33.72 21.01"/><polygon class="cls-2" points="28.1 20.39 28.94 20.39 28.94 21.01 28.14 21.01 28.1 20.39 28.1 20.39 28.1 20.39"/><polygon class="cls-4" points="26.54 19.63 26.49 19.63 26.43 19.62 26.38 19.61 26.33 19.6 26.29 19.6 26.24 19.59 26.19 19.58 26.13 19.57 26.08 19.57 26.02 19.56 25.95 19.56 25.87 19.55 25.79 19.55 25.7 19.56 25.6 19.57 25.49 19.57 25.41 19.58 25.34 19.6 25.27 19.62 25.21 19.64 25.16 19.67 25.11 19.7 25.07 19.74 25.04 19.77 25.01 19.82 24.99 19.86 24.98 19.91 24.98 19.95 25 20 25.01 20.05 25.04 20.1 25.08 20.15 25.16 20.23 25.25 20.29 25.36 20.34 25.48 20.38 25.6 20.42 25.73 20.46 25.86 20.51 25.98 20.56 26.1 20.62 26.2 20.7 26.3 20.8 26.38 20.92 26.45 21.07 26.48 21.24 26.5 21.45 26.48 21.7 26.46 21.88 26.41 22.04 26.35 22.18 26.27 22.31 26.18 22.42 26.08 22.52 25.97 22.61 25.85 22.68 25.73 22.74 25.6 22.79 25.47 22.83 25.33 22.86 25.2 22.88 25.07 22.89 24.95 22.9 24.83 22.9 24.66 22.9 24.5 22.9 24.37 22.9 24.24 22.9 24.13 22.89 24.02 22.88 23.93 22.88 23.84 22.86 23.76 22.86 23.68 22.84 23.61 22.83 23.54 22.81 23.48 22.8 23.42 22.77 23.36 22.75 23.29 22.73 23.46 21.87 23.5 21.88 23.54 21.89 23.59 21.9 23.66 21.92 23.73 21.93 23.81 21.95 23.89 21.97 23.99 21.99 24.08 22 24.18 22.02 24.29 22.03 24.4 22.04 24.51 22.04 24.62 22.05 24.73 22.05 24.85 22.04 24.96 22.02 25.05 21.99 25.12 21.95 25.17 21.89 25.21 21.84 25.24 21.78 25.26 21.71 25.28 21.66 25.28 21.54 25.25 21.45 25.18 21.37 25.09 21.3 24.97 21.25 24.83 21.19 24.68 21.13 24.53 21.07 24.38 21 24.23 20.92 24.09 20.82 23.97 20.7 23.87 20.55 23.8 20.38 23.77 20.17 23.77 19.92 23.79 19.77 23.82 19.63 23.86 19.5 23.91 19.37 23.97 19.25 24.04 19.15 24.12 19.06 24.21 18.97 24.33 18.9 24.45 18.84 24.59 18.78 24.75 18.74 24.92 18.7 25.11 18.67 25.32 18.66 25.55 18.65 25.69 18.65 25.82 18.66 25.94 18.66 26.05 18.67 26.15 18.67 26.24 18.68 26.31 18.69 26.38 18.7 26.45 18.7 26.5 18.72 26.55 18.73 26.6 18.73 26.64 18.74 26.67 18.74 26.71 18.75 26.74 18.76 26.54 19.63 26.54 19.63 26.54 19.63"/><polyline class="cls-5" points="26.54 19.63 26.54 19.63 26.49 19.63 26.43 19.62 26.38 19.61 26.33 19.6 26.29 19.6 26.24 19.59 26.19 19.58 26.13 19.57 26.08 19.57 26.02 19.56 25.95 19.56 25.87 19.55 25.79 19.55 25.7 19.56 25.6 19.57 25.49 19.57 25.49 19.57 25.41 19.58 25.34 19.6 25.27 19.62 25.21 19.64 25.16 19.67 25.11 19.7 25.07 19.74 25.04 19.77 25.01 19.82 24.99 19.86 24.98 19.91 24.98 19.95 25 20 25.01 20.05 25.04 20.1 25.08 20.15 25.08 20.15 25.16 20.23 25.25 20.29 25.36 20.34 25.48 20.38 25.6 20.42 25.73 20.46 25.86 20.51 25.98 20.56 26.1 20.62 26.2 20.7 26.3 20.8 26.38 20.92 26.45 21.07 26.48 21.24 26.5 21.45 26.48 21.7 26.48 21.7 26.46 21.88 26.41 22.04 26.35 22.18 26.27 22.31 26.18 22.42 26.08 22.52 25.97 22.61 25.85 22.68 25.73 22.74 25.6 22.79 25.47 22.83 25.33 22.86 25.2 22.88 25.07 22.89 24.95 22.9 24.83 22.9 24.83 22.9 24.66 22.9 24.5 22.9 24.37 22.9 24.24 22.9 24.13 22.89 24.02 22.88 23.93 22.88 23.84 22.86 23.76 22.86 23.68 22.84 23.61 22.83 23.54 22.81 23.48 22.8 23.42 22.77 23.36 22.75 23.29 22.73 23.46 21.87 23.46 21.87 23.5 21.88 23.54 21.89 23.59 21.9 23.66 21.92 23.73 21.93 23.81 21.95 23.89 21.97 23.99 21.99 24.08 22 24.18 22.02 24.29 22.03 24.4 22.04 24.51 22.04 24.62 22.05 24.73 22.05 24.85 22.04 24.85 22.04 24.96 22.02 25.05 21.99 25.12 21.95 25.17 21.89 25.21 21.84 25.24 21.78 25.26 21.71 25.28 21.66 25.28 21.66 25.28 21.54 25.25 21.45 25.18 21.37 25.09 21.3 24.97 21.25 24.83 21.19 24.68 21.13 24.53 21.07 24.38 21 24.23 20.92 24.09 20.82 23.97 20.7 23.87 20.55 23.8 20.38 23.77 20.17 23.77 19.92 23.77 19.92 23.79 19.77 23.82 19.63 23.86 19.5 23.91 19.37 23.97 19.25 24.04 19.15 24.12 19.06 24.21 18.97 24.33 18.9 24.45 18.84 24.59 18.78 24.75 18.74 24.92 18.7 25.11 18.67 25.32 18.66 25.55 18.65 25.55 18.65 25.69 18.65 25.82 18.66 25.94 18.66 26.05 18.67 26.15 18.67 26.24 18.68 26.31 18.69 26.38 18.7 26.45 18.7 26.5 18.72 26.55 18.73 26.6 18.73 26.64 18.74 26.67 18.74 26.71 18.75 26.74 18.76 26.54 19.63"/><polygon class="cls-4" points="27.46 17.8 28.53 17.8 28.38 18.74 29.02 18.74 28.88 19.61 28.2 19.59 27.83 21.75 27.82 21.83 27.84 21.9 27.88 21.95 27.93 21.99 28 22.02 28.08 22.04 28.16 22.05 28.26 22.06 28.34 22.06 28.42 22.05 28.49 22.04 28.55 22.02 28.6 22.01 28.64 22 28.66 21.99 28.67 21.99 28.53 22.71 28.51 22.73 28.48 22.74 28.45 22.76 28.42 22.77 28.4 22.78 28.37 22.8 28.33 22.81 28.3 22.82 28.26 22.83 28.22 22.84 28.17 22.84 28.13 22.85 28.08 22.86 28.02 22.87 27.96 22.88 27.89 22.88 27.6 22.88 27.44 22.87 27.3 22.86 27.18 22.83 27.08 22.81 26.99 22.77 26.91 22.73 26.85 22.69 26.8 22.64 26.76 22.58 26.73 22.52 26.71 22.45 26.7 22.38 26.7 22.3 26.7 22.21 26.71 22.12 26.72 22.02 27.46 17.8 27.46 17.8 27.46 17.8"/><polyline class="cls-5" points="27.46 17.8 28.53 17.8 28.38 18.74 29.02 18.74 28.88 19.61 28.2 19.59 27.83 21.75 27.83 21.75 27.82 21.83 27.84 21.9 27.88 21.95 27.93 21.99 28 22.02 28.08 22.04 28.16 22.05 28.26 22.06 28.26 22.06 28.34 22.06 28.42 22.05 28.49 22.04 28.55 22.02 28.6 22.01 28.64 22 28.66 21.99 28.67 21.99 28.53 22.71 28.53 22.71 28.51 22.73 28.48 22.74 28.45 22.76 28.42 22.77 28.4 22.78 28.37 22.8 28.33 22.81 28.3 22.82 28.26 22.83 28.22 22.84 28.17 22.84 28.13 22.85 28.08 22.86 28.02 22.87 27.96 22.88 27.89 22.88 27.6 22.88 27.6 22.88 27.44 22.87 27.3 22.86 27.18 22.83 27.08 22.81 26.99 22.77 26.91 22.73 26.85 22.69 26.8 22.64 26.76 22.58 26.73 22.52 26.71 22.45 26.7 22.38 26.7 22.3 26.7 22.21 26.71 22.12 26.72 22.02 27.46 17.8"/><polyline class="cls-5" points="29.88 21.07 29.88 21.07 29.87 21.14 29.86 21.21 29.87 21.28 29.88 21.35 29.91 21.43 29.94 21.5 29.98 21.57 30.03 21.64 30.09 21.7 30.14 21.76 30.21 21.82 30.28 21.86 30.34 21.91 30.42 21.94 30.5 21.97 30.58 21.99 30.58 21.99 30.68 22 30.77 22.01 30.88 22.02 30.98 22.03 31.08 22.04 31.18 22.04 31.28 22.03 31.39 22.02 31.49 22.01 31.6 21.99 31.7 21.97 31.81 21.93 31.92 21.89 32.03 21.84 32.14 21.78 32.25 21.71 32.1 22.67 32.1 22.67 32.03 22.7 31.97 22.73 31.91 22.75 31.85 22.78 31.8 22.8 31.73 22.82 31.67 22.83 31.61 22.84 31.54 22.85 31.46 22.86 31.38 22.87 31.29 22.88 31.19 22.88 31.08 22.88 30.96 22.88 30.83 22.88 30.83 22.88 30.64 22.88 30.45 22.86 30.26 22.83 30.06 22.79 29.87 22.73 29.69 22.66 29.52 22.56 29.35 22.45 29.2 22.32 29.07 22.16 28.96 21.98 28.87 21.77 28.8 21.54 28.76 21.28 28.75 21 28.77 20.68 28.77 20.68 28.78 20.56 28.8 20.41 28.84 20.26 28.88 20.1 28.94 19.93 29 19.77 29.09 19.6 29.2 19.43 29.33 19.28 29.48 19.13 29.65 19 29.84 18.88 30.07 18.79 30.32 18.72 30.6 18.67 30.91 18.65 30.91 18.65 31.06 18.66 31.22 18.67 31.38 18.7 31.54 18.74 31.69 18.8 31.84 18.87 31.98 18.96 32.11 19.07 32.23 19.2 32.33 19.36 32.4 19.53 32.46 19.74 32.49 19.97 32.49 20.23 32.47 20.53 32.41 20.86 32.39 21.09 29.56 21.09 29.74 20.33 31.44 20.33 31.44 20.33 31.45 20.23 31.44 20.14 31.43 20.05 31.42 19.98 31.39 19.9 31.36 19.84 31.33 19.78 31.29 19.72 31.24 19.68 31.19 19.64 31.13 19.6 31.07 19.57 31.01 19.55 30.95 19.53 30.88 19.52 30.82 19.51 30.82 19.51 30.74 19.52 30.67 19.53 30.61 19.55 30.54 19.57 30.47 19.6 30.42 19.64 30.36 19.68 30.31 19.72 30.26 19.78 30.21 19.84 30.17 19.9 30.13 19.96 30.1 20.03 30.07 20.11 30.05 20.19 30.03 20.27 29.88 21.07"/><polygon class="cls-4" points="39.12 18.97 39.06 18.94 39.01 18.92 38.96 18.89 38.9 18.86 38.84 18.84 38.78 18.82 38.71 18.79 38.64 18.77 38.57 18.75 38.49 18.74 38.41 18.72 38.33 18.71 38.24 18.7 38.15 18.69 38.06 18.69 37.97 18.69 37.87 18.69 37.77 18.7 37.66 18.71 37.55 18.73 37.45 18.76 37.34 18.81 37.23 18.86 37.12 18.93 37.02 19.02 36.91 19.11 36.82 19.24 36.73 19.38 36.64 19.55 36.56 19.75 36.49 19.96 36.42 20.21 36.4 20.35 36.38 20.49 36.38 20.62 36.38 20.75 36.39 20.89 36.42 21.01 36.45 21.13 36.5 21.24 36.55 21.35 36.62 21.45 36.71 21.54 36.8 21.62 36.9 21.69 37.02 21.75 37.15 21.8 37.3 21.83 37.35 21.84 37.41 21.85 37.48 21.86 37.56 21.87 37.64 21.88 37.73 21.88 37.83 21.88 37.93 21.87 38.03 21.86 38.13 21.84 38.22 21.81 38.32 21.78 38.42 21.74 38.51 21.69 38.59 21.63 38.66 21.56 38.49 22.59 38.47 22.61 38.44 22.63 38.41 22.66 38.38 22.68 38.34 22.71 38.28 22.74 38.22 22.77 38.15 22.79 38.06 22.82 37.96 22.84 37.84 22.85 37.71 22.87 37.56 22.88 37.38 22.88 37.19 22.88 36.97 22.86 36.79 22.84 36.61 22.81 36.43 22.75 36.26 22.67 36.09 22.58 35.92 22.46 35.77 22.33 35.63 22.17 35.5 22 35.39 21.8 35.3 21.59 35.23 21.35 35.18 21.09 35.16 20.82 35.17 20.51 35.21 20.19 35.25 20.03 35.28 19.88 35.32 19.73 35.36 19.58 35.4 19.45 35.45 19.31 35.5 19.18 35.55 19.07 35.61 18.95 35.67 18.83 35.74 18.73 35.81 18.62 35.88 18.53 35.95 18.43 36.03 18.35 36.11 18.27 36.2 18.19 36.29 18.12 36.38 18.05 36.48 17.99 36.59 17.93 36.69 17.88 36.8 17.83 36.91 17.79 37.03 17.75 37.15 17.72 37.27 17.69 37.41 17.67 37.54 17.65 37.68 17.64 37.82 17.63 37.97 17.62 38.09 17.63 38.21 17.64 38.32 17.65 38.44 17.66 38.55 17.68 38.65 17.7 38.75 17.72 38.85 17.74 38.94 17.77 39.01 17.79 39.09 17.81 39.15 17.84 39.2 17.86 39.25 17.87 39.28 17.89 39.31 17.9 39.12 18.97 39.12 18.97 39.12 18.97"/><polyline class="cls-5" points="39.12 18.97 39.12 18.97 39.06 18.94 39.01 18.92 38.96 18.89 38.9 18.86 38.84 18.84 38.78 18.82 38.71 18.79 38.64 18.77 38.57 18.75 38.49 18.74 38.41 18.72 38.33 18.71 38.24 18.7 38.15 18.69 38.06 18.69 37.97 18.69 37.97 18.69 37.87 18.69 37.77 18.7 37.66 18.71 37.55 18.73 37.45 18.76 37.34 18.81 37.23 18.86 37.12 18.93 37.02 19.02 36.91 19.11 36.82 19.24 36.73 19.38 36.64 19.55 36.56 19.75 36.49 19.96 36.42 20.21 36.42 20.21 36.4 20.35 36.38 20.49 36.38 20.62 36.38 20.75 36.39 20.89 36.42 21.01 36.45 21.13 36.5 21.24 36.55 21.35 36.62 21.45 36.71 21.54 36.8 21.62 36.9 21.69 37.02 21.75 37.15 21.8 37.3 21.83 37.3 21.83 37.35 21.84 37.41 21.85 37.48 21.86 37.56 21.87 37.64 21.88 37.73 21.88 37.83 21.88 37.93 21.87 38.03 21.86 38.13 21.84 38.22 21.81 38.32 21.78 38.42 21.74 38.51 21.69 38.59 21.63 38.66 21.56 38.49 22.59 38.49 22.59 38.47 22.61 38.44 22.63 38.41 22.66 38.38 22.68 38.34 22.71 38.28 22.74 38.22 22.77 38.15 22.79 38.06 22.82 37.96 22.84 37.84 22.85 37.71 22.87 37.56 22.88 37.38 22.88 37.19 22.88 36.97 22.86 36.97 22.86 36.79 22.84 36.61 22.81 36.43 22.75 36.26 22.67 36.09 22.58 35.92 22.46 35.77 22.33 35.63 22.17 35.5 22 35.39 21.8 35.3 21.59 35.23 21.35 35.18 21.09 35.16 20.82 35.17 20.51 35.21 20.19 35.21 20.19 35.25 20.03 35.28 19.88 35.32 19.73 35.36 19.58 35.4 19.45 35.45 19.31 35.5 19.18 35.55 19.07 35.61 18.95 35.67 18.83 35.74 18.73 35.81 18.62 35.88 18.53 35.95 18.43 36.03 18.35 36.11 18.27 36.2 18.19 36.29 18.12 36.38 18.05 36.48 17.99 36.59 17.93 36.69 17.88 36.8 17.83 36.91 17.79 37.03 17.75 37.15 17.72 37.27 17.69 37.41 17.67 37.54 17.65 37.68 17.64 37.82 17.63 37.97 17.62 37.97 17.62 38.09 17.63 38.21 17.64 38.32 17.65 38.44 17.66 38.55 17.68 38.65 17.7 38.75 17.72 38.85 17.74 38.94 17.77 39.01 17.79 39.09 17.81 39.15 17.84 39.2 17.86 39.25 17.87 39.28 17.89 39.31 17.9 39.12 18.97"/><polygon class="cls-4" points="48.65 22.88 47.58 22.88 47.66 22.45 47.66 22.41 47.59 22.49 47.53 22.56 47.46 22.62 47.39 22.68 47.32 22.73 47.25 22.77 47.18 22.81 47.11 22.84 47.04 22.87 46.96 22.89 46.89 22.91 46.81 22.92 46.73 22.93 46.66 22.94 46.58 22.94 46.5 22.94 46.3 22.93 46.12 22.88 45.95 22.82 45.79 22.73 45.65 22.62 45.53 22.49 45.42 22.34 45.33 22.18 45.25 22 45.19 21.82 45.15 21.63 45.11 21.43 45.1 21.24 45.11 21.04 45.13 20.84 45.16 20.64 45.22 20.41 45.29 20.2 45.37 20 45.47 19.81 45.57 19.64 45.68 19.48 45.8 19.34 45.93 19.22 46.07 19.1 46.21 19.01 46.36 18.92 46.5 18.86 46.66 18.8 46.81 18.77 46.97 18.74 47.13 18.74 47.24 18.74 47.35 18.75 47.45 18.77 47.54 18.8 47.63 18.83 47.71 18.86 47.79 18.91 47.86 18.95 47.92 19 47.98 19.05 48.03 19.1 48.07 19.15 48.11 19.2 48.15 19.25 48.18 19.29 48.2 19.34 48.2 19.34 48.47 17.82 49.53 17.82 48.65 22.88 48.65 22.88 48.65 22.88"/><polyline class="cls-5" points="48.65 22.88 47.58 22.88 47.66 22.45 47.66 22.41 47.66 22.41 47.59 22.49 47.53 22.56 47.46 22.62 47.39 22.68 47.32 22.73 47.25 22.77 47.18 22.81 47.11 22.84 47.04 22.87 46.96 22.89 46.89 22.91 46.81 22.92 46.73 22.93 46.66 22.94 46.58 22.94 46.5 22.94 46.5 22.94 46.3 22.93 46.12 22.88 45.95 22.82 45.79 22.73 45.65 22.62 45.53 22.49 45.42 22.34 45.33 22.18 45.25 22 45.19 21.82 45.15 21.63 45.11 21.43 45.1 21.24 45.11 21.04 45.13 20.84 45.16 20.64 45.16 20.64 45.22 20.41 45.29 20.2 45.37 20 45.47 19.81 45.57 19.64 45.68 19.48 45.8 19.34 45.93 19.22 46.07 19.1 46.21 19.01 46.36 18.92 46.5 18.86 46.66 18.8 46.81 18.77 46.97 18.74 47.13 18.74 47.13 18.74 47.24 18.74 47.35 18.75 47.45 18.77 47.54 18.8 47.63 18.83 47.71 18.86 47.79 18.91 47.86 18.95 47.92 19 47.98 19.05 48.03 19.1 48.07 19.15 48.11 19.2 48.15 19.25 48.18 19.29 48.2 19.34 48.2 19.34 48.47 17.82 49.53 17.82 48.65 22.88"/><polygon class="cls-2" points="46.9 21.95 47.01 21.94 47.1 21.92 47.2 21.89 47.29 21.85 47.37 21.8 47.45 21.74 47.52 21.68 47.59 21.61 47.64 21.53 47.7 21.44 47.75 21.35 47.79 21.26 47.83 21.16 47.86 21.06 47.89 20.96 47.91 20.86 47.93 20.75 47.94 20.63 47.94 20.53 47.93 20.42 47.92 20.32 47.91 20.22 47.88 20.13 47.85 20.04 47.81 19.96 47.76 19.89 47.71 19.83 47.66 19.77 47.59 19.73 47.52 19.7 47.45 19.68 47.36 19.67 47.26 19.68 47.16 19.69 47.07 19.72 46.98 19.76 46.91 19.81 46.83 19.88 46.77 19.94 46.7 20.01 46.64 20.1 46.59 20.19 46.53 20.28 46.49 20.38 46.45 20.49 46.42 20.59 46.39 20.7 46.37 20.82 46.35 20.99 46.36 21.17 46.38 21.36 46.44 21.54 46.51 21.7 46.61 21.83 46.74 21.92 46.9 21.95 46.9 21.95 46.9 21.95"/><polygon class="cls-4" points="23.11 22.02 22.95 22.88 21.98 22.88 22.01 22.73 22.03 22.58 22.04 22.47 22.06 22.41 22 22.48 21.94 22.54 21.87 22.6 21.79 22.65 21.69 22.71 21.6 22.75 21.5 22.8 21.39 22.84 21.28 22.87 21.17 22.9 21.05 22.92 20.94 22.94 20.83 22.95 20.71 22.95 20.61 22.94 20.5 22.92 20.36 22.89 20.24 22.85 20.13 22.8 20.04 22.74 19.95 22.68 19.87 22.61 19.81 22.54 19.76 22.46 19.71 22.38 19.67 22.29 19.64 22.21 19.62 22.12 19.6 22.03 19.59 21.94 19.58 21.86 19.58 21.77 19.59 21.62 19.62 21.48 19.66 21.34 19.71 21.21 19.77 21.09 19.84 20.98 19.92 20.87 20.01 20.77 20.11 20.68 20.22 20.6 20.33 20.52 20.45 20.46 20.57 20.41 20.7 20.37 20.83 20.33 20.96 20.31 20.97 20.31 20.99 20.3 21.02 20.3 21.06 20.3 21.11 20.29 21.16 20.29 21.22 20.28 21.29 20.27 21.35 20.26 21.42 20.25 21.49 20.25 21.55 20.24 21.61 20.24 21.67 20.23 21.72 20.23 21.77 20.23 21.86 20.23 21.95 20.23 22.03 20.24 22.12 20.24 22.19 20.24 22.24 20.25 22.28 20.25 22.29 20.25 22.3 20.22 22.32 20.15 22.34 20.07 22.35 20 22.34 19.91 22.3 19.84 22.25 19.77 22.19 19.71 22.12 19.66 22.04 19.62 21.95 19.6 21.84 19.59 21.73 19.59 21.62 19.58 21.5 19.58 21.38 19.59 21.25 19.6 21.12 19.61 21 19.62 20.88 19.64 20.76 19.65 20.65 19.67 20.55 19.69 20.46 19.71 20.37 19.73 20.3 19.75 20.25 19.78 20.21 19.8 20.48 18.87 20.57 18.84 20.65 18.81 20.75 18.78 20.84 18.76 20.93 18.74 21.03 18.73 21.13 18.71 21.24 18.7 21.34 18.69 21.46 18.69 21.57 18.68 21.69 18.68 21.82 18.68 21.95 18.68 22.08 18.69 22.22 18.69 22.32 18.7 22.44 18.72 22.56 18.75 22.68 18.78 22.8 18.83 22.92 18.88 23.04 18.95 23.15 19.02 23.24 19.11 23.33 19.2 23.41 19.3 23.46 19.42 23.5 19.55 23.52 19.68 23.52 19.82 23.5 19.98 23.11 22.02 23.11 22.02 23.11 22.02"/><polyline class="cls-5" points="23.11 22.02 22.95 22.88 21.98 22.88 21.98 22.88 22.01 22.73 22.03 22.58 22.04 22.47 22.06 22.41 22.06 22.41 22 22.48 21.94 22.54 21.87 22.6 21.79 22.65 21.69 22.71 21.6 22.75 21.5 22.8 21.39 22.84 21.28 22.87 21.17 22.9 21.05 22.92 20.94 22.94 20.83 22.95 20.71 22.95 20.61 22.94 20.5 22.92 20.5 22.92 20.36 22.89 20.24 22.85 20.13 22.8 20.04 22.74 19.95 22.68 19.87 22.61 19.81 22.54 19.76 22.46 19.71 22.38 19.67 22.29 19.64 22.21 19.62 22.12 19.6 22.03 19.59 21.94 19.58 21.86 19.58 21.77 19.58 21.77 19.59 21.62 19.62 21.48 19.66 21.34 19.71 21.21 19.77 21.09 19.84 20.98 19.92 20.87 20.01 20.77 20.11 20.68 20.22 20.6 20.33 20.52 20.45 20.46 20.57 20.41 20.7 20.37 20.83 20.33 20.96 20.31 20.96 20.31 20.97 20.31 20.99 20.3 21.02 20.3 21.06 20.3 21.11 20.29 21.16 20.29 21.22 20.28 21.29 20.27 21.35 20.26 21.42 20.25 21.49 20.25 21.55 20.24 21.61 20.24 21.67 20.23 21.72 20.23 21.77 20.23 21.77 20.23 21.86 20.23 21.95 20.23 22.03 20.24 22.12 20.24 22.19 20.24 22.24 20.25 22.28 20.25 22.29 20.25 22.29 20.25 22.3 20.22 22.32 20.15 22.34 20.07 22.35 20 22.35 20 22.34 19.91 22.3 19.84 22.25 19.77 22.19 19.71 22.12 19.66 22.04 19.62 21.95 19.6 21.84 19.59 21.84 19.59 21.73 19.59 21.62 19.58 21.5 19.58 21.38 19.59 21.25 19.6 21.12 19.61 21 19.62 20.88 19.64 20.76 19.65 20.65 19.67 20.55 19.69 20.46 19.71 20.37 19.73 20.3 19.75 20.25 19.78 20.21 19.8 20.48 18.87 20.48 18.87 20.57 18.84 20.65 18.81 20.75 18.78 20.84 18.76 20.93 18.74 21.03 18.73 21.13 18.71 21.24 18.7 21.34 18.69 21.46 18.69 21.57 18.68 21.69 18.68 21.82 18.68 21.95 18.68 22.08 18.69 22.22 18.69 22.22 18.69 22.32 18.7 22.44 18.72 22.56 18.75 22.68 18.78 22.8 18.83 22.92 18.88 23.04 18.95 23.15 19.02 23.24 19.11 23.33 19.2 23.41 19.3 23.46 19.42 23.5 19.55 23.52 19.68 23.52 19.82 23.5 19.98 23.11 22.02"/><polygon class="cls-3" points="22.18 21.01 22.17 20.99 22.16 20.98 22.14 20.96 22.1 20.95 22.05 20.95 22 20.94 21.95 20.94 21.89 20.94 21.82 20.95 21.76 20.95 21.7 20.96 21.64 20.97 21.58 20.98 21.52 20.99 21.48 21 21.43 21.01 21.41 21.02 21.38 21.03 21.33 21.05 21.29 21.07 21.24 21.09 21.19 21.12 21.14 21.14 21.09 21.18 21.03 21.21 20.98 21.25 20.93 21.3 20.89 21.35 20.85 21.4 20.83 21.45 20.8 21.51 20.79 21.57 20.79 21.71 20.81 21.81 20.84 21.89 20.89 21.95 20.95 21.99 21.02 22.01 21.08 22.02 21.14 22.02 21.26 22.02 21.36 22.01 21.46 21.99 21.55 21.97 21.63 21.94 21.7 21.91 21.77 21.87 21.83 21.83 21.88 21.79 21.93 21.75 21.96 21.7 22 21.66 22.02 21.61 22.05 21.56 22.07 21.52 22.08 21.48 22.11 21.37 22.14 21.24 22.16 21.11 22.18 21.01 22.18 21.01 22.18 21.01"/><polygon class="cls-4" points="14.96 22.88 13.91 22.88 14.79 17.8 16.62 17.8 16.79 20.82 18.06 17.8 19.97 17.8 19.07 22.88 18.02 22.88 18.69 19.09 18.64 19.09 17.07 22.88 15.88 22.88 15.87 22.73 15.85 22.3 15.81 21.7 15.77 21.01 15.73 20.32 15.7 19.71 15.67 19.27 15.66 19.09 15.65 19.09 15.63 19.09 15.6 19.09 15.6 19.09 14.96 22.88 14.96 22.88 14.96 22.88"/><polyline class="cls-5" points="14.96 22.88 13.91 22.88 14.79 17.8 16.62 17.8 16.79 20.82 18.06 17.8 19.97 17.8 19.07 22.88 18.02 22.88 18.69 19.09 18.64 19.09 17.07 22.88 15.88 22.88 15.88 22.88 15.87 22.73 15.85 22.3 15.81 21.7 15.77 21.01 15.73 20.32 15.7 19.71 15.67 19.27 15.66 19.09 15.66 19.09 15.65 19.09 15.63 19.09 15.6 19.09 15.6 19.09 14.96 22.88"/><polygon class="cls-4" points="42.33 22.02 42.17 22.88 41.2 22.88 41.21 22.73 41.22 22.59 41.22 22.48 41.22 22.43 41.17 22.49 41.11 22.55 41.04 22.61 40.97 22.66 40.88 22.71 40.79 22.76 40.7 22.8 40.6 22.84 40.49 22.87 40.38 22.9 40.28 22.92 40.17 22.94 40.06 22.95 39.95 22.95 39.84 22.94 39.74 22.92 39.6 22.89 39.48 22.85 39.37 22.8 39.27 22.74 39.18 22.68 39.11 22.61 39.05 22.54 38.99 22.46 38.94 22.38 38.91 22.29 38.88 22.21 38.86 22.12 38.84 22.03 38.83 21.94 38.82 21.86 38.82 21.77 38.83 21.62 38.86 21.48 38.89 21.34 38.94 21.21 39 21.09 39.07 20.98 39.15 20.87 39.24 20.77 39.34 20.68 39.45 20.6 39.56 20.52 39.68 20.46 39.8 20.41 39.93 20.37 40.06 20.33 40.19 20.31 40.2 20.31 40.22 20.3 40.24 20.3 40.28 20.3 40.33 20.29 40.38 20.29 40.44 20.28 40.51 20.27 40.57 20.26 40.64 20.25 40.71 20.25 40.77 20.24 40.84 20.24 40.89 20.23 40.94 20.23 40.98 20.23 41.08 20.23 41.17 20.23 41.26 20.24 41.35 20.24 41.42 20.24 41.48 20.25 41.52 20.25 41.53 20.25 41.54 20.22 41.55 20.15 41.56 20.07 41.57 20 41.55 19.91 41.52 19.84 41.47 19.77 41.41 19.71 41.35 19.66 41.26 19.62 41.18 19.6 41.09 19.59 40.98 19.59 40.86 19.58 40.74 19.58 40.62 19.59 40.49 19.6 40.37 19.61 40.24 19.62 40.12 19.64 40.01 19.65 39.89 19.67 39.79 19.69 39.7 19.71 39.61 19.73 39.54 19.75 39.49 19.78 39.45 19.8 39.72 18.87 39.8 18.84 39.89 18.81 39.98 18.78 40.08 18.76 40.17 18.74 40.27 18.73 40.37 18.71 40.47 18.7 40.58 18.69 40.7 18.69 40.81 18.68 40.93 18.68 41.05 18.68 41.17 18.68 41.3 18.69 41.44 18.69 41.54 18.7 41.66 18.72 41.78 18.75 41.9 18.78 42.02 18.83 42.14 18.88 42.26 18.95 42.37 19.02 42.47 19.11 42.55 19.2 42.63 19.3 42.69 19.42 42.73 19.55 42.76 19.68 42.76 19.82 42.74 19.98 42.33 22.02 42.33 22.02 42.33 22.02"/><polygon class="cls-4" points="42.17 22.91 42.2 22.89 42.36 22.03 42.31 22.02 42.15 22.88 42.17 22.86 42.17 22.91 42.19 22.91 42.2 22.89 42.17 22.91 42.17 22.91 42.17 22.91"/><polygon class="cls-4" points="41.18 22.88 41.2 22.91 42.17 22.91 42.17 22.86 41.2 22.86 41.23 22.88 41.18 22.88 41.18 22.91 41.2 22.91 41.18 22.88 41.18 22.88 41.18 22.88"/><polygon class="cls-4" points="41.24 22.45 41.21 22.42 41.19 22.48 41.19 22.59 41.19 22.73 41.18 22.88 41.23 22.88 41.23 22.73 41.24 22.59 41.24 22.48 41.24 22.45 41.2 22.42 41.24 22.45 41.24 22.45 41.24 22.45"/><polygon class="cls-4" points="39.73 22.95 39.73 22.95 39.84 22.96 39.95 22.97 40.06 22.97 40.17 22.96 40.28 22.95 40.39 22.93 40.5 22.9 40.61 22.86 40.7 22.83 40.8 22.78 40.9 22.73 40.98 22.68 41.06 22.62 41.13 22.57 41.19 22.51 41.24 22.45 41.2 22.42 41.15 22.48 41.1 22.53 41.03 22.59 40.95 22.64 40.87 22.69 40.78 22.73 40.69 22.78 40.59 22.82 40.49 22.85 40.38 22.88 40.27 22.9 40.17 22.91 40.06 22.92 39.95 22.93 39.84 22.91 39.74 22.9 39.74 22.9 39.73 22.95 39.73 22.95 39.73 22.95"/><polygon class="cls-4" points="38.8 21.77 38.8 21.77 38.8 21.86 38.81 21.94 38.82 22.04 38.84 22.13 38.86 22.21 38.89 22.3 38.92 22.39 38.97 22.47 39.03 22.55 39.09 22.62 39.17 22.7 39.25 22.76 39.35 22.82 39.47 22.87 39.59 22.91 39.73 22.95 39.74 22.9 39.6 22.86 39.48 22.83 39.38 22.78 39.28 22.72 39.2 22.66 39.13 22.59 39.06 22.52 39.01 22.45 38.97 22.36 38.93 22.28 38.9 22.2 38.88 22.12 38.87 22.03 38.86 21.94 38.85 21.86 38.85 21.77 38.85 21.77 38.8 21.77 38.8 21.77 38.8 21.77"/><polygon class="cls-4" points="40.19 20.29 40.19 20.29 40.05 20.31 39.92 20.34 39.79 20.39 39.67 20.44 39.55 20.5 39.43 20.58 39.33 20.66 39.23 20.75 39.13 20.85 39.05 20.96 38.98 21.07 38.92 21.2 38.87 21.34 38.83 21.47 38.81 21.62 38.8 21.77 38.85 21.77 38.86 21.62 38.88 21.48 38.91 21.35 38.96 21.22 39.02 21.1 39.09 20.99 39.17 20.88 39.26 20.79 39.36 20.7 39.46 20.62 39.57 20.55 39.69 20.49 39.81 20.43 39.94 20.39 40.06 20.36 40.19 20.33 40.19 20.33 40.19 20.29 40.19 20.29 40.19 20.29"/><polygon class="cls-4" points="40.98 20.2 40.98 20.2 40.94 20.2 40.89 20.21 40.84 20.22 40.77 20.22 40.71 20.23 40.64 20.23 40.57 20.24 40.51 20.25 40.44 20.25 40.38 20.26 40.33 20.27 40.28 20.27 40.24 20.28 40.21 20.28 40.2 20.29 40.19 20.29 40.19 20.33 40.2 20.33 40.22 20.33 40.24 20.32 40.28 20.32 40.33 20.31 40.38 20.31 40.44 20.3 40.51 20.29 40.57 20.29 40.64 20.28 40.71 20.27 40.77 20.27 40.84 20.26 40.89 20.26 40.94 20.26 40.98 20.26 40.98 20.26 40.98 20.2 40.98 20.2 40.98 20.2"/><polygon class="cls-4" points="41.51 20.25 41.53 20.23 41.52 20.23 41.48 20.22 41.42 20.22 41.35 20.21 41.26 20.21 41.17 20.21 41.08 20.2 40.98 20.2 40.98 20.26 41.08 20.26 41.17 20.26 41.26 20.27 41.35 20.27 41.42 20.27 41.48 20.27 41.52 20.27 41.53 20.27 41.55 20.25 41.53 20.27 41.55 20.28 41.55 20.25 41.51 20.25 41.51 20.25 41.51 20.25"/><polygon class="cls-4" points="41.55 20 41.54 20 41.54 20.07 41.53 20.15 41.52 20.22 41.51 20.25 41.55 20.25 41.56 20.23 41.57 20.16 41.59 20.07 41.6 20 41.59 20 41.55 20 41.55 20 41.55 20"/><polygon class="cls-4" points="41.09 19.61 41.09 19.62 41.18 19.62 41.26 19.65 41.33 19.68 41.4 19.73 41.45 19.78 41.5 19.85 41.53 19.92 41.55 20 41.59 20 41.58 19.91 41.55 19.82 41.49 19.75 41.43 19.69 41.36 19.64 41.27 19.6 41.18 19.58 41.09 19.57 41.09 19.57 41.09 19.61 41.09 19.61 41.09 19.61"/><polygon class="cls-4" points="39.42 19.8 39.46 19.82 39.5 19.8 39.55 19.78 39.62 19.75 39.7 19.73 39.8 19.71 39.9 19.69 40.01 19.67 40.12 19.66 40.24 19.64 40.37 19.63 40.49 19.62 40.62 19.61 40.74 19.61 40.86 19.61 40.98 19.61 41.09 19.61 41.09 19.57 40.98 19.57 40.86 19.56 40.74 19.56 40.62 19.57 40.49 19.57 40.37 19.58 40.24 19.6 40.12 19.61 40 19.63 39.89 19.65 39.79 19.67 39.7 19.68 39.61 19.71 39.54 19.73 39.48 19.76 39.43 19.79 39.47 19.81 39.42 19.8 39.42 19.8 39.42 19.8"/><polygon class="cls-4" points="39.71 18.85 39.7 18.87 39.42 19.8 39.47 19.81 39.74 18.88 39.73 18.89 39.71 18.85 39.7 18.85 39.7 18.87 39.71 18.85 39.71 18.85 39.71 18.85"/><polygon class="cls-4" points="41.44 18.67 41.44 18.67 41.3 18.66 41.17 18.66 41.05 18.66 40.93 18.66 40.81 18.66 40.7 18.67 40.58 18.67 40.47 18.68 40.37 18.68 40.27 18.7 40.17 18.72 40.07 18.74 39.98 18.76 39.88 18.78 39.8 18.81 39.71 18.85 39.73 18.89 39.81 18.86 39.9 18.83 39.99 18.8 40.08 18.78 40.18 18.76 40.27 18.75 40.37 18.73 40.47 18.73 40.58 18.72 40.7 18.71 40.81 18.71 40.93 18.71 41.05 18.71 41.17 18.71 41.3 18.72 41.44 18.72 41.44 18.72 41.44 18.67 41.44 18.67 41.44 18.67"/><polygon class="cls-4" points="42.76 19.98 42.76 19.98 42.78 19.82 42.78 19.68 42.76 19.54 42.71 19.41 42.65 19.29 42.57 19.18 42.48 19.09 42.38 19 42.27 18.93 42.16 18.86 42.03 18.81 41.91 18.76 41.78 18.73 41.66 18.7 41.54 18.68 41.44 18.67 41.44 18.72 41.54 18.73 41.66 18.74 41.78 18.77 41.9 18.81 42.02 18.85 42.13 18.91 42.25 18.97 42.35 19.04 42.45 19.13 42.53 19.22 42.61 19.32 42.67 19.43 42.71 19.55 42.74 19.68 42.74 19.82 42.72 19.98 42.72 19.98 42.76 19.98 42.76 19.98 42.76 19.98"/><polygon class="cls-4" points="42.36 22.03 42.36 22.03 42.76 19.98 42.72 19.98 42.31 22.02 42.31 22.02 42.36 22.03 42.36 22.03 42.36 22.03"/><polygon class="cls-2" points="41.4 21.01 41.39 20.99 41.37 20.97 41.35 20.96 41.31 20.95 41.26 20.94 41.22 20.94 41.16 20.94 41.1 20.94 41.03 20.95 40.97 20.96 40.91 20.97 40.85 20.98 40.8 20.99 40.74 20.99 40.7 21.01 40.66 21.01 40.63 21.02 40.6 21.03 40.56 21.04 40.52 21.06 40.47 21.08 40.42 21.1 40.37 21.13 40.32 21.16 40.27 21.2 40.22 21.24 40.17 21.28 40.13 21.34 40.09 21.39 40.07 21.45 40.05 21.51 40.03 21.57 40.03 21.71 40.05 21.81 40.08 21.89 40.13 21.95 40.18 21.99 40.25 22.01 40.32 22.02 40.38 22.02 40.5 22.02 40.61 22.01 40.71 21.99 40.8 21.96 40.88 21.93 40.95 21.9 41.02 21.86 41.09 21.81 41.14 21.77 41.19 21.72 41.23 21.67 41.26 21.62 41.29 21.57 41.31 21.53 41.33 21.48 41.34 21.44 41.35 21.33 41.37 21.22 41.39 21.11 41.4 21.01 41.4 21.01 41.4 21.01"/><polygon class="cls-4" points="49.38 22.35 49.38 22.26 49.41 22.16 49.47 22.07 49.53 21.99 49.62 21.92 49.71 21.87 49.81 21.84 49.92 21.83 50.03 21.84 50.13 21.87 50.22 21.92 50.3 21.99 50.37 22.07 50.42 22.16 50.45 22.26 50.46 22.35 50.34 22.35 50.34 22.28 50.32 22.2 50.28 22.12 50.23 22.05 50.16 22 50.09 21.96 50.01 21.93 49.92 21.93 49.83 21.93 49.74 21.96 49.67 22 49.61 22.05 49.56 22.12 49.52 22.2 49.49 22.28 49.49 22.35 49.38 22.35 49.38 22.35 49.38 22.35"/><polygon class="cls-4" points="49.72 22.35 49.72 22.12 49.94 22.12 49.98 22.13 50.03 22.13 50.06 22.14 50.08 22.16 50.1 22.18 50.12 22.21 50.13 22.23 50.13 22.26 50.13 22.3 50.12 22.32 50.11 22.35 50.1 22.35 49.94 22.35 49.95 22.35 49.98 22.35 50 22.34 50.02 22.33 50.04 22.32 50.05 22.31 50.05 22.29 50.05 22.26 50.05 22.24 50.04 22.23 50.03 22.22 50.02 22.21 50 22.21 49.98 22.2 49.96 22.2 49.94 22.2 49.82 22.2 49.82 22.35 49.72 22.35 49.72 22.35 49.72 22.35"/><polygon class="cls-4" points="49.38 22.35 49.37 22.38 49.38 22.49 49.41 22.59 49.47 22.69 49.53 22.76 49.62 22.83 49.71 22.88 49.81 22.91 49.92 22.92 50.03 22.91 50.13 22.88 50.22 22.83 50.3 22.76 50.37 22.69 50.42 22.59 50.45 22.49 50.46 22.38 50.46 22.35 50.34 22.35 50.35 22.38 50.34 22.47 50.32 22.55 50.28 22.63 50.23 22.69 50.16 22.75 50.09 22.79 50.01 22.82 49.92 22.83 49.83 22.82 49.74 22.79 49.67 22.75 49.61 22.69 49.56 22.63 49.52 22.55 49.49 22.47 49.49 22.38 49.49 22.35 49.38 22.35 49.38 22.35 49.38 22.35"/><polygon class="cls-4" points="49.72 22.35 49.72 22.59 49.82 22.59 49.82 22.4 49.92 22.4 50.03 22.59 50.11 22.59 49.99 22.4 50.02 22.4 50.05 22.39 50.07 22.38 50.09 22.36 50.1 22.35 49.94 22.35 49.92 22.36 49.82 22.36 49.82 22.35 49.72 22.35 49.72 22.35 49.72 22.35"/><path class="cls-5" d="M49.37,22.38h0v-.11l0-.1.05-.09.07-.08.08-.07.09,0,.1,0H50l.1,0,.09,0,.08.07.07.08.05.09,0,.1v.11h0v.11l0,.1-.05.09-.07.08-.08.07-.09.05-.1,0h-.22l-.1,0-.09-.05-.08-.07-.07-.08-.05-.09,0-.1v-.11m.45.21h-.1v-.47h.33l0,0,0,0v.08h0v.1l0,0H50l.12.19H50l-.12-.19h-.1v.19m.1-.23H50v0h0v0h-.22v.15h.1m0,.47H50l.09,0,.07,0,.06-.05.05-.07,0-.07,0-.09v-.09h0v-.09l0-.09,0-.08-.05-.07L50.16,22l-.07,0-.09,0h-.18l-.08,0-.07,0-.06.05,0,.07,0,.08,0,.09v.09h0v.09l0,.09,0,.07,0,.07.06.05.07,0,.08,0h.09"/><polygon class="cls-4" points="42.62 22.88 43.72 22.88 43.72 22.88 44.11 20.68 44.12 20.6 44.15 20.51 44.17 20.43 44.2 20.34 44.24 20.25 44.28 20.17 44.34 20.1 44.4 20.02 44.47 19.96 44.55 19.89 44.63 19.84 44.73 19.79 44.85 19.75 44.97 19.72 45.11 19.7 45.26 19.69 45.31 19.69 45.34 19.69 45.35 19.69 45.35 19.69 45.53 18.69 45.42 18.7 45.31 18.71 45.22 18.73 45.13 18.76 45.04 18.79 44.96 18.83 44.88 18.87 44.81 18.92 44.74 18.97 44.67 19.03 44.61 19.09 44.55 19.15 44.49 19.22 44.43 19.29 44.38 19.36 44.32 19.44 44.44 18.74 43.35 18.74 42.62 22.88 42.62 22.88 42.62 22.88 42.62 22.88"/><polyline class="cls-5" points="42.62 22.88 43.72 22.88 43.72 22.88 44.11 20.68 44.11 20.68 44.12 20.6 44.15 20.51 44.17 20.43 44.2 20.34 44.24 20.25 44.28 20.17 44.34 20.1 44.4 20.02 44.47 19.96 44.55 19.89 44.63 19.84 44.73 19.79 44.85 19.75 44.97 19.72 45.11 19.7 45.26 19.69 45.26 19.69 45.31 19.69 45.34 19.69 45.35 19.69 45.35 19.69 45.53 18.69 45.53 18.69 45.42 18.7 45.31 18.71 45.22 18.73 45.13 18.76 45.04 18.79 44.96 18.83 44.88 18.87 44.81 18.92 44.74 18.97 44.67 19.03 44.61 19.09 44.55 19.15 44.49 19.22 44.43 19.29 44.38 19.36 44.32 19.44 44.44 18.74 43.35 18.74 42.62 22.88 42.62 22.88"/><polygon class="cls-4" points="32.37 22.88 33.46 22.88 33.48 22.88 33.85 20.68 33.87 20.6 33.89 20.51 33.91 20.43 33.93 20.36 33.96 20.28 34 20.2 34.05 20.13 34.1 20.07 34.16 20.01 34.23 19.95 34.32 19.91 34.41 19.86 34.52 19.83 34.64 19.8 34.77 19.78 34.92 19.77 34.94 19.77 34.95 19.77 34.97 19.77 34.99 19.77 35.01 19.78 35.02 19.78 35.04 19.79 35.04 19.79 35.05 19.77 35.06 19.72 35.07 19.65 35.09 19.57 35.12 19.47 35.14 19.36 35.18 19.25 35.21 19.14 35.25 19.07 35.28 19 35.32 18.92 35.36 18.86 35.4 18.8 35.42 18.75 35.44 18.73 35.45 18.71 35.45 18.71 35.43 18.71 35.41 18.7 35.38 18.7 35.36 18.7 35.33 18.7 35.3 18.69 35.27 18.69 35.15 18.7 35.05 18.71 34.94 18.73 34.85 18.76 34.76 18.79 34.68 18.82 34.61 18.86 34.54 18.91 34.47 18.96 34.41 19.02 34.35 19.08 34.29 19.14 34.23 19.21 34.18 19.28 34.12 19.36 34.06 19.44 34.2 18.74 33.09 18.74 32.37 22.88 32.37 22.88 32.37 22.88 32.37 22.88"/><polyline class="cls-5" points="32.37 22.88 33.46 22.88 33.48 22.88 33.85 20.68 33.85 20.68 33.87 20.6 33.89 20.51 33.91 20.43 33.93 20.36 33.96 20.28 34 20.2 34.05 20.13 34.1 20.07 34.16 20.01 34.23 19.95 34.32 19.91 34.41 19.86 34.52 19.83 34.64 19.8 34.77 19.78 34.92 19.77 34.92 19.77 34.94 19.77 34.95 19.77 34.97 19.77 34.99 19.77 35.01 19.78 35.02 19.78 35.04 19.79 35.04 19.79 35.04 19.79 35.05 19.77 35.06 19.72 35.07 19.65 35.09 19.57 35.12 19.47 35.14 19.36 35.18 19.25 35.21 19.14 35.21 19.14 35.25 19.07 35.28 19 35.32 18.92 35.36 18.86 35.4 18.8 35.42 18.75 35.44 18.73 35.45 18.71 35.45 18.71 35.45 18.71 35.43 18.71 35.41 18.7 35.38 18.7 35.36 18.7 35.33 18.7 35.3 18.69 35.27 18.69 35.27 18.69 35.15 18.7 35.05 18.71 34.94 18.73 34.85 18.76 34.76 18.79 34.68 18.82 34.61 18.86 34.54 18.91 34.47 18.96 34.41 19.02 34.35 19.08 34.29 19.14 34.23 19.21 34.18 19.28 34.12 19.36 34.06 19.44 34.2 18.74 33.09 18.74 32.37 22.88 32.37 22.88"/><polygon class="cls-2" points="49.38 26.96 49.38 26.94 49.41 26.84 49.47 26.75 49.53 26.68 49.62 26.61 49.71 26.57 49.81 26.54 49.92 26.53 50.03 26.54 50.13 26.57 50.22 26.61 50.3 26.68 50.37 26.75 50.42 26.84 50.45 26.94 50.45 26.96 50.34 26.96 50.32 26.88 50.28 26.8 50.23 26.74 50.16 26.68 50.09 26.64 50.01 26.61 49.92 26.61 49.83 26.61 49.74 26.64 49.67 26.68 49.61 26.74 49.56 26.8 49.52 26.88 49.49 26.96 49.38 26.96 49.38 26.96 49.38 26.96"/><polygon class="cls-2" points="49.72 26.96 49.72 26.82 49.94 26.82 49.98 26.82 50.03 26.83 50.06 26.84 50.08 26.85 50.1 26.87 50.12 26.9 50.13 26.92 50.13 26.96 50.05 26.96 50.05 26.94 50.05 26.92 50.04 26.9 50.03 26.9 50.02 26.89 50 26.89 49.98 26.88 49.96 26.88 49.94 26.88 49.82 26.88 49.82 26.96 49.72 26.96 49.72 26.96 49.72 26.96"/><polygon class="cls-2" points="49.37 27.04 49.38 26.96 49.49 26.96 49.49 26.96 49.49 27.04 49.37 27.04 49.37 27.04 49.37 27.04"/><polygon class="cls-2" points="49.72 27.04 49.72 26.96 49.82 26.96 49.82 27.04 49.92 27.04 49.95 27.03 49.98 27.02 50 27.02 50.02 27.01 50.04 27 50.05 26.99 50.05 26.97 50.05 26.96 50.13 26.96 50.13 26.96 50.13 26.99 50.12 27.01 50.11 27.03 50.09 27.04 49.72 27.04 49.72 27.04 49.72 27.04"/><polygon class="cls-2" points="50.35 27.04 50.34 26.96 50.34 26.96 50.45 26.96 50.46 27.04 50.35 27.04 50.35 27.04 50.35 27.04"/><polygon class="cls-2" points="49.37 27.04 49.37 27.05 49.38 27.17 49.41 27.27 49.47 27.36 49.53 27.45 49.62 27.51 49.71 27.56 49.81 27.59 49.92 27.6 50.03 27.59 50.13 27.56 50.22 27.51 50.3 27.45 50.37 27.36 50.42 27.27 50.45 27.17 50.46 27.05 50.46 27.04 50.35 27.04 50.35 27.05 50.34 27.15 50.32 27.23 50.28 27.31 50.23 27.37 50.16 27.43 50.09 27.47 50.01 27.5 49.92 27.5 49.83 27.5 49.74 27.47 49.67 27.43 49.61 27.37 49.56 27.31 49.52 27.23 49.49 27.15 49.49 27.05 49.49 27.04 49.37 27.04 49.37 27.04 49.37 27.04"/><polygon class="cls-2" points="49.72 27.04 49.72 27.27 49.82 27.27 49.82 27.07 49.92 27.07 50.03 27.27 50.11 27.27 49.99 27.07 50.02 27.07 50.05 27.07 50.07 27.06 50.09 27.04 50.09 27.04 49.72 27.04 49.72 27.04 49.72 27.04"/><path class="cls-4" d="M32.49,20l0-.23-.05-.21-.08-.18-.1-.16-.12-.13L32,19l-.14-.09-.15-.07-.16-.06-.16,0-.16,0-.16,0h-.15l-.31,0-.28,0-.25.07-.22.1-.19.12-.17.13-.15.15-.12.16-.11.16-.09.17-.07.17-.06.17,0,.16,0,.15,0,.14,0,.12,0,.32v.29l0,.26.07.23L29,22l.11.18.13.16.15.13.16.11.17.1.18.07.19.06.19,0,.19,0,.19,0h1.09l.06,0,.06,0,.06,0,.06,0,.06,0,.06,0,.16-1-.11.07-.11.06-.11,0-.11,0-.1,0-.11,0-.11,0-.1,0h-.71l-.1,0-.08,0-.08,0-.08,0-.07,0-.07,0-.06-.06-.06-.06L30,21.64l0-.07,0-.07,0-.07,0-.07,0-.07v-.19h2.51l0-.24.06-.33,0-.29Zm-1,.36H30v-.05l0-.08,0-.08,0-.08,0-.07,0-.07,0-.06,0-.06.05-.05,0,0,.06,0,.06,0,.07,0,.07,0,.07,0h.28l.06,0,.06,0,.06,0,.06,0,.05,0,0,0,0,.05,0,.06,0,.07,0,.07v.35Z"/></g></g></svg>