<svg xmlns="http://www.w3.org/2000/svg" xmlns:xlink="http://www.w3.org/1999/xlink" viewBox="0 0 39.78 39.78"><defs><style>.cls-1{isolation:isolate;}.cls-2{fill:#bd173d;}.cls-10,.cls-3,.cls-5,.cls-6,.cls-7,.cls-8,.cls-9{opacity:0.5;mix-blend-mode:multiply;}.cls-3{fill:url(#linear-gradient);}.cls-4{fill:#fff;}.cls-5{fill:url(#linear-gradient-2);}.cls-6{fill:url(#linear-gradient-3);}.cls-7{fill:url(#linear-gradient-4);}.cls-8{fill:url(#linear-gradient-5);}.cls-9{fill:url(#linear-gradient-6);}.cls-10{fill:url(#linear-gradient-7);}</style><linearGradient id="linear-gradient" x1="34.11" y1="19.98" x2="37.41" y2="22.53" gradientUnits="userSpaceOnUse"><stop offset="0"/><stop offset="0.14" stop-color="#2e2e2e"/><stop offset="0.38" stop-color="#777"/><stop offset="0.59" stop-color="#b1b1b1"/><stop offset="0.77" stop-color="#dcdcdc"/><stop offset="0.92" stop-color="#f5f5f5"/><stop offset="1" stop-color="#fff"/></linearGradient><linearGradient id="linear-gradient-2" x1="15.1" y1="34.21" x2="16.8" y2="35.16" gradientUnits="userSpaceOnUse"><stop offset="0"/><stop offset="0.05" stop-color="#171717"/><stop offset="0.2" stop-color="#545454"/><stop offset="0.35" stop-color="#888"/><stop offset="0.5" stop-color="#b3b3b3"/><stop offset="0.64" stop-color="#d4d4d4"/><stop offset="0.77" stop-color="#ececec"/><stop offset="0.9" stop-color="#fafafa"/><stop offset="1" stop-color="#fff"/></linearGradient><linearGradient id="linear-gradient-3" x1="9.11" y1="9.18" x2="11.26" y2="10.12" gradientUnits="userSpaceOnUse"><stop offset="0"/><stop offset="0.02" stop-color="#060606"/><stop offset="0.3" stop-color="#5d5d5d"/><stop offset="0.55" stop-color="#a2a2a2"/><stop offset="0.76" stop-color="#d5d5d5"/><stop offset="0.91" stop-color="#f3f3f3"/><stop offset="1" stop-color="#fff"/></linearGradient><linearGradient id="linear-gradient-4" x1="5.45" y1="16.04" x2="6.2" y2="16.36" xlink:href="#linear-gradient-3"/><linearGradient id="linear-gradient-5" x1="34.76" y1="11.84" x2="35.52" y2="12.16" xlink:href="#linear-gradient-3"/><linearGradient id="linear-gradient-6" x1="30.76" y1="27.29" x2="31.51" y2="27.62" xlink:href="#linear-gradient-3"/><linearGradient id="linear-gradient-7" x1="22.64" y1="4.15" x2="23.4" y2="4.47" xlink:href="#linear-gradient-3"/></defs><title>doce</title><g class="cls-1"><g id="Layer_2" data-name="Layer 2"><g id="Capa_1" data-name="Capa 1"><circle class="cls-2" cx="19.89" cy="19.89" r="19.89"/><polygon class="cls-3" points="35.12 21.88 37.52 23.57 38.39 22.17 35.46 20.06 35.12 20.36 34.73 20.97 35.12 21.88"/><path class="cls-4" d="M35.46,21.88l.74-.74V20.8l-.74-.74h-.34l-.74.74v.34l.74.74Zm-.17-1.3.39.39-.39.39L34.9,21Z"/><polygon class="cls-5" points="15.65 35.55 17.08 36.35 18.01 34.8 15.65 33.63 15.65 34.21 15.08 34.59 15.65 34.99 15.65 35.55"/><path class="cls-4" d="M14.88,34.78a.56.56,0,0,1,.57.57.19.19,0,1,0,.38,0,.56.56,0,0,1,.57-.57.19.19,0,0,0,0-.38.56.56,0,0,1-.57-.57.19.19,0,1,0-.38,0,.56.56,0,0,1-.57.57.19.19,0,1,0,0,.38Zm.76-.38a.91.91,0,0,0,.19.19.89.89,0,0,0-.19.19.9.9,0,0,0-.19-.19A.92.92,0,0,0,15.65,34.4Z"/><polygon class="cls-6" points="9.68 10.02 11.69 11.21 12.28 9.96 9.84 8.6 9.68 10.02"/><path class="cls-4" d="M9.35,9.58h.25v.25a.25.25,0,1,0,.49,0V9.58h.25a.25.25,0,1,0,0-.49h-.25V8.84a.25.25,0,0,0-.49,0v.25H9.35a.25.25,0,1,0,0,.49Z"/><polygon class="cls-7" points="5.51 16.26 6.32 16.75 6.56 16.3 5.76 15.84 5.51 16.26"/><path class="cls-4" d="M5.64,16.3a.25.25,0,1,0-.25-.25A.23.23,0,0,0,5.64,16.3Z"/><polygon class="cls-8" points="34.83 12.06 35.64 12.55 35.88 12.1 35.08 11.64 34.83 12.06"/><path class="cls-4" d="M34.95,12.1a.25.25,0,1,0-.25-.25A.23.23,0,0,0,34.95,12.1Z"/><polygon class="cls-9" points="30.82 27.52 31.63 28.01 31.87 27.55 31.07 27.09 30.82 27.52"/><path class="cls-4" d="M31,27.55a.25.25,0,1,0-.25-.25A.23.23,0,0,0,31,27.55Z"/><polygon class="cls-10" points="22.71 4.37 23.52 4.86 23.76 4.41 22.96 3.95 22.71 4.37"/><path class="cls-4" d="M22.84,4.41a.25.25,0,1,0-.25-.25A.23.23,0,0,0,22.84,4.41Z"/><path class="cls-4" d="M26.78,26.28H23l.17-.15a.37.37,0,0,0,0-.52.38.38,0,0,0-.52,0,2.64,2.64,0,0,1-1.79.7H18.87a2.65,2.65,0,0,1-2.65-2.65V20h7.35v.38a.37.37,0,0,0,.19.32.38.38,0,0,0,.37,0,1.68,1.68,0,0,1,1-.24,1.66,1.66,0,0,1,1.54,1.67,1.67,1.67,0,0,1-2.56,1.42.38.38,0,0,0-.36,0,.37.37,0,0,0-.2.3,2.66,2.66,0,0,1-.11.54.37.37,0,0,0,.24.46.38.38,0,0,0,.46-.24l.05-.19a2.42,2.42,0,1,0,.1-4.6v-.11a.44.44,0,0,0-.44-.44h-8a.44.44,0,0,0-.44.44v3.89a3.41,3.41,0,0,0,1.27,2.65H13.44a.37.37,0,0,0-.37.37,1.75,1.75,0,0,0,1.74,1.74h10.6a1.74,1.74,0,0,0,1.74-1.74A.37.37,0,0,0,26.78,26.28Zm-1.37,1.37H14.81a1,1,0,0,1-.93-.63H26.34a1,1,0,0,1-.93.63Z"/><path class="cls-4" d="M22.09,15.34a1.77,1.77,0,0,0-1.73-1.44,1.74,1.74,0,0,0-.69.14c-.61-.15-1,0-1.25.38l-4.86-2.59a.82.82,0,1,0-.69,1.48l5.22,2.1a1.76,1.76,0,0,0,0,.59,1.79,1.79,0,0,0,1.13,1.25,3.26,3.26,0,0,0,1.37.31,2.75,2.75,0,0,0,.61-.07,2,2,0,0,0,1.38-1v0c.1-.21.09-.57-.5-1.1Zm.09.91h0s-.07.06-.2.08a1.74,1.74,0,0,0,.1-.35c.1.15.11.23.1.26Zm-1.83-1.91a1.32,1.32,0,0,1,1.31,1.14,1.27,1.27,0,0,1,0,.18,1.31,1.31,0,0,1-.18.67,5.85,5.85,0,0,1-1.61-.51,4.13,4.13,0,0,1-.81-.47,1.32,1.32,0,0,1,.71-.88A1.3,1.3,0,0,1,20.35,14.34Zm-1.27.09a1.75,1.75,0,0,0-.34.5.4.4,0,0,1,0-.26h0a.37.37,0,0,1,.3-.24Zm-6.26-1.75a.37.37,0,0,1,.23-.49l.12,0a.37.37,0,0,1,.17,0l4.87,2.6-.06.14L13,12.9A.37.37,0,0,1,12.83,12.69Zm8.27,4.38a2.65,2.65,0,0,1-1.69-.22,1.24,1.24,0,0,1-.88-1.4l.15.16a4,4,0,0,0,1,.63,6,6,0,0,0,1.89.56h.14A1.79,1.79,0,0,1,21.1,17.06Z"/><path class="cls-4" d="M20.11,15a.22.22,0,1,0-.16-.06A.22.22,0,0,0,20.11,15Z"/><path class="cls-4" d="M20.82,15.07a.22.22,0,1,0-.22-.22.22.22,0,0,0,.22.22Z"/><path class="cls-4" d="M20.22,15.61a.22.22,0,0,0,.22.22.22.22,0,1,0-.16-.38A.23.23,0,0,0,20.22,15.61Z"/><path class="cls-4" d="M21.07,15.76a.22.22,0,1,0-.07-.16A.22.22,0,0,0,21.07,15.76Z"/><path class="cls-4" d="M19.42,15.41a.22.22,0,1,0-.07-.16A.22.22,0,0,0,19.42,15.41Z"/></g></g></g></svg>