<svg xmlns="http://www.w3.org/2000/svg" xmlns:xlink="http://www.w3.org/1999/xlink" viewBox="0 0 18.72 18.72"><defs><style>.cls-1{isolation:isolate;}.cls-2{fill:#bd173d;}.cls-3{opacity:0.4;fill:url(#linear-gradient);}.cls-10,.cls-11,.cls-3,.cls-4,.cls-6,.cls-7,.cls-8,.cls-9{mix-blend-mode:multiply;}.cls-10,.cls-11,.cls-4,.cls-6,.cls-7,.cls-8,.cls-9{opacity:0.5;}.cls-4{fill:url(#linear-gradient-2);}.cls-5{fill:#fff;}.cls-6{fill:url(#linear-gradient-3);}.cls-7{fill:url(#linear-gradient-4);}.cls-8{fill:url(#linear-gradient-5);}.cls-9{fill:url(#linear-gradient-6);}.cls-10{fill:url(#linear-gradient-7);}.cls-11{fill:url(#linear-gradient-8);}</style><linearGradient id="linear-gradient" x1="6.06" y1="9.33" x2="12.66" y2="13.26" gradientUnits="userSpaceOnUse"><stop offset="0"/><stop offset="0.02" stop-color="#060606"/><stop offset="0.3" stop-color="#5d5d5d"/><stop offset="0.55" stop-color="#a2a2a2"/><stop offset="0.76" stop-color="#d5d5d5"/><stop offset="0.91" stop-color="#f3f3f3"/><stop offset="1" stop-color="#fff"/></linearGradient><linearGradient id="linear-gradient-2" x1="16.05" y1="9.4" x2="17.61" y2="10.6" gradientUnits="userSpaceOnUse"><stop offset="0"/><stop offset="0.14" stop-color="#2e2e2e"/><stop offset="0.38" stop-color="#777"/><stop offset="0.59" stop-color="#b1b1b1"/><stop offset="0.77" stop-color="#dcdcdc"/><stop offset="0.92" stop-color="#f5f5f5"/><stop offset="1" stop-color="#fff"/></linearGradient><linearGradient id="linear-gradient-3" x1="7.11" y1="16.1" x2="7.91" y2="16.55" gradientUnits="userSpaceOnUse"><stop offset="0"/><stop offset="0.05" stop-color="#171717"/><stop offset="0.2" stop-color="#545454"/><stop offset="0.35" stop-color="#888"/><stop offset="0.5" stop-color="#b3b3b3"/><stop offset="0.64" stop-color="#d4d4d4"/><stop offset="0.77" stop-color="#ececec"/><stop offset="0.9" stop-color="#fafafa"/><stop offset="1" stop-color="#fff"/></linearGradient><linearGradient id="linear-gradient-4" x1="4.29" y1="4.32" x2="5.3" y2="4.76" xlink:href="#linear-gradient"/><linearGradient id="linear-gradient-5" x1="2.56" y1="7.55" x2="2.92" y2="7.7" xlink:href="#linear-gradient"/><linearGradient id="linear-gradient-6" x1="16.36" y1="5.57" x2="16.72" y2="5.73" xlink:href="#linear-gradient"/><linearGradient id="linear-gradient-7" x1="14.48" y1="12.84" x2="14.83" y2="13" xlink:href="#linear-gradient"/><linearGradient id="linear-gradient-8" x1="10.66" y1="1.95" x2="11.01" y2="2.11" xlink:href="#linear-gradient"/></defs><title>doce</title><g class="cls-1"><g id="Layer_2" data-name="Layer 2"><g id="Capa_1" data-name="Capa 1"><circle class="cls-2" cx="9.36" cy="9.36" r="9.36"/><path class="cls-3" d="M6.66,13.3,14,17.52A11,11,0,0,0,17,14.72c.81-1.4,1-1.75,1-1.75L12.42,9.5H11.34a.14.14,0,0,0-.14-.19c-.2,0-3.67.05-3.67.05l-.06,1.86.76,1.28-1.87.11Z"/><polygon class="cls-4" points="16.53 10.3 17.66 11.09 18.07 10.43 16.69 9.44 16.53 9.58 16.34 9.87 16.53 10.3"/><path class="cls-5" d="M16.69,10.3,17,10V9.79l-.35-.35h-.16l-.35.35V10l.35.35Zm-.08-.61.18.18-.18.18-.18-.18Z"/><polygon class="cls-6" points="7.37 16.73 8.04 17.11 8.47 16.38 7.37 15.83 7.37 16.1 7.1 16.28 7.37 16.47 7.37 16.73"/><path class="cls-5" d="M7,16.37a.27.27,0,0,1,.27.27.09.09,0,1,0,.18,0,.27.27,0,0,1,.27-.27.09.09,0,0,0,0-.18.27.27,0,0,1-.27-.27.09.09,0,0,0-.18,0,.26.26,0,0,1-.27.27.09.09,0,1,0,0,.18Zm.36-.18.09.09-.09.09-.09-.09Z"/><polygon class="cls-7" points="4.56 4.72 5.5 5.28 5.78 4.69 4.63 4.05 4.56 4.72"/><path class="cls-5" d="M4.4,4.51h.12v.12a.12.12,0,1,0,.23,0V4.51h.12a.12.12,0,1,0,0-.23H4.75V4.16a.12.12,0,0,0-.23,0v.12H4.4a.12.12,0,0,0,0,.23Z"/><polygon class="cls-8" points="2.6 7.65 2.97 7.88 3.09 7.67 2.71 7.45 2.6 7.65"/><path class="cls-5" d="M2.65,7.67a.12.12,0,1,0-.12-.12A.11.11,0,0,0,2.65,7.67Z"/><polygon class="cls-9" points="16.39 5.68 16.77 5.91 16.89 5.69 16.51 5.48 16.39 5.68"/><path class="cls-5" d="M16.45,5.69a.12.12,0,1,0-.12-.12A.11.11,0,0,0,16.45,5.69Z"/><polygon class="cls-10" points="14.51 12.95 14.89 13.18 15 12.97 14.63 12.75 14.51 12.95"/><path class="cls-5" d="M14.57,13a.12.12,0,1,0-.12-.12A.11.11,0,0,0,14.57,13Z"/><polygon class="cls-11" points="10.69 2.06 11.07 2.29 11.18 2.07 10.81 1.86 10.69 2.06"/><path class="cls-5" d="M10.75,2.07A.12.12,0,1,0,10.64,2,.11.11,0,0,0,10.75,2.07Z"/><path class="cls-5" d="M12.6,12.37H10.85l.08-.07a.18.18,0,0,0,0-.25.18.18,0,0,0-.25,0,1.24,1.24,0,0,1-.84.33h-1a1.25,1.25,0,0,1-1.25-1.25V9.44h3.46v.18a.17.17,0,0,0,.09.15.18.18,0,0,0,.18,0,.79.79,0,0,1,.47-.11.78.78,0,0,1,.73.79.79.79,0,0,1-1.2.67.18.18,0,0,0-.17,0,.17.17,0,0,0-.1.14,1.26,1.26,0,0,1-.05.26.17.17,0,0,0,.12.22.18.18,0,0,0,.22-.11l0-.09a1.14,1.14,0,1,0,0-2.16V9.29a.21.21,0,0,0-.21-.21H7.49a.21.21,0,0,0-.21.21v1.83a1.6,1.6,0,0,0,.6,1.25H6.32a.17.17,0,0,0-.17.17.82.82,0,0,0,.82.82h5a.82.82,0,0,0,.82-.82A.17.17,0,0,0,12.6,12.37ZM12,13H7a.47.47,0,0,1-.44-.3H12.4A.47.47,0,0,1,12,13Z"/><path class="cls-5" d="M10.4,7.22a.83.83,0,0,0-.82-.68.82.82,0,0,0-.33.07c-.29-.07-.48,0-.59.18L6.38,5.57a.38.38,0,1,0-.32.7l2.45,1a.83.83,0,0,0,0,.28A.84.84,0,0,0,9,8.12a1.53,1.53,0,0,0,.64.15,1.29,1.29,0,0,0,.29,0,.92.92,0,0,0,.65-.49h0c0-.1,0-.27-.23-.52Zm0,.43h0s0,0-.09,0a.82.82,0,0,0,0-.16c0,.07.05.11,0,.12Zm-.86-.9a.62.62,0,0,1,.62.54.6.6,0,0,1,0,.08.62.62,0,0,1-.09.32,2.75,2.75,0,0,1-.76-.24A1.94,1.94,0,0,1,9,7.22a.62.62,0,0,1,.33-.41A.61.61,0,0,1,9.58,6.75Zm-.6,0A.82.82,0,0,0,8.82,7a.19.19,0,0,1,0-.12h0A.17.17,0,0,1,9,6.79ZM6,6a.18.18,0,0,1,.11-.23H6.2l.08,0L8.58,7l0,.06-2.41-1A.17.17,0,0,1,6,6ZM9.93,8a1.25,1.25,0,0,1-.8-.1.58.58,0,0,1-.41-.66l.07.07a1.9,1.9,0,0,0,.48.29,2.82,2.82,0,0,0,.89.27h.06A.84.84,0,0,1,9.93,8Z"/><path class="cls-5" d="M9.47,7.06a.1.1,0,1,0-.07,0A.1.1,0,0,0,9.47,7.06Z"/><path class="cls-5" d="M9.8,7.09a.1.1,0,1,0-.07,0A.1.1,0,0,0,9.8,7.09Z"/><path class="cls-5" d="M9.52,7.35a.1.1,0,1,0,.18-.07.1.1,0,0,0-.15,0A.11.11,0,0,0,9.52,7.35Z"/><path class="cls-5" d="M9.91,7.42a.1.1,0,1,0,0-.07A.11.11,0,0,0,9.91,7.42Z"/><path class="cls-5" d="M9.14,7.25a.1.1,0,1,0,0-.07A.11.11,0,0,0,9.14,7.25Z"/></g></g></g></svg>