<svg xmlns="http://www.w3.org/2000/svg" xmlns:xlink="http://www.w3.org/1999/xlink" viewBox="0 0 320 548"><defs><style>.cls-1{fill:none;}.cls-2{clip-path:url(#clip-path);}.cls-3{fill:#583829;}.cls-4{fill:#86583f;}.cls-5{fill:#4d322c;}.cls-6{fill:#694c48;}.cls-7{fill:#6a3514;}.cls-8{fill:#753d1e;}.cls-9{fill:#9b512d;}.cls-10{fill:#b76848;}.cls-11{fill:#432718;}.cls-12{fill:url(#Grano_Redondo);}</style><clipPath id="clip-path"><rect class="cls-1" width="141.07" height="141.07"/></clipPath><pattern id="Grano_Redondo" data-name="Grano Redondo" width="141.07" height="141.07" patternTransform="translate(-53.34 29.93) scale(0.5)" patternUnits="userSpaceOnUse" viewBox="0 0 141.07 141.07"><rect class="cls-1" width="141.07" height="141.07"/><g class="cls-2"><path class="cls-3" d="M39.76,78c-3.15,3.45-4.68,8-3.71,12.16a5.15,5.15,0,0,1-1,0h0A12.1,12.1,0,0,1,23.44,76.55l.1-.65A5.41,5.41,0,0,1,29,71.51h0A11.66,11.66,0,0,1,39.76,78"/><path class="cls-4" d="M35.77,87.9c0,.34,0,.68.08,1a.51.51,0,0,1-.3,0c-3.16-1.22-4.45-4.09-3.63-8.07.91-4.54-1.35-7.19-6.54-7.68A.42.42,0,0,1,25.1,73a5.57,5.57,0,0,1,1-.75c5.37.67,7.79,3.71,6.81,8.62-.7,3.42.32,5.89,2.86,7"/><path class="cls-5" d="M-12,15.19c-4.41,8.61.31,17.35,10.54,19.51h0c3.59.76,7.76-1.08,9.31-4.1l.4-.78c4.41-8.61-.31-17.34-10.54-19.51h0c-3.59-.76-7.76,1.08-9.31,4.1l-.4.78"/><path class="cls-6" d="M4.73,33.67a9.54,9.54,0,0,1-2.35.92A8.22,8.22,0,0,1-3,30.08a8.5,8.5,0,0,1,1.13-8c2.06-4.73-.62-9.19-6.27-10.39a.76.76,0,0,1-.5-.34,9.47,9.47,0,0,1,2.33-1c5.92,1.74,8.59,6.78,6.23,12.1a.71.71,0,0,1-.07.13,7.1,7.1,0,0,0-1,6.68,7.15,7.15,0,0,0,5.35,4,.75.75,0,0,1,.5.35"/><path class="cls-7" d="M-9.21,54.53C-3.87,62.26,6.2,63,13.3,56.08h0a8.06,8.06,0,0,0,1.31-9.71l-.47-.73C8.83,37.25-1.23,36.59-8.37,44.09h0a8.14,8.14,0,0,0-1.31,9.71l.47.73"/><path class="cls-8" d="M15.24,52.89c-2.3,2-4.55,2.85-6.64,2.64-2.43-.24-4.65-2-6.47-5.13-3-5.22-7.19-5.52-12.39-.86a.74.74,0,0,1-.48.19,8.69,8.69,0,0,1,.41-2.38c5.56-4.59,10.44-4,13.77,1.76C6.5,54.42,10.67,55,15.17,50.66a.74.74,0,0,1,.51-.21,8.57,8.57,0,0,1-.43,2.44"/><path class="cls-9" d="M18.15,40.87c9.54,2.33,17.29-3.81,17.31-13.73h0a8.38,8.38,0,0,0-6.06-7.79l-.87-.21C19,16.8,11.25,22.95,11.23,32.87h0a8.38,8.38,0,0,0,6.06,7.79l.86.21"/><path class="cls-10" d="M34.56,23.6c-.55,5.49-5.09,8.35-11.21,6.85-5.24-1.28-9.52,2.06-9.53,7.46a.71.71,0,0,1-.22.53,8.83,8.83,0,0,1-1.45-2c.54-5.75,5.36-9.19,11.2-7.76,5.52,1.35,9.52-1.42,9.53-6.59a.72.72,0,0,1,.2-.51,8.88,8.88,0,0,1,1.47,2"/><path class="cls-5" d="M123.12,126c3.18-6.4.32-12.69-6.38-14h0a6.11,6.11,0,0,0-6.28,3.2l-.29.58c-3.18,6.4-.32,12.69,6.38,14.05h0a6.1,6.1,0,0,0,6.28-3.2l.29-.58"/><path class="cls-6" d="M112.6,112.88a6.47,6.47,0,0,1,1.58-.73,5.07,5.07,0,0,1,3.4,3.19,7,7,0,0,1-1,5.85c-1.51,3.51.13,6.71,3.83,7.47a.46.46,0,0,1,.33.24,6.49,6.49,0,0,1-1.57.75c-3.87-1.14-5.48-4.77-3.75-8.72l.05-.1a5.83,5.83,0,0,0,.86-4.91,4.36,4.36,0,0,0-3.42-2.79.46.46,0,0,1-.32-.24"/><path class="cls-7" d="M118.25,97.29c-5.3-4.51-12.27-3.68-15.57,1.88h0a5.61,5.61,0,0,0,1.23,6.7l.48.43c5.42,5,12.38,4.09,15.57-1.88h0a5.66,5.66,0,0,0-1.23-6.7l-.48-.43"/><path class="cls-8" d="M102.05,101.57A5.46,5.46,0,0,1,106,98.93c1.7-.15,3.57.71,5.5,2.61,3.19,3.12,6.07,2.77,8.57-1a.44.44,0,0,1,.29-.19,6,6,0,0,1,.24,1.65c-2.77,3.81-6.19,4-9.7.6-3.23-3.18-6.16-3-8.27.48a.44.44,0,0,1-.3.21,5.86,5.86,0,0,1-.24-1.7"/><path class="cls-9" d="M100.64,108.19c-6.64-1.69-12,2.52-12,9.41h0A5.9,5.9,0,0,0,92.81,123l.6.15c6.64,1.69,12-2.52,12-9.41h0a5.9,5.9,0,0,0-4.22-5.45l-.6-.15"/><path class="cls-10" d="M89.23,120.05c.38-3.81,3.54-5.76,7.8-4.67a5,5,0,0,0,6.63-5.11.49.49,0,0,1,.15-.37,6.21,6.21,0,0,1,1,1.42c-.38,4-3.73,6.34-7.8,5.3-3.84-1-6.63.92-6.64,4.51a.49.49,0,0,1-.14.35,6.29,6.29,0,0,1-1-1.43"/><path class="cls-11" d="M46.43,44.68,48.08,43v-.77l-1.65-1.65h-.77L44,42.26V43l1.65,1.64ZM46,41.77l.88.88-.88.88-.88-.88Z"/><path class="cls-11" d="M123.17,40.47l1.65-1.64v-.77l-1.65-1.65h-.77l-1.65,1.65v.77l1.65,1.64Zm-.38-2.91.88.88-.88.88-.88-.88Z"/><path class="cls-11" d="M102.43,130.68l1.65-1.64v-.77l-1.65-1.65h-.77L100,128.27V129l1.65,1.64Zm-.38-2.91.88.88-.88.88-.88-.88Z"/><path class="cls-11" d="M12.72,8.95a1.62,1.62,0,0,1,1.65,1.65.55.55,0,0,0,1.1,0,1.62,1.62,0,0,1,1.64-1.65.55.55,0,1,0,0-1.1,1.62,1.62,0,0,1-1.64-1.64.55.55,0,1,0-1.1,0,1.62,1.62,0,0,1-1.65,1.64.55.55,0,1,0,0,1.1Zm2.19-1.1a2.61,2.61,0,0,0,.55.55,2.61,2.61,0,0,0-.55.55,2.58,2.58,0,0,0-.55-.55A2.58,2.58,0,0,0,14.91,7.85Z"/><path class="cls-11" d="M48.46,66.14l1.64-1.64v-.77l-1.64-1.65h-.77L46,63.73v.77l1.65,1.64Zm-.38-2.91.88.88-.88.88-.88-.88Z"/><path class="cls-11" d="M26.87,53.19h.55v.55a.55.55,0,1,0,1.1,0v-.55h.55a.55.55,0,0,0,0-1.1h-.55v-.55a.55.55,0,0,0-1.1,0v.55h-.55a.55.55,0,1,0,0,1.1Z"/><path class="cls-11" d="M93.36,99.35h.55v.55a.55.55,0,1,0,1.1,0v-.55h.55a.55.55,0,0,0,0-1.1H95v-.55a.55.55,0,0,0-1.1,0v.55h-.55a.55.55,0,1,0,0,1.1Z"/><path class="cls-11" d="M11.07,129.2h.55v.55a.55.55,0,1,0,1.1,0v-.55h.55a.55.55,0,0,0,0-1.1h-.55v-.55a.55.55,0,0,0-1.1,0v.55h-.55a.55.55,0,1,0,0,1.1Z"/><path class="cls-11" d="M119.66,10.69h.55v.55a.55.55,0,1,0,1.1,0v-.55h.55a.55.55,0,0,0,0-1.1h-.55V9a.55.55,0,0,0-1.1,0v.55h-.55a.55.55,0,1,0,0,1.1Z"/><path class="cls-11" d="M10.12,67.24a.55.55,0,1,0-.55-.55A.52.52,0,0,0,10.12,67.24Z"/><path class="cls-11" d="M116.68,67.24a.55.55,0,1,0-.55-.55A.52.52,0,0,0,116.68,67.24Z"/><path class="cls-11" d="M79.61,92.63a.55.55,0,1,0-.55-.55A.52.52,0,0,0,79.61,92.63Z"/><path class="cls-11" d="M125.1,111.1a.55.55,0,1,0-.55-.55A.52.52,0,0,0,125.1,111.1Z"/><path class="cls-11" d="M109.29,8.4a.55.55,0,1,0-.55-.55A.52.52,0,0,0,109.29,8.4Z"/><path class="cls-4" d="M43.45,94.2c7.45-1.45,11.15-8,8.29-14.48h0a6.56,6.56,0,0,0-6.8-3.44l-.69.11c-7.92,1.25-11.62,7.68-8.31,14.36h0a6.75,6.75,0,0,0,6.83,3.55l.69-.12"/><path class="cls-3" d="M49.71,77.4c1.68,4.41-.39,7.31-5.78,8h0c-4.9.61-6.52,3.4-4.7,8.07a.34.34,0,0,1,0,.33A7.36,7.36,0,0,1,38,93.13c-1.75-4.91.17-8,5.49-8.64h0c5-.62,6.77-3.27,5-7.46a.32.32,0,0,1,0-.29,6.86,6.86,0,0,1,1.21.66"/><path class="cls-5" d="M129.07,15.19c-4.41,8.61.31,17.35,10.54,19.51h0c3.59.76,7.76-1.08,9.31-4.1l.4-.78c4.41-8.61-.31-17.34-10.54-19.51h0c-3.59-.76-7.76,1.08-9.31,4.1l-.4.78"/><path class="cls-6" d="M145.82,33.67a9.54,9.54,0,0,1-2.35.92,8.22,8.22,0,0,1-5.35-4.52,8.5,8.5,0,0,1,1.13-8c2.06-4.73-.62-9.19-6.27-10.39a.76.76,0,0,1-.5-.34,9.47,9.47,0,0,1,2.33-1c5.92,1.74,8.59,6.78,6.23,12.1a.71.71,0,0,1-.07.13,7.1,7.1,0,0,0-1,6.68,7.15,7.15,0,0,0,5.35,4,.75.75,0,0,1,.5.35"/><path class="cls-7" d="M131.88,54.53c5.34,7.74,15.41,8.45,22.51,1.55h0a8.06,8.06,0,0,0,1.31-9.71l-.47-.73c-5.31-8.39-15.37-9.05-22.51-1.55h0a8.14,8.14,0,0,0-1.31,9.71l.47.73"/><path class="cls-8" d="M156.34,52.89c-2.3,2-4.55,2.85-6.64,2.64-2.43-.24-4.65-2-6.47-5.13-3-5.22-7.19-5.52-12.39-.86a.74.74,0,0,1-.48.19,8.69,8.69,0,0,1,.41-2.38c5.56-4.59,10.44-4,13.77,1.76,3.06,5.31,7.22,5.86,11.72,1.55a.74.74,0,0,1,.51-.21,8.57,8.57,0,0,1-.43,2.44"/><path class="cls-9" d="M159.25,40.87c9.54,2.33,17.29-3.81,17.31-13.73h0a8.38,8.38,0,0,0-6.06-7.79l-.87-.21c-9.54-2.34-17.29,3.81-17.31,13.73h0a8.38,8.38,0,0,0,6.06,7.79l.86.21"/><path class="cls-10" d="M175.65,23.6c-.55,5.49-5.09,8.35-11.21,6.85-5.24-1.28-9.52,2.06-9.53,7.46a.71.71,0,0,1-.22.53,8.83,8.83,0,0,1-1.45-2c.54-5.75,5.36-9.19,11.2-7.76C170,30,174,27.23,174,22.06a.72.72,0,0,1,.2-.51,8.88,8.88,0,0,1,1.47,2"/></g></pattern></defs><title>Bkg-Iniciais</title><g id="Layer_2" data-name="Layer 2"><g id="Layer_1-2" data-name="Layer 1"><rect class="cls-12" width="320" height="548"/></g></g></svg>