<svg xmlns="http://www.w3.org/2000/svg" xmlns:xlink="http://www.w3.org/1999/xlink" viewBox="0 0 18.72 18.72"><defs><style>.cls-1{isolation:isolate;}.cls-2{fill:#0089be;}.cls-10,.cls-3,.cls-5,.cls-6,.cls-7,.cls-8,.cls-9{opacity:0.5;}.cls-10,.cls-11,.cls-3,.cls-5,.cls-6,.cls-7,.cls-8,.cls-9{mix-blend-mode:multiply;}.cls-3{fill:url(#linear-gradient);}.cls-4{fill:#fff;}.cls-5{fill:url(#linear-gradient-2);}.cls-6{fill:url(#linear-gradient-3);}.cls-7{fill:url(#linear-gradient-4);}.cls-8{fill:url(#linear-gradient-5);}.cls-9{fill:url(#linear-gradient-6);}.cls-10{fill:url(#linear-gradient-7);}.cls-11{opacity:0.4;fill:url(#linear-gradient-8);}</style><linearGradient id="linear-gradient" x1="16.02" y1="9.4" x2="17.57" y2="10.6" gradientUnits="userSpaceOnUse"><stop offset="0"/><stop offset="0.14" stop-color="#2e2e2e"/><stop offset="0.38" stop-color="#777"/><stop offset="0.59" stop-color="#b1b1b1"/><stop offset="0.77" stop-color="#dcdcdc"/><stop offset="0.92" stop-color="#f5f5f5"/><stop offset="1" stop-color="#fff"/></linearGradient><linearGradient id="linear-gradient-2" x1="7.07" y1="16.1" x2="7.87" y2="16.55" gradientUnits="userSpaceOnUse"><stop offset="0"/><stop offset="0.05" stop-color="#171717"/><stop offset="0.2" stop-color="#545454"/><stop offset="0.35" stop-color="#888"/><stop offset="0.5" stop-color="#b3b3b3"/><stop offset="0.64" stop-color="#d4d4d4"/><stop offset="0.77" stop-color="#ececec"/><stop offset="0.9" stop-color="#fafafa"/><stop offset="1" stop-color="#fff"/></linearGradient><linearGradient id="linear-gradient-3" x1="4.25" y1="4.32" x2="5.26" y2="4.76" gradientUnits="userSpaceOnUse"><stop offset="0"/><stop offset="0.02" stop-color="#060606"/><stop offset="0.3" stop-color="#5d5d5d"/><stop offset="0.55" stop-color="#a2a2a2"/><stop offset="0.76" stop-color="#d5d5d5"/><stop offset="0.91" stop-color="#f3f3f3"/><stop offset="1" stop-color="#fff"/></linearGradient><linearGradient id="linear-gradient-4" x1="2.53" y1="7.55" x2="2.88" y2="7.7" xlink:href="#linear-gradient-3"/><linearGradient id="linear-gradient-5" x1="16.33" y1="5.57" x2="16.68" y2="5.73" xlink:href="#linear-gradient-3"/><linearGradient id="linear-gradient-6" x1="14.44" y1="12.84" x2="14.8" y2="13" xlink:href="#linear-gradient-3"/><linearGradient id="linear-gradient-7" x1="10.62" y1="1.95" x2="10.98" y2="2.11" xlink:href="#linear-gradient-3"/><linearGradient id="linear-gradient-8" x1="6.35" y1="5.51" x2="15.16" y2="12.81" xlink:href="#linear-gradient-3"/></defs><title>salgado</title><g class="cls-1"><g id="Layer_2" data-name="Layer 2"><g id="Capa_1" data-name="Capa 1"><circle class="cls-2" cx="9.36" cy="9.36" r="9.36"/><polygon class="cls-3" points="16.49 10.3 17.62 11.09 18.03 10.43 16.66 9.44 16.49 9.58 16.31 9.87 16.49 10.3"/><path class="cls-4" d="M16.66,10.3,17,10V9.79l-.35-.35h-.16l-.35.35V10l.35.35Zm-.08-.61.18.18-.18.18-.18-.18Z"/><polygon class="cls-5" points="7.33 16.73 8 17.11 8.44 16.38 7.33 15.83 7.33 16.1 7.06 16.28 7.33 16.47 7.33 16.73"/><path class="cls-4" d="M7,16.37a.27.27,0,0,1,.27.27.09.09,0,1,0,.18,0,.27.27,0,0,1,.27-.27.09.09,0,0,0,0-.18.27.27,0,0,1-.27-.27.09.09,0,0,0-.18,0,.27.27,0,0,1-.27.27.09.09,0,1,0,0,.18Zm.36-.18.09.09-.09.09-.09-.09Z"/><polygon class="cls-6" points="4.52 4.72 5.47 5.28 5.74 4.69 4.59 4.05 4.52 4.72"/><path class="cls-4" d="M4.36,4.51h.12v.12a.12.12,0,1,0,.23,0V4.51h.12a.12.12,0,1,0,0-.23H4.71V4.16a.12.12,0,0,0-.23,0v.12H4.36a.12.12,0,1,0,0,.23Z"/><polygon class="cls-7" points="2.56 7.65 2.94 7.88 3.05 7.67 2.68 7.45 2.56 7.65"/><path class="cls-4" d="M2.62,7.67a.12.12,0,1,0-.12-.12A.11.11,0,0,0,2.62,7.67Z"/><polygon class="cls-8" points="16.36 5.68 16.74 5.91 16.85 5.69 16.48 5.48 16.36 5.68"/><path class="cls-4" d="M16.41,5.69a.12.12,0,1,0-.12-.12A.11.11,0,0,0,16.41,5.69Z"/><polygon class="cls-9" points="14.47 12.95 14.85 13.18 14.97 12.97 14.59 12.75 14.47 12.95"/><path class="cls-4" d="M14.53,13a.12.12,0,1,0-.12-.12A.11.11,0,0,0,14.53,13Z"/><polygon class="cls-10" points="10.65 2.06 11.03 2.29 11.15 2.07 10.77 1.86 10.65 2.06"/><path class="cls-4" d="M10.72,2.07A.12.12,0,1,0,10.6,2,.11.11,0,0,0,10.72,2.07Z"/><path class="cls-11" d="M14.65,16.73s.76.18,2-1.54a12.81,12.81,0,0,0,1.84-3.91L8.61,6,6.88,7.33s-.79.42-.91,1-.18-.4-.16.22S14.65,16.73,14.65,16.73Z"/><path class="cls-4" d="M11.83,12.13a.18.18,0,1,0,.12.05A.18.18,0,0,0,11.83,12.13Z"/><path class="cls-4" d="M11.83,13A.18.18,0,1,0,12,13,.18.18,0,0,0,11.83,13Z"/><path class="cls-4" d="M11.23,12.6a.18.18,0,1,0,.12.05A.18.18,0,0,0,11.23,12.6Z"/><path class="cls-4" d="M11.23,13.37a.18.18,0,1,0,.12.05A.18.18,0,0,0,11.23,13.37Z"/><path class="cls-4" d="M12.14,10.05l-.66-.66h0l-2.33-3a1.06,1.06,0,0,0-1.58-.1L6.12,7.75a1.06,1.06,0,0,0,.1,1.58l3,2.33h0l.66.66a.58.58,0,0,0,.83,0l1.44-1.44a.58.58,0,0,0,0-.83ZM8.31,6.34h0a.71.71,0,0,1,.51.27L11.1,9.48l-.36.36L8.34,7.19a1.94,1.94,0,0,0-.67-.5l.14-.14a.71.71,0,0,1,.5-.21ZM7.38,7Zm0,0a1.11,1.11,0,0,1,.7.44l2.41,2.67-.58.58L7.24,8.26a1.11,1.11,0,0,1-.44-.7Zm-.58.58Zm-.63,1A.71.71,0,0,1,6.37,8l.14-.14a1.94,1.94,0,0,0,.5.67l2.65,2.4-.36.36L6.44,9.05a.71.71,0,0,1-.27-.51Zm5.73,2.09-1.44,1.44a.23.23,0,0,1-.33,0l-.55-.55,1.77-1.77.55.55A.23.23,0,0,1,11.89,10.63Z"/></g></g></g></svg>