<svg xmlns="http://www.w3.org/2000/svg" viewBox="0 0 33.26 29.65"><defs><style>.cls-1{fill:#4e0000;}</style></defs><title>home</title><g id="Layer_2" data-name="Layer 2"><g id="Capa_1" data-name="Capa 1"><path class="cls-1" d="M32.91,11.71,17.14.17a.86.86,0,0,0-1,0L.35,11.71a.86.86,0,1,0,1,1.39L16.63,1.94,31.89,13.11a.86.86,0,1,0,1-1.39Z"/><path class="cls-1" d="M28.73,13.3a.86.86,0,0,0-.86.86V27.92H21V20.41a4.32,4.32,0,0,0-8.64,0v7.51H5.4V14.17a.86.86,0,1,0-1.73,0V28.79a.86.86,0,0,0,.86.86h8.64a.86.86,0,0,0,.86-.8.67.67,0,0,0,0-.07V20.41a2.59,2.59,0,0,1,5.19,0v8.37a.65.65,0,0,0,0,.07.86.86,0,0,0,.86.8h8.64a.86.86,0,0,0,.86-.86V14.17A.86.86,0,0,0,28.73,13.3Z"/></g></g></svg>