<svg xmlns="http://www.w3.org/2000/svg" xmlns:xlink="http://www.w3.org/1999/xlink" viewBox="0 0 18.72 18.72"><defs><style>.cls-1{isolation:isolate;}.cls-2{fill:#f37121;}.cls-3{opacity:0.4;fill:url(#linear-gradient);}.cls-10,.cls-11,.cls-3,.cls-4,.cls-6,.cls-7,.cls-8,.cls-9{mix-blend-mode:multiply;}.cls-10,.cls-11,.cls-4,.cls-6,.cls-7,.cls-8,.cls-9{opacity:0.5;}.cls-4{fill:url(#linear-gradient-2);}.cls-5{fill:#fff;}.cls-6{fill:url(#linear-gradient-3);}.cls-7{fill:url(#linear-gradient-4);}.cls-8{fill:url(#linear-gradient-5);}.cls-9{fill:url(#linear-gradient-6);}.cls-10{fill:url(#linear-gradient-7);}.cls-11{fill:url(#linear-gradient-8);}</style><linearGradient id="linear-gradient" x1="8.7" y1="8.41" x2="15.42" y2="12.87" gradientUnits="userSpaceOnUse"><stop offset="0"/><stop offset="0.02" stop-color="#060606"/><stop offset="0.3" stop-color="#5d5d5d"/><stop offset="0.55" stop-color="#a2a2a2"/><stop offset="0.76" stop-color="#d5d5d5"/><stop offset="0.91" stop-color="#f3f3f3"/><stop offset="1" stop-color="#fff"/></linearGradient><linearGradient id="linear-gradient-2" x1="14.95" y1="4.55" x2="15.98" y2="5.13" gradientUnits="userSpaceOnUse"><stop offset="0"/><stop offset="0.05" stop-color="#171717"/><stop offset="0.2" stop-color="#545454"/><stop offset="0.35" stop-color="#888"/><stop offset="0.5" stop-color="#b3b3b3"/><stop offset="0.64" stop-color="#d4d4d4"/><stop offset="0.77" stop-color="#ececec"/><stop offset="0.9" stop-color="#fafafa"/><stop offset="1" stop-color="#fff"/></linearGradient><linearGradient id="linear-gradient-3" x1="3.45" y1="5.2" x2="4.75" y2="5.77" xlink:href="#linear-gradient"/><linearGradient id="linear-gradient-4" x1="9.11" y1="16.28" x2="10.12" y2="16.72" xlink:href="#linear-gradient"/><linearGradient id="linear-gradient-5" x1="3.53" y1="12.87" x2="3.88" y2="13.02" xlink:href="#linear-gradient"/><linearGradient id="linear-gradient-6" x1="16.73" y1="9.41" x2="17.09" y2="9.56" xlink:href="#linear-gradient"/><linearGradient id="linear-gradient-7" x1="7.44" y1="2.72" x2="7.8" y2="2.87" xlink:href="#linear-gradient"/><linearGradient id="linear-gradient-8" x1="7.63" y1="6.4" x2="7.98" y2="6.55" xlink:href="#linear-gradient"/></defs><title>frutasCaroco</title><g class="cls-1"><g id="Layer_2" data-name="Layer 2"><g id="Capa_1" data-name="Capa 1"><circle class="cls-2" cx="9.36" cy="9.36" r="9.36"/><path class="cls-3" d="M14.2,17.38,6.27,12.24s-1-2.31-.4-3.2,1.7-2,3-1.94.54,0,.54,0-.12-1.38.54-1.73.93,0,.93,0l1.86.5,6,3.76A8.51,8.51,0,0,1,17.49,14,9.78,9.78,0,0,1,14.2,17.38Z"/><polygon class="cls-4" points="15.29 5.36 16.15 5.85 16.71 4.91 15.29 4.2 15.29 4.55 14.94 4.78 15.29 5.03 15.29 5.36"/><path class="cls-5" d="M14.82,4.9a.34.34,0,0,1,.35.35.12.12,0,0,0,.23,0,.34.34,0,0,1,.35-.35.12.12,0,0,0,0-.23.34.34,0,0,1-.35-.35.12.12,0,1,0-.23,0,.34.34,0,0,1-.35.35.12.12,0,0,0,0,.23Zm.46-.23a.55.55,0,0,0,.12.12.55.55,0,0,0-.12.12.55.55,0,0,0-.12-.12A.55.55,0,0,0,15.28,4.67Z"/><polygon class="cls-6" points="3.91 5.78 4.97 6.41 5.34 5.74 4.07 4.93 3.67 5.35 3.91 5.78"/><path class="cls-5" d="M4.07,5.78l.35-.35V5.27l-.35-.35H3.91l-.35.35v.16l.35.35ZM4,5.17l.18.18L4,5.54,3.8,5.35Z"/><polygon class="cls-7" points="9.38 16.67 10.32 17.23 10.6 16.64 9.45 16 9.38 16.67"/><path class="cls-5" d="M9.22,16.47h.12v.12a.12.12,0,1,0,.23,0v-.12h.12a.12.12,0,1,0,0-.23H9.57v-.12a.12.12,0,0,0-.23,0v.12H9.22a.12.12,0,0,0,0,.23Z"/><polygon class="cls-8" points="3.56 12.97 3.94 13.2 4.05 12.99 3.68 12.77 3.56 12.97"/><path class="cls-5" d="M3.62,13a.12.12,0,1,0-.12-.12A.11.11,0,0,0,3.62,13Z"/><polygon class="cls-9" points="16.76 9.51 17.14 9.74 17.26 9.53 16.88 9.31 16.76 9.51"/><path class="cls-5" d="M16.83,9.53a.12.12,0,1,0-.12-.12A.11.11,0,0,0,16.83,9.53Z"/><polygon class="cls-10" points="7.48 2.82 7.85 3.05 7.97 2.84 7.59 2.62 7.48 2.82"/><path class="cls-5" d="M7.54,2.84a.12.12,0,1,0-.12-.12A.11.11,0,0,0,7.54,2.84Z"/><polygon class="cls-11" points="7.66 6.5 8.04 6.74 8.15 6.52 7.78 6.3 7.66 6.5"/><path class="cls-5" d="M7.72,6.52a.12.12,0,1,0-.12-.12A.11.11,0,0,0,7.72,6.52Z"/><g id="group-10svg"><path id="path-1" class="cls-5" d="M10,12.38a2,2,0,0,1-.57-.08,2,2,0,0,1-.57.08,2.17,2.17,0,0,1-2.11-2.22A2.17,2.17,0,0,1,8.83,7.94,2,2,0,0,1,9.4,8,2,2,0,0,1,10,7.94a2.17,2.17,0,0,1,2.11,2.22A2.17,2.17,0,0,1,10,12.38Zm-.57-.49h.06A1.61,1.61,0,0,0,10,12a1.77,1.77,0,0,0,1.71-1.82A1.77,1.77,0,0,0,10,8.33a1.6,1.6,0,0,0-.51.08.2.2,0,0,1-.12,0,1.6,1.6,0,0,0-.51-.08,1.77,1.77,0,0,0-1.71,1.82A1.77,1.77,0,0,0,8.83,12a1.61,1.61,0,0,0,.51-.08Z"/><path id="path-2" class="cls-5" d="M10.24,13.35a2.88,2.88,0,0,1-.84-.13,2.88,2.88,0,0,1-.84.13,3.11,3.11,0,0,1-3-3.19A3.12,3.12,0,0,1,8.56,7a2.88,2.88,0,0,1,.84.13A2.88,2.88,0,0,1,10.24,7a3.12,3.12,0,0,1,3,3.19A3.11,3.11,0,0,1,10.24,13.35Zm-.84-.53h.06a2.48,2.48,0,0,0,.78.13,2.72,2.72,0,0,0,2.63-2.79,2.72,2.72,0,0,0-2.63-2.79,2.49,2.49,0,0,0-.78.13.2.2,0,0,1-.12,0,2.49,2.49,0,0,0-.78-.13,2.72,2.72,0,0,0-2.63,2.79,2.72,2.72,0,0,0,2.63,2.79,2.48,2.48,0,0,0,.78-.13Z"/><path id="path-3" class="cls-5" d="M9.36,11.29c-.48,0-.85-.52-.85-1.18s.37-1.18.85-1.18.85.52.85,1.18S9.84,11.29,9.36,11.29Zm0-2c-.21,0-.45.32-.45.78s.24.78.45.78.45-.32.45-.78S9.58,9.33,9.36,9.33Z"/><path id="path-4" class="cls-5" d="M11.38,6.64a2.3,2.3,0,0,1-1-.23S10,6.2,9.65,6a.2.2,0,0,1-.1-.18A.84.84,0,0,1,10.38,5a1.37,1.37,0,0,1,.43.08c.94.32,1.81.66,1.81.66a.2.2,0,0,1,.08.31A1.73,1.73,0,0,1,11.38,6.64ZM10,5.73c.3.17.62.32.63.33a1.9,1.9,0,0,0,.79.19,1.36,1.36,0,0,0,.8-.26c-.33-.13-.9-.34-1.5-.54a1,1,0,0,0-.31-.06A.41.41,0,0,0,10,5.73Z"/><path id="path-5" class="cls-5" d="M9.4,7.36a.2.2,0,0,1-.2-.19,11.08,11.08,0,0,1,.15-1.3v0A1.4,1.4,0,0,1,10,5a.2.2,0,1,1,.19.35,1,1,0,0,0-.49.56,10.54,10.54,0,0,0-.15,1.2.2.2,0,0,1-.19.21Z"/></g></g></g></g></svg>