<svg xmlns="http://www.w3.org/2000/svg" xmlns:xlink="http://www.w3.org/1999/xlink" viewBox="0 0 39.78 39.78"><defs><style>.cls-1{isolation:isolate;}.cls-2{fill:#f37121;}.cls-10,.cls-3,.cls-5,.cls-6,.cls-7,.cls-8,.cls-9{opacity:0.5;mix-blend-mode:multiply;}.cls-3{fill:url(#linear-gradient);}.cls-4{fill:#fff;}.cls-5{fill:url(#linear-gradient-2);}.cls-6{fill:url(#linear-gradient-3);}.cls-7{fill:url(#linear-gradient-4);}.cls-8{fill:url(#linear-gradient-5);}.cls-9{fill:url(#linear-gradient-6);}.cls-10{fill:url(#linear-gradient-7);}</style><linearGradient id="linear-gradient" x1="31.77" y1="9.67" x2="33.96" y2="10.89" gradientUnits="userSpaceOnUse"><stop offset="0"/><stop offset="0.05" stop-color="#171717"/><stop offset="0.2" stop-color="#545454"/><stop offset="0.35" stop-color="#888"/><stop offset="0.5" stop-color="#b3b3b3"/><stop offset="0.64" stop-color="#d4d4d4"/><stop offset="0.77" stop-color="#ececec"/><stop offset="0.9" stop-color="#fafafa"/><stop offset="1" stop-color="#fff"/></linearGradient><linearGradient id="linear-gradient-2" x1="7.32" y1="11.04" x2="10.1" y2="12.25" gradientUnits="userSpaceOnUse"><stop offset="0"/><stop offset="0.02" stop-color="#060606"/><stop offset="0.3" stop-color="#5d5d5d"/><stop offset="0.55" stop-color="#a2a2a2"/><stop offset="0.76" stop-color="#d5d5d5"/><stop offset="0.91" stop-color="#f3f3f3"/><stop offset="1" stop-color="#fff"/></linearGradient><linearGradient id="linear-gradient-3" x1="19.35" y1="34.59" x2="21.5" y2="35.52" xlink:href="#linear-gradient-2"/><linearGradient id="linear-gradient-4" x1="7.5" y1="27.34" x2="8.25" y2="27.67" xlink:href="#linear-gradient-2"/><linearGradient id="linear-gradient-5" x1="35.55" y1="19.98" x2="36.3" y2="20.31" xlink:href="#linear-gradient-2"/><linearGradient id="linear-gradient-6" x1="15.82" y1="5.77" x2="16.57" y2="6.1" xlink:href="#linear-gradient-2"/><linearGradient id="linear-gradient-7" x1="16.2" y1="13.59" x2="16.96" y2="13.92" xlink:href="#linear-gradient-2"/></defs><title>frutasCaroco</title><g class="cls-1"><g id="Layer_2" data-name="Layer 2"><g id="Capa_1" data-name="Capa 1"><circle class="cls-2" cx="19.89" cy="19.89" r="19.89"/><polygon class="cls-3" points="32.48 11.39 34.32 12.43 35.5 10.43 32.48 8.93 32.48 9.67 31.75 10.16 32.48 10.68 32.48 11.39"/><path class="cls-4" d="M31.49,10.41a.72.72,0,0,1,.74.74.25.25,0,0,0,.49,0,.72.72,0,0,1,.74-.74.25.25,0,1,0,0-.49.72.72,0,0,1-.74-.74.25.25,0,1,0-.49,0,.72.72,0,0,1-.74.74.25.25,0,0,0,0,.49Zm1-.49a1.16,1.16,0,0,0,.25.25,1.16,1.16,0,0,0-.25.25,1.17,1.17,0,0,0-.25-.25A1.17,1.17,0,0,0,32.48,9.91Z"/><polygon class="cls-5" points="8.3 12.28 10.57 13.61 11.35 12.19 8.65 10.46 7.79 11.37 8.3 12.28"/><path class="cls-4" d="M8.65,12.28l.74-.74V11.2l-.74-.74H8.3l-.74.74v.34l.74.74ZM8.48,11l.39.39-.39.39-.39-.39Z"/><polygon class="cls-6" points="19.92 35.42 21.93 36.61 22.52 35.37 20.08 34 19.92 35.42"/><path class="cls-4" d="M19.59,35h.25v.25a.25.25,0,1,0,.49,0V35h.25a.25.25,0,0,0,0-.49h-.25v-.25a.25.25,0,0,0-.49,0v.25h-.25a.25.25,0,0,0,0,.49Z"/><polygon class="cls-7" points="7.56 27.56 8.37 28.05 8.61 27.6 7.81 27.14 7.56 27.56"/><path class="cls-4" d="M7.69,27.6a.25.25,0,1,0-.25-.25A.23.23,0,0,0,7.69,27.6Z"/><polygon class="cls-8" points="35.62 20.21 36.42 20.7 36.67 20.25 35.87 19.79 35.62 20.21"/><path class="cls-4" d="M35.75,20.24A.25.25,0,1,0,35.5,20,.23.23,0,0,0,35.75,20.24Z"/><polygon class="cls-9" points="15.88 6 16.69 6.49 16.93 6.03 16.13 5.58 15.88 6"/><path class="cls-4" d="M16,6a.25.25,0,1,0-.25-.25A.23.23,0,0,0,16,6Z"/><polygon class="cls-10" points="16.27 13.82 17.08 14.31 17.32 13.86 16.52 13.4 16.27 13.82"/><path class="cls-4" d="M16.4,13.85a.25.25,0,1,0-.25-.25A.23.23,0,0,0,16.4,13.85Z"/><g id="group-10svg"><path id="path-1" class="cls-4" d="M21.18,26.29A4.26,4.26,0,0,1,20,26.12a4.26,4.26,0,0,1-1.21.17,4.61,4.61,0,0,1-4.48-4.72,4.61,4.61,0,0,1,4.48-4.72A4.24,4.24,0,0,1,20,17a4.24,4.24,0,0,1,1.21-.17,4.61,4.61,0,0,1,4.48,4.72A4.6,4.6,0,0,1,21.18,26.29Zm-1.21-1,.13,0a3.42,3.42,0,0,0,1.08.17,3.76,3.76,0,0,0,3.63-3.87,3.76,3.76,0,0,0-3.63-3.87,3.4,3.4,0,0,0-1.08.17.43.43,0,0,1-.27,0,3.4,3.4,0,0,0-1.08-.17,3.76,3.76,0,0,0-3.63,3.87,3.76,3.76,0,0,0,3.63,3.87,3.41,3.41,0,0,0,1.08-.17Z"/><path id="path-2" class="cls-4" d="M21.76,28.36A6.12,6.12,0,0,1,20,28.09a6.13,6.13,0,0,1-1.79.27,6.62,6.62,0,0,1-6.43-6.78,6.62,6.62,0,0,1,6.43-6.78,6.13,6.13,0,0,1,1.79.27,6.12,6.12,0,0,1,1.79-.27,6.62,6.62,0,0,1,6.43,6.78A6.62,6.62,0,0,1,21.76,28.36ZM20,27.23l.13,0a5.27,5.27,0,0,0,1.66.27,5.77,5.77,0,0,0,5.58-5.94,5.77,5.77,0,0,0-5.58-5.94,5.29,5.29,0,0,0-1.66.27.42.42,0,0,1-.27,0,5.29,5.29,0,0,0-1.66-.27,5.77,5.77,0,0,0-5.58,5.94,5.77,5.77,0,0,0,5.58,5.94,5.27,5.27,0,0,0,1.66-.27Z"/><path id="path-3" class="cls-4" d="M19.89,24c-1,0-1.8-1.1-1.8-2.51S18.88,19,19.89,19s1.8,1.1,1.8,2.51S20.9,24,19.89,24Zm0-4.18c-.45,0-1,.68-1,1.67s.5,1.67,1,1.67,1-.68,1-1.67S20.34,19.82,19.89,19.82Z"/><path id="path-4" class="cls-4" d="M24.18,14.11a4.88,4.88,0,0,1-2-.48s-.92-.45-1.65-.87a.42.42,0,0,1-.21-.39A1.79,1.79,0,0,1,22,10.59a2.91,2.91,0,0,1,.92.17c2,.68,3.84,1.4,3.86,1.41a.42.42,0,0,1,.18.65A3.68,3.68,0,0,1,24.18,14.11Zm-3-1.94c.64.36,1.32.69,1.33.69a4,4,0,0,0,1.67.4,2.89,2.89,0,0,0,1.71-.55c-.7-.27-1.91-.72-3.19-1.15a2.06,2.06,0,0,0-.65-.12A.87.87,0,0,0,21.18,12.17Z"/><path id="path-5" class="cls-4" d="M20,15.64a.42.42,0,0,1-.42-.4,23.55,23.55,0,0,1,.33-2.77v0a3,3,0,0,1,1.46-1.75.42.42,0,0,1,.4.74,2.13,2.13,0,0,0-1,1.19,22.39,22.39,0,0,0-.31,2.55.42.42,0,0,1-.39.45Z"/></g></g></g></g></svg>