<svg xmlns="http://www.w3.org/2000/svg" xmlns:xlink="http://www.w3.org/1999/xlink" viewBox="0 0 39.78 39.78"><defs><style>.cls-1{isolation:isolate;}.cls-2{fill:#ffce56;}.cls-10,.cls-11,.cls-3,.cls-5,.cls-6,.cls-7,.cls-8,.cls-9{opacity:0.5;mix-blend-mode:multiply;}.cls-3{fill:url(#linear-gradient);}.cls-4{fill:#fff;}.cls-5{fill:url(#linear-gradient-2);}.cls-6{fill:url(#linear-gradient-3);}.cls-7{fill:url(#linear-gradient-4);}.cls-8{fill:url(#linear-gradient-5);}.cls-9{fill:url(#linear-gradient-6);}.cls-10{fill:url(#linear-gradient-7);}.cls-11{fill:url(#linear-gradient-8);}</style><linearGradient id="linear-gradient" x1="8.92" y1="8.38" x2="12.22" y2="10.93" gradientUnits="userSpaceOnUse"><stop offset="0"/><stop offset="0.14" stop-color="#2e2e2e"/><stop offset="0.38" stop-color="#777"/><stop offset="0.59" stop-color="#b1b1b1"/><stop offset="0.77" stop-color="#dcdcdc"/><stop offset="0.92" stop-color="#f5f5f5"/><stop offset="1" stop-color="#fff"/></linearGradient><linearGradient id="linear-gradient-2" x1="7.59" y1="28.75" x2="9.77" y2="29.98" gradientUnits="userSpaceOnUse"><stop offset="0"/><stop offset="0.05" stop-color="#171717"/><stop offset="0.2" stop-color="#545454"/><stop offset="0.35" stop-color="#888"/><stop offset="0.5" stop-color="#b3b3b3"/><stop offset="0.64" stop-color="#d4d4d4"/><stop offset="0.77" stop-color="#ececec"/><stop offset="0.9" stop-color="#fafafa"/><stop offset="1" stop-color="#fff"/></linearGradient><linearGradient id="linear-gradient-3" x1="31.33" y1="27.2" x2="34.1" y2="28.4" gradientUnits="userSpaceOnUse"><stop offset="0"/><stop offset="0.02" stop-color="#060606"/><stop offset="0.3" stop-color="#5d5d5d"/><stop offset="0.55" stop-color="#a2a2a2"/><stop offset="0.76" stop-color="#d5d5d5"/><stop offset="0.91" stop-color="#f3f3f3"/><stop offset="1" stop-color="#fff"/></linearGradient><linearGradient id="linear-gradient-4" x1="30.1" y1="11.25" x2="32.26" y2="12.19" xlink:href="#linear-gradient-3"/><linearGradient id="linear-gradient-5" x1="5.54" y1="16.37" x2="6.29" y2="16.7" xlink:href="#linear-gradient-3"/><linearGradient id="linear-gradient-6" x1="17.3" y1="9.97" x2="18.05" y2="10.3" xlink:href="#linear-gradient-3"/><linearGradient id="linear-gradient-7" x1="25.64" y1="31.75" x2="26.4" y2="32.08" xlink:href="#linear-gradient-3"/><linearGradient id="linear-gradient-8" x1="31.44" y1="18.38" x2="32.2" y2="18.71" xlink:href="#linear-gradient-3"/></defs><title>citrico</title><g class="cls-1"><g id="Layer_2" data-name="Layer 2"><g id="Capa_1" data-name="Capa 1"><circle class="cls-2" cx="19.89" cy="19.89" r="19.89"/><polygon class="cls-3" points="9.93 10.28 12.32 11.97 13.2 10.57 10.27 8.46 9.93 8.76 9.53 9.37 9.93 10.28"/><path class="cls-4" d="M10.27,10.28,11,9.54V9.2l-.74-.74H9.93l-.74.74v.34l.74.74ZM10.1,9l.39.39-.39.39L9.7,9.37Z"/><polygon class="cls-5" points="8.29 30.47 10.13 31.51 11.32 29.52 8.29 28.02 8.29 28.75 7.56 29.24 8.29 29.76 8.29 30.47"/><path class="cls-4" d="M7.31,29.49a.72.72,0,0,1,.74.74.25.25,0,0,0,.49,0,.72.72,0,0,1,.74-.74.25.25,0,1,0,0-.49.72.72,0,0,1-.74-.74.25.25,0,1,0-.49,0,.72.72,0,0,1-.74.74.25.25,0,0,0,0,.49Zm1-.49a1.16,1.16,0,0,0,.25.25,1.16,1.16,0,0,0-.25.25A1.17,1.17,0,0,0,8,29.24,1.17,1.17,0,0,0,8.29,29Z"/><polygon class="cls-6" points="32.31 28.44 34.57 29.76 35.35 28.35 32.65 26.62 31.8 27.53 32.31 28.44"/><path class="cls-4" d="M32.65,28.44l.74-.74v-.34l-.74-.74h-.34l-.74.74v.34l.74.74Zm-.17-1.3.39.39-.39.39-.39-.39Z"/><polygon class="cls-7" points="30.68 12.09 32.69 13.28 33.28 12.03 30.84 10.66 30.68 12.09"/><path class="cls-4" d="M30.35,11.65h.25v.25a.25.25,0,1,0,.49,0v-.25h.25a.25.25,0,0,0,0-.49h-.25v-.25a.25.25,0,0,0-.49,0v.25h-.25a.25.25,0,0,0,0,.49Z"/><polygon class="cls-8" points="5.61 16.6 6.41 17.09 6.66 16.63 5.86 16.17 5.61 16.6"/><path class="cls-4" d="M5.73,16.63a.25.25,0,1,0-.25-.25A.23.23,0,0,0,5.73,16.63Z"/><polygon class="cls-9" points="17.37 10.2 18.17 10.69 18.42 10.24 17.62 9.78 17.37 10.2"/><path class="cls-4" d="M17.48,10.23a.25.25,0,1,0-.25-.25A.23.23,0,0,0,17.48,10.23Z"/><polygon class="cls-10" points="25.71 31.98 26.52 32.47 26.76 32.02 25.96 31.56 25.71 31.98"/><path class="cls-4" d="M25.84,32a.25.25,0,1,0-.25-.25A.23.23,0,0,0,25.84,32Z"/><polygon class="cls-11" points="31.51 18.61 32.32 19.1 32.56 18.64 31.76 18.18 31.51 18.61"/><path class="cls-4" d="M31.64,18.64a.25.25,0,1,0-.25-.25A.23.23,0,0,0,31.64,18.64Z"/><path class="cls-4" d="M28.77,20.84h-.48a8.12,8.12,0,0,0-.45-6.21,1.67,1.67,0,0,0-2.3-2.43c-3.24-2-7.92-1.09-11.25,2.24s-4.24,8-2.24,11.25A1.67,1.67,0,0,0,14.48,28a7.38,7.38,0,0,0,3.54.86,9.44,9.44,0,0,0,3-.51,7.36,7.36,0,0,0,9.11-7.16v-.33H28.77Zm-10,3.88a5.34,5.34,0,0,1-1.33-3.21h4.54ZM22.41,22v4.53a5.33,5.33,0,0,1-3.2-1.33Zm.67,0,3.2,3.2a5.33,5.33,0,0,1-3.2,1.33Zm3.68,2.73-3.21-3.21h4.54A5.34,5.34,0,0,1,26.76,24.72ZM14.6,27.28l-.22-.13-.32.32A1,1,0,1,1,12.64,26l.27-.28-.15-.23c-2-2.93-1.11-7.5,2-10.63s7.69-4,10.63-2l.23.15.28-.28a1,1,0,0,1,1.42,1.42l-.32.32.13.22a7.43,7.43,0,0,1,.45,6.1H15.37v.34c0,.17,0,.33,0,.5v.12c0,.16,0,.31.05.47v0c0,.16.06.32.09.48l0,.11c0,.14.07.29.11.43v0c0,.15.1.3.15.44l.05.13.15.35,0,.1c.06.13.13.26.2.38l.09.16.16.26.11.17.21.29.13.16.18.21.15.17.25.26.13.12.27.25.06.06.38.29.06,0a7.32,7.32,0,0,0,1.38.77A7.18,7.18,0,0,1,14.6,27.28Zm8.14.59a6.67,6.67,0,0,1-1.65-.21l-.51-.15h0l-.48-.19,0,0a6.71,6.71,0,0,1-1.09-.62l-.29-.21-.16-.13-.3-.26L18,25.94l-.29-.3-.11-.12-.29-.36-.07-.1a6.7,6.7,0,0,1-.6-1l-.06-.14c-.06-.13-.11-.26-.16-.4l-.07-.2q-.06-.18-.11-.37l-.06-.22c0-.13-.06-.26-.08-.4s0-.13,0-.2,0-.4-.06-.6h.68a6,6,0,0,0,12,0h.68A6.71,6.71,0,0,1,22.74,27.87Z"/><path class="cls-4" d="M21,14.59l.15,0h.51a1,1,0,0,0,1-.68,1.13,1.13,0,0,0-.08-.9.91.91,0,0,0-.59-.46,3.49,3.49,0,0,0-1.33-.06,1,1,0,0,0-.68.42,1.05,1.05,0,0,0,1,1.66Zm-.48-1.27a.36.36,0,0,1,.24-.15,2.85,2.85,0,0,1,1.08,0,.25.25,0,0,1,.15.13.46.46,0,0,1,0,.35h0a.42.42,0,0,1-.53.22h0l-.1,0h-.3l-.18,0a.38.38,0,0,1-.38-.61Z"/></g></g></g></svg>