<svg xmlns="http://www.w3.org/2000/svg" xmlns:xlink="http://www.w3.org/1999/xlink" viewBox="0 0 18.72 18.72"><defs><style>.cls-1{isolation:isolate;}.cls-2{fill:#ffce56;}.cls-3{opacity:0.4;fill:url(#linear-gradient);}.cls-10,.cls-11,.cls-12,.cls-3,.cls-4,.cls-6,.cls-7,.cls-8,.cls-9{mix-blend-mode:multiply;}.cls-10,.cls-11,.cls-12,.cls-4,.cls-6,.cls-7,.cls-8,.cls-9{opacity:0.5;}.cls-4{fill:url(#linear-gradient-2);}.cls-5{fill:#fff;}.cls-6{fill:url(#linear-gradient-3);}.cls-7{fill:url(#linear-gradient-4);}.cls-8{fill:url(#linear-gradient-5);}.cls-9{fill:url(#linear-gradient-6);}.cls-10{fill:url(#linear-gradient-7);}.cls-11{fill:url(#linear-gradient-8);}.cls-12{fill:url(#linear-gradient-9);}</style><linearGradient id="linear-gradient" x1="3.68" y1="8.01" x2="13.82" y2="12.43" gradientUnits="userSpaceOnUse"><stop offset="0"/><stop offset="0.02" stop-color="#060606"/><stop offset="0.3" stop-color="#5d5d5d"/><stop offset="0.55" stop-color="#a2a2a2"/><stop offset="0.76" stop-color="#d5d5d5"/><stop offset="0.91" stop-color="#f3f3f3"/><stop offset="1" stop-color="#fff"/></linearGradient><linearGradient id="linear-gradient-2" x1="4.2" y1="3.94" x2="5.75" y2="5.14" gradientUnits="userSpaceOnUse"><stop offset="0"/><stop offset="0.14" stop-color="#2e2e2e"/><stop offset="0.38" stop-color="#777"/><stop offset="0.59" stop-color="#b1b1b1"/><stop offset="0.77" stop-color="#dcdcdc"/><stop offset="0.92" stop-color="#f5f5f5"/><stop offset="1" stop-color="#fff"/></linearGradient><linearGradient id="linear-gradient-3" x1="3.57" y1="13.53" x2="4.6" y2="14.11" gradientUnits="userSpaceOnUse"><stop offset="0"/><stop offset="0.05" stop-color="#171717"/><stop offset="0.2" stop-color="#545454"/><stop offset="0.35" stop-color="#888"/><stop offset="0.5" stop-color="#b3b3b3"/><stop offset="0.64" stop-color="#d4d4d4"/><stop offset="0.77" stop-color="#ececec"/><stop offset="0.9" stop-color="#fafafa"/><stop offset="1" stop-color="#fff"/></linearGradient><linearGradient id="linear-gradient-4" x1="14.75" y1="12.8" x2="16.05" y2="13.37" xlink:href="#linear-gradient"/><linearGradient id="linear-gradient-5" x1="14.17" y1="5.29" x2="15.18" y2="5.74" xlink:href="#linear-gradient"/><linearGradient id="linear-gradient-6" x1="2.61" y1="7.71" x2="2.96" y2="7.86" xlink:href="#linear-gradient"/><linearGradient id="linear-gradient-7" x1="8.14" y1="4.69" x2="8.5" y2="4.85" xlink:href="#linear-gradient"/><linearGradient id="linear-gradient-8" x1="12.07" y1="14.95" x2="12.42" y2="15.1" xlink:href="#linear-gradient"/><linearGradient id="linear-gradient-9" x1="14.8" y1="8.65" x2="15.15" y2="8.81" xlink:href="#linear-gradient"/></defs><title>citrico</title><g class="cls-1"><g id="Layer_2" data-name="Layer 2"><g id="Capa_1" data-name="Capa 1"><circle class="cls-2" cx="9.36" cy="9.36" r="9.36"/><path class="cls-3" d="M6.21,13.27l6.38,4.94a11.13,11.13,0,0,0,4-2.85,9.69,9.69,0,0,0,2.07-4.83L13.08,5.79l-1.23-.06-1.66-.35-2,.48L6,7.83l-.68,2.56.46,1.68a.68.68,0,0,0-.08.69C6.18,13.56,6.21,13.27,6.21,13.27Z"/><polygon class="cls-4" points="4.67 4.84 5.8 5.63 6.21 4.97 4.83 3.98 4.67 4.13 4.49 4.41 4.67 4.84"/><path class="cls-5" d="M4.83,4.84l.35-.35V4.33L4.83,4H4.67l-.35.35v.16l.35.35Zm-.08-.61.18.18-.18.18-.18-.18Z"/><polygon class="cls-6" points="3.9 14.34 4.77 14.83 5.33 13.89 3.9 13.19 3.9 13.53 3.56 13.76 3.9 14.01 3.9 14.34"/><path class="cls-5" d="M3.44,13.88a.34.34,0,0,1,.35.35.12.12,0,0,0,.23,0,.34.34,0,0,1,.35-.35.12.12,0,0,0,0-.23A.34.34,0,0,1,4,13.3a.12.12,0,1,0-.23,0,.34.34,0,0,1-.35.35.12.12,0,1,0,0,.23Zm.46-.23a.54.54,0,0,0,.12.12.55.55,0,0,0-.12.12.55.55,0,0,0-.12-.12A.55.55,0,0,0,3.9,13.65Z"/><polygon class="cls-7" points="15.21 13.38 16.27 14.01 16.64 13.34 15.37 12.53 14.97 12.96 15.21 13.38"/><path class="cls-5" d="M15.37,13.38l.35-.35v-.16l-.35-.35h-.16l-.35.35V13l.35.35Zm-.08-.61.18.19-.18.18L15.1,13Z"/><polygon class="cls-8" points="14.44 5.69 15.38 6.25 15.66 5.66 14.51 5.02 14.44 5.69"/><path class="cls-5" d="M14.28,5.48h.12V5.6a.12.12,0,1,0,.23,0V5.48h.12a.12.12,0,0,0,0-.23h-.12V5.13a.12.12,0,0,0-.23,0v.12h-.12a.12.12,0,1,0,0,.23Z"/><polygon class="cls-9" points="2.64 7.81 3.02 8.04 3.13 7.83 2.76 7.61 2.64 7.81"/><path class="cls-5" d="M2.7,7.83a.12.12,0,1,0-.12-.12A.11.11,0,0,0,2.7,7.83Z"/><polygon class="cls-10" points="8.17 4.8 8.55 5.03 8.67 4.82 8.29 4.6 8.17 4.8"/><path class="cls-5" d="M8.23,4.82a.12.12,0,1,0-.12-.12A.11.11,0,0,0,8.23,4.82Z"/><polygon class="cls-11" points="12.1 15.05 12.48 15.28 12.6 15.07 12.22 14.85 12.1 15.05"/><path class="cls-5" d="M12.16,15.07A.12.12,0,1,0,12,15,.11.11,0,0,0,12.16,15.07Z"/><polygon class="cls-12" points="14.83 8.76 15.21 8.99 15.32 8.77 14.95 8.56 14.83 8.76"/><path class="cls-5" d="M14.89,8.77a.12.12,0,1,0-.12-.12A.11.11,0,0,0,14.89,8.77Z"/><path class="cls-5" d="M13.54,9.81h-.22a3.82,3.82,0,0,0-.21-2.92A.79.79,0,0,0,12,5.74,4.4,4.4,0,0,0,6.73,6.79a4.41,4.41,0,0,0-1.05,5.29.79.79,0,0,0,1.14,1.08,3.47,3.47,0,0,0,1.66.4,4.45,4.45,0,0,0,1.4-.24A3.47,3.47,0,0,0,14.17,10V9.81h-.63ZM8.81,11.63a2.51,2.51,0,0,1-.63-1.51h2.14Zm1.73-1.29v2.13A2.51,2.51,0,0,1,9,11.85Zm.32,0,1.51,1.51a2.51,2.51,0,0,1-1.51.63Zm1.73,1.29-1.51-1.51h2.14A2.51,2.51,0,0,1,12.59,11.63ZM6.87,12.84l-.11-.06-.15.15a.47.47,0,1,1-.67-.67l.13-.13L6,12c-.93-1.38-.52-3.53.95-5s3.62-1.88,5-.95l.11.07L12.19,6a.47.47,0,0,1,.67.67l-.15.15.06.11A3.5,3.5,0,0,1,13,9.81H7.24V10c0,.08,0,.16,0,.23v.06c0,.07,0,.15,0,.22h0c0,.08,0,.15,0,.23v.05l.05.2v0l.07.21,0,.06.07.16,0,0,.09.18,0,.07.08.12.05.08.1.14.06.08.08.1.07.08.12.12.06.06.13.12,0,0,.18.14,0,0a3.45,3.45,0,0,0,.65.36A3.38,3.38,0,0,1,6.87,12.84Zm3.83.28a3.14,3.14,0,0,1-.78-.1l-.24-.07h0l-.22-.09h0a3.15,3.15,0,0,1-.52-.29l-.14-.1-.07-.06-.14-.12-.06-.06-.14-.14L8.31,12l-.14-.17,0,0a3.15,3.15,0,0,1-.28-.48l0-.07-.08-.19,0-.09-.05-.17,0-.1c0-.06,0-.12,0-.19l0-.09c0-.09,0-.19,0-.28h.32a2.83,2.83,0,0,0,5.66,0h.32A3.16,3.16,0,0,1,10.7,13.12Z"/><path class="cls-5" d="M9.89,6.87h.31a.48.48,0,0,0,.47-.32.53.53,0,0,0,0-.42.43.43,0,0,0-.28-.22,1.64,1.64,0,0,0-.63,0,.48.48,0,0,0-.32.2.5.5,0,0,0,.48.78Zm-.23-.6a.17.17,0,0,1,.11-.07,1.34,1.34,0,0,1,.51,0,.12.12,0,0,1,.07.06.22.22,0,0,1,0,.16h0a.2.2,0,0,1-.25.1H9.85a.18.18,0,0,1-.18-.29Z"/></g></g></g></svg>