<svg xmlns="http://www.w3.org/2000/svg" xmlns:xlink="http://www.w3.org/1999/xlink" viewBox="0 0 64 40"><defs><style>.cls-1{fill:#f1f2f2;}.cls-2{fill:#f58220;}.cls-3{fill:url(#radial-gradient);}.cls-4{fill:#001722;}.cls-5{fill:#231f20;}</style><radialGradient id="radial-gradient" cx="26.36" cy="-466.08" r="3.15" gradientTransform="translate(6.42 486.08)" gradientUnits="userSpaceOnUse"><stop offset="0.01" stop-color="#ffeee0"/><stop offset="0.11" stop-color="#fee9d7"/><stop offset="0.28" stop-color="#fddbbf"/><stop offset="0.49" stop-color="#fbc597"/><stop offset="0.74" stop-color="#f8a560"/><stop offset="1" stop-color="#f48120"/></radialGradient></defs><title>Discover</title><g id="Layer_2" data-name="Layer 2"><g id="Layer_1-2" data-name="Layer 1"><rect class="cls-1" width="64" height="40" rx="2.13" ry="2.13"/><path class="cls-2" d="M17.59,40H61.86A2.13,2.13,0,0,0,64,37.87v-15C59.75,25.58,43.73,34.87,17.59,40Z"/><path class="cls-3" d="M32.78,16.88A3.14,3.14,0,0,0,29.59,20a3.19,3.19,0,1,0,3.19-3.08Z"/><path class="cls-4" d="M14.65,17H12.93v6h1.71a3.13,3.13,0,0,0,2.14-.69A3,3,0,0,0,17.86,20,3,3,0,0,0,14.65,17ZM16,21.49a2.21,2.21,0,0,1-1.6.48H14.1V18h.31a2.17,2.17,0,0,1,1.6.48A2,2,0,0,1,16.66,20,2.05,2.05,0,0,1,16,21.49Z"/><rect class="cls-4" x="18.4" y="17" width="1.17" height="5.99"/><path class="cls-4" d="M22.43,19.29c-.7-.26-.91-.43-.91-.75s.37-.66.87-.66a1.22,1.22,0,0,1,.94.48l.61-.8a2.62,2.62,0,0,0-1.76-.67,1.76,1.76,0,0,0-1.87,1.72c0,.83.38,1.25,1.47,1.64a4.55,4.55,0,0,1,.81.34.72.72,0,0,1,.35.62.85.85,0,0,1-.91.84,1.38,1.38,0,0,1-1.27-.8L20,22a2.33,2.33,0,0,0,2.07,1.14,1.93,1.93,0,0,0,2.06-2C24.15,20.21,23.76,19.78,22.43,19.29Z"/><path class="cls-4" d="M24.52,20a3.1,3.1,0,0,0,3.16,3.13,3.21,3.21,0,0,0,1.46-.35V21.4a1.87,1.87,0,0,1-1.41.65,2,2,0,0,1-2-2.07,2,2,0,0,1,2-2.06,2,2,0,0,1,1.46.67V17.23a3,3,0,0,0-1.44-.37A3.15,3.15,0,0,0,24.52,20Z"/><polygon class="cls-4" points="38.61 21.02 37.01 17 35.73 17 38.28 23.14 38.91 23.14 41.49 17 40.23 17 38.61 21.02"/><polygon class="cls-4" points="42.02 22.99 45.34 22.99 45.34 21.97 43.19 21.97 43.19 20.35 45.25 20.35 45.25 19.34 43.19 19.34 43.19 18.01 45.34 18.01 45.34 17 42.02 17 42.02 22.99"/><path class="cls-4" d="M50,18.76c0-1.12-.77-1.77-2.12-1.77H46.11v6h1.17V20.58h.15L49,23h1.44l-1.89-2.52A1.59,1.59,0,0,0,50,18.76Zm-2.34,1h-.34V17.94h.36c.73,0,1.12.31,1.12.89S48.36,19.75,47.62,19.75Z"/><path class="cls-5" d="M50.78,17.44c0-.1-.07-.16-.2-.16h-.17v.53h.13V17.6l.15.21h.16l-.18-.22A.14.14,0,0,0,50.78,17.44Zm-.22.07h0v-.14h0c.06,0,.09,0,.09.07S50.63,17.51,50.56,17.51Z"/><path class="cls-5" d="M50.61,17.08a.46.46,0,1,0,.46.46A.46.46,0,0,0,50.61,17.08Zm0,.84a.38.38,0,1,1,.36-.38A.37.37,0,0,1,50.61,17.92Z"/></g></g></svg>