<svg xmlns="http://www.w3.org/2000/svg" xmlns:xlink="http://www.w3.org/1999/xlink" viewBox="0 0 39.78 39.78"><defs><style>.cls-1{isolation:isolate;}.cls-2{fill:#e96063;}.cls-3,.cls-5,.cls-6,.cls-7,.cls-8{opacity:0.5;mix-blend-mode:multiply;}.cls-3{fill:url(#linear-gradient);}.cls-4{fill:#fff;}.cls-5{fill:url(#linear-gradient-2);}.cls-6{fill:url(#linear-gradient-3);}.cls-7{fill:url(#linear-gradient-4);}.cls-8{fill:url(#linear-gradient-5);}</style><linearGradient id="linear-gradient" x1="28.29" y1="8.39" x2="30.47" y2="9.61" gradientUnits="userSpaceOnUse"><stop offset="0"/><stop offset="0.05" stop-color="#171717"/><stop offset="0.2" stop-color="#545454"/><stop offset="0.35" stop-color="#888"/><stop offset="0.5" stop-color="#b3b3b3"/><stop offset="0.64" stop-color="#d4d4d4"/><stop offset="0.77" stop-color="#ececec"/><stop offset="0.9" stop-color="#fafafa"/><stop offset="1" stop-color="#fff"/></linearGradient><linearGradient id="linear-gradient-2" x1="8.89" y1="10.15" x2="11.66" y2="11.36" gradientUnits="userSpaceOnUse"><stop offset="0"/><stop offset="0.02" stop-color="#060606"/><stop offset="0.3" stop-color="#5d5d5d"/><stop offset="0.55" stop-color="#a2a2a2"/><stop offset="0.76" stop-color="#d5d5d5"/><stop offset="0.91" stop-color="#f3f3f3"/><stop offset="1" stop-color="#fff"/></linearGradient><linearGradient id="linear-gradient-3" x1="3.43" y1="16.83" x2="4.19" y2="17.16" xlink:href="#linear-gradient-2"/><linearGradient id="linear-gradient-4" x1="8.49" y1="22.6" x2="9.25" y2="22.93" xlink:href="#linear-gradient-2"/><linearGradient id="linear-gradient-5" x1="23.54" y1="32.22" x2="24.29" y2="32.55" xlink:href="#linear-gradient-2"/></defs><title>floral</title><g class="cls-1"><g id="Layer_2" data-name="Layer 2"><g id="Capa_1" data-name="Capa 1"><circle class="cls-2" cx="19.89" cy="19.89" r="19.89"/><polygon class="cls-3" points="28.99 10.1 30.83 11.14 32.02 9.15 28.99 7.65 28.99 8.38 28.27 8.88 28.99 9.39 28.99 10.1"/><path class="cls-4" d="M28,9.12a.72.72,0,0,1,.74.74.25.25,0,0,0,.49,0A.72.72,0,0,1,30,9.12a.25.25,0,0,0,0-.49.72.72,0,0,1-.74-.74.25.25,0,1,0-.49,0,.72.72,0,0,1-.74.74.25.25,0,1,0,0,.49Zm1-.49a1.16,1.16,0,0,0,.25.25,1.16,1.16,0,0,0-.25.25,1.17,1.17,0,0,0-.25-.25A1.17,1.17,0,0,0,29,8.63Z"/><polygon class="cls-5" points="9.87 11.39 12.13 12.72 12.91 11.3 10.21 9.58 9.36 10.49 9.87 11.39"/><path class="cls-4" d="M10.21,11.4l.74-.74v-.34l-.74-.74H9.87l-.74.74v.34l.74.74ZM10,10.09l.39.39-.39.39-.39-.39Z"/><polygon class="cls-6" points="3.5 17.06 4.31 17.55 4.55 17.09 3.75 16.64 3.5 17.06"/><path class="cls-4" d="M3.63,17.1a.25.25,0,1,0-.25-.25A.23.23,0,0,0,3.63,17.1Z"/><polygon class="cls-7" points="8.56 22.83 9.37 23.32 9.61 22.86 8.81 22.4 8.56 22.83"/><path class="cls-4" d="M8.68,22.86a.25.25,0,1,0-.25-.25A.23.23,0,0,0,8.68,22.86Z"/><polygon class="cls-8" points="23.61 32.45 24.41 32.93 24.65 32.48 23.86 32.02 23.61 32.45"/><path class="cls-4" d="M23.74,32.48a.25.25,0,1,0-.25-.25A.23.23,0,0,0,23.74,32.48Z"/><path class="cls-4" d="M29.39,17.36a4.88,4.88,0,0,0-2.83-1.87A4.22,4.22,0,0,0,24,14.81a4.2,4.2,0,0,0-1.44-2.24,4.88,4.88,0,0,0-2.65-2.12,4.88,4.88,0,0,0-2.65,2.12,4.2,4.2,0,0,0-1.44,2.24,4.22,4.22,0,0,0-2.57.68,4.88,4.88,0,0,0-2.83,1.87,4.88,4.88,0,0,0,1.19,3.18,4.2,4.2,0,0,0,1.68,2.06,4.23,4.23,0,0,0-.15,2.66,4.88,4.88,0,0,0,.9,3.27,2.32,2.32,0,0,0,1.21.24,6.47,6.47,0,0,0,2.18-.39,4.22,4.22,0,0,0,2.48-1,4.2,4.2,0,0,0,2.48,1,6.47,6.47,0,0,0,2.18.39,2.32,2.32,0,0,0,1.21-.24,4.88,4.88,0,0,0,.9-3.27,4.2,4.2,0,0,0-.15-2.66,4.22,4.22,0,0,0,1.68-2.06A4.88,4.88,0,0,0,29.39,17.36Zm-1.75,2.92A3.62,3.62,0,0,1,26.25,22a4.37,4.37,0,0,0-.24-.37,4.23,4.23,0,0,0-2.19-1.56,3.91,3.91,0,0,0-.55-1.7,4.23,4.23,0,0,0,.86-2.55,4.29,4.29,0,0,0,0-.45,3.62,3.62,0,0,1,2.17.61l.09,0a4.84,4.84,0,0,1,2.46,1.48,4.84,4.84,0,0,1-1.12,2.64A.3.3,0,0,0,27.65,20.28ZM25.41,28a4.84,4.84,0,0,1-2.86-.24l-.1,0A3.62,3.62,0,0,1,19,24.28a3.94,3.94,0,0,0,4.84-3.52,3.62,3.62,0,0,1,2.25,4.39.31.31,0,0,0,0,.1A4.84,4.84,0,0,1,25.41,28Zm-8.17-.24a4.84,4.84,0,0,1-2.86.25,4.83,4.83,0,0,1-.65-2.8.31.31,0,0,0,0-.1,3.62,3.62,0,0,1,.09-2.25l.42.16a4.22,4.22,0,0,0,2.69,0,4,4,0,0,0,1.45,1.05A4.23,4.23,0,0,0,19.45,27a3.62,3.62,0,0,1-2.11.78Zm-5.15-7.6A4.84,4.84,0,0,1,11,17.55a4.84,4.84,0,0,1,2.46-1.48l.09,0a3.62,3.62,0,0,1,2.17-.61,4.28,4.28,0,0,0,0,.45,4.23,4.23,0,0,0,.86,2.55,3.93,3.93,0,0,0,0,4.09,3.62,3.62,0,0,1-4.4-2.22A.3.3,0,0,0,12.09,20.19Zm5.64-7.25a4.84,4.84,0,0,1,2.17-1.88,4.84,4.84,0,0,1,2.17,1.88l.07.07a3.62,3.62,0,0,1,.75,4.87,3.93,3.93,0,0,0-6,0A3.62,3.62,0,0,1,17.65,13Zm5,9.17a3.35,3.35,0,0,1-1.22,1.22,3.3,3.3,0,0,1-1.66.45h0a3.31,3.31,0,0,1-1.66-.45A3.35,3.35,0,0,1,17,22.11a3.3,3.3,0,0,1-.45-1.66h0A3.31,3.31,0,0,1,17,18.78a3.35,3.35,0,0,1,1.22-1.22,3.3,3.3,0,0,1,1.66-.45h0a3.31,3.31,0,0,1,1.66.45,3.35,3.35,0,0,1,1.22,1.22,3.31,3.31,0,0,1,.45,1.66h0A3.31,3.31,0,0,1,22.77,22.11Z"/></g></g></g></svg>