<svg xmlns="http://www.w3.org/2000/svg" xmlns:xlink="http://www.w3.org/1999/xlink" viewBox="0 0 18.72 18.72"><defs><style>.cls-1{isolation:isolate;}.cls-10,.cls-11,.cls-2,.cls-4,.cls-7,.cls-8,.cls-9{opacity:0.5;}.cls-10,.cls-11,.cls-2,.cls-4,.cls-6,.cls-7,.cls-8,.cls-9{mix-blend-mode:multiply;}.cls-2{fill:url(#linear-gradient);}.cls-3{fill:#fff;}.cls-4{fill:url(#linear-gradient-2);}.cls-5{fill:#e96063;}.cls-6{opacity:0.4;fill:url(#linear-gradient-3);}.cls-7{fill:url(#linear-gradient-4);}.cls-8{fill:url(#linear-gradient-5);}.cls-9{fill:url(#linear-gradient-6);}.cls-10{fill:url(#linear-gradient-7);}.cls-11{fill:url(#linear-gradient-8);}</style><linearGradient id="linear-gradient" x1="13.78" y1="4.99" x2="15.33" y2="6.19" gradientUnits="userSpaceOnUse"><stop offset="0"/><stop offset="0.14" stop-color="#2e2e2e"/><stop offset="0.38" stop-color="#777"/><stop offset="0.59" stop-color="#b1b1b1"/><stop offset="0.77" stop-color="#dcdcdc"/><stop offset="0.92" stop-color="#f5f5f5"/><stop offset="1" stop-color="#fff"/></linearGradient><linearGradient id="linear-gradient-2" x1="13.97" y1="12.38" x2="14.98" y2="12.82" gradientUnits="userSpaceOnUse"><stop offset="0"/><stop offset="0.02" stop-color="#060606"/><stop offset="0.3" stop-color="#5d5d5d"/><stop offset="0.55" stop-color="#a2a2a2"/><stop offset="0.76" stop-color="#d5d5d5"/><stop offset="0.91" stop-color="#f3f3f3"/><stop offset="1" stop-color="#fff"/></linearGradient><linearGradient id="linear-gradient-3" x1="4.96" y1="11.47" x2="18.61" y2="11.47" xlink:href="#linear-gradient-2"/><linearGradient id="linear-gradient-4" x1="13.31" y1="3.95" x2="14.34" y2="4.52" gradientUnits="userSpaceOnUse"><stop offset="0"/><stop offset="0.05" stop-color="#171717"/><stop offset="0.2" stop-color="#545454"/><stop offset="0.35" stop-color="#888"/><stop offset="0.5" stop-color="#b3b3b3"/><stop offset="0.64" stop-color="#d4d4d4"/><stop offset="0.77" stop-color="#ececec"/><stop offset="0.9" stop-color="#fafafa"/><stop offset="1" stop-color="#fff"/></linearGradient><linearGradient id="linear-gradient-5" x1="4.18" y1="4.78" x2="5.49" y2="5.35" xlink:href="#linear-gradient-2"/><linearGradient id="linear-gradient-6" x1="1.62" y1="7.92" x2="1.97" y2="8.08" xlink:href="#linear-gradient-2"/><linearGradient id="linear-gradient-7" x1="4" y1="10.64" x2="4.35" y2="10.79" xlink:href="#linear-gradient-2"/><linearGradient id="linear-gradient-8" x1="11.08" y1="15.16" x2="11.43" y2="15.32" xlink:href="#linear-gradient-2"/></defs><title>floral</title><g class="cls-1"><g id="Layer_2" data-name="Layer 2"><g id="Capa_1" data-name="Capa 1"><polygon class="cls-2" points="14.25 5.88 15.38 6.68 15.79 6.02 14.41 5.03 14.25 5.17 14.07 5.45 14.25 5.88"/><path class="cls-3" d="M14.41,5.88l.35-.35V5.37L14.41,5h-.16l-.35.35v.16l.35.35Zm-.08-.61.18.18-.18.18-.18-.18Z"/><polygon class="cls-4" points="14.24 12.77 15.18 13.33 15.46 12.75 14.31 12.11 14.24 12.77"/><path class="cls-3" d="M14.08,12.57h.12v.12a.12.12,0,1,0,.23,0v-.12h.12a.12.12,0,0,0,0-.23h-.12v-.12a.12.12,0,0,0-.23,0v.12h-.12a.12.12,0,1,0,0,.23Z"/><circle class="cls-5" cx="9.36" cy="9.36" r="9.36"/><path class="cls-6" d="M6.6,13.43l6.58,4.48a8.49,8.49,0,0,0,4-3.37c1.72-2.63,1.43-3.63,1.43-3.63L13.76,8l-1.15-.61-1.43-.36-.69-1L9.36,5l-.7.42L7.73,6.68l-.35.58L7,7l-1.18.44L5,8l.35.82L5.86,10l.3.39.24.18-.27.53.13,1.65Z"/><polygon class="cls-7" points="13.64 4.75 14.51 5.24 15.07 4.31 13.64 3.6 13.64 3.95 13.3 4.18 13.64 4.42 13.64 4.75"/><path class="cls-3" d="M13.18,4.29a.34.34,0,0,1,.35.35.12.12,0,0,0,.23,0,.34.34,0,0,1,.35-.35.12.12,0,1,0,0-.23.34.34,0,0,1-.35-.35.12.12,0,1,0-.23,0,.34.34,0,0,1-.35.35.12.12,0,0,0,0,.23Zm.46-.23a.55.55,0,0,0,.12.12.55.55,0,0,0-.12.12.55.55,0,0,0-.12-.12A.55.55,0,0,0,13.64,4.06Z"/><polygon class="cls-8" points="4.65 5.36 5.71 5.99 6.08 5.32 4.81 4.51 4.41 4.94 4.65 5.36"/><path class="cls-3" d="M4.81,5.36,5.15,5V4.86l-.35-.35H4.65l-.35.35V5l.35.35Zm-.08-.61.18.18-.18.18-.18-.18Z"/><polygon class="cls-9" points="1.65 8.03 2.03 8.26 2.14 8.05 1.77 7.83 1.65 8.03"/><path class="cls-3" d="M1.71,8a.12.12,0,1,0-.12-.12A.11.11,0,0,0,1.71,8Z"/><polygon class="cls-10" points="4.03 10.74 4.41 10.97 4.52 10.76 4.15 10.54 4.03 10.74"/><path class="cls-3" d="M4.09,10.76A.12.12,0,1,0,4,10.64.11.11,0,0,0,4.09,10.76Z"/><polygon class="cls-11" points="11.11 15.27 11.49 15.5 11.6 15.29 11.23 15.07 11.11 15.27"/><path class="cls-3" d="M11.17,15.29a.12.12,0,1,0-.12-.12A.11.11,0,0,0,11.17,15.29Z"/><path class="cls-3" d="M13.83,8.17a2.3,2.3,0,0,0-1.33-.88A2,2,0,0,0,11.29,7a2,2,0,0,0-.68-1.05,2.3,2.3,0,0,0-1.25-1,2.3,2.3,0,0,0-1.25,1A2,2,0,0,0,7.43,7a2,2,0,0,0-1.21.32,2.3,2.3,0,0,0-1.33.88,2.3,2.3,0,0,0,.56,1.5,2,2,0,0,0,.79,1,2,2,0,0,0-.07,1.25,2.3,2.3,0,0,0,.43,1.54,1.09,1.09,0,0,0,.57.11,3,3,0,0,0,1-.18,2,2,0,0,0,1.17-.45,2,2,0,0,0,1.17.45,3,3,0,0,0,1,.18,1.09,1.09,0,0,0,.57-.11,2.3,2.3,0,0,0,.43-1.54,2,2,0,0,0-.07-1.25,2,2,0,0,0,.79-1A2.3,2.3,0,0,0,13.83,8.17ZM13,9.55a1.7,1.7,0,0,1-.66.83l-.11-.18a2,2,0,0,0-1-.73,1.84,1.84,0,0,0-.26-.8,2,2,0,0,0,.4-1.2,2,2,0,0,0,0-.21,1.7,1.7,0,0,1,1,.29l0,0a2.28,2.28,0,0,1,1.16.7A2.28,2.28,0,0,1,13,9.5ZM12,13.2a2.28,2.28,0,0,1-1.35-.12h0a1.7,1.7,0,0,1-1.64-1.65,1.85,1.85,0,0,0,2.28-1.66,1.7,1.7,0,0,1,1.06,2.06.14.14,0,0,0,0,0A2.28,2.28,0,0,1,12,13.2Zm-3.84-.12a2.28,2.28,0,0,1-1.35.12,2.27,2.27,0,0,1-.31-1.32.15.15,0,0,0,0,0,1.7,1.7,0,0,1,0-1.06l.2.08a2,2,0,0,0,1.27,0,1.86,1.86,0,0,0,.68.5A2,2,0,0,0,9,12.54l.13.16a1.7,1.7,0,0,1-1,.37ZM5.69,9.5a2.28,2.28,0,0,1-.53-1.24,2.27,2.27,0,0,1,1.16-.7l0,0a1.7,1.7,0,0,1,1-.29,2,2,0,0,0,0,.21,2,2,0,0,0,.4,1.2,1.85,1.85,0,0,0,0,1.93,1.7,1.7,0,0,1-2.07-1ZM8.34,6.09a2.28,2.28,0,0,1,1-.88,2.27,2.27,0,0,1,1,.88l0,0a1.7,1.7,0,0,1,.36,2.29A1.85,1.85,0,0,0,8,8.42a1.7,1.7,0,0,1,.36-2.29Zm2.38,4.31a1.58,1.58,0,0,1-.57.57,1.56,1.56,0,0,1-.78.21h0A1.56,1.56,0,0,1,8.58,11,1.58,1.58,0,0,1,8,10.41a1.56,1.56,0,0,1-.21-.78h0A1.56,1.56,0,0,1,8,8.84a1.58,1.58,0,0,1,.57-.57,1.56,1.56,0,0,1,.78-.21h0a1.56,1.56,0,0,1,.78.21,1.58,1.58,0,0,1,.57.57,1.56,1.56,0,0,1,.21.78h0A1.56,1.56,0,0,1,10.72,10.41Z"/></g></g></g></svg>