<svg xmlns="http://www.w3.org/2000/svg" viewBox="0 0 36.97 29.64"><defs><style>.cls-1{fill:#4e0000;}</style></defs><title>Espresso_1</title><g id="Layer_2" data-name="Layer 2"><g id="Capa_1" data-name="Capa 1"><path class="cls-1" d="M35,26.91H31.6a5.81,5.81,0,0,0,1.92-1.45A4.06,4.06,0,0,0,37,21.28a2.58,2.58,0,0,0-1.62-2.59.73.73,0,0,0-.22-.47.72.72,0,0,0-.51-.22H20a.75.75,0,0,0-.73.73c0,3.18.49,6.62,3.74,8.17H19.55a.91.91,0,0,0-.92.92.88.88,0,0,0,.79.86l4,.29a.15.15,0,0,1,.14.11,1,1,0,0,0,.91.56h5.28a.93.93,0,0,0,.88-.57.15.15,0,0,1,.14-.09l4.32-.29h.05a.87.87,0,0,0,.77-.85A.91.91,0,0,0,35,26.91Zm-7.72,0c-6.25,0-7.17-3.87-7.22-8.08H34.52C34.48,23,33.56,26.91,27.31,26.91Zm7-2.54a10.81,10.81,0,0,0,1.08-4.79,1.94,1.94,0,0,1,.77,1.7A3.27,3.27,0,0,1,34.26,24.37ZM30,28.7a.24.24,0,0,1-.18.12H24.51a.23.23,0,0,1-.17-.11,1.09,1.09,0,0,0-.84-.56l-4-.28c-.07,0-.08,0-.08,0a.11.11,0,0,1,.1-.1H35.06a.11.11,0,0,1,.1.1s0,0-.07,0l-4.26.29A1.08,1.08,0,0,0,30,28.7Z"/><path class="cls-1" d="M25.48,25.32c-2.19-.37-3.33-1.6-3.8-4.12a.45.45,0,0,0-.49-.33.44.44,0,0,0-.33.49c.51,2.85,1.89,4.32,4.48,4.78h.06a.4.4,0,0,0,.41-.33A.42.42,0,0,0,25.48,25.32Z"/><path class="cls-1" d="M27.86,16.86a1.57,1.57,0,0,1-1.57-1.57A5.38,5.38,0,0,1,27.53,13a.44.44,0,0,1,.66,0,5.38,5.38,0,0,1,1.24,2.31A1.57,1.57,0,0,1,27.86,16.86Zm0-2.9a3.82,3.82,0,0,0-.71,1.33.71.71,0,0,0,1.43,0A3.81,3.81,0,0,0,27.86,14Z"/><path class="cls-1" d="M27.77,11.77a1.24,1.24,0,0,1-.93-.38,1.82,1.82,0,0,1-.41-1.24l-.1-1.77a1.21,1.21,0,0,1-.67-.9,1.24,1.24,0,0,1,.07-.62c-.31,0-.72-.08-1-.14l-1.47-.31-2.7.28a1.89,1.89,0,0,1-.24.53,1.85,1.85,0,0,1-1.2.52L10.61,8.92a5.8,5.8,0,0,1-2.33,1.16l-.18,0a10.54,10.54,0,0,1-2.44.39l-1.31.12-.55,0h0A3.62,3.62,0,0,1,0,7.77C-.31,5.07,2.16,4.39,4.71,3.93a12.19,12.19,0,0,1,2.19-.2,9.65,9.65,0,0,1,2.83.38C11,3.95,18.48,3,19,3H19a1.15,1.15,0,0,1,.85.51l2.36-.08c0-.16,0-.36,0-.59a5.15,5.15,0,0,1,.25-1.54.93.93,0,0,1-.15-.68c.08-.53.71-.62,2-.62,1,0,2.3.06,4,.16,4,.23,4.83.37,5.15.61a.7.7,0,0,1,.29.49.85.85,0,0,1-.1.48h0a22.59,22.59,0,0,1,0,3.11c-.09,1.64-2.14,2.07-2.23,2.08h-.06L29.61,7l0,.38a1.07,1.07,0,0,1-.23.78l-.09,2.07a1.47,1.47,0,0,1-1.44,1.5Zm-.63-4.23.15,2.61v0a1,1,0,0,0,.18.63.38.38,0,0,0,.31.11h0a.61.61,0,0,0,.64-.66l.1-2.52.19-.09a.32.32,0,0,0,0-.18l-.07-1.23,2.63-.15c.19,0,1.47-.38,1.52-1.28a26.84,26.84,0,0,0,0-2.86l-.1-.38.12-.14A43.1,43.1,0,0,0,28.32,1c-1.69-.1-3-.16-4-.16a9.33,9.33,0,0,0-1,0L23.5,1l-.12.35a5.12,5.12,0,0,0-.29,1.47,6.76,6.76,0,0,1,0,1.11l0,.36-3.7.12-.1-.3A.36.36,0,0,0,19,3.85c-.35,0-5.71.67-9.22,1.12h-.1l-.1,0a8.53,8.53,0,0,0-2.64-.37,11.32,11.32,0,0,0-2,.19C1.65,5.36.68,6.06.88,7.66A2.76,2.76,0,0,0,3.8,9.81h0l.46,0,1.31-.12A9.86,9.86,0,0,0,7.89,9.3l.18,0a4.78,4.78,0,0,0,2.05-1l.1-.1.14,0L19,6.9a1.62,1.62,0,0,0,.63-.18,1.67,1.67,0,0,0,.17-.49l.06-.32,3.46-.36h.07s.92.2,1.51.32S26.27,6,26.28,6l.38,0,0,.77L26.63,7a.83.83,0,0,0-.13.37.56.56,0,0,0,.12.24Z"/><path class="cls-1" d="M19.87,6.6a3.18,3.18,0,0,1-.7-1.41,4.26,4.26,0,0,1,0-1.3l.84.14a3.62,3.62,0,0,0,0,1,2.41,2.41,0,0,0,.48,1Z"/><path class="cls-1" d="M23.41,6.45c-1-.42-1.16-2.28-1.18-2.65l.85,0c0,.7.29,1.75.66,1.9Z"/><path class="cls-1" d="M10.05,8.73a6.62,6.62,0,0,1-.73-2,10.52,10.52,0,0,1,0-2.21l.85.08a9.88,9.88,0,0,0,0,2,5.84,5.84,0,0,0,.62,1.73Z"/><path class="cls-1" d="M28.82,2.16h-.9a36,36,0,0,1-5-.54l.16-.84a35.8,35.8,0,0,0,4.89.53c2.36.06,5.24-.15,5.27-.15l.06.85S31,2.16,28.82,2.16Z"/><path class="cls-1" d="M28.28,7.09l-.54,0C27,7,26.17,6.9,26.13,6.89L26.26,6s.81.12,1.54.17c.53,0,1.5,0,1.51,0l0,.85S28.79,7.09,28.28,7.09Z"/></g></g></svg>