<svg xmlns="http://www.w3.org/2000/svg" viewBox="0 0 64 40"><defs><style>.cls-1{fill:#084d95;}.cls-2{fill:#fff;}</style></defs><title>Diners</title><g id="Layer_2" data-name="Layer 2"><g id="Layer_1-2" data-name="Layer 1"><rect class="cls-1" width="64" height="40" rx="2.13" ry="2.13"/><path class="cls-2" d="M33.53,21.82a6.87,6.87,0,0,0,6.92-6.56,6.76,6.76,0,0,0-6.92-6.67H30.42a6.52,6.52,0,0,0-6.67,6.67,6.63,6.63,0,0,0,6.67,6.56Z"/><path class="cls-1" d="M31.81,18.77V11.61a3.84,3.84,0,0,1,0,7.17m-5.21-3.58a3.85,3.85,0,0,1,2.46-3.58v7.16a3.84,3.84,0,0,1-2.46-3.58m3.84-6.06a6.06,6.06,0,1,0,6.06,6.06,6.06,6.06,0,0,0-6.06-6.06"/><path class="cls-2" d="M17,26.33c0,.54.39.6.73.6a2,2,0,0,0,2-2.18,2.1,2.1,0,0,0-2.19-2.25c-.29,0-.42,0-.55,0Zm-.68-3.28c0-.63-.33-.59-.64-.59v-.18h2a2.55,2.55,0,0,1,2.8,2.45c0,.69-.41,2.43-2.88,2.43h-2V27c.42,0,.62-.06.64-.53Z"/><path class="cls-2" d="M21.48,22.88a.34.34,0,0,1,0-.69.34.34,0,0,1,.34.34.35.35,0,0,1-.34.35M20.73,27h.13c.2,0,.34,0,.34-.23v-1.9c0-.31-.1-.35-.36-.49v-.11c.33-.1.72-.23.75-.25a.24.24,0,0,1,.13,0s0,0,0,.1v2.69c0,.23.15.23.35.23h.12v.18h-1.5Z"/><path class="cls-2" d="M22.89,24.89c0-.26-.08-.33-.4-.46V24.3a9.2,9.2,0,0,0,.92-.34s0,0,0,.07v.45A2.06,2.06,0,0,1,24.66,24c.59,0,.8.43.8,1v1.8c0,.23.15.23.35.23h.13v.18h-1.5V27h.12c.2,0,.34,0,.34-.23V24.93c0-.4-.24-.59-.64-.59a1.87,1.87,0,0,0-.81.34v2.07c0,.23.16.23.35.23h.13v.18h-1.5V27h.13c.2,0,.33,0,.33-.23Z"/><path class="cls-2" d="M27.71,25c.18,0,.2-.09.2-.18a.59.59,0,0,0-.61-.64c-.43,0-.72.31-.8.82Zm-1.24.22a1.77,1.77,0,0,0,0,.41,1.17,1.17,0,0,0,1,1.21,1.34,1.34,0,0,0,.94-.47l.1.1a1.64,1.64,0,0,1-1.29.79,1.4,1.4,0,0,1-1.34-1.52c0-1.37.92-1.78,1.41-1.78a1.11,1.11,0,0,1,1.18,1.1.89.89,0,0,1,0,.13l-.06,0Z"/><path class="cls-2" d="M28.67,27h.19c.2,0,.34,0,.34-.23v-2c0-.22-.26-.26-.36-.32v-.1c.51-.22.79-.4.85-.4s.06,0,.06.09v.63h0c.17-.27.47-.72.89-.72a.38.38,0,0,1,.4.37.34.34,0,0,1-.33.36c-.22,0-.22-.17-.46-.17a.59.59,0,0,0-.51.58v1.64c0,.23.14.23.34.23h.39v.18H28.67Z"/><path class="cls-2" d="M31.36,26.19a.92.92,0,0,0,.88.85.49.49,0,0,0,.57-.5c0-.83-1.52-.56-1.52-1.69a1,1,0,0,1,1.08-.9,1.84,1.84,0,0,1,.8.2l0,.71h-.16a.72.72,0,0,0-.76-.69.49.49,0,0,0-.55.46c0,.82,1.62.57,1.62,1.66,0,.46-.37,1-1.2,1a1.84,1.84,0,0,1-.85-.24l-.08-.8Z"/><path class="cls-2" d="M39.69,23.54h-.18A1.33,1.33,0,0,0,38,22.39a2,2,0,0,0-2,2.22A2.28,2.28,0,0,0,38.13,27a1.42,1.42,0,0,0,1.41-1.21l.16,0-.16,1a3.93,3.93,0,0,1-1.55.37,2.49,2.49,0,0,1-2.67-2.63A2.57,2.57,0,0,1,38,22.17a5.06,5.06,0,0,1,1.65.37Z"/><path class="cls-2" d="M39.94,27h.13c.2,0,.34,0,.34-.23v-3.9c0-.46-.1-.47-.37-.55v-.11a4.37,4.37,0,0,0,.72-.3.7.7,0,0,1,.15-.08s.06,0,.06.1v4.83c0,.23.15.23.35.23h.12v.18h-1.5Z"/><path class="cls-2" d="M44.43,26.77c0,.13.08.13.2.13h.28V27a7.25,7.25,0,0,0-1,.22l0,0v-.57a1.89,1.89,0,0,1-1.24.59.75.75,0,0,1-.77-.83V24.64c0-.18,0-.36-.42-.39v-.13l.9,0c.08,0,.08,0,.08.2v1.8c0,.21,0,.81.61.81a1.57,1.57,0,0,0,.85-.43V24.58c0-.14-.34-.22-.59-.29v-.13c.63,0,1-.1,1.09-.1s.06,0,.06.13Z"/><path class="cls-2" d="M45.82,26.37a.75.75,0,0,0,.72.71c.75,0,1.06-.74,1.06-1.36a1.33,1.33,0,0,0-1.12-1.38,1.08,1.08,0,0,0-.66.33Zm0-1.9a1.77,1.77,0,0,1,1-.5,1.36,1.36,0,0,1,1.3,1.47,1.77,1.77,0,0,1-1.67,1.83,2.07,2.07,0,0,1-1-.24l-.21.16-.15-.08a8.31,8.31,0,0,0,.1-1.25v-3c0-.46-.11-.47-.37-.55v-.11a4.43,4.43,0,0,0,.72-.3.67.67,0,0,1,.15-.08s.05,0,.05.1Z"/><path class="cls-2" d="M15.64,31.22h.05c.14,0,.28,0,.28-.22V29c0-.2-.14-.22-.28-.22h-.05v-.11l.56,0,.6,0v.11h-.05c-.14,0-.28,0-.28.22v2c0,.2.15.22.28.22h.05v.11l-.6,0-.56,0Z"/><path class="cls-2" d="M16.79,31.32v-.08h0c-.14,0-.3,0-.3-.23V29c0-.21.16-.23.3-.23h0V28.7l-.58,0-.55,0v.08h0c.14,0,.3,0,.3.23v2c0,.21-.16.23-.3.23h0v.08l.54,0,.59,0m0,0H15.63v-.15h.07c.14,0,.26,0,.27-.2V29c0-.19-.13-.2-.27-.2h-.07v-.15h1.19v.15h-.07c-.14,0-.27,0-.27.2v2c0,.19.13.2.27.2h.07v.15Z"/><path class="cls-2" d="M19.42,30.59h0V29.15a.31.31,0,0,0-.33-.36H19v-.11l.53,0,.47,0v.11H20c-.16,0-.34,0-.34.48V31a2.49,2.49,0,0,0,0,.38H19.5l-2-2.18v1.57c0,.33.06.45.36.45H18v.11l-.49,0-.52,0v-.11H17c.26,0,.34-.18.34-.48v-1.6A.34.34,0,0,0,17,28.8h0v-.11l.44,0,.34,0Z"/><path class="cls-2" d="M19.41,30.58h0Zm0,0h0Zm.08.79h.13a2.43,2.43,0,0,1,0-.37V29.28c0-.46.19-.5.35-.5h0V28.7l-.45,0-.52,0v.08h.07a.33.33,0,0,1,.35.37v1.44h0L17.73,28.7l-.34,0-.42,0v.08h0a.36.36,0,0,1,.36.36v1.6c0,.3-.08.5-.36.5h0v.08l.5,0,.47,0v-.08h0c-.3,0-.37-.13-.37-.46V29.17Zm.14,0h-.16l-1.93-2.15v1.53c0,.33.05.43.34.43H18v.15h-1v-.15H17c.25,0,.32-.16.33-.47v-1.6a.33.33,0,0,0-.33-.33h-.07v-.15h.81l1.67,1.88v-1.4c0-.3-.21-.34-.32-.34H19v-.15h1v.15H20c-.16,0-.32,0-.32.47V31a2.57,2.57,0,0,0,0,.38v0Z"/><path class="cls-2" d="M20.58,28.87c-.29,0-.3.07-.35.35h-.11c0-.11,0-.21,0-.32a2.47,2.47,0,0,0,0-.32h.09c0,.11.13.11.23.11h2c.1,0,.2,0,.21-.12l.09,0c0,.1,0,.21,0,.31s0,.21,0,.31l-.11,0c0-.14,0-.37-.28-.37H21.7v2c0,.29.13.33.32.33h.07v.11l-.62,0-.64,0v-.11h.07c.21,0,.32,0,.32-.32v-2Z"/><path class="cls-2" d="M22.08,31.35H20.8v-.15h.09c.21,0,.29,0,.3-.3v-2h-.61v0h.64v2c0,.31-.12.34-.33.34h-.06v.08h1.23v-.08H22c-.18,0-.33,0-.33-.34v-2h.64c.25,0,.29.22.3.36l.08,0c0-.1,0-.2,0-.3s0-.19,0-.29h-.06c0,.11-.12.12-.22.11h-2c-.09,0-.19,0-.22-.11H20.2a2.42,2.42,0,0,1,0,.31c0,.1,0,.2,0,.31h.08c.05-.27.08-.35.37-.35v0c-.28,0-.28.05-.34.33H20.1v0c0-.11,0-.21,0-.32a2.14,2.14,0,0,0,0-.32v0h.12c0,.1.1.1.19.1h2c.11,0,.18,0,.19-.1v0h0l.11,0v0c0,.1,0,.2,0,.31s0,.2,0,.31h0l-.13,0v0c0-.14,0-.35-.27-.35h-.61v2c0,.29.12.31.3.31h.09v.15Z"/><path class="cls-2" d="M22.89,31.22h.05c.14,0,.28,0,.28-.22V29c0-.2-.14-.22-.28-.22h-.05v-.11l.95,0,1,0c0,.16,0,.42,0,.58l-.11,0c0-.25-.06-.44-.46-.44h-.53v1h.45c.23,0,.28-.13.3-.34h.11c0,.15,0,.3,0,.45s0,.29,0,.43l-.11,0c0-.23,0-.38-.3-.38h-.46v.89c0,.25.22.25.46.25.46,0,.66,0,.77-.46l.11,0c-.05.2-.1.4-.13.61l-1,0-1,0Z"/><path class="cls-2" d="M24.91,31.32c0-.19.08-.38.12-.58l-.07,0c-.11.43-.33.46-.78.46-.24,0-.48,0-.48-.26V30h.47c.27,0,.29.16.31.37l.08,0c0-.14,0-.28,0-.42s0-.29,0-.43h-.08c0,.2-.08.34-.31.34h-.47v-1h.55c.4,0,.46.2.48.44l.08,0c0-.11,0-.25,0-.37s0-.13,0-.18l-1,0-.93,0v.08h0c.13,0,.3,0,.3.23v2c0,.21-.16.23-.3.23h0v.08h2m0,0H22.87v-.15h.07c.14,0,.26,0,.26-.2V29c0-.19-.13-.2-.26-.2h-.07v-.15h2v0c0,.06,0,.13,0,.2s0,.28,0,.38h0l-.13,0v0c0-.25-.05-.43-.45-.43h-.51v1h.44c.22,0,.26-.11.28-.32v0h.15v0c0,.15,0,.3,0,.44s0,.29,0,.43h0l-.13,0v0c0-.23,0-.36-.28-.36h-.44v.87c0,.23.2.23.45.23.46,0,.64,0,.76-.45h0l.12,0v0c0,.2-.09.4-.13.6h0Z"/><path class="cls-2" d="M26.05,30h.19c.38,0,.59-.14.59-.59a.52.52,0,0,0-.56-.56h-.22Zm-.49-.88c0-.28-.15-.29-.27-.29h-.07v-.11l.59,0,.61,0c.48,0,.91.13.91.67a.72.72,0,0,1-.53.67l.65,1a.42.42,0,0,0,.37.23v.11l-.37,0-.36,0a10.49,10.49,0,0,1-.79-1.23h-.25v.81c0,.29.14.3.31.3h.07v.11l-.65,0-.55,0v-.11h.07c.14,0,.27-.07.27-.21Z"/><path class="cls-2" d="M26.24,30c.38,0,.57-.13.57-.58a.5.5,0,0,0-.54-.54h-.2V30Zm-.19,0h0V28.82h.23a.54.54,0,0,1,.57.57c0,.45-.22.61-.6.61Zm0,.1h.27a11.78,11.78,0,0,0,.78,1.23l.36,0h.36v-.08a.43.43,0,0,1-.37-.23l-.66-1h0a.7.7,0,0,0,.52-.65c0-.53-.41-.65-.89-.65l-.61,0-.57,0v.08h.05c.12,0,.29,0,.29.31V31c0,.15-.14.22-.29.22h-.05v.08h1.17v-.08h-.05c-.17,0-.33,0-.33-.32v-.83Zm1.77,1.27h-.74a10.66,10.66,0,0,1-.79-1.23h-.23v.8c0,.29.12.28.3.29h.09v.15H25.21v-.15h.08c.14,0,.25-.06.25-.19V29.09c0-.27-.13-.27-.25-.27h-.08v-.15h1.22c.48,0,.92.13.92.69a.73.73,0,0,1-.52.68l.64,1a.41.41,0,0,0,.36.22h0v.13Z"/><path class="cls-2" d="M30.41,30.59h0V29.15a.31.31,0,0,0-.33-.36H30v-.11l.53,0,.47,0v.11h-.06c-.16,0-.34,0-.34.48V31a2.62,2.62,0,0,0,0,.38h-.14l-2-2.18v1.57c0,.33.06.45.36.45h.06v.11l-.49,0-.52,0v-.11H28c.26,0,.34-.18.34-.48v-1.6A.34.34,0,0,0,28,28.8h0v-.11l.44,0,.34,0Z"/><path class="cls-2" d="M30.4,30.58h0Zm0,0h0Zm.08.79h.13a2.56,2.56,0,0,1,0-.37V29.28c0-.46.19-.5.36-.5h0V28.7l-.45,0-.52,0v.08h.07a.33.33,0,0,1,.35.37v1.44h0L28.72,28.7l-.34,0-.42,0v.08h0a.36.36,0,0,1,.36.36v1.6c0,.31-.09.5-.36.5h0v.08h1v-.08h0c-.3,0-.37-.13-.38-.46V29.17Zm.14,0h-.16l-1.93-2.15v1.53c0,.33.05.43.34.43H29v.15h-1v-.15H28c.25,0,.32-.16.33-.47v-1.6a.33.33,0,0,0-.33-.33h-.07v-.15h.81l1.67,1.88v-1.4c0-.3-.2-.34-.31-.34H30v-.15h1v.15h-.07c-.16,0-.32,0-.32.47V31a2.46,2.46,0,0,0,0,.38v0Z"/><path class="cls-2" d="M32.17,29.11h0l-.35,1.08h.71Zm-.56,1.69a1.57,1.57,0,0,0-.08.3c0,.11.16.13.29.13h0v.11l-.46,0-.41,0v-.11h0a.34.34,0,0,0,.33-.25L32,29.23a3.14,3.14,0,0,0,.14-.47,2,2,0,0,0,.35-.16h.06l0,.09.7,2c0,.13.09.27.14.39a.24.24,0,0,0,.25.15h0v.11l-.53,0-.57,0v-.11h0c.09,0,.24,0,.24-.11a1.16,1.16,0,0,0-.08-.28l-.15-.44h-.86Z"/><path class="cls-2" d="M32.15,29.11h0Zm-.32,1.06h.67l-.33-1Zm0,0,.36-1.11h0v0h0v0h0l.36,1.11Zm.78,1.12h1.06v-.08h0a.26.26,0,0,1-.27-.16c0-.12-.1-.26-.14-.39l-.7-2,0-.09h0a1.43,1.43,0,0,1-.34.15,3.23,3.23,0,0,1-.14.47L31.36,31a.36.36,0,0,1-.35.26h0v.08h.84v-.08h0c-.12,0-.3,0-.3-.15a1.58,1.58,0,0,1,.08-.3h0l.13-.41h.89l.15.45a1.19,1.19,0,0,1,.08.28c0,.12-.17.12-.25.13h0Zm1.08,0H32.53v-.15h.06c.09,0,.22,0,.22-.09a1.17,1.17,0,0,0-.08-.27l-.14-.43h-.84l-.12.38a1.62,1.62,0,0,0-.08.29c0,.09.14.12.27.12h.06v.15H31v-.15h0a.32.32,0,0,0,.31-.23l.61-1.75a4.64,4.64,0,0,0,.15-.48,2,2,0,0,0,.34-.16h0a0,0,0,0,1,0,0l0,.1.7,2c0,.13.09.27.14.39a.22.22,0,0,0,.24.14h0v.15Z"/><path class="cls-2" d="M33.81,28.87c-.29,0-.3.07-.35.35h-.11c0-.11,0-.21,0-.32a2.31,2.31,0,0,0,0-.32h.09c0,.11.13.11.23.11h2c.1,0,.2,0,.2-.12l.09,0c0,.1,0,.21,0,.31s0,.21,0,.31l-.11,0c0-.14,0-.37-.28-.37h-.62v2c0,.29.13.33.32.33h.07v.11l-.62,0-.64,0v-.11h.07c.21,0,.32,0,.32-.32v-2Z"/><path class="cls-2" d="M35.31,31.35H34v-.15h.09c.21,0,.29,0,.3-.3v-2h-.61v0h.64v2c0,.31-.12.34-.33.34h-.06v.08l.63,0,.6,0v-.08h-.06c-.18,0-.33,0-.33-.34v-2h.64c.26,0,.29.22.3.36l.08,0c0-.1,0-.2,0-.3s0-.2,0-.29h-.06c0,.11-.12.12-.22.11h-2c-.09,0-.19,0-.22-.11h-.06a2.1,2.1,0,0,1,0,.31c0,.11,0,.21,0,.31h.08c0-.27.08-.35.37-.35v0c-.28,0-.28.05-.34.33h-.15v0c0-.11,0-.21,0-.32a2.14,2.14,0,0,0,0-.32v0h.12c0,.1.1.1.19.1h2c.1,0,.18,0,.19-.1v0h0l.11,0v0c0,.1,0,.2,0,.31s0,.2,0,.31h0l-.14,0v0c0-.14,0-.35-.27-.35h-.61v2c0,.29.12.31.3.31h.09v.15Z"/><path class="cls-2" d="M36.13,31.22h.05c.14,0,.28,0,.28-.22V29c0-.2-.14-.22-.28-.22h-.05v-.11l.56,0,.6,0v.11h-.05c-.14,0-.28,0-.28.22v2c0,.2.14.22.28.22h.05v.11l-.6,0-.56,0Z"/><path class="cls-2" d="M37.28,31.32v-.08h0c-.14,0-.3,0-.3-.23V29c0-.21.16-.23.3-.23h0V28.7l-.58,0-.55,0v.08h0c.13,0,.3,0,.3.23v2c0,.21-.16.23-.3.23h0v.08h1.13m0,0H36.12v-.15h.07c.14,0,.26,0,.26-.2V29c0-.19-.13-.2-.26-.2h-.07v-.15h1.19v.15h-.07c-.14,0-.27,0-.27.2v2c0,.19.13.2.27.2h.07v.15Z"/><path class="cls-2" d="M38.87,31.23c.74,0,.87-.65.87-1.21s-.3-1.23-.93-1.23-.86.59-.86,1.1c0,.68.31,1.33.93,1.33m-.06-2.6a1.33,1.33,0,0,1,1.46,1.31,1.39,1.39,0,0,1-1.44,1.46A1.34,1.34,0,0,1,37.41,30a1.38,1.38,0,0,1,1.4-1.4"/><path class="cls-2" d="M37.92,29.9c0-.51.2-1.12.88-1.12s.95.69.95,1.25-.13,1.22-.88,1.22v0c.72,0,.85-.63.85-1.19s-.3-1.21-.92-1.21S38,29.39,38,29.9c0,.68.31,1.31.91,1.32v0c-.63,0-.94-.66-.95-1.35m-.53.13a1.4,1.4,0,0,1,1.42-1.42v0A1.37,1.37,0,0,0,37.42,30a1.33,1.33,0,0,0,1.41,1.35,1.38,1.38,0,0,0,1.42-1.44,1.32,1.32,0,0,0-1.44-1.3v0a1.35,1.35,0,0,1,1.47,1.33,1.41,1.41,0,0,1-1.46,1.47A1.36,1.36,0,0,1,37.39,30"/><path class="cls-2" d="M42.83,30.59h0V29.15a.31.31,0,0,0-.33-.36h-.08v-.11l.53,0,.47,0v.11h-.06c-.16,0-.34,0-.34.48V31a2.37,2.37,0,0,0,0,.38h-.14l-2-2.18v1.57c0,.33.06.45.36.45h.06v.11l-.49,0-.52,0v-.11h.05c.26,0,.34-.18.34-.48v-1.6a.34.34,0,0,0-.35-.34h0v-.11l.44,0,.34,0Z"/><path class="cls-2" d="M42.82,30.58h0Zm0,0h0Zm.08.79H43A2.73,2.73,0,0,1,43,31V29.28c0-.46.19-.5.35-.5h0V28.7l-.45,0-.51,0v.08h.07a.33.33,0,0,1,.35.37v1.44h0L41.14,28.7l-.34,0-.42,0v.08h0a.36.36,0,0,1,.36.36v1.6c0,.3-.08.5-.36.5h0v.08h1v-.08h0c-.3,0-.37-.13-.37-.46V29.17Zm.14,0H42.9L41,29.25v1.53c0,.33.06.42.34.43h.08v.15h-1v-.15h.07c.25,0,.32-.16.32-.47v-1.6a.32.32,0,0,0-.33-.33h-.07v-.15h.81l1.67,1.88v-1.4c0-.3-.2-.34-.31-.34h-.1v-.15h1v.15h-.07c-.16,0-.32,0-.32.47V31a2.45,2.45,0,0,0,0,.38v0Z"/><path class="cls-2" d="M44.6,29.11h0l-.35,1.08h.71ZM44,30.79a1.63,1.63,0,0,0-.08.3c0,.11.16.13.29.13h0v.11l-.46,0-.41,0v-.11h0a.34.34,0,0,0,.33-.25l.61-1.75a3.13,3.13,0,0,0,.14-.47,2,2,0,0,0,.35-.16h.06l0,.09.7,2c0,.13.09.27.14.39a.24.24,0,0,0,.25.15h0v.11l-.53,0-.57,0v-.11h0c.09,0,.24,0,.24-.11a1.19,1.19,0,0,0-.08-.28L45,30.4h-.86Z"/><path class="cls-2" d="M44.58,29.11h0Zm-.32,1.06h.67l-.33-1Zm0,0,.36-1.11h0v0h0v0h0L45,30.2ZM45,31.32h1.06v-.08h0a.26.26,0,0,1-.27-.16c-.05-.12-.1-.26-.14-.39l-.7-2,0-.09h0a1.43,1.43,0,0,1-.34.15,3.23,3.23,0,0,1-.14.47L43.78,31a.36.36,0,0,1-.35.26h0v.08h.84v-.08h0c-.12,0-.3,0-.3-.15a1.62,1.62,0,0,1,.08-.3h0l.13-.41H45l.15.45a1.15,1.15,0,0,1,.08.28c0,.12-.17.12-.25.13h0Zm1.08,0H45v-.15H45c.09,0,.22,0,.22-.09a1.18,1.18,0,0,0-.08-.27L45,30.41h-.84l-.12.38a1.46,1.46,0,0,0-.08.29c0,.09.14.12.27.12h.06v.15h-.9v-.15h0a.33.33,0,0,0,.32-.24l.61-1.75a4.65,4.65,0,0,0,.15-.48,2,2,0,0,0,.35-.16h0a0,0,0,0,1,0,0l0,.09.7,2c0,.13.09.27.14.39a.22.22,0,0,0,.24.14h0v.15Z"/><path class="cls-2" d="M47,31c0,.15.11.2.23.21a2.72,2.72,0,0,0,.5,0,.54.54,0,0,0,.36-.21.86.86,0,0,0,.12-.27h.11c0,.22-.1.43-.14.65l-1,0-1,0v-.11h.05c.14,0,.29,0,.29-.26V29c0-.2-.15-.22-.29-.22H46.2v-.11l.6,0,.58,0v.11h-.1c-.14,0-.26,0-.26.21Z"/><path class="cls-2" d="M48.2,31.32c0-.21.09-.41.13-.61h-.08a.88.88,0,0,1-.12.27.57.57,0,0,1-.38.21l-.29,0h-.21c-.12,0-.24-.07-.24-.23V29c0-.21.13-.22.28-.22h.08V28.7l-.56,0-.59,0v.08h0c.14,0,.3,0,.3.23v2c0,.25-.17.27-.3.27h0v.08h2m0,0h-2v-.15h.07c.14,0,.27,0,.27-.24V29c0-.19-.13-.2-.27-.2h-.07v-.15H47.4v.15h-.11c-.15,0-.24,0-.24.19v2c0,.14.09.18.21.2h.5a.53.53,0,0,0,.35-.2.82.82,0,0,0,.11-.27h.15v0c0,.22-.1.43-.14.65h0Z"/></g></g></svg>