<svg xmlns="http://www.w3.org/2000/svg" viewBox="0 0 54.51 38.38"><defs><style>.cls-1{fill:#4e0000;}</style></defs><title>Grao</title><g id="Layer_2" data-name="Layer 2"><g id="Capa_1" data-name="Capa 1"><path class="cls-1" d="M26.21,11.61c-3.41-4.57-8.7-7-14.85-6.9A10.23,10.23,0,0,0,4.86,7.26a1.44,1.44,0,0,0-.52.46A11.92,11.92,0,0,0,.81,13.86L.53,15a22.93,22.93,0,0,0,0,9.85.88.88,0,0,0,1.3.53,1.39,1.39,0,0,0,.77-1.51,20.76,20.76,0,0,1,0-8.94l.3-1.06A8.85,8.85,0,0,1,5.46,9.34c6.33.08,10.34,5.08,9.24,11.76-1.2,3.89-.86,7.86.92,10.68a9,9,0,0,0,5.38,4,6.8,6.8,0,0,1-2.37.45c-5.12,0-9.55-1.75-12.56-5.25a1,1,0,0,0-1.48.13,1.19,1.19,0,0,0-.17,1.57,17.74,17.74,0,0,0,14,5.72,10.52,10.52,0,0,0,3.94-1A11.73,11.73,0,0,0,24.61,36a1.32,1.32,0,0,0,.35-.29,12.26,12.26,0,0,0,4-6.46l.28-1.16C30.51,21.82,29.46,16,26.21,11.61Zm.7,16.52-.28,1.17a9,9,0,0,1-2.55,4.48,8,8,0,0,1-6.67-3.64c-1.55-2.36-1.7-5.61-.71-8.95a.14.14,0,0,0,.08-.15c1.1-6.92-2.41-12.33-8.34-13.62a6.82,6.82,0,0,1,2.33-.48c5.59,0,10.35,2.17,13.42,6.32A18.31,18.31,0,0,1,26.91,28.12Z"/><path class="cls-1" d="M3.68,28a.84.84,0,0,0-1.3-.53A1.3,1.3,0,0,0,1.61,29a.84.84,0,0,0,1.3.53A1.3,1.3,0,0,0,3.68,28Z"/><path class="cls-1" d="M52.75,3a1.17,1.17,0,0,0-.33-.39A7.38,7.38,0,0,0,48.14.29L47.4.17C38.71-1.13,31.87,5.07,32.17,14a7.61,7.61,0,0,0,1.75,4.49,1.14,1.14,0,0,0,.33.38,7.38,7.38,0,0,0,4.28,2.37l.74.11C48,22.68,54.8,16.47,54.5,7.54A7.61,7.61,0,0,0,52.75,3ZM39.21,19.36l-.74-.11a5,5,0,0,1-2.74-1.43,6.38,6.38,0,0,1,7.63-6.42c4.47.67,8-1.18,9.13-4.75a4.56,4.56,0,0,1,.06.59C52.81,15.07,46.82,20.51,39.21,19.36ZM47.47,2.18l.74.11a5,5,0,0,1,2.74,1.43c-.09,4-3.22,6.33-7.66,5.66a7.89,7.89,0,0,0-9.12,5.45,4.49,4.49,0,0,1,0-.54C33.86,6.47,39.85,1,47.47,2.18Z"/></g></g></svg>