<svg xmlns="http://www.w3.org/2000/svg" viewBox="0 0 38.27 26.95"><defs><style>.cls-1{fill:#bd8f3b;}</style></defs><title>Grao</title><g id="Layer_2" data-name="Layer 2"><g id="Capa_1" data-name="Capa 1"><path class="cls-1" d="M18.4,8.15A12.41,12.41,0,0,0,8,3.3,7.18,7.18,0,0,0,3.42,5.1a1,1,0,0,0-.36.32A8.37,8.37,0,0,0,.57,9.73l-.2.82a16.1,16.1,0,0,0,0,6.92.62.62,0,0,0,.91.37,1,1,0,0,0,.54-1.06,14.57,14.57,0,0,1,0-6.28L2,9.75A6.21,6.21,0,0,1,3.84,6.56c4.44.06,7.26,3.57,6.49,8.26a9.16,9.16,0,0,0,.65,7.5,6.34,6.34,0,0,0,3.78,2.78,4.78,4.78,0,0,1-1.66.32,11.18,11.18,0,0,1-8.82-3.68.72.72,0,0,0-1,.09.84.84,0,0,0-.12,1.1,12.46,12.46,0,0,0,9.8,4,7.39,7.39,0,0,0,2.77-.68,8.24,8.24,0,0,0,1.59-1,.93.93,0,0,0,.25-.21,8.61,8.61,0,0,0,2.8-4.54l.2-.82A14.27,14.27,0,0,0,18.4,8.15Zm.49,11.6-.2.82a6.29,6.29,0,0,1-1.79,3.14,5.6,5.6,0,0,1-4.68-2.55,7.54,7.54,0,0,1-.5-6.28.1.1,0,0,0,.05-.11c.77-4.86-1.69-8.66-5.86-9.56a4.79,4.79,0,0,1,1.63-.34A11.24,11.24,0,0,1,17,9.31,12.86,12.86,0,0,1,18.89,19.75Z"/><path class="cls-1" d="M2.58,19.64a.59.59,0,0,0-.91-.37.91.91,0,0,0-.54,1.06A.59.59,0,0,0,2,20.7.91.91,0,0,0,2.58,19.64Z"/><path class="cls-1" d="M37,2.14a.82.82,0,0,0-.23-.27A5.18,5.18,0,0,0,33.8.2L33.28.12c-6.1-.92-10.9,3.44-10.69,9.71A5.35,5.35,0,0,0,23.82,13a.8.8,0,0,0,.23.27,5.18,5.18,0,0,0,3,1.67l.52.08c6.1.92,10.9-3.44,10.69-9.71A5.34,5.34,0,0,0,37,2.14ZM27.53,13.59,27,13.51a3.51,3.51,0,0,1-1.92-1A4.48,4.48,0,0,1,30.44,8c3.14.47,5.59-.83,6.41-3.33a3.2,3.2,0,0,1,0,.42C37.08,10.58,32.88,14.4,27.53,13.59Zm5.8-12.06.52.08a3.52,3.52,0,0,1,1.92,1c-.06,2.81-2.26,4.44-5.38,4A5.54,5.54,0,0,0,24,10.42,3.15,3.15,0,0,1,24,10C23.78,4.55,28,.73,33.33,1.53Z"/></g></g></svg>