<svg xmlns="http://www.w3.org/2000/svg" xmlns:xlink="http://www.w3.org/1999/xlink" viewBox="0 0 18.72 18.63"><defs><style>.cls-1{isolation:isolate;}.cls-2{fill:#69331c;}.cls-3{opacity:0.3;fill:url(#linear-gradient);}.cls-10,.cls-3,.cls-4,.cls-6,.cls-7,.cls-8,.cls-9{mix-blend-mode:multiply;}.cls-10,.cls-4,.cls-6,.cls-7,.cls-8,.cls-9{opacity:0.5;}.cls-4{fill:url(#linear-gradient-2);}.cls-5{fill:#fff;}.cls-6{fill:url(#linear-gradient-3);}.cls-7{fill:url(#linear-gradient-4);}.cls-8{fill:url(#linear-gradient-5);}.cls-9{fill:url(#linear-gradient-6);}.cls-10{fill:url(#linear-gradient-7);}</style><linearGradient id="linear-gradient" x1="4.25" y1="10.39" x2="18.72" y2="10.39" gradientUnits="userSpaceOnUse"><stop offset="0"/><stop offset="0.02" stop-color="#060606"/><stop offset="0.3" stop-color="#5d5d5d"/><stop offset="0.55" stop-color="#a2a2a2"/><stop offset="0.76" stop-color="#d5d5d5"/><stop offset="0.91" stop-color="#f3f3f3"/><stop offset="1" stop-color="#fff"/></linearGradient><linearGradient id="linear-gradient-2" x1="4.12" y1="3.88" x2="5.67" y2="5.08" gradientUnits="userSpaceOnUse"><stop offset="0"/><stop offset="0.14" stop-color="#2e2e2e"/><stop offset="0.38" stop-color="#777"/><stop offset="0.59" stop-color="#b1b1b1"/><stop offset="0.77" stop-color="#dcdcdc"/><stop offset="0.92" stop-color="#f5f5f5"/><stop offset="1" stop-color="#fff"/></linearGradient><linearGradient id="linear-gradient-3" x1="4.52" y1="15.3" x2="5.54" y2="15.87" gradientUnits="userSpaceOnUse"><stop offset="0"/><stop offset="0.05" stop-color="#171717"/><stop offset="0.2" stop-color="#545454"/><stop offset="0.35" stop-color="#888"/><stop offset="0.5" stop-color="#b3b3b3"/><stop offset="0.64" stop-color="#d4d4d4"/><stop offset="0.77" stop-color="#ececec"/><stop offset="0.9" stop-color="#fafafa"/><stop offset="1" stop-color="#fff"/></linearGradient><linearGradient id="linear-gradient-4" x1="14.62" y1="12.69" x2="15.92" y2="13.26" xlink:href="#linear-gradient"/><linearGradient id="linear-gradient-5" x1="14.04" y1="5.23" x2="15.05" y2="5.67" xlink:href="#linear-gradient"/><linearGradient id="linear-gradient-6" x1="2.54" y1="7.63" x2="2.89" y2="7.78" xlink:href="#linear-gradient"/><linearGradient id="linear-gradient-7" x1="11.95" y1="14.83" x2="12.31" y2="14.98" xlink:href="#linear-gradient"/></defs><title>chocolate</title><g class="cls-1"><g id="Layer_2" data-name="Layer 2"><g id="Capa_1" data-name="Capa 1"><circle class="cls-2" cx="9.31" cy="9.31" r="9.31"/><path class="cls-3" d="M9.58,15.16,14,17.34a10.05,10.05,0,0,0,4-4.68c1.18-3.08.55-4.27.55-4.27L13.72,6,8.51,3.45,7,7.12l-.49.16L4.25,12.51l.85-.08.26.92,1.09-.47.42,1,1-.28.33.87,1.11-.21Z"/><polygon class="cls-4" points="4.59 4.77 5.72 5.57 6.13 4.91 4.76 3.92 4.59 4.06 4.41 4.35 4.59 4.77"/><path class="cls-5" d="M4.76,4.77l.34-.34V4.27l-.34-.34H4.6l-.34.34v.16l.34.34Zm-.08-.61.18.18-.18.18-.18-.18Z"/><polygon class="cls-6" points="4.85 16.1 5.71 16.59 6.27 15.65 4.85 14.95 4.85 15.29 4.51 15.53 4.85 15.77 4.85 16.1"/><path class="cls-5" d="M4.39,15.64a.34.34,0,0,1,.34.35A.11.11,0,0,0,5,16a.34.34,0,0,1,.34-.35.11.11,0,0,0,0-.23A.34.34,0,0,1,5,15.07a.11.11,0,1,0-.23,0,.34.34,0,0,1-.34.34.11.11,0,1,0,0,.23Zm.46-.23a.55.55,0,0,0,.11.12.54.54,0,0,0-.11.11.55.55,0,0,0-.11-.11A.55.55,0,0,0,4.85,15.41Z"/><polygon class="cls-7" points="15.08 13.28 16.14 13.9 16.5 13.23 15.24 12.43 14.84 12.85 15.08 13.28"/><path class="cls-5" d="M15.24,13.28l.35-.34v-.16l-.35-.35h-.16l-.34.35v.16l.34.34Zm-.08-.61.18.18-.18.18L15,12.85Z"/><polygon class="cls-8" points="14.31 5.62 15.25 6.18 15.53 5.59 14.39 4.95 14.31 5.62"/><path class="cls-5" d="M14.16,5.41h.11v.11a.11.11,0,1,0,.23,0V5.41h.12a.11.11,0,1,0,0-.23H14.5V5.07a.11.11,0,0,0-.23,0v.12h-.11a.11.11,0,1,0,0,.23Z"/><polygon class="cls-9" points="2.57 7.73 2.95 7.96 3.06 7.75 2.69 7.53 2.57 7.73"/><path class="cls-5" d="M2.63,7.75a.11.11,0,1,0-.12-.11A.11.11,0,0,0,2.63,7.75Z"/><polygon class="cls-10" points="11.99 14.94 12.36 15.16 12.48 14.95 12.1 14.74 11.99 14.94"/><path class="cls-5" d="M12,15a.11.11,0,1,0-.11-.11A.11.11,0,0,0,12,15Z"/><path class="cls-5" d="M10.38,4.88,9.06,4.26a.17.17,0,0,0-.22.08L8.22,5.66a.17.17,0,0,0,.08.22L9,6.21a.17.17,0,1,0,.14-.3L8.6,5.65l.47-1,1,.47-.26.56a.17.17,0,1,0,.3.14l.33-.71A.17.17,0,0,0,10.38,4.88Z"/><path class="cls-5" d="M12.91,6.06l-1.32-.62a.17.17,0,0,0-.22.08l-.62,1.32a.17.17,0,0,0,.08.22l.71.33a.17.17,0,1,0,.14-.3l-.56-.26.47-1,1,.47-.26.56a.17.17,0,1,0,.3.14L13,6.28A.17.17,0,0,0,12.91,6.06Z"/><path class="cls-5" d="M12.25,9.58l-.05,0L13.88,6a.17.17,0,0,0-.08-.22L8.74,3.37a.17.17,0,0,0-.22.08L6.83,7,6.78,7a.17.17,0,0,0-.22.08L4,12.58a.17.17,0,0,0,0,.18l.05,0a.17.17,0,0,0,.13,0l.85-.31.31.85a.17.17,0,0,0,.21.1l.85-.31.31.85a.17.17,0,0,0,.21.1l.85-.31.31.85a.17.17,0,0,0,.22.1l.85-.31.31.85a.17.17,0,0,0,.31,0L12.34,9.8A.17.17,0,0,0,12.25,9.58Zm-1-4.65,2.23,1-1,2.23-2.23-1ZM8.75,3.74l2.23,1L9.93,7,7.7,6ZM7.56,6.28l2.23,1-.14.3-2.23-1Zm-.28.61h0l4.31,2a.17.17,0,0,0,.14-.3L10,7.76l.14-.3,2.23,1-.43.91L7.14,7.19Zm2.87,6.8-4-1.88a.17.17,0,1,0-.14.3L10,14l-.36.77-.23-.62A.17.17,0,0,0,9.33,14a.17.17,0,0,0-.13,0l-.85.31-.31-.85a.17.17,0,0,0-.22-.1L7,13.71l-.31-.85a.17.17,0,0,0-.22-.1l-.85.31-.31-.85a.17.17,0,0,0-.21-.1l-.62.23.36-.77.53.25a.17.17,0,1,0,.14-.3L5,11.27,6.79,7.4,12,9.81Z"/></g></g></g></svg>