<svg xmlns="http://www.w3.org/2000/svg" xmlns:xlink="http://www.w3.org/1999/xlink" viewBox="0 0 39.78 39.78"><defs><style>.cls-1{isolation:isolate;}.cls-2{fill:#69331c;}.cls-3,.cls-5,.cls-6,.cls-7,.cls-8,.cls-9{opacity:0.5;mix-blend-mode:multiply;}.cls-3{fill:url(#linear-gradient);}.cls-4{fill:#fff;}.cls-5{fill:url(#linear-gradient-2);}.cls-6{fill:url(#linear-gradient-3);}.cls-7{fill:url(#linear-gradient-4);}.cls-8{fill:url(#linear-gradient-5);}.cls-9{fill:url(#linear-gradient-6);}</style><linearGradient id="linear-gradient" x1="8.8" y1="8.29" x2="12.1" y2="10.84" gradientUnits="userSpaceOnUse"><stop offset="0"/><stop offset="0.14" stop-color="#2e2e2e"/><stop offset="0.38" stop-color="#777"/><stop offset="0.59" stop-color="#b1b1b1"/><stop offset="0.77" stop-color="#dcdcdc"/><stop offset="0.92" stop-color="#f5f5f5"/><stop offset="1" stop-color="#fff"/></linearGradient><linearGradient id="linear-gradient-2" x1="9.65" y1="32.67" x2="11.83" y2="33.89" gradientUnits="userSpaceOnUse"><stop offset="0"/><stop offset="0.05" stop-color="#171717"/><stop offset="0.2" stop-color="#545454"/><stop offset="0.35" stop-color="#888"/><stop offset="0.5" stop-color="#b3b3b3"/><stop offset="0.64" stop-color="#d4d4d4"/><stop offset="0.77" stop-color="#ececec"/><stop offset="0.9" stop-color="#fafafa"/><stop offset="1" stop-color="#fff"/></linearGradient><linearGradient id="linear-gradient-3" x1="31.22" y1="27.11" x2="33.99" y2="28.32" gradientUnits="userSpaceOnUse"><stop offset="0"/><stop offset="0.02" stop-color="#060606"/><stop offset="0.3" stop-color="#5d5d5d"/><stop offset="0.55" stop-color="#a2a2a2"/><stop offset="0.76" stop-color="#d5d5d5"/><stop offset="0.91" stop-color="#f3f3f3"/><stop offset="1" stop-color="#fff"/></linearGradient><linearGradient id="linear-gradient-4" x1="29.99" y1="11.16" x2="32.15" y2="12.1" xlink:href="#linear-gradient-3"/><linearGradient id="linear-gradient-5" x1="5.43" y1="16.28" x2="6.18" y2="16.61" xlink:href="#linear-gradient-3"/><linearGradient id="linear-gradient-6" x1="25.53" y1="31.67" x2="26.28" y2="32" xlink:href="#linear-gradient-3"/></defs><title>chocolate</title><g class="cls-1"><g id="Layer_2" data-name="Layer 2"><g id="Capa_1" data-name="Capa 1"><circle class="cls-2" cx="19.89" cy="19.89" r="19.89"/><polygon class="cls-3" points="9.81 10.19 12.21 11.88 13.08 10.48 10.16 8.38 9.81 8.68 9.42 9.29 9.81 10.19"/><path class="cls-4" d="M10.16,10.19l.74-.74V9.11l-.74-.74H9.81l-.74.74v.34l.74.74ZM10,8.89l.39.39L10,9.68l-.39-.39Z"/><polygon class="cls-5" points="10.35 34.38 12.19 35.42 13.38 33.43 10.35 31.93 10.35 32.66 9.63 33.16 10.35 33.67 10.35 34.38"/><path class="cls-4" d="M9.37,33.4a.72.72,0,0,1,.74.74.25.25,0,0,0,.49,0,.72.72,0,0,1,.74-.74.25.25,0,0,0,0-.49.72.72,0,0,1-.74-.74.25.25,0,1,0-.49,0,.72.72,0,0,1-.74.74.25.25,0,1,0,0,.49Zm1-.49a1.16,1.16,0,0,0,.25.25,1.16,1.16,0,0,0-.25.25,1.17,1.17,0,0,0-.25-.25A1.17,1.17,0,0,0,10.35,32.91Z"/><polygon class="cls-6" points="32.2 28.35 34.46 29.68 35.24 28.26 32.54 26.53 31.69 27.44 32.2 28.35"/><path class="cls-4" d="M32.54,28.35l.74-.74v-.34l-.74-.74H32.2l-.74.74v.34l.74.74ZM32.37,27l.39.39-.39.39L32,27.44Z"/><polygon class="cls-7" points="30.57 12 32.57 13.19 33.17 11.94 30.72 10.58 30.57 12"/><path class="cls-4" d="M30.23,11.56h.25v.25a.25.25,0,1,0,.49,0v-.25h.25a.25.25,0,1,0,0-.49H31v-.25a.25.25,0,0,0-.49,0v.25h-.25a.25.25,0,1,0,0,.49Z"/><polygon class="cls-8" points="5.5 16.51 6.3 17 6.54 16.55 5.75 16.09 5.5 16.51"/><path class="cls-4" d="M5.62,16.55a.25.25,0,1,0-.25-.25A.23.23,0,0,0,5.62,16.55Z"/><polygon class="cls-9" points="25.6 31.9 26.4 32.38 26.65 31.93 25.85 31.47 25.6 31.9"/><path class="cls-4" d="M25.73,31.93a.25.25,0,1,0-.25-.25A.23.23,0,0,0,25.73,31.93Z"/><path class="cls-4" d="M22.16,10.41,19.35,9.1a.36.36,0,0,0-.48.17l-1.31,2.81a.36.36,0,0,0,.17.48l1.51.71a.36.36,0,1,0,.3-.65l-1.19-.56,1-2.16,2.16,1L21,12.1a.36.36,0,1,0,.65.3l.71-1.51A.36.36,0,0,0,22.16,10.41Z"/><path class="cls-4" d="M27.57,12.94l-2.81-1.31a.36.36,0,0,0-.48.17L23,14.61a.36.36,0,0,0,.17.48l1.51.71a.36.36,0,1,0,.3-.65l-1.19-.56,1-2.16,2.16,1-.56,1.19a.36.36,0,1,0,.65.3l.71-1.51A.36.36,0,0,0,27.57,12.94Z"/><path class="cls-4" d="M26.17,20.46l-.11-.05,3.59-7.68a.36.36,0,0,0-.17-.48L18.66,7.19a.36.36,0,0,0-.48.17L14.59,15,14.48,15a.36.36,0,0,0-.48.17L8.54,26.86a.36.36,0,0,0,.45.49l1.81-.66.65,1.81a.36.36,0,0,0,.46.21l1.81-.66.66,1.81a.36.36,0,0,0,.46.21l1.81-.66.66,1.81a.36.36,0,0,0,.46.21l1.81-.66.65,1.81a.36.36,0,0,0,.66,0l5.46-11.69A.36.36,0,0,0,26.17,20.46Zm-2.08-9.94,4.76,2.23-2.23,4.76-4.76-2.23ZM18.68,8l4.76,2.23L21.21,15l-4.76-2.23ZM16.15,13.4l4.76,2.23-.3.65-4.76-2.23Zm-.61,1.3h0l9.2,4.3a.36.36,0,0,0,.3-.65l-3.79-1.77.3-.65,4.76,2.23-.91,1.95L15.24,15.35Zm6.13,14.53-8.6-4a.36.36,0,1,0-.3.65l8.6,4-.77,1.65-.48-1.33a.36.36,0,0,0-.46-.21l-1.81.66-.66-1.81a.36.36,0,0,0-.46-.21l-1.81.66-.65-1.81a.36.36,0,0,0-.46-.21L12,27.91l-.66-1.81a.36.36,0,0,0-.46-.21l-1.33.48.77-1.65,1.14.53a.36.36,0,1,0,.3-.65l-1.14-.53L14.5,15.8l11,5.16Z"/></g></g></g></svg>