<svg xmlns="http://www.w3.org/2000/svg" xmlns:xlink="http://www.w3.org/1999/xlink" viewBox="0 0 39.78 39.78"><defs><style>.cls-1{isolation:isolate;}.cls-2{fill:#adb048;}.cls-10,.cls-11,.cls-3,.cls-5,.cls-6,.cls-7,.cls-8,.cls-9{opacity:0.5;mix-blend-mode:multiply;}.cls-3{fill:url(#linear-gradient);}.cls-4{fill:#fff;}.cls-5{fill:url(#linear-gradient-2);}.cls-6{fill:url(#linear-gradient-3);}.cls-7{fill:url(#linear-gradient-4);}.cls-8{fill:url(#linear-gradient-5);}.cls-9{fill:url(#linear-gradient-6);}.cls-10{fill:url(#linear-gradient-7);}.cls-11{fill:url(#linear-gradient-8);}</style><linearGradient id="linear-gradient" x1="31.12" y1="9.8" x2="34.42" y2="12.35" gradientUnits="userSpaceOnUse"><stop offset="0"/><stop offset="0.14" stop-color="#2e2e2e"/><stop offset="0.38" stop-color="#777"/><stop offset="0.59" stop-color="#b1b1b1"/><stop offset="0.77" stop-color="#dcdcdc"/><stop offset="0.92" stop-color="#f5f5f5"/><stop offset="1" stop-color="#fff"/></linearGradient><linearGradient id="linear-gradient-2" x1="12.1" y1="8.19" x2="14.28" y2="9.41" gradientUnits="userSpaceOnUse"><stop offset="0"/><stop offset="0.05" stop-color="#171717"/><stop offset="0.2" stop-color="#545454"/><stop offset="0.35" stop-color="#888"/><stop offset="0.5" stop-color="#b3b3b3"/><stop offset="0.64" stop-color="#d4d4d4"/><stop offset="0.77" stop-color="#ececec"/><stop offset="0.9" stop-color="#fafafa"/><stop offset="1" stop-color="#fff"/></linearGradient><linearGradient id="linear-gradient-3" x1="7.81" y1="29.1" x2="10.58" y2="30.3" gradientUnits="userSpaceOnUse"><stop offset="0"/><stop offset="0.02" stop-color="#060606"/><stop offset="0.3" stop-color="#5d5d5d"/><stop offset="0.55" stop-color="#a2a2a2"/><stop offset="0.76" stop-color="#d5d5d5"/><stop offset="0.91" stop-color="#f3f3f3"/><stop offset="1" stop-color="#fff"/></linearGradient><linearGradient id="linear-gradient-4" x1="31.52" y1="25.5" x2="33.68" y2="26.44" xlink:href="#linear-gradient-3"/><linearGradient id="linear-gradient-5" x1="5.37" y1="16.04" x2="6.12" y2="16.36" xlink:href="#linear-gradient-3"/><linearGradient id="linear-gradient-6" x1="10.43" y1="21.8" x2="11.19" y2="22.13" xlink:href="#linear-gradient-3"/><linearGradient id="linear-gradient-7" x1="25.47" y1="31.42" x2="26.23" y2="31.75" xlink:href="#linear-gradient-3"/><linearGradient id="linear-gradient-8" x1="29.32" y1="18.03" x2="30.07" y2="18.36" xlink:href="#linear-gradient-3"/></defs><title>cereais</title><g class="cls-1"><g id="Layer_2" data-name="Layer 2"><g id="Capa_1" data-name="Capa 1"><circle class="cls-2" cx="19.89" cy="19.89" r="19.89"/><polygon class="cls-3" points="32.13 11.7 34.53 13.39 35.4 11.98 32.48 9.88 32.13 10.18 31.74 10.79 32.13 11.7"/><path class="cls-4" d="M32.48,11.7l.74-.74v-.34l-.74-.74h-.34l-.74.74V11l.74.74Zm-.17-1.3.39.39-.39.39-.39-.39Z"/><polygon class="cls-5" points="12.8 9.9 14.64 10.94 15.83 8.95 12.8 7.45 12.8 8.18 12.07 8.68 12.8 9.2 12.8 9.9"/><path class="cls-4" d="M11.81,8.92a.72.72,0,0,1,.74.74.25.25,0,0,0,.49,0,.72.72,0,0,1,.74-.74.25.25,0,0,0,0-.49A.72.72,0,0,1,13,7.69a.25.25,0,1,0-.49,0,.72.72,0,0,1-.74.74.25.25,0,1,0,0,.49Zm1-.49a1.16,1.16,0,0,0,.25.25,1.16,1.16,0,0,0-.25.25,1.17,1.17,0,0,0-.25-.25A1.17,1.17,0,0,0,12.8,8.43Z"/><polygon class="cls-6" points="8.79 30.34 11.05 31.66 11.83 30.25 9.13 28.52 8.28 29.43 8.79 30.34"/><path class="cls-4" d="M9.13,30.34l.74-.74v-.34l-.74-.74H8.79L8,29.26v.34l.74.74ZM9,29l.39.39L9,29.82l-.39-.39Z"/><polygon class="cls-7" points="32.1 26.34 34.11 27.53 34.7 26.29 32.26 24.92 32.1 26.34"/><path class="cls-4" d="M31.77,25.9H32v.25a.25.25,0,1,0,.49,0V25.9h.25a.25.25,0,1,0,0-.49H32.5v-.25a.25.25,0,0,0-.49,0v.25h-.25a.25.25,0,1,0,0,.49Z"/><polygon class="cls-8" points="5.44 16.26 6.24 16.75 6.49 16.3 5.69 15.84 5.44 16.26"/><path class="cls-4" d="M5.57,16.3a.25.25,0,1,0-.25-.25A.23.23,0,0,0,5.57,16.3Z"/><polygon class="cls-9" points="10.5 22.03 11.3 22.52 11.55 22.06 10.75 21.61 10.5 22.03"/><path class="cls-4" d="M10.62,22.06a.25.25,0,1,0-.25-.25A.23.23,0,0,0,10.62,22.06Z"/><polygon class="cls-10" points="25.54 31.65 26.35 32.14 26.59 31.68 25.79 31.22 25.54 31.65"/><path class="cls-4" d="M25.68,31.68a.25.25,0,1,0-.25-.25A.23.23,0,0,0,25.68,31.68Z"/><polygon class="cls-11" points="29.39 18.25 30.19 18.75 30.43 18.29 29.64 17.83 29.39 18.25"/><path class="cls-4" d="M29.52,18.29a.25.25,0,1,0-.25-.25A.23.23,0,0,0,29.52,18.29Z"/><path class="cls-4" d="M19.08,13.09a.43.43,0,0,0,.21-.57A3.54,3.54,0,0,1,19,11a4.81,4.81,0,0,1,.93-2.81A4.8,4.8,0,0,1,20.82,11a3.55,3.55,0,0,1-.32,1.51.43.43,0,0,0,.78.36,4.39,4.39,0,0,0,.4-1.87,5.54,5.54,0,0,0-1.48-3.78.44.44,0,0,0-.6,0A5.54,5.54,0,0,0,18.11,11a4.39,4.39,0,0,0,.4,1.87A.43.43,0,0,0,19.08,13.09Z"/><path class="cls-4" d="M21,22.13a.42.42,0,0,0-.34.35.33.33,0,0,0-.08.21.34.34,0,0,0,.33.34h0a7.32,7.32,0,0,0,5.43-2.93.34.34,0,0,0-.53-.42,7.22,7.22,0,0,1-2,1.75,4.77,4.77,0,0,0,.94-3.81.43.43,0,0,0-.42-.34A5.54,5.54,0,0,0,20.65,19a4.92,4.92,0,0,0-.37.42v-2.8h0a3.34,3.34,0,0,1,1-2A4.8,4.8,0,0,1,24,13.19a3.58,3.58,0,0,1-3,4,.42.42,0,0,0-.28.2.33.33,0,0,0,.17.59.42.42,0,0,0,.19.05h.08l.4-.09A7.53,7.53,0,0,0,26.33,15a.34.34,0,0,0-.53-.42A7.24,7.24,0,0,1,24,16.25a4.83,4.83,0,0,0,.78-3.62.43.43,0,0,0-.42-.34,5.28,5.28,0,0,0-1.93.46,6.44,6.44,0,0,0,1.38-5.38.34.34,0,0,0-.66.14c.79,3.57-2.39,6.16-3.32,6.83-.93-.67-4.1-3.26-3.32-6.83a.34.34,0,0,0-.66-.14,6.4,6.4,0,0,0,1.32,5.3,5.19,5.19,0,0,0-1.72-.38h0a.43.43,0,0,0-.42.34,4.86,4.86,0,0,0,.72,3.53,7.29,7.29,0,0,1-1.69-1.57.34.34,0,0,0-.53.42,7.55,7.55,0,0,0,4.63,2.85l.49.12h.08a.42.42,0,0,0,.18,0H19a.34.34,0,0,0,.33-.34.33.33,0,0,0-.26-.32.42.42,0,0,0-.24-.14,3.58,3.58,0,0,1-3-4,4.81,4.81,0,0,1,2.71,1.39,3.35,3.35,0,0,1,1,2h0v2.8a5.22,5.22,0,0,0-.36-.42,5.54,5.54,0,0,0-3.69-1.68h0a.43.43,0,0,0-.42.34,4.8,4.8,0,0,0,.85,3.71,7.25,7.25,0,0,1-1.82-1.64.34.34,0,0,0-.53.42A7.32,7.32,0,0,0,19,23h0a.33.33,0,0,0,.15-.63.42.42,0,0,0-.31-.26,3.58,3.58,0,0,1-3-4,4.81,4.81,0,0,1,2.71,1.39,3.34,3.34,0,0,1,1,2h0V24.5a4.75,4.75,0,0,0-.37-.42,5.53,5.53,0,0,0-3.69-1.68h0a.43.43,0,0,0-.42.34,4.8,4.8,0,0,0,.84,3.7,7.24,7.24,0,0,1-1.81-1.64.34.34,0,0,0-.53.42A7.32,7.32,0,0,0,19,28.13h0a.33.33,0,0,0,.14-.63.42.42,0,0,0-.31-.26,3.58,3.58,0,0,1-3-4,4.81,4.81,0,0,1,2.71,1.39,3.33,3.33,0,0,1,1,2h0v7.63a.39.39,0,1,0,.78,0V26.68h0a3.34,3.34,0,0,1,1-2A4.81,4.81,0,0,1,24,23.28a3.58,3.58,0,0,1-3,4,.42.42,0,0,0-.34.35.33.33,0,0,0-.08.21.34.34,0,0,0,.33.34h0a7.32,7.32,0,0,0,5.43-2.93.34.34,0,0,0-.53-.42,7.22,7.22,0,0,1-2,1.74,4.78,4.78,0,0,0,.93-3.8.43.43,0,0,0-.42-.34,5.54,5.54,0,0,0-3.69,1.69,4.91,4.91,0,0,0-.37.42V21.57h0a3.35,3.35,0,0,1,1-2A4.81,4.81,0,0,1,24,18.18a3.58,3.58,0,0,1-3,4Z"/></g></g></g></svg>