<svg xmlns="http://www.w3.org/2000/svg" xmlns:xlink="http://www.w3.org/1999/xlink" viewBox="0 0 18.72 18.72"><defs><style>.cls-1{isolation:isolate;}.cls-2{fill:#adb048;}.cls-10,.cls-11,.cls-12,.cls-3,.cls-4,.cls-6,.cls-7,.cls-8,.cls-9{opacity:0.5;mix-blend-mode:multiply;}.cls-3{fill:url(#linear-gradient);}.cls-4{fill:url(#linear-gradient-2);}.cls-5{fill:#fff;}.cls-6{fill:url(#linear-gradient-3);}.cls-7{fill:url(#linear-gradient-4);}.cls-8{fill:url(#linear-gradient-5);}.cls-9{fill:url(#linear-gradient-6);}.cls-10{fill:url(#linear-gradient-7);}.cls-11{fill:url(#linear-gradient-8);}.cls-12{fill:url(#linear-gradient-9);}</style><linearGradient id="linear-gradient" x1="4.32" y1="7.89" x2="14.08" y2="12.14" gradientUnits="userSpaceOnUse"><stop offset="0"/><stop offset="0.02" stop-color="#060606"/><stop offset="0.3" stop-color="#5d5d5d"/><stop offset="0.55" stop-color="#a2a2a2"/><stop offset="0.76" stop-color="#d5d5d5"/><stop offset="0.91" stop-color="#f3f3f3"/><stop offset="1" stop-color="#fff"/></linearGradient><linearGradient id="linear-gradient-2" x1="14.65" y1="4.61" x2="16.2" y2="5.81" gradientUnits="userSpaceOnUse"><stop offset="0"/><stop offset="0.14" stop-color="#2e2e2e"/><stop offset="0.38" stop-color="#777"/><stop offset="0.59" stop-color="#b1b1b1"/><stop offset="0.77" stop-color="#dcdcdc"/><stop offset="0.92" stop-color="#f5f5f5"/><stop offset="1" stop-color="#fff"/></linearGradient><linearGradient id="linear-gradient-3" x1="5.69" y1="3.85" x2="6.72" y2="4.43" gradientUnits="userSpaceOnUse"><stop offset="0"/><stop offset="0.05" stop-color="#171717"/><stop offset="0.2" stop-color="#545454"/><stop offset="0.35" stop-color="#888"/><stop offset="0.5" stop-color="#b3b3b3"/><stop offset="0.64" stop-color="#d4d4d4"/><stop offset="0.77" stop-color="#ececec"/><stop offset="0.9" stop-color="#fafafa"/><stop offset="1" stop-color="#fff"/></linearGradient><linearGradient id="linear-gradient-4" x1="3.67" y1="13.69" x2="4.98" y2="14.26" xlink:href="#linear-gradient"/><linearGradient id="linear-gradient-5" x1="14.84" y1="12" x2="15.85" y2="12.45" xlink:href="#linear-gradient"/><linearGradient id="linear-gradient-6" x1="2.53" y1="7.55" x2="2.88" y2="7.7" xlink:href="#linear-gradient"/><linearGradient id="linear-gradient-7" x1="4.91" y1="10.26" x2="5.26" y2="10.42" xlink:href="#linear-gradient"/><linearGradient id="linear-gradient-8" x1="11.99" y1="14.79" x2="12.34" y2="14.94" xlink:href="#linear-gradient"/><linearGradient id="linear-gradient-9" x1="13.8" y1="8.49" x2="14.15" y2="8.64" xlink:href="#linear-gradient"/></defs><title>cereais</title><g class="cls-1"><g id="Layer_2" data-name="Layer 2"><g id="Capa_1" data-name="Capa 1"><circle class="cls-2" cx="9.36" cy="9.36" r="9.36"/><path class="cls-3" d="M12.64,18.13l-3.28-1.9v-3s-1.5-.2-1.78-.83a5.29,5.29,0,0,1-.3-1.65,2.81,2.81,0,0,1,1.17.33c.3.26.91.9.91.9V10.74S8,10.63,7.68,10a6.74,6.74,0,0,1-.4-1.64A2.76,2.76,0,0,1,8.68,9a1.33,1.33,0,0,0,.68.51V8.27s-1.31,0-1.71-.61a3.3,3.3,0,0,1-.37-1.58s.94,0,1.24.34.32-.51.32-.51a2,2,0,0,1,0-1.24,4,4,0,0,1,.63-1.16l9.24,6.56A8.88,8.88,0,0,1,17,14.72,9.7,9.7,0,0,1,12.64,18.13Z"/><polygon class="cls-4" points="15.12 5.51 16.25 6.3 16.66 5.64 15.29 4.65 15.12 4.79 14.94 5.08 15.12 5.51"/><path class="cls-5" d="M15.29,5.51l.35-.35V5l-.35-.35h-.16L14.78,5v.16l.35.35Zm-.08-.61.18.18-.18.18L15,5.08Z"/><polygon class="cls-6" points="6.02 4.66 6.89 5.15 7.45 4.21 6.02 3.51 6.02 3.85 5.68 4.08 6.02 4.33 6.02 4.66"/><path class="cls-5" d="M5.56,4.2a.34.34,0,0,1,.35.35.12.12,0,0,0,.23,0,.34.34,0,0,1,.35-.35.12.12,0,0,0,0-.23.34.34,0,0,1-.35-.35.12.12,0,1,0-.23,0A.34.34,0,0,1,5.56,4a.12.12,0,1,0,0,.23ZM6,4a.55.55,0,0,0,.12.12A.54.54,0,0,0,6,4.2a.55.55,0,0,0-.12-.12A.55.55,0,0,0,6,4Z"/><polygon class="cls-7" points="4.13 14.28 5.2 14.9 5.57 14.24 4.3 13.42 3.9 13.85 4.13 14.28"/><path class="cls-5" d="M4.3,14.28l.35-.35v-.16l-.35-.35H4.14l-.35.35v.16l.35.35Zm-.08-.61.18.18L4.22,14,4,13.85Z"/><polygon class="cls-8" points="15.11 12.4 16.05 12.96 16.33 12.37 15.18 11.73 15.11 12.4"/><path class="cls-5" d="M15,12.19h.12v.12a.12.12,0,1,0,.23,0v-.12h.12a.12.12,0,0,0,0-.23H15.3v-.12a.12.12,0,0,0-.23,0V12H15a.12.12,0,1,0,0,.23Z"/><polygon class="cls-9" points="2.56 7.65 2.94 7.88 3.05 7.67 2.68 7.45 2.56 7.65"/><path class="cls-5" d="M2.62,7.67a.12.12,0,1,0-.12-.12A.11.11,0,0,0,2.62,7.67Z"/><polygon class="cls-10" points="4.94 10.37 5.32 10.6 5.44 10.38 5.06 10.17 4.94 10.37"/><path class="cls-5" d="M5,10.38a.12.12,0,1,0-.12-.12A.11.11,0,0,0,5,10.38Z"/><polygon class="cls-11" points="12.02 14.89 12.4 15.13 12.52 14.91 12.14 14.7 12.02 14.89"/><path class="cls-5" d="M12.08,14.91A.12.12,0,1,0,12,14.8.11.11,0,0,0,12.08,14.91Z"/><polygon class="cls-12" points="13.83 8.59 14.21 8.82 14.32 8.61 13.95 8.39 13.83 8.59"/><path class="cls-5" d="M13.89,8.61a.12.12,0,1,0-.12-.12A.11.11,0,0,0,13.89,8.61Z"/><path class="cls-5" d="M9,6.16a.2.2,0,0,0,.1-.27,1.66,1.66,0,0,1-.15-.71,2.26,2.26,0,0,1,.44-1.32A2.26,2.26,0,0,1,9.8,5.18a1.67,1.67,0,0,1-.15.71.2.2,0,0,0,.36.17,2.07,2.07,0,0,0,.19-.88A2.61,2.61,0,0,0,9.5,3.4a.21.21,0,0,0-.28,0,2.61,2.61,0,0,0-.7,1.78,2.06,2.06,0,0,0,.19.88A.2.2,0,0,0,9,6.16Z"/><path class="cls-5" d="M9.87,10.42a.2.2,0,0,0-.16.16.16.16,0,0,0,0,.1.16.16,0,0,0,.16.16h0a3.44,3.44,0,0,0,2.55-1.38.16.16,0,0,0-.25-.2,3.4,3.4,0,0,1-.93.82,2.25,2.25,0,0,0,.44-1.79.2.2,0,0,0-.2-.16,2.61,2.61,0,0,0-1.74.79l-.17.2V7.81h0A1.57,1.57,0,0,1,10,6.86a2.26,2.26,0,0,1,1.27-.65A1.68,1.68,0,0,1,9.87,8.07a.2.2,0,0,0-.13.09.15.15,0,0,0,.08.28l.09,0h0l.19,0a3.55,3.55,0,0,0,2.26-1.35.16.16,0,1,0-.25-.2,3.41,3.41,0,0,1-.86.78,2.27,2.27,0,0,0,.37-1.7.2.2,0,0,0-.2-.16,2.48,2.48,0,0,0-.91.22,3,3,0,0,0,.65-2.53.16.16,0,0,0-.31.07c.37,1.68-1.12,2.9-1.56,3.21C8.89,6.44,7.4,5.22,7.77,3.54a.16.16,0,0,0-.31-.07A3,3,0,0,0,8.08,6a2.44,2.44,0,0,0-.81-.18h0a.2.2,0,0,0-.2.16,2.29,2.29,0,0,0,.34,1.66,3.43,3.43,0,0,1-.8-.74.16.16,0,0,0-.25.2A3.55,3.55,0,0,0,8.55,8.41l.23.06h0l.09,0h0a.16.16,0,0,0,.16-.16A.16.16,0,0,0,9,8.14a.2.2,0,0,0-.11-.07A1.68,1.68,0,0,1,7.44,6.21a2.26,2.26,0,0,1,1.27.65,1.57,1.57,0,0,1,.46.94h0V9.13L9,8.93a2.61,2.61,0,0,0-1.74-.79h0a.2.2,0,0,0-.2.16A2.26,2.26,0,0,0,7.47,10a3.41,3.41,0,0,1-.85-.77.16.16,0,0,0-.25.2,3.44,3.44,0,0,0,2.55,1.38h0a.16.16,0,0,0,.07-.3.2.2,0,0,0-.15-.12A1.68,1.68,0,0,1,7.44,8.56a2.27,2.27,0,0,1,1.27.65,1.57,1.57,0,0,1,.46.94h0v1.38L9,11.33a2.6,2.6,0,0,0-1.74-.79h0a.2.2,0,0,0-.2.16,2.26,2.26,0,0,0,.4,1.74,3.41,3.41,0,0,1-.85-.77.16.16,0,0,0-.25.2,3.44,3.44,0,0,0,2.55,1.38h0a.16.16,0,0,0,.07-.3.2.2,0,0,0-.14-.12A1.68,1.68,0,0,1,7.44,11a2.26,2.26,0,0,1,1.27.65,1.57,1.57,0,0,1,.46.94h0v3.59a.18.18,0,1,0,.37,0V12.56h0a1.57,1.57,0,0,1,.46-.94A2.27,2.27,0,0,1,11.28,11a1.68,1.68,0,0,1-1.41,1.86.2.2,0,0,0-.16.16.16.16,0,0,0,0,.1.16.16,0,0,0,.16.16h0a3.44,3.44,0,0,0,2.55-1.38.16.16,0,0,0-.25-.2,3.4,3.4,0,0,1-.93.82,2.25,2.25,0,0,0,.44-1.79.2.2,0,0,0-.2-.16,2.61,2.61,0,0,0-1.74.79l-.17.2V10.15h0A1.58,1.58,0,0,1,10,9.21a2.27,2.27,0,0,1,1.27-.65,1.68,1.68,0,0,1-1.41,1.86Z"/></g></g></g></svg>