<svg xmlns="http://www.w3.org/2000/svg" viewBox="0 0 37.48 42.43"><defs><style>.cls-1{fill:#4e0000;}</style></defs><title>grao-vazio</title><g id="Layer_2" data-name="Layer 2"><g id="Capa_1" data-name="Capa 1"><path class="cls-1" d="M33,8.7C28.72,2.95,22.06-.09,14.3,0A12.89,12.89,0,0,0,6.13,3.22a1.82,1.82,0,0,0-.65.58A15,15,0,0,0,1,11.53L.67,13a28.88,28.88,0,0,0,0,12.41c.05.2,2.1,6.7,4.91,9.79,4.64,5.11,10.45,7.43,17.59,7.21a13.25,13.25,0,0,0,5-1.21A14.77,14.77,0,0,0,31,39.39a1.67,1.67,0,0,0,.44-.37,15.44,15.44,0,0,0,5-8.14l.35-1.47C38.43,21.56,37.1,14.25,33,8.7Zm-9.53,31c-11.13,0-16-6.76-16.06-6.81a24.29,24.29,0,0,1-4.23-9.23,26.13,26.13,0,0,1,.1-10.72l.38-1.34A11.14,11.14,0,0,1,6.88,5.85c8,.1,13,6.4,11.64,14.82-1.51,4.91-1.08,9.9,1.16,13.45a11.37,11.37,0,0,0,6.78,5A8.56,8.56,0,0,1,23.48,39.67ZM33.89,29.5,33.54,31a11.29,11.29,0,0,1-3.21,5.64A10.05,10.05,0,0,1,21.93,32C20,29.06,19.79,25,21,20.76a.17.17,0,0,0,.1-.19c1.38-8.72-3-15.53-10.5-17.16a8.6,8.6,0,0,1,2.93-.6c7,0,13,2.73,16.91,8C34.14,15.81,35.42,22.42,33.89,29.5Z"/></g></g></svg>