<svg xmlns="http://www.w3.org/2000/svg" viewBox="0 0 17.08 29.64"><defs><style>.cls-1{fill:#4e0000;}</style></defs><title>Aeropress</title><g id="Layer_2" data-name="Layer 2"><g id="Capa_1" data-name="Capa 1"><path class="cls-1" d="M16.53,28.53H14.39a2,2,0,0,0,.23-.93V16.44a2,2,0,0,0-2-2V2a2,2,0,0,0-.23-.93h3.43a.56.56,0,1,0,0-1.11H1A.56.56,0,0,0,1,1.11H4.33A2,2,0,0,0,4.09,2V14.4h0a2,2,0,0,0-2,2V27.6a2,2,0,0,0,.23.93H.56a.56.56,0,0,0,0,1.11h16a.56.56,0,1,0,0-1.11Zm-11.32-13h6.33v.83a.93.93,0,0,1-.93.93H6.13a.93.93,0,0,1-.93-.93ZM5.21,2a.93.93,0,0,1,.93-.93h4.47a.93.93,0,0,1,.93.93V14.4H5.21ZM4.09,28.53a.93.93,0,0,1-.93-.93V16.44a.93.93,0,0,1,.93-.93h0v.83a2,2,0,0,0,2,2h4.47a2,2,0,0,0,2-2v-.82a.93.93,0,0,1,.87.92V27.6a.93.93,0,0,1-.93.93Z"/><circle class="cls-1" cx="8.34" cy="22.02" r="1.26"/><path class="cls-1" d="M9.86,24.78c-.86.25-1.43.86-2.78.79s-2-1.08-2.79-1.08v2.87h8.27V24.49A5.92,5.92,0,0,0,9.86,24.78Z"/></g></g></svg>