<svg xmlns="http://www.w3.org/2000/svg" viewBox="0 0 23.13 26.18"><defs><style>.cls-1{fill:#824923;}.cls-2{fill:#4e0000;}</style></defs><title>grao-meio</title><g id="Layer_2" data-name="Layer 2"><g id="Capa_1" data-name="Capa 1"><path class="cls-1" d="M.86,12.22A23,23,0,0,0,11.56,15a19.7,19.7,0,0,0,10.81-3.6S23,25.14,13.19,25.14.86,12.22.86,12.22Z"/><path class="cls-2" d="M20.37,5.37A13.73,13.73,0,0,0,8.83,0a8,8,0,0,0-5,2,1.12,1.12,0,0,0-.4.36A9.27,9.27,0,0,0,.63,7.12L.41,8a17.82,17.82,0,0,0,0,7.66c0,.12,1.29,4.13,3,6A13.31,13.31,0,0,0,14.3,26.17a8.18,8.18,0,0,0,3.07-.75,9.11,9.11,0,0,0,1.76-1.11,1,1,0,0,0,.27-.23,9.53,9.53,0,0,0,3.09-5l.22-.9C23.71,13.31,22.9,8.8,20.37,5.37ZM14.49,24.48c-6.87,0-9.86-4.17-9.91-4.2A15,15,0,0,1,2,14.58,16.12,16.12,0,0,1,2,8l.24-.83a6.88,6.88,0,0,1,2-3.53c4.92.06,8,4,7.18,9.14a10.14,10.14,0,0,0,.72,8.3,7,7,0,0,0,4.18,3.08A5.28,5.28,0,0,1,14.49,24.48Zm6.42-6.27-.22.91a7,7,0,0,1-2,3.48,6.2,6.2,0,0,1-5.18-2.83,8.35,8.35,0,0,1-.55-7,.11.11,0,0,0,.06-.12C13.9,7.31,11.18,3.11,6.56,2.1a5.31,5.31,0,0,1,1.81-.37A12.44,12.44,0,0,1,18.8,6.65,14.23,14.23,0,0,1,20.92,18.21Z"/></g></g></svg>