<svg xmlns="http://www.w3.org/2000/svg" viewBox="0 0 30 30"><defs><style>.cls-1{fill:#4e0000;}.cls-2{fill:none;}</style></defs><title>search</title><g id="Layer_2" data-name="Layer 2"><g id="Capa_1" data-name="Capa 1"><path class="cls-1" d="M2.52,11.18a9,9,0,0,0,13.9,7.6L24.59,27a.66.66,0,0,0,.94,0l1.8-1.8a.66.66,0,0,0,0-.94l-8.17-8.17A9,9,0,0,0,5.16,4.8,9,9,0,0,0,2.52,11.18Zm15,6.74.08-.07.3-.28.27-.28.08-.09.06-.07,7.57,7.57-.86.86L17.49,18ZM3.84,11.18a7.7,7.7,0,1,1,13.91,4.56l-.08.11-.13.17-.09.11-.15.17-.08.09-.24.25-.26.24-.08.07-.2.17-.07.06a7.7,7.7,0,0,1-12.54-6Z"/><rect class="cls-2" width="30" height="30"/></g></g></svg>