<svg xmlns="http://www.w3.org/2000/svg" viewBox="0 0 30 30"><defs><style>.cls-1{fill:#4e0000;}</style></defs><title>search</title><g id="Layer_2" data-name="Layer 2"><g id="Capa_1" data-name="Capa 1"><path class="cls-1" d="M0,10.84A10.84,10.84,0,0,0,16.68,20l9.81,9.81a.8.8,0,0,0,1.13,0l2.16-2.16a.8.8,0,0,0,0-1.13L20,16.68A10.84,10.84,0,0,0,3.17,3.17,10.76,10.76,0,0,0,0,10.84Zm18,8.08.09-.08.36-.34.33-.34.1-.11L19,18,28.08,27l-1,1L18,19ZM1.59,10.84A9.24,9.24,0,0,1,17.37,4.3a9.25,9.25,0,0,1,.92,12l-.1.13-.16.2-.11.13-.18.2-.1.11-.28.3-.31.29-.09.08-.24.21-.09.07a9.24,9.24,0,0,1-15-7.19Z"/></g></g></svg>