<svg xmlns="http://www.w3.org/2000/svg" xmlns:xlink="http://www.w3.org/1999/xlink" viewBox="0 0 18.72 18.72"><defs><style>.cls-1{isolation:isolate;}.cls-2{fill:#665e49;}.cls-10,.cls-3,.cls-5,.cls-6,.cls-7,.cls-8,.cls-9{opacity:0.5;}.cls-10,.cls-11,.cls-3,.cls-5,.cls-6,.cls-7,.cls-8,.cls-9{mix-blend-mode:multiply;}.cls-3{fill:url(#linear-gradient);}.cls-4{fill:#fff;}.cls-5{fill:url(#linear-gradient-2);}.cls-6{fill:url(#linear-gradient-3);}.cls-7{fill:url(#linear-gradient-4);}.cls-8{fill:url(#linear-gradient-5);}.cls-9{fill:url(#linear-gradient-6);}.cls-10{fill:url(#linear-gradient-7);}.cls-11{opacity:0.4;fill:url(#linear-gradient-8);}</style><linearGradient id="linear-gradient" x1="16.02" y1="9.4" x2="17.57" y2="10.6" gradientUnits="userSpaceOnUse"><stop offset="0"/><stop offset="0.14" stop-color="#2e2e2e"/><stop offset="0.38" stop-color="#777"/><stop offset="0.59" stop-color="#b1b1b1"/><stop offset="0.77" stop-color="#dcdcdc"/><stop offset="0.92" stop-color="#f5f5f5"/><stop offset="1" stop-color="#fff"/></linearGradient><linearGradient id="linear-gradient-2" x1="7.07" y1="16.1" x2="7.87" y2="16.55" gradientUnits="userSpaceOnUse"><stop offset="0"/><stop offset="0.05" stop-color="#171717"/><stop offset="0.2" stop-color="#545454"/><stop offset="0.35" stop-color="#888"/><stop offset="0.5" stop-color="#b3b3b3"/><stop offset="0.64" stop-color="#d4d4d4"/><stop offset="0.77" stop-color="#ececec"/><stop offset="0.9" stop-color="#fafafa"/><stop offset="1" stop-color="#fff"/></linearGradient><linearGradient id="linear-gradient-3" x1="4.25" y1="4.32" x2="5.26" y2="4.76" gradientUnits="userSpaceOnUse"><stop offset="0"/><stop offset="0.02" stop-color="#060606"/><stop offset="0.3" stop-color="#5d5d5d"/><stop offset="0.55" stop-color="#a2a2a2"/><stop offset="0.76" stop-color="#d5d5d5"/><stop offset="0.91" stop-color="#f3f3f3"/><stop offset="1" stop-color="#fff"/></linearGradient><linearGradient id="linear-gradient-4" x1="2.53" y1="7.55" x2="2.88" y2="7.7" xlink:href="#linear-gradient-3"/><linearGradient id="linear-gradient-5" x1="16.33" y1="5.57" x2="16.68" y2="5.73" xlink:href="#linear-gradient-3"/><linearGradient id="linear-gradient-6" x1="14.44" y1="12.84" x2="14.8" y2="13" xlink:href="#linear-gradient-3"/><linearGradient id="linear-gradient-7" x1="10.62" y1="1.95" x2="10.98" y2="2.11" xlink:href="#linear-gradient-3"/><linearGradient id="linear-gradient-8" x1="5.17" y1="5.86" x2="14.4" y2="13.51" xlink:href="#linear-gradient-3"/></defs><title>defumado</title><g class="cls-1"><g id="Layer_2" data-name="Layer 2"><g id="Capa_1" data-name="Capa 1"><circle class="cls-2" cx="9.36" cy="9.36" r="9.36"/><polygon class="cls-3" points="16.49 10.3 17.62 11.09 18.03 10.43 16.66 9.44 16.49 9.58 16.31 9.87 16.49 10.3"/><path class="cls-4" d="M16.66,10.3,17,10V9.79l-.35-.35h-.16l-.35.35V10l.35.35Zm-.08-.61.18.18-.18.18-.18-.18Z"/><polygon class="cls-5" points="7.33 16.73 8 17.11 8.44 16.38 7.33 15.83 7.33 16.1 7.06 16.28 7.33 16.47 7.33 16.73"/><path class="cls-4" d="M7,16.37a.27.27,0,0,1,.27.27.09.09,0,1,0,.18,0,.27.27,0,0,1,.27-.27.09.09,0,0,0,0-.18.27.27,0,0,1-.27-.27.09.09,0,0,0-.18,0,.27.27,0,0,1-.27.27.09.09,0,1,0,0,.18Zm.36-.18.09.09-.09.09-.09-.09Z"/><polygon class="cls-6" points="4.52 4.72 5.47 5.28 5.74 4.69 4.59 4.05 4.52 4.72"/><path class="cls-4" d="M4.36,4.51h.12v.12a.12.12,0,1,0,.23,0V4.51h.12a.12.12,0,0,0,0-.23H4.71V4.16a.12.12,0,0,0-.23,0v.12H4.36a.12.12,0,1,0,0,.23Z"/><polygon class="cls-7" points="2.56 7.65 2.94 7.88 3.05 7.67 2.68 7.45 2.56 7.65"/><path class="cls-4" d="M2.62,7.67a.12.12,0,1,0-.12-.12A.11.11,0,0,0,2.62,7.67Z"/><polygon class="cls-8" points="16.36 5.68 16.74 5.91 16.85 5.69 16.48 5.48 16.36 5.68"/><path class="cls-4" d="M16.41,5.69a.12.12,0,1,0-.12-.12A.11.11,0,0,0,16.41,5.69Z"/><polygon class="cls-9" points="14.47 12.95 14.85 13.18 14.97 12.97 14.59 12.75 14.47 12.95"/><path class="cls-4" d="M14.53,13a.12.12,0,1,0-.12-.12A.11.11,0,0,0,14.53,13Z"/><polygon class="cls-10" points="10.65 2.06 11.03 2.29 11.15 2.07 10.77 1.86 10.65 2.06"/><path class="cls-4" d="M10.72,2.07A.12.12,0,1,0,10.6,2,.11.11,0,0,0,10.72,2.07Z"/><path class="cls-11" d="M6.07,12.27l7.43,5.49a9,9,0,0,0,3.19-2.57,12.81,12.81,0,0,0,1.84-3.91l-6.1-4.36H6.19s.8,1,.69,1.54-1.37,1.59-1.34,2.2A5.18,5.18,0,0,0,6.07,12.27Z"/><path class="cls-4" d="M9,9.39a2,2,0,0,0-.68,1.37A2.13,2.13,0,0,0,9,12.18a.29.29,0,0,0,.42,0,.29.29,0,0,0,0-.42,1.56,1.56,0,0,1-.5-1,1.32,1.32,0,0,1,.5-1,1.9,1.9,0,0,0,.68-1.37A2,2,0,0,0,9.37,7,.29.29,0,1,0,9,7.43a1.56,1.56,0,0,1,.5,1A1.32,1.32,0,0,1,9,9.39Z"/><path class="cls-4" d="M11.54,10.75a2.13,2.13,0,0,0,.68,1.43.27.27,0,0,0,.21.09.21.21,0,0,0,.18-.09.29.29,0,0,0,0-.42,1.56,1.56,0,0,1-.5-1,1.32,1.32,0,0,1,.5-1,1.84,1.84,0,0,0,.71-1.37A1.91,1.91,0,0,0,12.64,7a.29.29,0,0,0-.42.42,1.56,1.56,0,0,1,.5,1,1.38,1.38,0,0,1-.5,1A2,2,0,0,0,11.54,10.75Z"/><path class="cls-4" d="M5.3,10.75A2.13,2.13,0,0,0,6,12.18a.27.27,0,0,0,.21.09.21.21,0,0,0,.18-.09.29.29,0,0,0,0-.42,1.56,1.56,0,0,1-.5-1,1.32,1.32,0,0,1,.5-1,1.84,1.84,0,0,0,.71-1.37A1.91,1.91,0,0,0,6.4,7,.29.29,0,0,0,6,7.43a1.56,1.56,0,0,1,.5,1,1.38,1.38,0,0,1-.5,1A2,2,0,0,0,5.3,10.75Z"/></g></g></g></svg>