<svg xmlns="http://www.w3.org/2000/svg" viewBox="0 0 32.24 25.75"><defs><style>.cls-1{fill:none;stroke:#4e0000;stroke-linecap:round;stroke-linejoin:round;stroke-width:0.75px;}</style></defs><title>Coado</title><g id="Layer_2" data-name="Layer 2"><g id="Capa_1" data-name="Capa 1"><path class="cls-1" d="M21.88,11.74l2.87-5.28a14.07,14.07,0,0,1,1.61-2.15,2.52,2.52,0,0,1,1.33-.65,2.2,2.2,0,0,1,.36,0h0a2.3,2.3,0,0,1,2.1,2.28,3.13,3.13,0,0,1-1.76,2.3c-.93.57-1.77,1-2.08,1.15s-2.33,1.3-3.49,2.1a2.07,2.07,0,0,1-.89.44c-.16,0-.1-.16-.1-.16M1.06.57a.64.64,0,0,0-.68.62c0,.31.23.4.6.46A2.75,2.75,0,0,1,2.73,2.87c.59.88,4.25,8,5,9.49s3,5.7,3,5.7l-.34.93c-.08.23-.2.26-.2.26s-4.17.28-6,.51-2.75.65-2.86.91a1,1,0,0,0-.11.4.57.57,0,0,0,.28.48,7.13,7.13,0,0,0,2.41.68c.68.06,2.89.34,2.89.34a11.27,11.27,0,0,1,.31,1.36.75.75,0,0,0,.59.68,27.8,27.8,0,0,0,6.73.77c3.52,0,7.14-.46,7.39-.72a1.17,1.17,0,0,0,.25-.67c0-.06.08-.77.11-1l0-.2s4.07-.51,5-.77,1.64-.57,1.64-1-.06-.71-1.25-1a43.47,43.47,0,0,0-4.48-.57c-.43,0-2.33,0-2.33,0s-.49-1.15-.8-1.95a8.46,8.46,0,0,1-.43-1.84l.68-1.33s3.7-2,5.15-2.77,3.46-1.71,4-2C31,8.68,32.12,8,31.82,5.73a3.65,3.65,0,0,0-3.07-3.34l-.22,0a5,5,0,0,0-1.71.19h0s.57-.57.77-.6a5,5,0,0,0,1-.25.57.57,0,0,0,.28-.47.47.47,0,0,0-.25-.41C28.18.55,23.45.46,22.85.46S18.35.38,15.31.38,1.48.57,1.06.57"/><path class="cls-1" d="M10.75,18.06s-.31,1.68-1,2.14-2.25.62-2.25,1c0,.22,3.18,1,7.11,1s8.31-.49,8.23-1-1.48-1.08-2-1.87A6.19,6.19,0,0,1,20,17.4"/><path class="cls-1" d="M6.72,22.6a47.05,47.05,0,0,0,8.08.82,50.16,50.16,0,0,0,7.67-.64"/><path class="cls-1" d="M1,1.65s6.37.65,13.16.65S27.59,2,27.59,2"/><path class="cls-1" d="M6,4.11l7.42,15.58H14L12.31,4.37s-2.17.05-3.29.05A25.79,25.79,0,0,1,6,4.11Z"/><path class="cls-1" d="M23.42,4.11,16,19.69h-.58L17.06,4.37s2.17.05,3.29.05A25.79,25.79,0,0,0,23.42,4.11Z"/></g></g></svg>