<svg xmlns="http://www.w3.org/2000/svg" xmlns:xlink="http://www.w3.org/1999/xlink" viewBox="0 0 39.78 39.78"><defs><style>.cls-1{isolation:isolate;}.cls-2{fill:#96396f;}.cls-10,.cls-3,.cls-5,.cls-6,.cls-7,.cls-8,.cls-9{opacity:0.5;mix-blend-mode:multiply;}.cls-3{fill:url(#linear-gradient);}.cls-4{fill:#fff;}.cls-5{fill:url(#linear-gradient-2);}.cls-6{fill:url(#linear-gradient-3);}.cls-7{fill:url(#linear-gradient-4);}.cls-8{fill:url(#linear-gradient-5);}.cls-9{fill:url(#linear-gradient-6);}.cls-10{fill:url(#linear-gradient-7);}</style><linearGradient id="linear-gradient" x1="35.61" y1="20.05" x2="36.37" y2="20.38" gradientUnits="userSpaceOnUse"><stop offset="0"/><stop offset="0.02" stop-color="#060606"/><stop offset="0.3" stop-color="#5d5d5d"/><stop offset="0.55" stop-color="#a2a2a2"/><stop offset="0.76" stop-color="#d5d5d5"/><stop offset="0.91" stop-color="#f3f3f3"/><stop offset="1" stop-color="#fff"/></linearGradient><linearGradient id="linear-gradient-2" x1="31.26" y1="25.35" x2="33.44" y2="26.58" gradientUnits="userSpaceOnUse"><stop offset="0"/><stop offset="0.05" stop-color="#171717"/><stop offset="0.2" stop-color="#545454"/><stop offset="0.35" stop-color="#888"/><stop offset="0.5" stop-color="#b3b3b3"/><stop offset="0.64" stop-color="#d4d4d4"/><stop offset="0.77" stop-color="#ececec"/><stop offset="0.9" stop-color="#fafafa"/><stop offset="1" stop-color="#fff"/></linearGradient><linearGradient id="linear-gradient-3" x1="7.71" y1="11.11" x2="10.49" y2="12.32" xlink:href="#linear-gradient"/><linearGradient id="linear-gradient-4" x1="31.53" y1="9.64" x2="33.68" y2="10.58" xlink:href="#linear-gradient"/><linearGradient id="linear-gradient-5" x1="7.88" y1="27.41" x2="8.64" y2="27.74" xlink:href="#linear-gradient"/><linearGradient id="linear-gradient-6" x1="16.2" y1="5.84" x2="16.96" y2="6.17" xlink:href="#linear-gradient"/><linearGradient id="linear-gradient-7" x1="16.59" y1="13.66" x2="17.35" y2="13.99" xlink:href="#linear-gradient"/></defs><title>frutasVermelhas</title><g class="cls-1"><g id="Layer_2" data-name="Layer 2"><g id="Capa_1" data-name="Capa 1"><circle class="cls-2" cx="19.89" cy="19.89" r="19.89"/><polygon class="cls-3" points="35.68 20.28 36.48 20.77 36.73 20.32 35.93 19.86 35.68 20.28"/><path class="cls-4" d="M35.81,20.31a.25.25,0,1,0-.25-.25A.23.23,0,0,0,35.81,20.31Z"/><polygon class="cls-5" points="31.96 27.07 33.8 28.11 34.99 26.12 31.96 24.61 31.96 25.35 31.24 25.84 31.96 26.36 31.96 27.07"/><path class="cls-4" d="M31,26.09a.72.72,0,0,1,.74.74.25.25,0,0,0,.49,0,.72.72,0,0,1,.74-.74.25.25,0,0,0,0-.49.72.72,0,0,1-.74-.74.25.25,0,1,0-.49,0,.72.72,0,0,1-.74.74.25.25,0,1,0,0,.49Zm1-.49a1.16,1.16,0,0,0,.25.25,1.16,1.16,0,0,0-.25.25,1.17,1.17,0,0,0-.25-.25A1.17,1.17,0,0,0,32,25.6Z"/><polygon class="cls-6" points="8.69 12.35 10.96 13.68 11.74 12.26 9.04 10.53 8.18 11.44 8.69 12.35"/><path class="cls-4" d="M9,12.35l.74-.74v-.34L9,10.53H8.69L8,11.27v.34l.74.74ZM8.86,11l.39.39-.39.39-.39-.39Z"/><polygon class="cls-7" points="32.11 10.47 34.11 11.66 34.7 10.42 32.26 9.05 32.11 10.47"/><path class="cls-4" d="M31.77,10H32v.25a.25.25,0,1,0,.49,0V10h.25a.25.25,0,1,0,0-.49h-.25V9.3a.25.25,0,0,0-.49,0v.25h-.25a.25.25,0,1,0,0,.49Z"/><polygon class="cls-8" points="7.95 27.63 8.76 28.12 9 27.67 8.2 27.21 7.95 27.63"/><path class="cls-4" d="M8.08,27.67a.25.25,0,1,0-.25-.25A.23.23,0,0,0,8.08,27.67Z"/><polygon class="cls-9" points="16.27 6.07 17.08 6.56 17.32 6.1 16.52 5.64 16.27 6.07"/><path class="cls-4" d="M16.4,6.1a.25.25,0,1,0-.25-.25A.23.23,0,0,0,16.4,6.1Z"/><polygon class="cls-10" points="16.66 13.89 17.46 14.38 17.71 13.92 16.91 13.46 16.66 13.89"/><path class="cls-4" d="M16.79,13.92a.25.25,0,1,0-.25-.25A.23.23,0,0,0,16.79,13.92Z"/><path class="cls-4" d="M19.95,19.78v-.58a.4.4,0,0,0-.8,0v.58a.4.4,0,0,0,.8,0Z"/><path class="cls-4" d="M20.34,22.85a.4.4,0,0,0-.4.4v.58a.4.4,0,0,0,.8,0v-.58A.4.4,0,0,0,20.34,22.85Z"/><path class="cls-4" d="M16.49,21.22a.4.4,0,0,0-.4.4v.58a.4.4,0,0,0,.8,0v-.58A.4.4,0,0,0,16.49,21.22Z"/><path class="cls-4" d="M17.33,24.79a.4.4,0,0,0-.4.4v.58a.4.4,0,1,0,.8,0v-.58A.4.4,0,0,0,17.33,24.79Z"/><path class="cls-4" d="M23.64,24.22a.4.4,0,0,0-.4.4v.58a.4.4,0,1,0,.8,0v-.58A.4.4,0,0,0,23.64,24.22Z"/><path class="cls-4" d="M20.08,27.13a.4.4,0,0,0-.4.4v.58a.4.4,0,1,0,.8,0v-.58A.4.4,0,0,0,20.08,27.13Z"/><path class="cls-4" d="M23.56,21.76v-.58a.4.4,0,0,0-.8,0v.58a.4.4,0,1,0,.8,0Z"/><path class="cls-4" d="M25.51,18.23a.4.4,0,0,0-.4.4v.58a.4.4,0,0,0,.8,0v-.58A.4.4,0,0,0,25.51,18.23Z"/><path class="cls-4" d="M13.85,18.23a.4.4,0,0,0-.4.4v.58a.4.4,0,0,0,.8,0v-.58A.4.4,0,0,0,13.85,18.23Z"/><path class="cls-4" d="M27.54,16.29a3,3,0,0,0-2.48-1.73,1.41,1.41,0,0,0,.76-.76c.14-.45-.49-.69-.83-.83a14.33,14.33,0,0,0-1.39-.46c-1-.28-2-.51-2-.52a.4.4,0,0,0-.4.14c-.26.32-.63.73-.89,1,0-.21,0-.52,0-.75a4.74,4.74,0,0,1,.53-2.73.59.59,0,0,1,.51-.21.4.4,0,0,0,0-.8,1.4,1.4,0,0,0-1.15.47,5.2,5.2,0,0,0-.79,3.23h0v0h0c0,.22,0,.48,0,.68-.26-.27-.56-.62-.81-.94a.4.4,0,0,0-.4-.14s-1,.23-2,.52a14.41,14.41,0,0,0-1.39.46c-.34.14-1,.38-.83.83s.46.55.89.74a3,3,0,0,0-2.67,1.75c-.73,1.45-.89,4.28.85,7.9a16.19,16.19,0,0,0,4,5.75h0a4.52,4.52,0,0,0,2.77,1.18h.07a4.52,4.52,0,0,0,2.77-1.18h0a16.19,16.19,0,0,0,4-5.75C28.43,20.58,28.27,17.74,27.54,16.29Zm-9.37-3.46a6.7,6.7,0,0,0,1.36,1.37c0,.08.08.69.09.75a.4.4,0,0,0,.39.34h.06a.4.4,0,0,0,.34-.45c0-.13-.08-.58-.07-.66a6.53,6.53,0,0,0,1.31-1.35,24.39,24.39,0,0,1,3.1.91,14.31,14.31,0,0,1-2.19.58.4.4,0,0,0-.28.58,28.19,28.19,0,0,1,1.61,3.46c-.58-.35-1.59-1.11-2.19-1.56-1.33-1-1.53-1.13-1.76-1.13h-.06c-.23,0-.43.13-1.76,1.13-.6.46-1.61,1.21-2.19,1.56a28.17,28.17,0,0,1,1.61-3.46.4.4,0,0,0-.28-.58,14.3,14.3,0,0,1-2.19-.58A24.33,24.33,0,0,1,18.17,12.83Zm7.8,11a15.23,15.23,0,0,1-3.77,5.43,3.91,3.91,0,0,1-2.27,1.06h-.08a3.92,3.92,0,0,1-2.27-1.06,15.22,15.22,0,0,1-3.77-5.43c-1.61-3.35-1.47-6-.85-7.19a2.52,2.52,0,0,1,2.6-1.34h0l.63,0a.4.4,0,0,0,.18,0c-.14.37-.36.84-.56,1.27-.28.6-.49,1.09-.62,1.46-.2.57-.27,1,0,1.22a.5.5,0,0,0,.36.14h0c.47,0,1.32-.61,3-1.9.46-.35,1-.78,1.28-.93a.06.06,0,0,1,.07,0c.25.16.81.58,1.28.93,1.71,1.29,2.57,1.9,3,1.9h0a.5.5,0,0,0,.36-.14c.25-.25.18-.65,0-1.22-.13-.38-.34-.87-.62-1.46-.2-.43-.39-.87-.51-1.23h.08l.63,0h0a2.52,2.52,0,0,1,2.6,1.34C27.44,17.87,27.58,20.49,26,23.84Z"/></g></g></g></svg>