<svg xmlns="http://www.w3.org/2000/svg" xmlns:xlink="http://www.w3.org/1999/xlink" viewBox="0 0 18.72 18.72"><defs><style>.cls-1{isolation:isolate;}.cls-2{fill:#96396f;}.cls-3{opacity:0.3;fill:url(#linear-gradient);}.cls-10,.cls-11,.cls-3,.cls-4,.cls-6,.cls-7,.cls-8,.cls-9{mix-blend-mode:multiply;}.cls-10,.cls-11,.cls-4,.cls-6,.cls-7,.cls-8,.cls-9{opacity:0.5;}.cls-4{fill:url(#linear-gradient-2);}.cls-5{fill:#fff;}.cls-6{fill:url(#linear-gradient-3);}.cls-7{fill:url(#linear-gradient-4);}.cls-8{fill:url(#linear-gradient-5);}.cls-9{fill:url(#linear-gradient-6);}.cls-10{fill:url(#linear-gradient-7);}.cls-11{fill:url(#linear-gradient-8);}</style><linearGradient id="linear-gradient" x1="7.94" y1="8.34" x2="15.1" y2="13.08" gradientUnits="userSpaceOnUse"><stop offset="0"/><stop offset="0.02" stop-color="#060606"/><stop offset="0.3" stop-color="#5d5d5d"/><stop offset="0.55" stop-color="#a2a2a2"/><stop offset="0.76" stop-color="#d5d5d5"/><stop offset="0.91" stop-color="#f3f3f3"/><stop offset="1" stop-color="#fff"/></linearGradient><linearGradient id="linear-gradient-2" x1="16.76" y1="9.44" x2="17.12" y2="9.59" xlink:href="#linear-gradient"/><linearGradient id="linear-gradient-3" x1="14.71" y1="11.93" x2="15.74" y2="12.51" gradientUnits="userSpaceOnUse"><stop offset="0"/><stop offset="0.05" stop-color="#171717"/><stop offset="0.2" stop-color="#545454"/><stop offset="0.35" stop-color="#888"/><stop offset="0.5" stop-color="#b3b3b3"/><stop offset="0.64" stop-color="#d4d4d4"/><stop offset="0.77" stop-color="#ececec"/><stop offset="0.9" stop-color="#fafafa"/><stop offset="1" stop-color="#fff"/></linearGradient><linearGradient id="linear-gradient-4" x1="3.63" y1="5.23" x2="4.94" y2="5.8" xlink:href="#linear-gradient"/><linearGradient id="linear-gradient-5" x1="14.84" y1="4.54" x2="15.85" y2="4.98" xlink:href="#linear-gradient"/><linearGradient id="linear-gradient-6" x1="3.71" y1="12.9" x2="4.07" y2="13.05" xlink:href="#linear-gradient"/><linearGradient id="linear-gradient-7" x1="7.63" y1="2.75" x2="7.98" y2="2.9" xlink:href="#linear-gradient"/><linearGradient id="linear-gradient-8" x1="7.81" y1="6.43" x2="8.16" y2="6.58" xlink:href="#linear-gradient"/></defs><title>frutasVermelhas</title><g class="cls-1"><g id="Layer_2" data-name="Layer 2"><g id="Capa_1" data-name="Capa 1"><circle class="cls-2" cx="9.36" cy="9.36" r="9.36"/><path class="cls-3" d="M10.19,4.14,18.7,10A10.38,10.38,0,0,1,17,14.82a10,10,0,0,1-3.32,2.88l-4.78-3L6.52,11.86,5.74,9.39V8.12l.59-.85,1.24-.35-.87-.58L7.9,6l.64-.15.72.62V5.39l.38-1.12Z"/><polygon class="cls-4" points="16.79 9.54 17.17 9.78 17.29 9.56 16.91 9.35 16.79 9.54"/><path class="cls-5" d="M16.86,9.56a.12.12,0,1,0-.12-.12A.11.11,0,0,0,16.86,9.56Z"/><polygon class="cls-6" points="15.04 12.74 15.91 13.23 16.47 12.29 15.04 11.59 15.04 11.93 14.7 12.16 15.04 12.41 15.04 12.74"/><path class="cls-5" d="M14.58,12.28a.34.34,0,0,1,.35.35.12.12,0,0,0,.23,0,.34.34,0,0,1,.35-.35.12.12,0,0,0,0-.23.34.34,0,0,1-.35-.35.12.12,0,1,0-.23,0,.34.34,0,0,1-.35.35.12.12,0,0,0,0,.23ZM15,12a.55.55,0,0,0,.12.12.55.55,0,0,0-.12.12.55.55,0,0,0-.12-.12A.55.55,0,0,0,15,12Z"/><polygon class="cls-7" points="4.09 5.81 5.16 6.44 5.52 5.77 4.25 4.96 3.85 5.38 4.09 5.81"/><path class="cls-5" d="M4.25,5.81l.35-.35V5.3L4.25,5H4.09l-.35.35v.16l.35.35ZM4.17,5.2l.18.19-.18.18L4,5.39Z"/><polygon class="cls-8" points="15.11 4.93 16.05 5.49 16.33 4.9 15.19 4.26 15.11 4.93"/><path class="cls-5" d="M15,4.72h.12v.12a.12.12,0,1,0,.23,0V4.72h.12a.12.12,0,0,0,0-.23H15.3V4.38a.12.12,0,0,0-.23,0v.12H15a.12.12,0,1,0,0,.23Z"/><polygon class="cls-9" points="3.74 13.01 4.12 13.24 4.24 13.02 3.86 12.81 3.74 13.01"/><path class="cls-5" d="M3.8,13a.12.12,0,1,0-.12-.12A.11.11,0,0,0,3.8,13Z"/><polygon class="cls-10" points="7.66 2.86 8.04 3.09 8.15 2.87 7.78 2.66 7.66 2.86"/><path class="cls-5" d="M7.72,2.87a.12.12,0,1,0-.12-.12A.11.11,0,0,0,7.72,2.87Z"/><polygon class="cls-11" points="7.84 6.54 8.22 6.77 8.34 6.55 7.96 6.34 7.84 6.54"/><path class="cls-5" d="M7.9,6.55a.12.12,0,1,0-.12-.12A.11.11,0,0,0,7.9,6.55Z"/><path class="cls-5" d="M9.39,9.31V9A.19.19,0,1,0,9,9v.27a.19.19,0,1,0,.38,0Z"/><path class="cls-5" d="M9.57,10.75a.19.19,0,0,0-.19.19v.27a.19.19,0,0,0,.38,0v-.27A.19.19,0,0,0,9.57,10.75Z"/><path class="cls-5" d="M7.76,10a.19.19,0,0,0-.19.19v.27a.19.19,0,0,0,.38,0v-.27A.19.19,0,0,0,7.76,10Z"/><path class="cls-5" d="M8.16,11.67a.19.19,0,0,0-.19.19v.27a.19.19,0,1,0,.38,0v-.27A.19.19,0,0,0,8.16,11.67Z"/><path class="cls-5" d="M11.13,11.4a.19.19,0,0,0-.19.19v.27a.19.19,0,1,0,.38,0v-.27A.19.19,0,0,0,11.13,11.4Z"/><path class="cls-5" d="M9.45,12.77a.19.19,0,0,0-.19.19v.27a.19.19,0,1,0,.38,0V13A.19.19,0,0,0,9.45,12.77Z"/><path class="cls-5" d="M11.09,10.24V10a.19.19,0,0,0-.38,0v.27a.19.19,0,1,0,.38,0Z"/><path class="cls-5" d="M12,8.58a.19.19,0,0,0-.19.19V9a.19.19,0,0,0,.38,0V8.77A.19.19,0,0,0,12,8.58Z"/><path class="cls-5" d="M6.52,8.58a.19.19,0,0,0-.19.19V9a.19.19,0,0,0,.38,0V8.77A.19.19,0,0,0,6.52,8.58Z"/><path class="cls-5" d="M13,7.67a1.39,1.39,0,0,0-1.17-.81.66.66,0,0,0,.36-.36c.06-.21-.23-.33-.39-.39a6.73,6.73,0,0,0-.65-.22c-.46-.13-.94-.24-.94-.24a.19.19,0,0,0-.19.07c-.12.15-.3.35-.42.47,0-.1,0-.25,0-.35A2.23,2.23,0,0,1,9.8,4.55a.28.28,0,0,1,.24-.1.19.19,0,0,0,0-.38.66.66,0,0,0-.54.22,2.45,2.45,0,0,0-.37,1.52h0c0,.1,0,.22,0,.32C9,6,8.89,5.86,8.77,5.71a.19.19,0,0,0-.19-.07s-.48.11-.94.24A6.76,6.76,0,0,0,7,6.1c-.16.06-.45.18-.39.39s.22.26.42.35a1.41,1.41,0,0,0-1.26.82,4.44,4.44,0,0,0,.4,3.72A7.62,7.62,0,0,0,8,14.09H8a2.13,2.13,0,0,0,1.3.56h0a2.13,2.13,0,0,0,1.3-.56h0a7.62,7.62,0,0,0,1.88-2.71A4.44,4.44,0,0,0,13,7.67ZM8.55,6a3.15,3.15,0,0,0,.64.65l0,.35a.19.19,0,0,0,.19.16h0A.19.19,0,0,0,9.61,7c0-.06,0-.27,0-.31A3.08,3.08,0,0,0,10.19,6a11.49,11.49,0,0,1,1.46.43,6.74,6.74,0,0,1-1,.27.19.19,0,0,0-.13.27,13.27,13.27,0,0,1,.76,1.63c-.27-.16-.75-.52-1-.73-.63-.47-.72-.53-.83-.53h0c-.11,0-.2.06-.83.53-.28.21-.76.57-1,.73A13.28,13.28,0,0,1,8.26,7a.19.19,0,0,0-.13-.27,6.73,6.73,0,0,1-1-.27A11.45,11.45,0,0,1,8.55,6Zm3.67,5.18a7.17,7.17,0,0,1-1.78,2.55,1.84,1.84,0,0,1-1.07.5h0a1.84,1.84,0,0,1-1.07-.5A7.17,7.17,0,0,1,6.5,11.22a4.14,4.14,0,0,1-.4-3.38A1.18,1.18,0,0,1,7.32,7.2h.31l.08,0c-.07.18-.17.4-.26.6s-.23.51-.29.69S7,8.92,7.16,9a.24.24,0,0,0,.17.07h0c.22,0,.62-.29,1.43-.9.22-.17.48-.37.6-.44h0c.12.07.38.27.6.44.81.61,1.21.9,1.43.9h0A.23.23,0,0,0,11.59,9c.12-.12.08-.31,0-.57s-.16-.41-.29-.69-.18-.41-.24-.58h.35a1.18,1.18,0,0,1,1.22.63A4.14,4.14,0,0,1,12.22,11.22Z"/></g></g></g></svg>